<svg width="30" height="30" viewBox="0 0 30 30" fill="none" xmlns="http://www.w3.org/2000/svg">
<path d="M6.65674 1.74561V5.13965M22.4956 1.74561V5.13965M1 25.5039V8.53369C1 6.65921 2.51957 5.13965 4.39404 5.13965H24.7583C26.6328 5.13965 28.1523 6.65921 28.1523 8.53369V25.5039M1 25.5039C1 27.3784 2.51957 28.8979 4.39404 28.8979H24.7583C26.6328 28.8979 28.1523 27.3784 28.1523 25.5039M1 25.5039V14.1904C1 12.316 2.51957 10.7964 4.39404 10.7964H24.7583C26.6328 10.7964 28.1523 12.316 28.1523 14.1904V25.5039M14.5762 16.4531H14.5882V16.4652H14.5762V16.4531ZM14.5762 19.8472H14.5882V19.8592H14.5762V19.8472ZM14.5762 23.2412H14.5882V23.2533H14.5762V23.2412ZM11.1821 19.8472H11.1942V19.8592H11.1821V19.8472ZM11.1821 23.2412H11.1942V23.2533H11.1821V23.2412ZM7.78809 19.8472H7.80015V19.8592H7.78809V19.8472ZM7.78809 23.2412H7.80015V23.2533H7.78809V23.2412ZM17.9702 16.4531H17.9823V16.4652H17.9702V16.4531ZM17.9702 19.8472H17.9823V19.8592H17.9702V19.8472ZM17.9702 23.2412H17.9823V23.2533H17.9702V23.2412ZM21.3643 16.4531H21.3763V16.4652H21.3643V16.4531ZM21.3643 19.8472H21.3763V19.8592H21.3643V19.8472Z" stroke="#158B68" stroke-width="2" stroke-linecap="round" stroke-linejoin="round"/>
</svg>
