<svg width="35" height="35" viewBox="0 0 50 50" fill="none" xmlns="http://www.w3.org/2000/svg">
<path d="M47.4684 30.2239C46.8128 30.2239 46.1841 30.4844 45.7204 30.9481C45.2569 31.4116 44.9964 32.0405 44.9964 32.6961V42.584C44.9964 43.2396 44.7359 43.8685 44.2724 44.332C43.8088 44.7956 43.1801 45.0559 42.5245 45.0559H7.91649C7.26086 45.0559 6.63211 44.7956 6.16852 44.332C5.70493 43.8685 5.44448 43.2396 5.44448 42.584V32.6961C5.44448 32.0405 5.18405 31.4116 4.72046 30.9481C4.25686 30.4844 3.6281 30.2239 2.97249 30.2239C2.31688 30.2239 1.68811 30.4844 1.22452 30.9481C0.760929 31.4116 0.500488 32.0405 0.500488 32.6961V42.584C0.500488 44.5509 1.28181 46.4372 2.67259 47.8279C4.06334 49.2187 5.94964 50 7.91649 50H42.5245C44.4912 50 46.3777 49.2187 47.7683 47.8279C49.1592 46.4372 49.9405 44.5509 49.9405 42.584V32.6961C49.9405 32.0405 49.68 31.4116 49.2165 30.9481C48.7528 30.4844 48.1241 30.2239 47.4684 30.2239ZM23.4654 34.4511C23.7005 34.6761 23.9776 34.8526 24.2811 34.9702C24.577 35.1011 24.897 35.1686 25.2204 35.1686C25.5439 35.1686 25.8639 35.1011 26.1598 34.9702C26.4633 34.8526 26.7405 34.6761 26.9756 34.4511L36.8635 24.5631C37.329 24.0976 37.5906 23.4663 37.5906 22.808C37.5906 22.1498 37.329 21.5185 36.8635 21.053C36.3981 20.5874 35.7669 20.326 35.1085 20.326C34.4501 20.326 33.8189 20.5874 33.3533 21.053L27.6925 26.7384V3.03205C27.6925 2.37644 27.432 1.74768 26.9685 1.28409C26.5048 0.820501 25.8761 0.560059 25.2204 0.560059C24.5648 0.560059 23.9361 0.820501 23.4724 1.28409C23.0089 1.74768 22.7484 2.37644 22.7484 3.03205V26.7384L17.0876 21.053C16.8571 20.8225 16.5835 20.6395 16.2823 20.5149C15.9812 20.3902 15.6584 20.326 15.3325 20.326C15.0065 20.326 14.6838 20.3902 14.3826 20.5149C14.0815 20.6395 13.8078 20.8225 13.5774 21.053C13.3469 21.2834 13.164 21.5571 13.0393 21.8582C12.9146 22.1592 12.8504 22.482 12.8504 22.808C12.8504 23.1341 12.9146 23.4569 13.0393 23.7579C13.164 24.059 13.3469 24.3327 13.5774 24.5631L23.4654 34.4511Z" fill="#158B68"/>
</svg>
