<svg width="45" height="50" viewBox="0 0 60 60" fill="none" xmlns="http://www.w3.org/2000/svg">
<path d="M48.6103 51.0232C44.2034 45.1886 37.3127 41.7616 30.0009 41.7683C22.689 41.7616 15.7983 45.1886 11.3915 51.0232M11.3915 51.0232C2.70721 43.2987 -0.301706 31.0122 3.83052 20.149C7.96275 9.28584 18.3767 2.10522 29.9993 2.10522C41.6219 2.10522 52.0359 9.28584 56.1681 20.149C60.3003 31.0122 57.2914 43.2987 48.6072 51.0232C43.4867 55.5906 36.8623 58.1103 30.0009 58.1005C23.1383 58.111 16.5127 55.5913 11.3915 51.0232ZM39.3336 23.1029C39.3336 28.2572 35.1552 32.4356 30.0009 32.4356C24.8465 32.4356 20.6682 28.2572 20.6682 23.1029C20.6682 17.9486 24.8465 13.7702 30.0009 13.7702C35.1552 13.7702 39.3336 17.9486 39.3336 23.1029Z" stroke="#158B68" stroke-width="3" stroke-linecap="round" stroke-linejoin="round"/>
</svg>
