<svg width="31" height="25" viewBox="0 0 31 25" fill="none" xmlns="http://www.w3.org/2000/svg">
<path d="M1.17274 12.7813C1.07426 12.4853 1.07426 12.1654 1.17274 11.8694C3.15211 5.91417 8.77053 1.61865 15.3922 1.61865C22.011 1.61865 27.6266 5.90989 29.6102 11.8623C29.7101 12.1577 29.7101 12.4773 29.6102 12.7742C27.6323 18.7294 22.0139 23.0249 15.3922 23.0249C8.77339 23.0249 3.15781 18.7337 1.17417 12.7813L1.17274 12.7813Z" stroke="#158B68" stroke-width="2" stroke-linecap="round" stroke-linejoin="round"/>
<path d="M19.6731 12.3218C19.6731 14.6862 17.7563 16.603 15.3918 16.603C13.0274 16.603 11.1106 14.6862 11.1106 12.3218C11.1106 9.95731 13.0274 8.04053 15.3918 8.04053C17.7563 8.04053 19.6731 9.95731 19.6731 12.3218Z" stroke="#158B68" stroke-width="2" stroke-linecap="round" stroke-linejoin="round"/>
</svg>
