<svg width="32" height="33" viewBox="0 0 32 33" fill="none" xmlns="http://www.w3.org/2000/svg">
<path d="M21.6728 5.78945C24.2099 5.78945 26.2667 7.84623 26.2667 10.3834M30.8606 10.3834C30.8606 13.0974 29.662 15.6714 27.5858 17.4171C25.5109 19.1623 22.7695 19.9017 20.097 19.4365C19.2349 19.288 18.3222 19.4763 17.7036 20.095L13.6333 24.1652H10.1879V27.6107H6.74243V31.0561H1V26.7409C1 25.8267 1.36292 24.9493 2.00914 24.3046L11.9612 14.3526C12.5798 13.7339 12.7682 12.8212 12.6196 11.9591C12.0275 8.54009 13.4121 5.07913 16.199 3.0119C18.986 0.944675 22.6998 0.623863 25.7999 2.18254C28.9001 3.74122 30.8577 6.91347 30.8606 10.3834Z" stroke="#158B68" stroke-width="2" stroke-linecap="round" stroke-linejoin="round"/>
</svg>
