<svg width="20" height="20" viewBox="0 0 29 27" fill="none" xmlns="http://www.w3.org/2000/svg">
<path d="M14.1971 1.5359C14.3205 1.23491 14.6135 1.03833 14.9388 1.03833C15.2641 1.03833 15.5572 1.23491 15.6806 1.5359L18.7117 8.82632C18.8274 9.10445 19.089 9.29445 19.3893 9.31843L27.2602 9.94891C27.972 10.006 28.2601 10.8946 27.7181 11.3582L21.7214 16.4962C21.493 16.6916 21.3929 16.9981 21.4618 17.2907L23.2948 24.9719C23.3701 25.2871 23.2483 25.6166 22.9862 25.807C22.724 25.9974 22.373 26.0112 22.0966 25.8421L15.3568 21.7268C15.1002 21.5701 14.7775 21.5701 14.5209 21.7268L7.78107 25.8435C7.50471 26.0126 7.15369 25.9988 6.89151 25.8084C6.62933 25.618 6.50754 25.2885 6.58288 24.9734L8.41583 17.2907C8.48513 16.9981 8.3849 16.6914 8.15622 16.4962L2.15956 11.3582C1.9126 11.1477 1.81692 10.8091 1.9172 10.5004C2.01747 10.1918 2.29391 9.97408 2.61744 9.94891L10.4884 9.31843C10.7887 9.29445 11.0503 9.10444 11.166 8.82632L14.1971 1.53733V1.5359Z" stroke="#158B68" stroke-width="2" stroke-linecap="round" stroke-linejoin="round"/>
</svg>
