<svg width="160" height="150" viewBox="0 0 225 240" fill="none" xmlns="http://www.w3.org/2000/svg">
<path d="M106.878 5.4811L11.3428 38.7299C4.13741 41.238 -0.34909 48.4326 0.575238 56.011L15.8618 181.347C16.4942 186.552 19.6077 191.125 24.2132 193.633L104.484 237.266C109.332 239.898 115.187 239.887 120.024 237.239L200.846 192.941C205.425 190.433 208.517 185.866 209.149 180.682L224.425 55.4164C225.355 47.7948 220.814 40.5677 213.544 38.0974L117.424 5.44326C114.003 4.28109 110.289 4.2919 106.878 5.4811Z" fill="url(#paint0_linear_1_8785)"/>
<path d="M213.155 58.4596L198.776 176.622C198.344 180.082 196.29 183.109 193.209 184.784L117.587 225.271C115.965 226.136 114.236 226.514 112.506 226.514C112.236 226.514 112.019 226.46 111.749 226.46C110.29 226.406 108.83 226.028 107.425 225.271L31.8028 185.487C28.7758 183.811 26.6676 180.73 26.2352 177.271L11.8568 59.0001C11.2081 53.9731 14.2352 49.1622 18.9919 47.4866L108.83 15.7567C109.803 15.4324 110.776 15.2162 111.749 15.2162C112.019 15.1621 112.236 15.1621 112.506 15.1621C113.695 15.1621 114.884 15.3783 116.073 15.7567C124.614 18.8378 149.587 27.8108 205.912 46.892C210.722 48.5676 213.803 53.3785 213.155 58.4596Z" fill="url(#paint1_linear_1_8785)"/>
<path d="M42.3057 176.622H66.1382L112.506 76.6436V25.2488L42.3057 176.622Z" fill="white"/>
<path d="M80.0732 122.568H112.506V144.19H80.0732V122.568Z" fill="white"/>
<path d="M213.155 58.4596L198.776 176.622C198.344 180.082 196.29 183.109 193.209 184.784L117.587 225.271C115.965 226.136 114.236 226.514 112.506 226.514V15.1621C113.695 15.1621 114.884 15.3783 116.073 15.7567C124.614 18.8378 149.587 27.8108 205.912 46.892C210.722 48.5676 213.804 53.3785 213.155 58.4596Z" fill="#B31523"/>
<path d="M112.506 25.2703V76.6651L158.874 176.644H182.706L112.506 25.2703Z" fill="#BFC8D1"/>
<path d="M112.506 122.59H144.938V144.211H112.506V122.59Z" fill="#BFC8D1"/>
<path opacity="0.05" d="M112.506 25.2488V25.2704L182.706 176.644H158.874L143.83 144.211H112.506V144.19H81.1815L66.1382 176.622H42.3057L112.506 25.2488ZM91.2086 122.568H112.506V122.59H133.803L112.506 76.6652V76.6435L91.2086 122.568ZM117.911 0.767578L107.603 22.9731L37.403 174.347L33.8408 182.028H42.3057H66.1382H69.5923L71.0464 178.898L84.6302 149.595H107.101L112.506 149.617H140.382L153.971 178.92L155.425 182.049H158.879H182.712H191.177L187.614 174.368L117.911 24.0758V0.767578ZM99.6735 117.163L112.501 89.503L125.338 117.184H117.911L112.506 117.163H99.6735Z" fill="black"/>
<path opacity="0.07" d="M112.506 25.2488V25.2705L182.706 176.644H158.874L143.83 144.211H112.506V144.19H81.1815L66.1382 176.622H42.3057L112.506 25.2488ZM91.2086 122.568H112.506V122.59H133.803L112.506 76.6652V76.6436L91.2086 122.568ZM115.209 13.0164L110.052 24.1083L39.8516 175.487L38.0732 179.325H42.3057H66.1382H67.8625L68.5869 177.758L82.9004 146.893H109.803L112.506 146.914H142.106L156.42 177.779L157.144 179.347H158.868H182.701H186.933L185.155 175.509L115.209 24.6759V13.0164ZM95.441 119.865L112.501 83.0761L129.571 119.887H115.209L112.506 119.865H95.441Z" fill="black"/>
<defs>
<linearGradient id="paint0_linear_1_8785" x1="87.4729" y1="26.6541" x2="87.4729" y2="227.822" gradientUnits="userSpaceOnUse">
<stop offset="1" stop-color="#BFC8D1"/>
<stop offset="0.391" stop-color="#D6E0E9"/>
<stop stop-color="#DFE9F2"/>
</linearGradient>
<linearGradient id="paint1_linear_1_8785" x1="62.1373" y1="68.0001" x2="62.1373" y2="68.0001" gradientUnits="userSpaceOnUse">
<stop offset="1" stop-color="#E52030"/>
<stop offset="0.443" stop-color="#EE3D4A"/>
<stop stop-color="#F44F5A"/>
</linearGradient>
</defs>
</svg>
