<svg width="20" height="20" viewBox="0 0 30 27" fill="none" xmlns="http://www.w3.org/2000/svg">
<path d="M9.1444 16.6155H4.81609C3.39547 16.6155 2.12301 15.6546 1.97208 14.2409C1.90926 13.6499 1.87783 13.056 1.87793 12.4617C1.87793 8.51827 3.25147 4.89612 5.54578 2.04796C6.08301 1.38058 6.91239 1.03858 7.76809 1.03858H13.3287C13.9983 1.03817 14.6636 1.1457 15.299 1.35704L19.6107 2.79704C20.2461 3.00838 20.9114 3.11591 21.581 3.1155H23.3727C23.2675 2.61012 23.6261 2.07704 24.1689 2.07704H25.4261C26.657 2.07704 27.7979 2.79427 28.1566 3.97119C28.626 5.50812 28.878 7.13781 28.878 8.82704C28.878 10.9774 28.4695 13.0307 27.7273 14.9166C27.3036 15.9883 26.2236 16.6155 25.0716 16.6155H23.6136C22.9601 16.6155 22.5821 15.8457 22.9213 15.2863C23.0698 15.042 23.2097 14.7926 23.3409 14.5386M9.1444 16.6155C10.0001 16.6155 10.5166 17.618 10.1482 18.3906C9.48678 19.7827 9.14476 21.305 9.14717 22.8463C9.14717 24.5669 10.542 25.9617 12.2626 25.9617C12.8361 25.9617 13.301 25.4967 13.301 24.9232V24.0467C13.301 23.2534 13.4533 22.4683 13.7469 21.7317C14.1678 20.6794 15.0346 19.8901 16.0356 19.357C17.5725 18.537 18.9212 17.4052 19.9956 16.034C20.6852 15.1561 21.6932 14.5386 22.8092 14.5386H23.3409M9.1444 16.6155H12.1933M23.3409 14.5386C24.2256 12.8286 24.7241 10.886 24.7241 8.82704C24.7241 6.85119 24.2644 4.98196 23.4433 3.32042C23.4115 3.25396 23.3879 3.18473 23.3741 3.1155" stroke="#158B68" stroke-width="2" stroke-linecap="round" stroke-linejoin="round"/>
</svg>
