<svg width="100" height="110" viewBox="0 0 124 144" fill="none" xmlns="http://www.w3.org/2000/svg">
<path d="M83.0773 95.06C85.0889 94.6289 86.4939 92.8887 86.6696 90.8929H86.6855C86.7813 89.8232 86.9569 88.7695 87.2124 87.7317H87.1804C87.388 86.9973 87.4199 86.199 87.2443 85.3848C86.6855 82.7983 84.1949 81.1539 81.7042 81.6967C79.8043 82.1118 78.4312 83.6764 78.1438 85.5444C78.1279 85.6562 78.1119 85.7519 78.08 85.8638C77.8085 87.0611 77.601 88.2905 77.4892 89.5359C77.3934 90.1266 77.4094 90.7493 77.5371 91.3879C78.0959 93.9584 80.5707 95.6028 83.0773 95.06ZM61.9546 110.515C48.1123 110.515 36.8564 99.259 36.8564 85.4167C36.8564 82.8781 37.2396 80.3874 37.974 77.9926C38.7564 75.4701 41.4386 74.0491 43.9612 74.8314C46.4838 75.6138 47.9047 78.296 47.1224 80.8185C46.6594 82.3034 46.4359 83.8521 46.4359 85.4167C46.4359 93.9744 53.397 100.935 61.9546 100.935C65.0679 100.935 68.0695 100.025 70.624 98.285C72.8113 96.8002 75.7969 97.375 77.2817 99.5783C78.7665 101.766 78.1917 104.751 75.9885 106.236C71.8374 109.03 66.9838 110.515 61.9546 110.515Z" fill="#00BD7E"/>
<path d="M44.0254 38.6372C44.0254 54.1033 56.5632 66.6411 72.0293 66.6411C87.4954 66.6411 100.033 54.1033 100.033 38.6372C100.033 23.1711 87.4954 10.6333 72.0293 10.6333C56.5632 10.6333 44.0254 23.1711 44.0254 38.6372Z" fill="#FFB89A"/>
<path d="M61.9543 9.57944C68.2927 9.57944 74.2639 12.0541 78.7343 16.5245C83.2207 21.0109 85.6794 26.9661 85.6794 33.3045C85.6794 39.6429 83.2047 45.6141 78.7343 50.0845C74.2479 54.5709 68.2927 57.0296 61.9543 57.0296C55.6159 57.0296 49.6447 54.5549 45.1743 50.0845C40.6879 45.5981 38.2292 39.6429 38.2292 33.3045C38.2292 26.9661 40.7039 20.9949 45.1743 16.5245C49.6447 12.0541 55.6159 9.57944 61.9543 9.57944ZM61.9543 0C43.5458 0 28.6338 14.912 28.6338 33.3205C28.6338 51.729 43.5458 66.641 61.9543 66.641C80.3628 66.641 95.2748 51.729 95.2748 33.3205C95.2748 14.912 80.3628 0 61.9543 0Z" fill="#1F3B60"/>
<path d="M61.843 81.7128C68.9317 81.7128 75.9407 82.9102 82.6942 85.2731C88.841 87.4285 94.7004 90.5577 99.6498 94.3416C104.248 97.8541 108.016 101.877 110.538 105.965C112.774 109.573 113.955 113.085 113.955 116.119C113.955 118.546 113.205 120.462 111.544 122.33C109.533 124.581 106.308 126.576 101.965 128.285C92.5611 131.973 78.6868 133.921 61.843 133.921C44.9991 133.921 31.1249 131.973 21.7211 128.285C17.3784 126.576 14.1533 124.581 12.1416 122.33C10.4812 120.462 9.7308 118.546 9.7308 116.119C9.7308 113.085 10.9123 109.589 13.1475 105.965C15.686 101.877 19.4539 97.8541 24.0361 94.3416C28.9855 90.5577 34.8449 87.4285 40.9917 85.2731C47.7612 82.9102 54.7701 81.7128 61.843 81.7128ZM61.843 72.1333C27.7721 72.1333 0.151367 96.4172 0.151367 116.119C0.151367 135.821 27.7721 143.5 61.843 143.5C95.9138 143.5 123.535 135.821 123.535 116.119C123.535 96.4172 95.9298 72.1333 61.843 72.1333Z" fill="#1F3B60"/>
</svg>
