<svg width="100" height="120" viewBox="0 0 133 145" fill="none" xmlns="http://www.w3.org/2000/svg">
<path d="M75.3797 125.425C67.3011 125.425 30.8832 96.6871 30.8832 61.2592C30.8832 51.8713 30.4202 40.0088 30.7235 31.8982C22.6129 32.4091 16.1309 39.1945 16.1309 47.4329V90.8756C22.1021 121.961 38.0838 144.201 56.8754 144.201C67.9716 144.201 78.0939 136.442 85.7574 123.685C82.4366 124.819 78.9561 125.425 75.3797 125.425Z" fill="#FFB89A"/>
<path d="M132.202 21.6163C128.115 2.82463 114.927 0.908737 96.886 0.908737C92.24 0.908737 87.2587 1.03647 82.0378 1.03647C76.2902 1.03647 70.782 0.86084 65.673 0.86084C48.1586 0.86084 35.37 2.85655 33.5339 20.6105C30.2769 52.2705 38.3237 119.135 82.4051 119.135C126.486 119.135 134.262 57.14 132.202 21.6163ZM119.925 64.4843C118.408 72.1319 116.364 78.9812 113.842 84.8725C111.159 91.1311 107.934 96.272 104.262 100.168C98.307 106.474 91.1543 109.54 82.3891 109.54C73.8634 109.54 66.8065 106.33 60.8513 99.7047C53.5869 91.642 48.1107 78.7097 45.0452 62.3129C42.5546 48.9816 41.8042 33.7502 43.0655 21.5684C43.3529 18.8063 43.9756 16.6669 44.9176 15.214C45.62 14.1284 46.53 13.346 47.9031 12.6914C52.0223 10.6957 59.2069 10.4243 65.689 10.4243C68.0838 10.4243 70.5904 10.4562 73.2407 10.5042C76.0826 10.552 79.0203 10.5999 82.0538 10.5999C84.7999 10.5999 87.4662 10.568 90.0367 10.5361C92.4475 10.5042 94.7147 10.4722 96.9179 10.4722C104.023 10.4722 111.207 10.7596 115.758 12.883C118.296 14.0645 121.09 16.2039 122.719 22.9415C123.134 31.4512 123.293 47.4488 119.925 64.4843Z" fill="#1F3B60"/>
<path d="M69.2808 125.378C64.0919 128.938 58.009 130.758 51.2076 130.758C46.4658 130.758 42.0592 129.8 38.0997 127.932C34.3957 126.176 30.963 123.558 27.8976 120.157C20.5534 112.03 15.0771 99.1939 12.0596 83.0525C9.64879 70.1841 8.93033 55.4477 10.1437 43.6491C10.6227 38.9392 12.0596 35.6343 14.5343 33.5587C16.8014 31.6428 20.1383 30.4933 25.0398 29.9026C27.6741 29.5832 29.5421 27.2044 29.2387 24.586C28.9194 21.9517 26.5405 20.0837 23.9221 20.387C17.0728 21.2013 12.1394 23.0533 8.37152 26.2145C3.91708 29.9665 1.37852 35.3469 0.628141 42.6592C-0.681056 55.32 0.0853019 71.0942 2.65578 84.8087C4.20447 93.095 6.39177 100.679 9.13787 107.352C12.2991 115.032 16.2267 121.498 20.7929 126.575C29.0312 135.707 39.2652 140.338 51.2236 140.338C60.0047 140.338 67.9077 137.959 74.7251 133.281C76.9124 131.78 77.4553 128.794 75.9545 126.623C74.4537 124.436 71.4681 123.877 69.2808 125.378Z" fill="#1F3B60"/>
<path d="M67.317 30.6689C64.6667 30.6689 62.5273 32.8083 62.5273 35.4587V50.0354C62.5273 52.6857 64.6667 54.8251 67.317 54.8251C69.9674 54.8251 72.1068 52.6857 72.1068 50.0354V35.4587C72.1068 32.8083 69.9514 30.6689 67.317 30.6689ZM32.1605 52.542C32.1605 49.8917 30.0211 47.7523 27.3708 47.7523C24.7205 47.7523 22.5811 49.8917 22.5811 52.542V67.1187C22.5811 69.769 24.7205 71.9084 27.3708 71.9084C30.0211 71.9084 32.1605 69.769 32.1605 67.1187V52.542ZM104.821 30.6689C102.17 30.6689 100.031 32.8083 100.031 35.4587V50.0354C100.031 52.6857 102.17 54.8251 104.821 54.8251C107.471 54.8251 109.61 52.6857 109.61 50.0354V35.4587C109.61 32.8083 107.471 30.6689 104.821 30.6689ZM98.7696 79.5241C98.7696 76.8738 96.6301 74.7344 93.9798 74.7344H72.3143V79.5241C72.3143 88.864 78.3973 99.2737 87.1305 99.2737C90.7867 99.2737 94.3151 97.3738 97.0612 93.9092C98.7057 91.8337 98.3544 88.8162 96.2789 87.1876C94.2034 85.5432 91.1859 85.8944 89.5573 87.97C88.7112 89.0397 87.7851 89.7103 87.1465 89.7103C86.46 89.7103 85.2466 88.896 84.097 87.0919C83.5702 86.2457 83.1072 85.3037 82.756 84.3138H93.9958C96.6142 84.3138 98.7696 82.1744 98.7696 79.5241ZM48.4615 103.393C44.4062 103.393 41.1013 99.5291 41.1013 94.7873C41.1013 92.137 38.9619 89.9976 36.3116 89.9976C33.6613 89.9976 31.5219 92.137 31.5219 94.7873C31.5219 104.814 39.1216 112.972 48.4615 112.972C51.1118 112.972 53.2513 110.833 53.2513 108.183C53.2513 105.532 51.0959 103.393 48.4615 103.393Z" fill="#00BD7E"/>
</svg>
