<svg width="100" height="120" viewBox="0 0 133 143" fill="none" xmlns="http://www.w3.org/2000/svg">
<path d="M99.0026 111.275H83.3243C80.6739 111.275 78.5345 113.415 78.5345 116.065C78.5345 118.715 80.6739 120.855 83.3243 120.855H99.0026C101.653 120.855 103.792 118.715 103.792 116.065C103.792 113.415 101.653 111.275 99.0026 111.275ZM62.8242 111.275H8.49286C5.84253 111.275 3.70312 113.415 3.70312 116.065C3.70312 118.715 5.84253 120.855 8.49286 120.855H62.8242C65.4745 120.855 67.614 118.715 67.614 116.065C67.614 113.415 65.4746 111.275 62.8242 111.275Z" fill="#00BD7E"/>
<path d="M118.841 10.3438L129.306 20.809L120.048 30.0664L109.583 19.601L118.841 10.3438Z" fill="#FFB89A"/>
<path d="M103.745 142.201H16.2684C7.69481 142.201 0.717773 135.224 0.717773 126.65V17.4928C0.717773 8.91916 7.69481 1.94214 16.2684 1.94214H83.1968C85.8471 1.94214 87.9865 4.08154 87.9865 6.73187C87.9865 9.38217 85.8471 11.5216 83.1968 11.5216H16.2684C12.9795 11.5216 10.2972 14.2038 10.2972 17.4928V126.65C10.2972 129.939 12.9795 132.622 16.2684 132.622H103.745C107.034 132.622 109.716 129.939 109.716 126.65V63.5858C109.716 60.9355 111.855 58.7961 114.506 58.7961C117.156 58.7961 119.295 60.9355 119.295 63.5858V126.666C119.295 135.224 112.318 142.201 103.745 142.201Z" fill="#1F3B60"/>
<path d="M129.928 9.07889L123.67 2.82031C119.838 -1.01146 113.276 -0.676179 109.029 3.57071L51.9834 60.6322L40.4082 92.3402L72.1161 80.781L129.178 23.7194C131.11 21.7876 132.307 19.2969 132.546 16.6945C132.834 13.8047 131.86 11.0267 129.928 9.07889ZM66.8475 72.4948L56.4538 76.2786L60.2377 65.8849L102.499 23.6237L109.029 30.2814L66.8475 72.4948ZM122.408 16.95L115.814 23.5438L109.284 16.8861L115.814 10.3561C116.309 9.86121 116.804 9.73349 117.028 9.73349L123.031 15.7366C123.015 15.9442 122.887 16.4551 122.408 16.95Z" fill="#1F3B60"/>
</svg>
