<svg width="100" height="120" viewBox="0 0 145 124" fill="none" xmlns="http://www.w3.org/2000/svg">
<path d="M128.125 41.5417H25.3375C19.526 41.5417 14.7842 36.7838 14.7842 30.9883V26.2465C14.7842 20.4349 19.542 15.6931 25.3375 15.6931H128.125C133.936 15.6931 138.678 20.4509 138.678 26.2465V30.9883C138.678 36.7838 133.921 41.5417 128.125 41.5417Z" fill="#FFB89A"/>
<path d="M121.898 0.892822H22.4159C10.0903 0.892822 0 10.9832 0 23.3087V101.094C0 113.419 10.0903 123.51 22.4159 123.51H121.898C134.224 123.51 144.314 113.419 144.314 101.094V23.3087C144.314 10.9832 134.224 0.892822 121.898 0.892822ZM134.735 29.1522H111.92L128.556 12.3562C129.418 12.8831 130.217 13.5217 130.951 14.2402C133.394 16.6829 134.735 19.892 134.735 23.3087L134.735 29.1522ZM27.2376 29.1522L43.8419 10.4723H53.6289L36.2103 29.1522H27.2376ZM66.7368 10.4723H93.7508L75.4541 29.1522H49.3182L66.7368 10.4723ZM106.46 10.4723H116.933L98.4447 29.1522H88.8653L106.827 10.8235L106.46 10.4723ZM13.3474 14.2561C15.7901 11.8134 18.9992 10.4723 22.4159 10.4723H31.0214L14.4171 29.1522H9.56348V23.3247C9.57944 19.908 10.9206 16.6989 13.3474 14.2561ZM130.951 110.162C128.508 112.605 125.299 113.946 121.882 113.946H22.4159C19.0152 113.946 15.7901 112.605 13.3474 110.162C10.9046 107.72 9.56347 104.51 9.56347 101.094V38.7316H134.719V101.094C134.735 104.494 133.394 107.72 130.951 110.162Z" fill="#1F3B60"/>
<path d="M54.459 103.297V49.0615L75.7892 61.3712C78.0723 62.6963 78.8706 65.618 77.5454 67.9171C76.2202 70.2002 73.2986 70.9985 70.9995 69.6733L64.0384 65.6499V86.6928L82.2553 76.1714L81.0579 75.4848C78.7748 74.1597 77.9765 71.2379 79.3017 68.9389C80.6268 66.6558 83.5486 65.8575 85.8476 67.1826L101.414 76.1714L54.459 103.297Z" fill="#00BD7E"/>
</svg>
