<svg width="100" height="139" viewBox="0 0 118 139" fill="none" xmlns="http://www.w3.org/2000/svg">
<path d="M64.2695 60.8199H53.0631L47.46 67.0146L53.0631 73.2248H64.2695L69.8727 67.0146L64.2695 60.8199Z" fill="#DC444A"/>
<path d="M64.8302 74.4701H52.5187L45.7949 67.0147L52.5187 59.5593H64.8302L71.554 67.0147L64.8302 74.4701ZM53.6238 71.9798H63.7252L68.2077 67.0147L63.7252 62.0497H53.6238L49.1413 67.0147L53.6238 71.9798Z" fill="#0A0408"/>
<path d="M58.6664 129.879L74.62 112.681L64.5965 73.2092H52.752L42.7129 112.681L58.6664 129.879Z" fill="white"/>
<path d="M58.667 131.716L41.3438 113.039L51.7875 71.9797H65.562L76.0057 113.039L58.667 131.716ZM44.0831 112.323L58.667 128.043L73.2509 112.323L63.6165 74.439H53.7175L44.0831 112.323Z" fill="#0A0408"/>
<path d="M58.6672 121.179L69.9358 109.039L62.854 81.1938H54.4959L47.4141 109.039L58.6672 121.179Z" fill="#DC444A"/>
<path d="M32.627 27.2942C32.627 41.6753 44.2851 53.3334 58.6663 53.3334C73.0473 53.3334 84.7056 41.6753 84.7056 27.2942C84.7056 12.9131 73.0473 1.25488 58.6663 1.25488C44.2851 1.25488 32.627 12.9131 32.627 27.2942Z" fill="#EBB866"/>
<path d="M58.6663 54.5631C43.631 54.5631 31.3818 42.3294 31.3818 27.2786C31.3818 12.2278 43.631 0.00976562 58.6663 0.00976562C73.7015 0.00976562 85.9507 12.2434 85.9507 27.2942C85.9507 42.345 73.7171 54.5631 58.6663 54.5631ZM58.6663 2.50008C45.0007 2.50008 33.8722 13.6131 33.8722 27.2942C33.8722 40.9753 44.9851 52.0883 58.6663 52.0883C72.3318 52.0883 83.4604 40.9753 83.4604 27.2942C83.4604 13.6131 72.3318 2.50008 58.6663 2.50008Z" fill="#0A0408"/>
<path d="M115.975 137.755H1.3584V90.3768C1.3584 80.8513 19.4443 67.9329 28.9697 67.9329L58.6511 110.47L88.3324 67.9329C97.8579 67.9329 115.944 80.8358 115.944 90.3768V137.755H115.975Z" fill="white"/>
<path d="M117.22 139H0.113281V90.3768C0.113281 83.6218 7.61536 77.0848 10.8372 74.5945C17.0474 69.7851 24.1759 66.6877 28.9853 66.6877H29.639L58.6823 108.291L87.7255 66.6877H88.3792C93.1886 66.6877 100.317 69.7851 106.527 74.5945C109.749 77.0848 117.251 83.6063 117.251 90.3768V139H117.22ZM2.60359 136.51H114.73V90.3768C114.73 86.4546 111.088 81.2872 104.986 76.5712C99.4611 72.3065 93.282 69.4738 89.0018 69.2092L58.6667 112.665L28.3472 69.2092C24.0669 69.4738 17.8879 72.3065 12.3625 76.5712C6.26125 81.2872 2.61916 86.4546 2.61916 90.3769V136.51H2.60359Z" fill="#0A0408"/>
<path d="M47.6312 129.397H11.584V99.5909C11.584 93.5986 16.4401 85.474 22.448 85.474H29.4986L47.6468 112.245V129.397H47.6312ZM68.3942 129.397H104.457V99.5909C104.457 93.5986 99.6009 85.474 93.593 85.474H86.5423L68.3942 112.229V129.397Z" fill="#55B7A8"/>
<path d="M59.9122 134.704H57.4219V132.339H59.9122V134.704ZM59.9122 129.848H57.4219V127.358H59.9122V129.848ZM59.9122 124.868H57.4219V122.377H59.9122V124.868ZM59.9122 119.887H57.4219V117.397H59.9122V119.887ZM59.9122 114.906H57.4219V112.416H59.9122V114.906ZM59.9122 109.926H57.4219V107.435H59.9122V109.926Z" fill="#0A0408"/>
</svg>
