<svg width="100" height="139" viewBox="0 0 118 139" fill="none" xmlns="http://www.w3.org/2000/svg">
<path d="M47.4915 76.3376H49.9819V78.8279H47.4915V76.3376ZM45.0013 78.8279H42.5109V76.3376H45.0013V78.8279ZM40.0362 78.8279H37.5459V76.3376H40.0362V78.8279ZM35.0556 78.8279H32.5653V76.3376H35.0556V78.8279ZM30.075 78.8279H27.5846V76.3376H30.075V78.8279ZM25.0943 78.8279H22.604V76.3376H25.0943V78.8279ZM20.1137 78.8279H17.6234V76.3376H20.1137V78.8279ZM15.1487 78.8279H12.6584V76.3376H15.1487V78.8279ZM7.67773 76.3376H10.168V78.8279H7.67773V76.3376ZM10.168 73.894H7.67773V71.4504H10.168V73.894ZM10.168 68.9912H7.67773V66.5476H10.168V68.9912ZM10.168 64.0884H7.67773V61.6448H10.168V64.0884ZM10.168 59.1856H7.67773V56.742H10.168V59.1856ZM10.168 54.2829H7.67773V51.8393H10.168V54.2829ZM10.168 49.3801H7.67773V46.9364H10.168V49.3801ZM10.168 44.4773H7.67773V42.0337H10.168V44.4773ZM10.168 39.5745H7.67773V37.1309H10.168V39.5745ZM10.168 34.6717H7.67773V32.2281H10.168V34.6717ZM10.168 29.7845H7.67773V27.3409H10.168V29.7845ZM7.67773 22.3914H10.168V24.8817H7.67773V22.3914ZM45.0013 24.8817H42.5109V22.3914H45.0013V24.8817ZM40.0362 24.8817H37.5459V22.3914H40.0362V24.8817ZM35.0556 24.8817H32.5653V22.3914H35.0556V24.8817ZM30.075 24.8817H27.5846V22.3914H30.075V24.8817ZM25.0943 24.8817H22.604V22.3914H25.0943V24.8817ZM20.1137 24.8817H17.6234V22.3914H20.1137V24.8817ZM15.1487 24.8817H12.6584V22.3914H15.1487V24.8817ZM47.4915 22.3914H49.9819V24.8817H47.4915V22.3914ZM49.9819 73.894H47.4915V71.4504H49.9819V73.894ZM49.9819 68.9912H47.4915V66.5476H49.9819V68.9912ZM49.9819 64.0884H47.4915V61.6448H49.9819V64.0884ZM49.9819 59.1856H47.4915V56.742H49.9819V59.1856ZM49.9819 54.2829H47.4915V51.8393H49.9819V54.2829ZM49.9819 49.3801H47.4915V46.9364H49.9819V49.3801ZM49.9819 44.4773H47.4915V42.0337H49.9819V44.4773ZM49.9819 39.5745H47.4915V37.1309H49.9819V39.5745ZM49.9819 34.6717H47.4915V32.2281H49.9819V34.6717ZM49.9819 29.7845H47.4915V27.3409H49.9819V29.7845ZM118.808 91.6219H121.298V94.1122H118.808V91.6219ZM116.333 94.1122H113.843V91.6219H116.333V94.1122ZM111.352 94.1122H108.862V91.6219H111.352V94.1122ZM106.372 94.1122H103.882V91.6219H106.372V94.1122ZM101.391 94.1122H98.9009V91.6219H101.391V94.1122ZM96.4106 94.1122H93.9202V91.6219H96.4106V94.1122ZM91.4455 94.1122H88.9552V91.6219H91.4455V94.1122ZM86.4649 94.1122H83.9746V91.6219H86.4649V94.1122ZM78.994 91.6219H81.4843V94.1122H78.994V91.6219ZM81.4843 89.1627H78.994V86.7191H81.4843V89.1627ZM81.4843 84.2755H78.994V81.8319H81.4843V84.2755ZM81.4843 79.3727H78.994V76.9291H81.4843V79.3727ZM81.4843 74.4699H78.994V72.0263H81.4843V74.4699ZM81.4843 69.5671H78.994V67.1235H81.4843V69.5671ZM81.4843 64.6643H78.994V62.2207H81.4843V64.6643ZM81.4843 59.7615H78.994V57.3179H81.4843V59.7615ZM81.4843 54.8587H78.994V52.4151H81.4843V54.8587ZM81.4843 49.9559H78.994V47.5123H81.4843V49.9559ZM81.4843 45.0531H78.994V42.6096H81.4843V45.0531ZM78.994 37.6601H81.4843V40.1504H78.994V37.6601ZM116.333 40.1504H113.843V37.6601H116.333V40.1504ZM111.352 40.1504H108.862V37.6601H111.352V40.1504ZM106.372 40.1504H103.882V37.6601H106.372V40.1504ZM101.391 40.1504H98.9009V37.6601H101.391V40.1504ZM96.4106 40.1504H93.9202V37.6601H96.4106V40.1504ZM91.4455 40.1504H88.9552V37.6601H91.4455V40.1504ZM86.4649 40.1504H83.9746V37.6601H86.4649V40.1504ZM118.808 37.6601H121.298V40.1504H118.808V37.6601ZM121.298 89.1627H118.808V86.7191H121.298V89.1627ZM121.298 84.2755H118.808V81.8319H121.298V84.2755ZM121.298 79.3727H118.808V76.9291H121.298V79.3727ZM121.298 74.4699H118.808V72.0263H121.298V74.4699ZM121.298 69.5671H118.808V67.1235H121.298V69.5671ZM121.298 64.6643H118.808V62.2207H121.298V64.6643ZM121.298 59.7615H118.808V57.3179H121.298V59.7615ZM121.298 54.8587H118.808V52.4151H121.298V54.8587ZM121.298 49.9559H118.808V47.5123H121.298V49.9559ZM121.298 45.0531H118.808V42.6096H121.298V45.0531Z" fill="#0A0408"/>
<path d="M23.3662 2.11084H106.107V84.8513H23.3662V2.11084Z" fill="white"/>
<path d="M107.352 86.0965H22.1211V0.865723H107.352V86.0965ZM24.6114 83.6062H104.862V3.35603H24.6114V83.6062Z" fill="#0A0408"/>
<path d="M32.4248 11.1694H97.0327V75.7774H32.4248V11.1694Z" fill="#55B7A8"/>
<path d="M45.6237 22.4069H76.0211V24.8972H45.6237V22.4069ZM44.7988 38.0647H84.6749V40.555H44.7988V38.0647ZM44.7988 54.0027H84.6749V56.493H44.7988V54.0027Z" fill="#0A0408"/>
<path d="M120.161 128.214H9.2959L1.51367 63.5592H127.944L120.161 128.214Z" fill="white"/>
<path d="M121.267 129.459H8.19122L0.113281 62.3141H129.36L121.267 129.459ZM10.4014 126.969H119.057L126.543 64.8044H2.91488L10.4014 126.969Z" fill="#0A0408"/>
<path d="M110.947 120.198H18.5255L12.0352 71.5593H117.438L110.947 120.198Z" fill="#F4BE6F"/>
<path d="M8.92285 84.8981H32.9388V87.3884H8.92285V84.8981ZM8.92285 97.0695H49.1258V99.5598H8.92285V97.0695Z" fill="white"/>
<path d="M116.1 34.9518H124.022V42.8741H116.1V34.9518Z" fill="#DC444A"/>
<path d="M125.267 44.1193H114.854V33.7067H125.267V44.1193ZM117.345 41.629H122.777V36.197H117.345V41.629Z" fill="#0A0408"/>
<path d="M4.9541 19.6987H12.8764V27.621H4.9541V19.6987Z" fill="#DC444A"/>
<path d="M14.1216 28.8661H3.70898V18.4535H14.1216V28.8661ZM6.1993 26.3758H11.6313V20.9438H6.1993V26.3758Z" fill="#0A0408"/>
</svg>
