<svg width="100" height="139" viewBox="0 0 118 139" fill="none" xmlns="http://www.w3.org/2000/svg">
<path d="M1.35841 69.2461C1.3584 104.98 30.3262 133.947 66.0597 133.947C101.793 133.947 130.761 104.98 130.761 69.2461C130.761 33.5126 101.793 4.5448 66.0597 4.5448C30.3262 4.5448 1.35842 33.5126 1.35841 69.2461Z" fill="white"/>
<path d="M66.0598 135.193C57.1569 135.193 48.5187 133.449 40.394 130.01C32.534 126.694 25.4833 121.932 19.4287 115.877C13.3742 109.823 8.61146 102.772 5.29623 94.9119C1.85649 86.7872 0.113281 78.149 0.113281 69.2461C0.113281 60.3433 1.85649 51.705 5.29623 43.5804C8.61146 35.7204 13.3742 28.6697 19.4287 22.6151C25.4833 16.5606 32.534 11.7979 40.394 8.48264C48.5187 5.04289 57.1569 3.29968 66.0598 3.29968C74.9626 3.29968 83.6009 5.04289 91.7255 8.48264C99.5856 11.7979 106.636 16.5606 112.691 22.6151C118.745 28.6697 123.508 35.7204 126.823 43.5804C130.263 51.705 132.006 60.3433 132.006 69.2461C132.006 78.149 130.263 86.7872 126.823 94.9119C123.508 102.772 118.745 109.823 112.691 115.877C106.636 121.932 99.5856 126.694 91.7255 130.01C83.6009 133.449 74.9626 135.193 66.0598 135.193ZM66.0598 5.78999C57.4993 5.78999 49.1879 7.47094 41.359 10.7706C33.8103 13.9613 27.0242 18.5372 21.1875 24.3739C15.3664 30.195 10.7905 36.9811 7.58421 44.5454C4.26899 52.3743 2.60358 60.6701 2.60358 69.2461C2.60358 77.8066 4.28455 86.118 7.58421 93.9469C10.7749 101.496 15.3509 108.282 21.1875 114.118C27.0086 119.939 33.7947 124.515 41.359 127.722C49.1879 131.037 57.4838 132.702 66.0598 132.702C74.6358 132.702 82.9316 131.021 90.7605 127.722C98.3093 124.531 105.095 119.955 110.932 114.118C116.769 108.282 121.329 101.511 124.535 93.9469C127.851 86.118 129.516 77.8222 129.516 69.2461C129.516 60.6857 127.835 52.3743 124.535 44.5454C121.345 36.9967 116.769 30.2106 110.932 24.3739C105.111 18.5528 98.3248 13.9769 90.7605 10.7706C82.9472 7.47095 74.6358 5.78999 66.0598 5.78999Z" fill="#0A0408"/>
<path d="M14.4482 69.2462C14.4482 97.7505 37.5556 120.858 66.0599 120.858C94.5642 120.858 117.672 97.7505 117.672 69.2462C117.672 40.7418 94.5642 17.6345 66.0599 17.6345C37.5556 17.6345 14.4482 40.7418 14.4482 69.2462Z" fill="#55B7A8"/>
<path d="M66.0757 135.193C66.0601 135.193 66.0601 135.193 66.0757 135.193C65.7021 135.193 65.313 135.177 64.9395 135.146L65.1418 132.671C65.4531 132.702 65.7644 132.702 66.0757 132.702C66.5114 132.702 66.9473 132.671 67.3831 132.624L67.6633 135.099C67.1185 135.161 66.5893 135.193 66.0757 135.193ZM62.2624 134.679C61.4219 134.446 60.5659 134.134 59.7409 133.761L60.7838 131.504C61.4842 131.831 62.2001 132.095 62.9161 132.282L62.2624 134.679ZM70.2936 134.554L69.5777 132.173C70.2781 131.955 70.994 131.675 71.6944 131.333L72.7995 133.558C71.9746 133.963 71.1341 134.305 70.2936 134.554ZM57.4063 132.469C56.6903 132.002 55.9899 131.473 55.2895 130.897L56.8771 128.982C57.4997 129.496 58.1223 129.963 58.7604 130.368L57.4063 132.469ZM75.0875 132.22L73.6866 130.165C74.3092 129.745 74.9318 129.263 75.5388 128.733L77.1731 130.617C76.4883 131.208 75.7879 131.737 75.0875 132.22ZM53.3751 129.122C52.7837 128.531 52.2077 127.877 51.6318 127.208L53.5463 125.605C54.0755 126.228 54.6047 126.835 55.1494 127.379L53.3751 129.122ZM79.0564 128.827L77.2509 127.099C77.7801 126.539 78.3093 125.932 78.8385 125.309L80.7685 126.881C80.2082 127.566 79.6323 128.22 79.0564 128.827ZM50.0599 125.169C49.5774 124.5 49.0948 123.784 48.6124 123.052L50.7136 121.714C51.1494 122.414 51.6163 123.084 52.0677 123.706L50.0599 125.169ZM82.3249 124.827L80.286 123.379C80.7374 122.741 81.1887 122.072 81.6245 121.371L83.7413 122.694C83.2744 123.441 82.7918 124.157 82.3249 124.827ZM47.305 120.873C46.9003 120.157 46.4956 119.395 46.0909 118.632L48.3166 117.496C48.6902 118.227 49.0793 118.959 49.4684 119.644L47.305 120.873ZM85.0331 120.5L82.8541 119.286C83.2432 118.601 83.6168 117.869 83.9903 117.138L86.216 118.259C85.8425 119.021 85.4378 119.784 85.0331 120.5ZM44.9858 116.344C44.6434 115.597 44.301 114.819 43.9742 114.025L46.2777 113.06C46.589 113.823 46.9314 114.57 47.2582 115.301L44.9858 116.344ZM87.3211 115.955L85.0487 114.928C85.3755 114.196 85.7024 113.449 86.0137 112.686L88.3172 113.636C87.9904 114.414 87.6635 115.208 87.3211 115.955ZM43.0247 111.659C42.729 110.881 42.4488 110.087 42.1687 109.278L44.5189 108.469C44.7835 109.247 45.0637 110.025 45.3594 110.772L43.0247 111.659ZM89.2511 111.27L86.9164 110.398C87.1966 109.636 87.4768 108.873 87.7413 108.079L90.1071 108.873C89.827 109.698 89.5312 110.492 89.2511 111.27ZM41.3749 106.881C41.1259 106.087 40.8768 105.278 40.6589 104.468L43.0558 103.784C43.2893 104.577 43.5228 105.371 43.7563 106.134L41.3749 106.881ZM90.8698 106.492L88.4884 105.76C88.7219 104.982 88.9554 104.188 89.1888 103.395L91.5858 104.064C91.3523 104.873 91.1188 105.698 90.8698 106.492ZM39.9897 102.04C39.7873 101.247 39.585 100.422 39.3827 99.5968L41.8107 99.0365C41.9975 99.8458 42.1998 100.64 42.4021 101.433L39.9897 102.04ZM92.2395 101.636L89.827 101.029C90.0293 100.235 90.2161 99.4411 90.4029 98.6318L92.8309 99.1921C92.6441 100.001 92.4418 100.826 92.2395 101.636ZM38.8535 97.122C38.6823 96.3127 38.511 95.4878 38.3554 94.6473L40.799 94.1804C40.9547 94.9897 41.1103 95.7991 41.2815 96.5928L38.8535 97.122ZM93.3601 96.7174L90.9165 96.2193C91.0877 95.4255 91.2433 94.6161 91.3834 93.8068L93.827 94.2582C93.6869 95.0831 93.5313 95.908 93.3601 96.7174ZM37.9196 92.1881C37.7795 91.3787 37.655 90.5383 37.5305 89.6978L39.9897 89.3398C40.1142 90.1492 40.2387 90.9741 40.3788 91.7834L37.9196 92.1881ZM94.2784 91.7679L91.8192 91.3632C91.9437 90.5694 92.0683 89.7445 92.1927 88.9196L94.652 89.2776C94.543 90.118 94.4029 90.9585 94.2784 91.7679ZM37.1881 87.2075C37.0791 86.3826 36.9857 85.5421 36.8924 84.7172L39.3671 84.4526C39.4605 85.2775 39.5539 86.0869 39.6472 86.8962L37.1881 87.2075ZM94.9944 86.7873L92.5196 86.476C92.613 85.6666 92.7064 84.8417 92.7998 84.0168L95.2745 84.2814C95.1812 85.1374 95.0877 85.9779 94.9944 86.7873ZM36.6433 82.2113C36.5655 81.3864 36.5032 80.5459 36.441 79.7054L38.9313 79.5342C38.9935 80.3591 39.0558 81.1841 39.1336 81.9934L36.6433 82.2113ZM95.508 81.7911L93.0333 81.5732C93.1111 80.7482 93.1733 79.9233 93.22 79.114L95.7103 79.2852C95.6481 80.1101 95.5858 80.9506 95.508 81.7911ZM36.2853 77.1996C36.2386 76.3746 36.2075 75.5186 36.1764 74.6937L38.6667 74.6003C38.6978 75.4252 38.729 76.2501 38.7756 77.0595L36.2853 77.1996ZM95.866 76.7793L93.3757 76.6548C93.4223 75.8454 93.4535 75.005 93.4846 74.1801L95.9749 74.2579C95.9438 75.0984 95.8971 75.9544 95.866 76.7793ZM36.1141 72.1723C36.0986 71.3318 36.083 70.4913 36.083 69.6664H38.5733C38.5733 70.4913 38.5889 71.3162 38.6044 72.1411L36.1141 72.1723ZM96.0216 71.752L93.5313 71.7053C93.5469 70.8804 93.5469 70.0555 93.5469 69.2306V68.4057L96.0372 68.3901V69.2306C96.0527 70.0866 96.0372 70.9271 96.0216 71.752ZM38.5889 67.1916L36.0986 67.1605C36.1141 66.32 36.1297 65.4796 36.1608 64.6546L38.6511 64.7325C38.62 65.5262 38.5889 66.3667 38.5889 67.1916ZM93.5157 65.9621C93.5002 65.1371 93.4691 64.3122 93.4379 63.4873L95.9283 63.3939C95.9594 64.2188 95.9905 65.0749 96.006 65.8998L93.5157 65.9621ZM38.729 62.2422L36.2386 62.1176C36.2853 61.2772 36.332 60.4367 36.3787 59.6118L38.869 59.7674C38.8223 60.5923 38.7756 61.4328 38.729 62.2422ZM93.3289 61.0281C93.2823 60.2032 93.22 59.3783 93.1733 58.569L95.6636 58.3822C95.7259 59.2071 95.7881 60.0476 95.8348 60.8881L93.3289 61.0281ZM39.0558 57.3238L36.581 57.1215C36.6433 56.281 36.7211 55.4405 36.8145 54.6156L39.2892 54.8646C39.2115 55.674 39.1336 56.4989 39.0558 57.3238ZM92.9554 56.0942C92.8776 55.2693 92.7998 54.4444 92.7064 53.635L95.1812 53.3549C95.2745 54.1798 95.3524 55.0203 95.4302 55.8608L92.9554 56.0942ZM39.5539 52.4054L37.0791 52.1097C37.1725 51.2848 37.2814 50.4443 37.406 49.6194L39.8652 49.9618C39.7718 50.7712 39.6628 51.5961 39.5539 52.4054ZM92.4107 51.1914C92.3017 50.3821 92.1927 49.5571 92.0683 48.7478L94.5274 48.3743C94.6519 49.1992 94.7609 50.0396 94.8699 50.8645L92.4107 51.1914ZM40.2387 47.5182L37.7795 47.1291C37.9196 46.3042 38.0597 45.4637 38.1998 44.6544L40.6434 45.0901C40.5189 45.8995 40.3788 46.7089 40.2387 47.5182ZM91.6791 46.3197C91.5391 45.5104 91.399 44.6855 91.2433 43.8917L93.6869 43.4248C93.8426 44.2341 93.9983 45.0746 94.1383 45.8995L91.6791 46.3197ZM41.1259 42.6777L38.6823 42.1796C38.8535 41.3547 39.0247 40.5298 39.2115 39.7204L41.6395 40.2652C41.4527 41.059 41.2815 41.8683 41.1259 42.6777ZM90.7608 41.4792C90.5897 40.6699 90.4029 39.8605 90.2161 39.0823L92.6441 38.5064C92.8309 39.3158 93.0177 40.1407 93.2045 40.9656L90.7608 41.4792ZM42.1998 37.8683L39.7873 37.2612C39.9897 36.4363 40.2076 35.627 40.4254 34.8176L42.8224 35.4869C42.6201 36.2651 42.4022 37.0745 42.1998 37.8683ZM89.6246 36.6854C89.4067 35.8916 89.1888 35.0822 88.971 34.3196L91.3679 33.6347C91.6013 34.4285 91.8192 35.2534 92.0371 36.0628L89.6246 36.6854ZM43.5228 33.1211L41.1414 32.3896C41.3905 31.5802 41.6395 30.7709 41.9041 29.9771L44.2699 30.7709C44.0053 31.5491 43.7563 32.3429 43.5228 33.1211ZM88.255 31.9694C88.006 31.1911 87.7414 30.3973 87.4768 29.6347L89.827 28.8098C90.1071 29.588 90.3717 30.3973 90.6208 31.2067L88.255 31.9694ZM45.0793 28.4674L42.7446 27.6113C43.0403 26.8175 43.3516 26.0237 43.6473 25.2455L45.9508 26.1794C45.6552 26.9265 45.3594 27.6891 45.0793 28.4674ZM86.6207 27.3312C86.325 26.5685 86.0137 25.8058 85.7024 25.0587L87.9904 24.0938C88.3172 24.8564 88.6285 25.6502 88.9398 26.444L86.6207 27.3312ZM46.9158 23.9381L44.6434 22.9264C44.9859 22.1482 45.3594 21.37 45.7174 20.6229L47.9586 21.728C47.6007 22.4284 47.2427 23.1755 46.9158 23.9381ZM84.7063 22.833C84.3639 22.0859 83.9903 21.3544 83.6324 20.6384L85.8425 19.4867C86.2316 20.2182 86.6052 20.9809 86.9631 21.7591L84.7063 22.833ZM49.0637 19.5645L46.8847 18.366C47.305 17.6034 47.7252 16.8719 48.161 16.1559L50.2778 17.4633C49.8731 18.1326 49.4684 18.833 49.0637 19.5645ZM82.465 18.5061C82.0447 17.7902 81.6245 17.1053 81.1887 16.4361L83.2744 15.082C83.7257 15.7823 84.1771 16.5139 84.6129 17.261L82.465 18.5061ZM51.6163 15.4244L49.5774 14.008C50.0754 13.292 50.5891 12.5916 51.1026 11.9379L53.0482 13.4944C52.5657 14.1014 52.0833 14.7551 51.6163 15.4244ZM79.8191 14.4594C79.3365 13.8057 78.8229 13.1675 78.3249 12.5761L80.2081 10.9574C80.7529 11.5955 81.2977 12.2648 81.8113 12.9807L79.8191 14.4594ZM54.6047 11.6733L52.7837 9.99239C53.3907 9.33867 54.0132 8.73166 54.6358 8.17136L56.3012 10.0235C55.7253 10.5216 55.165 11.0819 54.6047 11.6733ZM76.7061 10.8329C76.1303 10.257 75.5388 9.72778 74.9474 9.26085L76.5038 7.31529C77.1575 7.8445 77.8112 8.42038 78.4494 9.05852L76.7061 10.8329ZM58.1223 8.54491L56.6747 6.52153C57.4218 5.99232 58.1689 5.52539 58.9316 5.13629L60.0833 7.34644C59.4452 7.68884 58.7759 8.09354 58.1223 8.54491ZM73.033 7.90675C72.3637 7.48651 71.6789 7.12852 70.994 6.83281L71.9746 4.54483C72.7683 4.88725 73.5622 5.3075 74.3404 5.77443L73.033 7.90675ZM62.2001 6.4437L61.4063 4.07791C62.2779 3.78218 63.1495 3.57985 64.0367 3.45532L64.3947 5.91451C63.6632 6.02345 62.9161 6.19467 62.2001 6.4437ZM68.8461 6.1324C68.1146 5.9612 67.3675 5.85225 66.6204 5.82112L66.7449 3.33081C67.6321 3.3775 68.5348 3.50201 69.422 3.71992L68.8461 6.1324Z" fill="#0A0408"/>
<path d="M128.38 70.4913H125.889V68.0009H128.38V70.4913ZM123.399 70.4913H120.909V68.0009H123.399V70.4913ZM118.419 70.4913H115.928V68.0009H118.419V70.4913ZM113.438 70.4913H110.948V68.0009H113.438V70.4913ZM108.457 70.4913H105.967V68.0009H108.457V70.4913ZM103.477 70.4913H100.986V68.0009H103.477V70.4913ZM98.4961 70.4913H96.0058V68.0009H98.4961V70.4913ZM93.5154 70.4913H91.0252V68.0009H93.5154V70.4913ZM88.5349 70.4913H86.0445V68.0009H88.5349V70.4913ZM83.5542 70.4913H81.0639V68.0009H83.5542V70.4913ZM78.5736 70.4913H76.0833V68.0009H78.5736V70.4913ZM73.593 70.4913H71.1027V68.0009H73.593V70.4913ZM68.6124 70.4913H66.1221V68.0009H68.6124V70.4913ZM63.6318 70.4913H61.1414V68.0009H63.6318V70.4913ZM58.6511 70.4913H56.1608V68.0009H58.6511V70.4913ZM53.6705 70.4913H51.1802V68.0009H53.6705V70.4913ZM48.6899 70.4913H46.1996V68.0009H48.6899V70.4913ZM43.7093 70.4913H41.219V68.0009H43.7093V70.4913ZM38.7287 70.4913H36.2384V68.0009H38.7287V70.4913ZM33.748 70.4913H31.2577V68.0009H33.748V70.4913ZM28.7674 70.4913H26.2771V68.0009H28.7674V70.4913ZM23.7868 70.4913H21.2965V68.0009H23.7868V70.4913ZM18.8062 70.4913H16.3159V68.0009H18.8062V70.4913ZM13.8256 70.4913H11.3353V68.0009H13.8256V70.4913ZM8.84495 70.4913H6.35465V68.0009H8.84495V70.4913ZM3.86433 70.4913H1.37402V68.0009H3.86433V70.4913ZM121.329 38.5219H120.364V36.0316H121.329V38.5219ZM117.874 38.5219H115.383V36.0316H117.874V38.5219ZM112.893 38.5219H110.403V36.0316H112.893V38.5219ZM107.913 38.5219H105.422V36.0316H107.913V38.5219ZM102.932 38.5219H100.442V36.0316H102.932V38.5219ZM97.9513 38.5219H95.461V36.0316H97.9513V38.5219ZM92.9707 38.5219H90.4804V36.0316H92.9707V38.5219ZM87.9901 38.5219H85.4998V36.0316H87.9901V38.5219ZM83.0095 38.5219H80.5192V36.0316H83.0095V38.5219ZM78.0289 38.5219H75.5385V36.0316H78.0289V38.5219ZM73.0482 38.5219H70.5579V36.0316H73.0482V38.5219ZM68.0676 38.5219H65.5773V36.0316H68.0676V38.5219ZM63.087 38.5219H60.5967V36.0316H63.087V38.5219ZM58.1064 38.5219H55.6161V36.0316H58.1064V38.5219ZM53.1258 38.5219H50.6355V36.0316H53.1258V38.5219ZM48.1451 38.5219H45.6548V36.0316H48.1451V38.5219ZM43.1645 38.5219H40.6742V36.0316H43.1645V38.5219ZM38.1839 38.5219H35.6936V36.0316H38.1839V38.5219ZM33.2033 38.5219H30.713V36.0316H33.2033V38.5219ZM28.2227 38.5219H25.7324V36.0316H28.2227V38.5219ZM23.2421 38.5219H20.7517V36.0316H23.2421V38.5219ZM18.2614 38.5219H15.7711V36.0316H18.2614V38.5219ZM13.2808 38.5219H10.7905V36.0316H13.2808V38.5219ZM121.329 102.461H120.364V99.9703H121.329V102.461ZM117.874 102.461H115.383V99.9703H117.874V102.461ZM112.893 102.461H110.403V99.9703H112.893V102.461ZM107.913 102.461H105.422V99.9703H107.913V102.461ZM102.932 102.461H100.442V99.9703H102.932V102.461ZM97.9513 102.461H95.461V99.9703H97.9513V102.461ZM92.9707 102.461H90.4804V99.9703H92.9707V102.461ZM87.9901 102.461H85.4998V99.9703H87.9901V102.461ZM83.0095 102.461H80.5192V99.9703H83.0095V102.461ZM78.0289 102.461H75.5385V99.9703H78.0289V102.461ZM73.0482 102.461H70.5579V99.9703H73.0482V102.461ZM68.0676 102.461H65.5773V99.9703H68.0676V102.461ZM63.087 102.461H60.5967V99.9703H63.087V102.461ZM58.1064 102.461H55.6161V99.9703H58.1064V102.461ZM53.1258 102.461H50.6355V99.9703H53.1258V102.461ZM48.1451 102.461H45.6548V99.9703H48.1451V102.461ZM43.1645 102.461H40.6742V99.9703H43.1645V102.461ZM38.1839 102.461H35.6936V99.9703H38.1839V102.461ZM33.2033 102.461H30.713V99.9703H33.2033V102.461ZM28.2227 102.461H25.7324V99.9703H28.2227V102.461ZM23.2421 102.461H20.7517V99.9703H23.2421V102.461ZM18.2614 102.461H15.7711V99.9703H18.2614V102.461ZM13.2808 102.461H10.7905V99.9703H13.2808V102.461Z" fill="#0A0408"/>
<path d="M112.348 63.7985C112.348 75.1294 91.8186 92.0791 91.8186 92.0791C91.8186 92.0791 71.2891 75.1294 71.2891 63.7985C71.2891 52.4676 80.4721 43.269 91.8186 43.269C103.165 43.269 112.348 52.4676 112.348 63.7985Z" fill="#EBB866"/>
<path d="M91.8186 93.6823L91.0249 93.0285C90.1688 92.3282 70.0439 75.5808 70.0439 63.7986C70.0439 51.7984 79.8029 42.0239 91.8186 42.0239C103.834 42.0239 113.593 51.7984 113.593 63.7986C113.593 75.5808 93.4684 92.3282 92.6124 93.0286L91.8186 93.6823ZM91.8186 44.5143C81.1881 44.5143 72.5343 53.1681 72.5343 63.7986C72.5343 68.1099 75.9584 74.18 82.4489 81.3241C86.2932 85.5576 90.1843 89.0285 91.803 90.4293C93.4374 89.0285 97.3129 85.5576 101.157 81.3241C107.648 74.1645 111.072 68.1099 111.072 63.7986C111.103 53.1681 102.449 44.5143 91.8186 44.5143Z" fill="#0A0408"/>
<path d="M91.8188 66.4133C88.2856 66.4133 85.4219 63.5339 85.4219 60.0164C85.4219 56.4832 88.3013 53.6194 91.8188 53.6194C95.3363 53.6194 98.2158 56.4988 98.2158 60.0164H95.7255C95.7255 57.8529 93.9666 56.1097 91.8188 56.1097C89.6709 56.1097 87.9121 57.8685 87.9121 60.0164C87.9121 62.1642 89.6709 63.923 91.8188 63.923V66.4133Z" fill="#0A0408"/>
<path d="M91.8188 76.7326C88.2856 76.7326 85.4219 73.8532 85.4219 70.3357H87.9121C87.9121 72.4991 89.6709 74.2424 91.8188 74.2424C93.9666 74.2424 95.7255 72.4836 95.7255 70.3357C95.7255 68.1878 93.9666 66.429 91.8188 66.429V63.9387C95.3519 63.9387 98.2158 66.8181 98.2158 70.3357C98.2158 73.8532 95.3519 76.7326 91.8188 76.7326Z" fill="#0A0408"/>
<path d="M90.5742 51.207H93.0645V79.0207H90.5742V51.207Z" fill="#0A0408"/>
<path d="M91.9899 104.889H91.6475C89.7019 104.889 88.1299 103.317 88.1299 101.371V101.029C88.1299 99.0832 89.7019 97.5112 91.6475 97.5112H91.9899C93.9354 97.5112 95.5074 99.0832 95.5074 101.029V101.371C95.4919 103.317 93.9199 104.889 91.9899 104.889Z" fill="white"/>
<path d="M91.9899 106.134H91.6475C89.0327 106.134 86.8848 104.001 86.8848 101.371V101.029C86.8848 98.4138 89.0172 96.2659 91.6475 96.2659H91.9899C94.6047 96.2659 96.7526 98.3982 96.7526 101.029V101.371C96.7371 104.001 94.6047 106.134 91.9899 106.134ZM91.6475 98.7717C90.4023 98.7717 89.3751 99.7834 89.3751 101.044V101.387C89.3751 102.632 90.3868 103.659 91.6475 103.659H91.9899C93.2351 103.659 94.2623 102.647 94.2623 101.387V101.044C94.2623 99.799 93.2507 98.7717 91.9899 98.7717H91.6475Z" fill="#0A0408"/>
<path d="M66.2311 137.621H65.8887C63.9431 137.621 62.3711 136.049 62.3711 134.103V133.761C62.3711 131.815 63.9431 130.243 65.8887 130.243H66.2311C68.1766 130.243 69.7487 131.815 69.7487 133.761V134.103C69.7487 136.049 68.1766 137.621 66.2311 137.621Z" fill="#DC444A"/>
<path d="M66.2311 138.866H65.8887C63.2739 138.866 61.126 136.734 61.126 134.103V133.761C61.126 131.146 63.2583 128.998 65.8887 128.998H66.2311C68.8459 128.998 70.9938 131.13 70.9938 133.761V134.103C70.9938 136.734 68.8615 138.866 66.2311 138.866ZM65.8887 131.504C64.6435 131.504 63.6163 132.516 63.6163 133.776V134.119C63.6163 135.364 64.628 136.391 65.8887 136.391H66.2311C67.4763 136.391 68.5035 135.379 68.5035 134.119V133.776C68.5035 132.531 67.4918 131.504 66.2311 131.504H65.8887Z" fill="#0A0408"/>
<path d="M66.2311 8.62266H65.8887C63.9431 8.62266 62.3711 7.05065 62.3711 5.10509V4.76267C62.3711 2.81712 63.9431 1.24512 65.8887 1.24512H66.2311C68.1766 1.24512 69.7487 2.81712 69.7487 4.76267V5.10509C69.7487 7.05065 68.1766 8.62266 66.2311 8.62266Z" fill="#DC444A"/>
<path d="M66.2311 9.86785H65.8887C63.2739 9.86785 61.126 7.73552 61.126 5.10513V4.76271C61.126 2.14789 63.2583 0 65.8887 0H66.2311C68.8459 0 70.9938 2.13232 70.9938 4.76271V5.10513C70.9938 7.73552 68.8615 9.86785 66.2311 9.86785ZM65.8887 2.50587C64.6435 2.50587 63.6163 3.51756 63.6163 4.77827V5.12069C63.6163 6.36584 64.628 7.3931 65.8887 7.3931H66.2311C67.4763 7.3931 68.5035 6.38142 68.5035 5.12069V4.77827C68.5035 3.53313 67.4918 2.50587 66.2311 2.50587H65.8887Z" fill="#0A0408"/>
</svg>
