<svg width="100" height="139" viewBox="0 0 118 139" fill="none" xmlns="http://www.w3.org/2000/svg">
<path d="M1.72754 7.43787H113.076V133.946H1.72754V7.43787Z" fill="#55B7A8"/>
<path d="M114.321 135.206H0.482422V6.19275H114.321L114.321 135.206ZM2.97273 132.716H111.83V8.68306H2.97273V132.716Z" fill="#0A0408"/>
<path d="M12.2178 19.4225H102.569V121.961H12.2178V19.4225Z" fill="white"/>
<path d="M101.324 120.731H103.814V123.222H101.324V120.731ZM98.8183 123.222H96.3125V120.731H98.8183V123.222ZM93.791 123.222H91.2851V120.731H93.791V123.222ZM88.7793 123.222H86.2734V120.731H88.7793V123.222ZM83.7519 123.222H81.2461V120.731H83.7519V123.222ZM78.7402 123.222H76.2343V120.731H78.7402V123.222ZM73.7129 123.222H71.207V120.731H73.7129V123.222ZM68.7011 123.222H66.1797V120.731H68.6855V123.222H68.7011ZM63.6738 123.222H61.1679V120.731H63.6738V123.222ZM58.6465 123.222H56.1406V120.731H58.6465V123.222ZM53.6348 123.222H51.1289V120.731H53.6348V123.222ZM48.6075 123.222H46.1016V120.731H48.6075V123.222ZM43.5957 123.222H41.0898V120.731H43.5957V123.222ZM38.5684 123.222H36.0625V120.731H38.5684V123.222ZM33.5567 123.222H31.0508V120.731H33.5567V123.222ZM28.5293 123.222H26.0235V120.731H28.5293V123.222ZM23.502 123.222H20.9962V120.731H23.502V123.222ZM18.4903 123.222H15.9844V120.731H18.4903V123.222ZM10.9727 120.731H13.463V123.222H10.9727V120.731ZM13.463 118.288H10.9727V115.844H13.463V118.288ZM13.463 113.4H10.9727V110.957H13.463V113.4ZM13.463 108.529H10.9727V106.085H13.463V108.529ZM13.463 103.641H10.9727V101.198H13.463V103.641ZM13.463 98.7698H10.9727V96.3262H13.463V98.7698ZM13.463 93.8826H10.9727V91.439H13.463V93.8826ZM13.463 88.9954H10.9727V86.5518H13.463V88.9954ZM13.463 84.1237H10.9727V81.6801H13.463V84.1237ZM13.463 79.2365H10.9727V76.7928H13.463V79.2365ZM13.463 74.3648H10.9727V71.9212H13.463V74.3648ZM13.463 69.4776H10.9727V67.034H13.463V69.4776ZM13.463 64.5903H10.9727V62.1467H13.463V64.5903ZM13.463 59.7187H10.9727V57.2751H13.463V59.7187ZM13.463 54.8315H10.9727V52.3878H13.463V54.8315ZM13.463 49.9598H10.9727V47.5162H13.463V49.9598ZM13.463 45.0726H10.9727V42.629H13.463V45.0726ZM13.463 40.2009H10.9727V37.7573H13.463V40.2009ZM13.463 35.3137H10.9727V32.8701H13.463V35.3137ZM13.463 30.4264H10.9727V27.9984H13.463V30.4264ZM13.463 25.5548H10.9727V23.1112H13.463V25.5548ZM10.9727 18.1772H13.463V20.6676H10.9727V18.1772ZM98.8183 20.6676H96.3125V18.1772H98.8183V20.6676ZM93.791 20.6676H91.2851V18.1772H93.791V20.6676ZM88.7793 20.6676H86.2734V18.1772H88.7793V20.6676ZM83.7519 20.6676H81.2461V18.1772H83.7519V20.6676ZM78.7402 20.6676H76.2343V18.1772H78.7402V20.6676ZM73.7129 20.6676H71.207V18.1772H73.7129V20.6676ZM68.7011 20.6676H66.1797V18.1772H68.6855V20.6676H68.7011ZM63.6738 20.6676H61.1679V18.1772H63.6738V20.6676ZM58.6465 20.6676H56.1406V18.1772H58.6465V20.6676ZM53.6348 20.6676H51.1289V18.1772H53.6348V20.6676ZM48.6075 20.6676H46.1016V18.1772H48.6075V20.6676ZM43.5957 20.6676H41.0898V18.1772H43.5957V20.6676ZM38.5684 20.6676H36.0625V18.1772H38.5684V20.6676ZM33.5567 20.6676H31.0508V18.1772H33.5567V20.6676ZM28.5293 20.6676H26.0235V18.1772H28.5293V20.6676ZM23.502 20.6676H20.9962V18.1772H23.502V20.6676ZM18.4903 20.6676H15.9844V18.1772H18.4903V20.6676ZM101.324 18.1772H103.814V20.6676H101.324V18.1772ZM103.814 118.288H101.324V115.844H103.814V118.288ZM103.814 113.4H101.324V110.957H103.814V113.4ZM103.814 108.529H101.324V106.085H103.814V108.529ZM103.814 103.641H101.324V101.198H103.814V103.641ZM103.814 98.7698H101.324V96.3262H103.814V98.7698ZM103.814 93.8826H101.324V91.439H103.814V93.8826ZM103.814 88.9954H101.324V86.5518H103.814V88.9954ZM103.814 84.1237H101.324V81.6801H103.814V84.1237ZM103.814 79.2365H101.324V76.7928H103.814V79.2365ZM103.814 74.3648H101.324V71.9212H103.814V74.3648ZM103.814 69.4776H101.324V67.034H103.814V69.4776ZM103.814 64.5903H101.324V62.1467H103.814V64.5903ZM103.814 59.7187H101.324V57.2751H103.814V59.7187ZM103.814 54.8315H101.324V52.3878H103.814V54.8315ZM103.814 49.9598H101.324V47.5162H103.814V49.9598ZM103.814 45.0726H101.324V42.629H103.814V45.0726ZM103.814 40.2009H101.324V37.7573H103.814V40.2009ZM103.814 35.3137H101.324V32.8701H103.814V35.3137ZM103.814 30.4264H101.324V27.9984H103.814V30.4264ZM103.814 25.5548H101.324V23.1112H103.814V25.5548Z" fill="#0A0408"/>
<path d="M27.5332 38.6758C27.5332 42.5267 30.655 45.6486 34.506 45.6486C38.3571 45.6486 41.4789 42.5267 41.4789 38.6758C41.4789 34.8247 38.3571 31.7029 34.506 31.7029C30.655 31.7029 27.5332 34.8247 27.5332 38.6758Z" fill="#DC444A"/>
<path d="M34.5061 46.8937C29.9768 46.8937 26.2881 43.2049 26.2881 38.6757C26.2881 34.1464 29.9768 30.4576 34.5061 30.4576C39.0353 30.4576 42.7241 34.1464 42.7241 38.6757C42.7241 43.2049 39.0353 46.8937 34.5061 46.8937ZM34.5061 32.9479C31.3465 32.9479 28.7784 35.5161 28.7784 38.6757C28.7784 41.8352 31.3465 44.4034 34.5061 44.4034C37.6657 44.4034 40.2338 41.8352 40.2338 38.6757C40.2338 35.5161 37.6657 32.9479 34.5061 32.9479ZM49.2612 31.8273H71.6895V34.3176H49.2612V31.8273ZM49.2612 42.6601H87.254V45.1505H49.2612V42.6601Z" fill="#0A0408"/>
<path d="M27.5332 71.3143C27.5332 75.1653 30.655 78.2872 34.506 78.2872C38.3571 78.2872 41.4789 75.1653 41.4789 71.3143C41.4789 67.4633 38.3571 64.3414 34.506 64.3414C30.655 64.3414 27.5332 67.4633 27.5332 71.3143Z" fill="#DC444A"/>
<path d="M34.5061 79.5322C29.9768 79.5322 26.2881 75.8434 26.2881 71.3142C26.2881 66.785 29.9768 63.0962 34.5061 63.0962C39.0353 63.0962 42.7241 66.785 42.7241 71.3142C42.7241 75.8434 39.0353 79.5322 34.5061 79.5322ZM34.5061 65.5865C31.3465 65.5865 28.7784 68.1546 28.7784 71.3142C28.7784 74.4738 31.3465 77.0419 34.5061 77.0419C37.6657 77.0419 40.2338 74.4738 40.2338 71.3142C40.2338 68.1546 37.6657 65.5865 34.5061 65.5865ZM49.2612 64.4659H71.6895V66.9562H49.2612V64.4659ZM49.2612 75.2987H87.254V77.789H49.2612V75.2987Z" fill="#0A0408"/>
<path d="M27.5332 103.953C27.5332 107.804 30.655 110.926 34.506 110.926C38.3571 110.926 41.4789 107.804 41.4789 103.953C41.4789 100.102 38.3571 96.98 34.506 96.98C30.655 96.98 27.5332 100.102 27.5332 103.953Z" fill="#DC444A"/>
<path d="M34.5061 112.171C29.9768 112.171 26.2881 108.482 26.2881 103.953C26.2881 99.4236 29.9768 95.7349 34.5061 95.7349C39.0353 95.7349 42.7241 99.4236 42.7241 103.953C42.7241 108.482 39.0353 112.171 34.5061 112.171ZM34.5061 98.2252C31.3465 98.2252 28.7784 100.793 28.7784 103.953C28.7784 107.112 31.3465 109.681 34.5061 109.681C37.6657 109.681 40.2338 107.112 40.2338 103.953C40.2338 100.793 37.6657 98.2252 34.5061 98.2252ZM49.2612 97.1046H71.6895V99.5948H49.2612V97.1046ZM49.2612 107.937H87.254V110.428H49.2612V107.937Z" fill="#0A0408"/>
<path d="M33.6504 2.22375H81.153V14.0372H33.6504V2.22375Z" fill="#EBB866"/>
<path d="M82.3983 15.2668H32.4053V0.978638H82.3983V15.2668ZM34.8956 12.7765H79.9079V3.46894H34.8956V12.7765Z" fill="#0A0408"/>
<path d="M81.5264 116.7C81.5264 128.881 91.4006 138.755 103.581 138.755C115.762 138.755 125.636 128.881 125.636 116.7C125.636 104.52 115.762 94.6454 103.581 94.6454C91.4006 94.6454 81.5264 104.52 81.5264 116.7Z" fill="#EBB866"/>
<path d="M103.581 140C90.7405 140 80.2812 129.556 80.2812 116.7C80.2812 103.844 90.725 93.4001 103.581 93.4001C116.437 93.4001 126.881 103.859 126.881 116.7C126.881 129.541 116.422 140 103.581 140ZM103.581 95.8904C92.1102 95.8904 82.7715 105.229 82.7715 116.7C82.7715 128.171 92.1102 137.51 103.581 137.51C115.052 137.51 124.391 128.171 124.391 116.7C124.391 105.229 115.052 95.8904 103.581 95.8904Z" fill="#0A0408"/>
<path d="M103.893 104.124L107.939 112.295L116.967 113.618L110.43 119.984L111.97 128.98L103.893 124.731L95.8147 128.98L97.3556 119.984L90.834 113.618L99.8613 112.295L103.893 104.124Z" fill="white"/>
<path d="M113.621 131.253L103.893 126.132L94.165 131.253L96.0173 120.42L88.1416 112.747L99.0212 111.159L103.893 101.307L108.764 111.159L119.644 112.747L111.768 120.42L113.621 131.253ZM103.893 123.315L110.321 126.692L109.091 119.548L114.29 114.49L107.115 113.447L103.908 106.941L100.687 113.447L93.5114 114.49L98.7099 119.548L97.4803 126.692L103.893 123.315Z" fill="#0A0408"/>
</svg>
