<svg width="100" height="139" viewBox="0 0 118 139" fill="none" xmlns="http://www.w3.org/2000/svg">
<path d="M63.7793 118.49H66.2696V138.553H63.7793V118.49ZM63.7637 0.978638H66.254V20.8544H63.7637V0.978638Z" fill="#0A0408"/>
<path d="M65.0087 24.5276H124.029V118.023H6.00391V24.5276H65.0087Z" fill="white"/>
<path d="M65.0087 23.2825H66.2539V25.7728H65.0087V23.2825ZM120.325 25.7728H117.866V23.2825H120.325V25.7728ZM115.406 25.7728H112.947V23.2825H115.406V25.7728ZM110.488 25.7728H108.029V23.2825H110.488V25.7728ZM105.57 25.7728H103.11V23.2825H105.57V25.7728ZM100.667 25.7728H98.2076V23.2825H100.667V25.7728ZM95.7485 25.7728H93.2893V23.2825H95.7485V25.7728ZM90.8301 25.7728H88.3709V23.2825H90.8301V25.7728ZM85.9118 25.7728H83.4526V23.2825H85.9117L85.9118 25.7728ZM81.009 25.7728H78.5498V23.2825H81.009V25.7728ZM76.0906 25.7728H73.6314V23.2825H76.0906V25.7728ZM71.1723 25.7728H68.7131V23.2825H71.1723V25.7728ZM122.784 23.2825H125.274V25.7728H122.784V23.2825ZM125.274 114.319H122.784V111.86H125.274V114.319ZM125.274 109.4H122.784V106.941H125.274V109.4ZM125.274 104.482H122.784V102.023H125.274V104.482ZM125.274 99.5637H122.784V97.1046H125.274V99.5637ZM125.274 94.6454H122.784V92.1862H125.274V94.6454ZM125.274 89.727H122.784V87.2679H125.274V89.727ZM125.274 84.8087H122.784V82.3495H125.274V84.8087ZM125.274 79.8903H122.784V77.4311H125.274V79.8903ZM125.274 74.972H122.784V72.5128H125.274V74.972ZM125.274 70.0536H122.784V67.5944H125.274V70.0536ZM125.274 65.1197H122.784V62.6605H125.274V65.1197ZM125.274 60.2013H122.784V57.7421H125.274V60.2013ZM125.274 55.283H122.784V52.8238H125.274V55.283ZM125.274 50.3646H122.784V47.9054H125.274V50.3646ZM125.274 45.4462H122.784V42.9871H125.274V45.4462ZM125.274 40.5279H122.784V38.0687H125.274V40.5279ZM125.274 35.6095H122.784V33.1503H125.274V35.6095ZM125.274 30.6912H122.784V28.232H125.274V30.6912ZM122.784 116.778H125.274V119.268H122.784V116.778ZM120.325 119.268H117.866V116.778H120.325V119.268ZM115.406 119.268H112.947V116.778H115.406V119.268ZM110.488 119.268H108.029V116.778H110.488V119.268ZM105.57 119.268H103.11V116.778H105.57V119.268ZM100.651 119.268H98.1921V116.778H100.651V119.268ZM95.7329 119.268H93.2737V116.778H95.7329V119.268ZM90.8301 119.268H88.3709V116.778H90.8301V119.268ZM85.9118 119.268H83.4526V116.778H85.9117L85.9118 119.268ZM80.9934 119.268H78.5342V116.778H80.9934V119.268ZM76.075 119.268H73.6158V116.778H76.075L76.075 119.268ZM71.1567 119.268H68.6975V116.778H71.1567V119.268ZM66.2383 119.268H63.7791V116.778H66.2383V119.268ZM61.3355 119.268H58.8764V116.778H61.3355V119.268ZM56.4172 119.268H53.958V116.778H56.4172V119.268ZM51.4988 119.268H49.0396V116.778H51.4988V119.268ZM46.5805 119.268H44.1213V116.778H46.5805V119.268ZM41.6621 119.268H39.2029V116.778H41.6621V119.268ZM36.7437 119.268H34.2846V116.778H36.7437V119.268ZM31.8254 119.268H29.3662V116.778H31.8254V119.268ZM26.9226 119.268H24.4634V116.778H26.9225L26.9226 119.268ZM22.0042 119.268H19.545V116.778H22.0042V119.268ZM17.0859 119.268H14.6266V116.778H17.0858L17.0859 119.268ZM12.1675 119.268H9.70831V116.778H12.1675V119.268ZM4.75879 116.778H7.2491V119.268H4.7588L4.75879 116.778ZM7.2491 114.319H4.7588V111.86H7.2491V114.319ZM7.2491 109.4H4.7588V106.941H7.2491V109.4ZM7.2491 104.482H4.7588V102.023H7.2491V104.482ZM7.2491 99.5637H4.7588V97.1046H7.2491V99.5637ZM7.2491 94.6454H4.7588V92.1862H7.2491V94.6454ZM7.2491 89.727H4.7588V87.2679H7.2491V89.727ZM7.2491 84.8087H4.7588V82.3495H7.2491V84.8087ZM7.2491 79.8903H4.7588V77.4311H7.2491V79.8903ZM7.2491 74.972H4.7588V72.5128H7.2491V74.972ZM7.2491 70.0536H4.7588V67.5944H7.2491V70.0536ZM7.2491 65.1197H4.7588V62.6605H7.2491V65.1197ZM7.2491 60.2013H4.7588V57.7421H7.2491V60.2013ZM7.2491 55.283H4.7588V52.8238H7.2491V55.283ZM7.2491 50.3646H4.7588V47.9054H7.2491V50.3646ZM7.2491 45.4462H4.7588V42.9871H7.2491V45.4462ZM7.2491 40.5279H4.7588V38.0687H7.2491V40.5279ZM7.2491 35.6095H4.7588V33.1503H7.2491V35.6095ZM7.2491 30.6912H4.7588V28.232H7.2491V30.6912ZM4.75879 23.2825H7.2491V25.7728H4.7588L4.75879 23.2825ZM61.3199 25.7728H58.8608V23.2825H61.3199V25.7728ZM56.4016 25.7728H53.9424V23.2825H56.4016V25.7728ZM51.4832 25.7728H49.024V23.2825H51.4832V25.7728ZM46.5649 25.7728H44.1057V23.2825H46.5649V25.7728ZM41.6621 25.7728H39.2029V23.2825H41.6621V25.7728ZM36.7437 25.7728H34.2845V23.2825H36.7437V25.7728ZM31.8253 25.7728H29.3662V23.2825H31.8253V25.7728ZM26.907 25.7728H24.4478V23.2825H26.907V25.7728ZM21.9886 25.7728H19.5294V23.2825H21.9886V25.7728ZM17.0858 25.7728H14.6266V23.2825H17.0858L17.0858 25.7728ZM12.1675 25.7728H9.70828V23.2825H12.1675V25.7728ZM63.7635 23.2825H65.0087V25.7728H63.7635V23.2825ZM37.304 140.265L36.1211 138.07L65.0243 122.366L93.3515 138.086L92.1375 140.265L65.0087 125.198L37.304 140.265Z" fill="#0A0408"/>
<path d="M102.815 74.9097C102.815 86.5674 93.3676 96.015 81.7099 96.015C70.0521 96.015 60.6045 86.5674 60.6045 74.9097C60.6045 63.2519 70.0521 53.8043 81.7099 53.8043V74.9097H102.815Z" fill="#55B7A8"/>
<path d="M81.7089 97.2757C69.3819 97.2757 59.3584 87.2522 59.3584 74.9251C59.3584 62.5981 69.3819 52.5591 81.7089 52.5591H82.9541V73.6644H104.059V74.9096C104.059 87.2366 94.0359 97.2757 81.7089 97.2757ZM80.4637 55.0961C70.0823 55.7342 61.8487 64.3881 61.8487 74.9251C61.8487 85.8825 70.7671 94.7854 81.7089 94.7854C92.246 94.7854 100.884 86.5362 101.538 76.1703H80.4637V55.0961Z" fill="#0A0408"/>
<path d="M109.025 71.1898H85.4297V47.5941H86.6749C99.0019 47.5941 109.025 57.6176 109.025 69.9446V71.1898ZM87.92 68.6995H106.504C105.881 58.7382 97.8812 50.7381 87.92 50.1155V68.6995Z" fill="#0A0408"/>
<path d="M102.161 65.5866C102.161 59.4386 97.1802 54.458 91.0322 54.458V65.5866H102.161Z" fill="#DC444A"/>
<path d="M21.0234 81.9915H23.5137V96.0305H21.0234V81.9915ZM30.2999 55.2673H32.7901V96.0305H30.2999V55.2673ZM39.5762 70.9874H42.0666V96.0305H39.5762V70.9874ZM48.8527 86.7075H51.343V96.0305H48.8527V86.7075Z" fill="#0A0408"/>
<path d="M2.00391 20.5276H10.004V28.5277H2.00391V20.5276Z" fill="#DC444A"/>
<path d="M11.2492 29.7729H0.758789V19.2825H11.2492V29.7729ZM3.24909 27.2826H8.7589V21.7728H3.24909V27.2826Z" fill="#0A0408"/>
<path d="M2.00391 114.334H10.004V122.335H2.00391V114.334Z" fill="#DC444A"/>
<path d="M11.2492 123.58H0.758789V113.089H11.2492V123.58ZM3.24909 121.089H8.7589V115.58H3.24909V121.089Z" fill="#0A0408"/>
<path d="M120.029 20.5276H128.029V28.5277H120.029V20.5276Z" fill="#DC444A"/>
<path d="M129.275 29.7729H118.784V19.2825H129.275V29.7729ZM121.275 27.2826H126.784V21.7728H121.275V27.2826Z" fill="#0A0408"/>
<path d="M120.029 114.334H128.029V122.335H120.029V114.334Z" fill="#DC444A"/>
<path d="M129.275 123.58H118.784V113.089H129.275V123.58ZM121.275 121.089H126.784V115.58H121.275V121.089Z" fill="#0A0408"/>
</svg>
