<svg width="470" height="400" viewBox="0 0 738 660" fill="none" xmlns="http://www.w3.org/2000/svg">
<ellipse cx="368.855" cy="446.515" rx="368.855" ry="212.958" fill="#F0F0F0"/>
<path d="M67.2117 497.921C65.7555 498.024 64.3319 497.457 63.3451 496.381C62.6482 495.74 61.7167 495.416 60.7725 495.487L60.2795 495.487L58.2923 495.641C58.1026 495.657 57.912 495.657 57.7223 495.641C56.2755 495.713 54.8694 495.151 53.871 494.101C53.4497 493.59 53.2902 492.913 53.4397 492.268C53.4772 492.12 53.4365 491.963 53.3319 491.852C52.6373 491.229 51.721 490.912 50.7901 490.974H50.3433H49.7733C48.3266 491.045 46.9204 490.483 45.9221 489.433C45.5241 488.941 45.366 488.297 45.4908 487.677C45.5282 487.529 45.4876 487.372 45.3829 487.261C44.6859 486.644 43.7699 486.333 42.8411 486.398H41.8244C40.3769 486.474 38.9691 485.911 37.9732 484.858C37.5518 484.347 37.3923 483.67 37.5418 483.025C37.5798 482.882 37.5387 482.729 37.434 482.624C36.7451 481.992 35.8246 481.674 34.8922 481.746H33.8755C32.428 481.822 31.0202 481.259 30.0243 480.206C29.5993 479.697 29.4445 479.015 29.6083 478.372C29.6312 478.227 29.5857 478.079 29.4851 477.972C28.7942 477.343 27.8751 477.025 26.9433 477.094L25.9265 477.094C24.4791 477.17 23.0712 476.606 22.0753 475.553C21.6503 475.045 21.4956 474.363 21.6594 473.72L21.9367 472.58C22.0137 472.226 21.4899 471.687 20.4732 471.44C18.3319 470.901 17.6541 469.638 17.7157 468.652C17.7927 467.266 19.1638 466.203 21.2126 465.956L22.0445 465.848C22.7655 465.818 23.4482 465.515 23.9547 465.001C24.0395 464.903 24.0835 464.776 24.0779 464.647L23.8623 463.106C23.791 462.475 23.9993 461.845 24.4323 461.381C25.441 460.42 26.7992 459.913 28.1911 459.979H28.4992L30.4094 460.071C31.3247 460.126 32.2253 459.822 32.9204 459.224C33.1052 459.008 33.0898 458.87 33.0744 458.824L32.9512 457.869C32.8816 457.233 33.0893 456.599 33.5212 456.128C34.5289 455.165 35.8878 454.658 37.28 454.726H37.5881L39.4983 454.803C40.4071 454.864 41.3036 454.566 41.9939 453.971C42.1114 453.872 42.1744 453.724 42.1633 453.571L42.0401 452.6C41.956 451.971 42.1597 451.337 42.5946 450.875C43.6101 449.914 44.9726 449.408 46.3689 449.473H46.677L48.5718 449.55C49.4844 449.604 50.383 449.306 51.0827 448.718C51.2676 448.502 51.2522 448.348 51.2368 448.302L51.1136 447.347C51.0423 446.716 51.2506 446.086 51.6835 445.622C52.6883 444.654 54.0494 444.146 55.4424 444.22H55.7505L57.6607 444.297C58.5699 444.361 59.4677 444.062 60.1562 443.465C60.3565 443.249 60.3411 443.111 60.3257 443.064L60.2025 442.094C60.1269 441.463 60.3358 440.831 60.7724 440.368C61.7802 439.406 63.1391 438.899 64.5313 438.967H64.8394L67.7817 439.09C68.784 439.211 69.7784 438.81 70.4159 438.027L70.6008 437.549C71.2016 436.009 73.2504 435.408 74.8371 435.408C76.2916 435.317 77.7104 435.882 78.7038 436.949C79.3862 437.605 80.3176 437.936 81.261 437.857H81.6923L83.6796 437.688H84.2495C85.6981 437.606 87.1085 438.17 88.1008 439.228C88.5221 439.739 88.6816 440.417 88.5321 441.062C88.5012 441.207 88.5478 441.359 88.6553 441.462C89.3423 442.098 90.2643 442.416 91.1972 442.34H91.6285H92.1985C93.647 442.258 95.0574 442.822 96.0497 443.881C96.4711 444.391 96.6305 445.069 96.481 445.714C96.4502 445.86 96.4968 446.011 96.6043 446.115C97.2913 446.75 98.2133 447.069 99.1461 446.993H99.562H100.132C101.581 446.91 102.991 447.475 103.983 448.533C104.407 449.043 104.567 449.721 104.415 450.366C104.384 450.512 104.43 450.664 104.538 450.767C105.229 451.396 106.148 451.714 107.08 451.645L107.511 451.645H108.081C109.529 451.563 110.94 452.127 111.932 453.185C112.356 453.695 112.515 454.374 112.364 455.019C112.336 455.164 112.382 455.314 112.487 455.419C113.173 456.046 114.086 456.363 115.013 456.297L115.46 456.297H116.03C117.478 456.215 118.889 456.779 119.881 457.838C120.302 458.342 120.462 459.015 120.312 459.655L120.035 460.811C119.943 461.165 120.482 461.689 121.483 461.951C123.625 462.49 124.302 463.738 124.241 464.739C124.241 466.125 122.793 467.173 120.759 467.435L119.927 467.543C119.209 467.571 118.527 467.867 118.017 468.375C117.863 468.575 117.879 468.698 117.894 468.744L118.094 470.285C118.17 470.916 117.961 471.548 117.524 472.01C116.516 472.973 115.158 473.48 113.765 473.412L113.426 473.412L111.532 473.335C110.618 473.271 109.716 473.57 109.021 474.167C108.901 474.27 108.838 474.425 108.851 474.583L108.974 475.538C109.058 476.167 108.855 476.801 108.42 477.263C107.411 478.224 106.053 478.731 104.661 478.665L104.338 478.665L102.443 478.573C101.53 478.519 100.632 478.816 99.9317 479.405C99.7469 479.636 99.7623 479.774 99.7777 479.821L99.9009 480.776C99.9706 481.411 99.7628 482.045 99.331 482.516C98.3222 483.478 96.964 483.984 95.5722 483.918L95.2641 483.918H93.3539C92.445 483.857 91.5485 484.156 90.8583 484.75C90.7408 484.849 90.6777 484.998 90.6888 485.151L90.812 486.121C90.863 486.685 90.6854 487.246 90.3191 487.677C89.3113 488.64 87.9524 489.147 86.5603 489.079L86.2522 489.079L84.3574 488.987C83.4448 488.932 82.5462 489.23 81.8464 489.818C81.7354 489.928 81.6741 490.078 81.6769 490.234L81.8156 491.189C81.8852 491.825 81.6775 492.459 81.2456 492.93C80.2343 493.886 78.8764 494.387 77.4868 494.317H77.1787L74.2364 494.193C73.2293 494.07 72.2292 494.471 71.5867 495.256L71.4019 495.734C70.7857 497.351 68.7522 497.906 67.2117 497.921Z" fill="#E0E0E0"/>
<path d="M128.493 534.754C127.036 534.857 125.613 534.29 124.626 533.214C123.924 532.584 122.993 532.272 122.053 532.351H121.637L119.65 532.521H119.065C117.617 532.596 116.21 532.033 115.214 530.98C114.789 530.471 114.634 529.789 114.798 529.147C114.821 529.002 114.775 528.854 114.674 528.746C113.986 528.114 113.065 527.796 112.133 527.868L111.116 527.868C109.668 527.944 108.261 527.381 107.265 526.328C106.84 525.819 106.685 525.137 106.849 524.495C106.872 524.349 106.826 524.201 106.726 524.094C106.037 523.462 105.116 523.144 104.184 523.216H103.752H103.182C101.73 523.294 100.316 522.731 99.3158 521.675C98.8976 521.163 98.7437 520.485 98.8998 519.842C98.9226 519.697 98.8772 519.549 98.7766 519.442C98.0876 518.809 97.1671 518.491 96.2348 518.563L95.8034 518.564H95.218C93.7706 518.639 92.3628 518.076 91.3668 517.023C90.9464 516.512 90.7922 515.832 90.9509 515.19C90.9818 515.044 90.9352 514.893 90.8277 514.789C90.1349 514.163 89.2172 513.846 88.2858 513.911H87.8545H87.2845C85.8321 513.989 84.4186 513.426 83.4179 512.371C82.9975 511.86 82.8433 511.18 83.0019 510.538L83.2792 509.398C83.3717 509.043 82.8325 508.52 81.7388 508.258C79.6129 507.718 78.9196 506.471 78.9813 505.469C79.0737 504.083 80.5218 503.035 82.4782 502.774L83.31 502.666C84.0286 502.638 84.7105 502.341 85.2203 501.834C85.3047 501.73 85.3485 501.598 85.3435 501.464L85.1432 499.924C85.0592 499.294 85.2629 498.661 85.6978 498.198C86.7085 497.24 88.0653 496.734 89.4566 496.796H89.7801L91.6749 496.873C92.5886 496.936 93.4901 496.637 94.1859 496.041C94.3708 495.826 94.3554 495.672 94.34 495.626L94.2167 494.671C94.1455 494.04 94.3537 493.409 94.7867 492.945C95.7955 491.984 97.1537 491.477 98.5455 491.543H98.8536L100.764 491.62C101.673 491.682 102.569 491.383 103.259 490.788C103.377 490.69 103.44 490.541 103.429 490.388L103.306 489.417C103.23 488.786 103.439 488.154 103.876 487.692C104.883 486.729 106.242 486.222 107.634 486.29H107.943L109.837 486.367C110.751 486.429 111.653 486.131 112.348 485.535C112.459 485.432 112.52 485.286 112.518 485.135L112.379 484.164C112.308 483.534 112.516 482.903 112.949 482.439C113.958 481.478 115.316 480.971 116.708 481.037H117.016L118.926 481.114C119.837 481.172 120.735 480.88 121.437 480.298C121.622 480.067 121.607 479.928 121.591 479.882L121.468 478.927C121.398 478.291 121.606 477.657 122.038 477.186C123.049 476.23 124.407 475.729 125.797 475.799H126.105L129.032 475.923C130.039 476.046 131.039 475.645 131.682 474.86L131.866 474.382C132.467 472.842 134.516 472.241 136.103 472.241C137.558 472.143 138.98 472.709 139.969 473.781C140.661 474.422 141.587 474.745 142.527 474.675H142.958L144.945 474.505H145.515C146.967 474.433 148.378 474.996 149.382 476.046C149.8 476.558 149.954 477.237 149.798 477.879C149.77 478.029 149.816 478.184 149.921 478.295C150.614 478.921 151.531 479.238 152.463 479.173L152.894 479.173H153.479C154.923 479.093 156.328 479.658 157.315 480.714C157.743 481.221 157.904 481.902 157.747 482.547C157.719 482.697 157.765 482.852 157.87 482.963C158.563 483.586 159.482 483.898 160.412 483.825H161.413C162.862 483.743 164.272 484.307 165.264 485.366C165.686 485.876 165.845 486.554 165.696 487.199C165.665 487.345 165.711 487.496 165.819 487.6C166.506 488.235 167.428 488.554 168.361 488.478H169.362C170.81 488.395 172.221 488.96 173.213 490.018C173.635 490.529 173.794 491.206 173.645 491.851C173.614 491.997 173.66 492.149 173.768 492.252C174.455 492.887 175.377 493.206 176.31 493.13H176.741H177.311C178.759 493.048 180.17 493.612 181.162 494.67C181.584 495.181 181.743 495.859 181.593 496.504L181.316 497.644C181.224 497.998 181.763 498.522 182.78 498.784C184.906 499.323 185.599 500.586 185.537 501.572C185.445 502.958 183.997 504.021 182.04 504.268L181.208 504.376C180.491 504.409 179.811 504.705 179.298 505.207C179.144 505.408 179.159 505.531 179.175 505.577L179.375 507.118C179.453 507.746 179.25 508.377 178.821 508.843C177.805 509.803 176.443 510.309 175.046 510.245H174.738L172.843 510.152C171.93 510.09 171.028 510.389 170.332 510.984C170.221 511.094 170.16 511.244 170.163 511.4L170.302 512.355C170.371 512.99 170.164 513.625 169.732 514.096C168.72 515.052 167.362 515.553 165.973 515.483L165.803 515.482L163.893 515.405C162.98 515.343 162.078 515.642 161.382 516.237C161.197 516.453 161.213 516.592 161.228 516.638L161.351 517.608C161.423 518.239 161.214 518.87 160.781 519.334C159.774 520.297 158.415 520.803 157.023 520.736H156.714L154.804 520.659C153.895 520.597 152.999 520.896 152.309 521.49C152.189 521.594 152.126 521.748 152.139 521.906L152.262 522.861C152.347 523.491 152.143 524.124 151.708 524.587C150.697 525.545 149.34 526.051 147.949 525.989H147.626L145.731 525.912C144.817 525.849 143.916 526.148 143.22 526.743C143.035 526.959 143.05 527.098 143.066 527.144L143.189 528.115C143.258 528.745 143.05 529.375 142.619 529.84C141.61 530.801 140.252 531.308 138.86 531.242L138.552 531.242L135.61 531.119C134.603 531.001 133.606 531.401 132.96 532.182L132.791 532.659C132.128 534.184 130.064 534.754 128.493 534.754Z" fill="#E0E0E0"/>
<ellipse cx="594.969" cy="374.435" rx="74.6214" ry="43.0875" fill="#E0E0E0"/>
<path d="M198.508 479.204L129.679 439.46L392.487 287.721L461.316 327.466L198.508 479.204Z" fill="#E0E0E0"/>
<path d="M129.54 439.537L60.7109 399.807L323.519 248.069L392.348 287.814L129.54 439.537Z" fill="#E0E0E0"/>
<path d="M365.189 642.897L191.113 542.395C186.646 539.807 186.646 535.602 191.113 533.014L448.93 384.172C454.027 381.583 460.054 381.583 465.151 384.172L639.227 484.673C643.71 487.261 643.71 491.467 639.227 494.039L381.472 642.897C376.356 645.501 370.304 645.501 365.189 642.897Z" fill="#E0E0E0"/>
<path d="M632.234 329.438C632.234 329.438 629.984 310.952 635.638 294.715C641.292 278.478 651.567 266.863 662.874 263.212C674.181 259.561 685.981 267.957 675.414 278.17C664.846 288.384 644.604 301.016 641.061 330.655L632.234 329.438Z" fill="#27DEBF"/>
<g opacity="0.15">
<path d="M632.234 329.438C632.234 329.438 629.984 310.952 635.638 294.715C641.292 278.478 651.567 266.863 662.874 263.212C674.181 259.561 685.981 267.957 675.414 278.17C664.846 288.384 644.604 301.016 641.061 330.655L632.234 329.438Z" fill="black"/>
</g>
<path d="M634.498 323.954H634.359C634.192 323.931 634.041 323.841 633.942 323.704C633.843 323.567 633.805 323.396 633.836 323.23C638.873 290.386 659.054 272.393 669.02 267.448C669.225 267.315 669.488 267.311 669.696 267.438C669.904 267.565 670.02 267.801 669.995 268.044C669.969 268.286 669.805 268.492 669.575 268.573C659.824 273.41 640.044 291.095 635.083 323.43C635.034 323.719 634.791 323.936 634.498 323.954Z" fill="white"/>
<path d="M690.094 304.836C689.663 307.286 687.537 309.042 685.473 310.521C683.409 311.999 681.252 313.602 680.559 315.959C679.172 320.796 684.672 325.741 683.07 330.501C682.239 332.475 680.636 334.023 678.633 334.783C677.011 335.446 675.355 336.021 673.673 336.509C672.859 336.692 672.036 336.831 671.208 336.925C668.726 336.975 666.332 337.847 664.399 339.405C661.518 342.131 661.534 346.63 660.301 350.404C658.734 354.951 655.247 358.578 650.766 360.325C647.068 361.788 641.153 362.343 639.751 360.91C638.673 359.816 639.951 355.395 639.628 353.901C638.797 350.061 638.332 346.151 638.241 342.224C638.281 340.436 638.094 338.65 637.687 336.909C637.194 334.968 636.716 333.027 636.239 331.071C635.761 329.114 634.821 327.435 635.053 325.124C635.373 322.921 636.016 320.777 636.963 318.762C637.825 316.76 638.688 314.757 639.566 312.77C640.526 310.375 641.778 308.109 643.294 306.022C646.102 302.468 650.257 300.237 654.771 299.86C658.468 299.568 662.473 300.692 666.032 299.614C669.59 298.536 672.795 296.749 676.492 296.102C680.404 295.245 684.494 296.234 687.583 298.782C689.386 300.249 690.33 302.524 690.094 304.836Z" fill="#27DEBF"/>
<path d="M640.553 350.681C640.244 350.673 639.998 350.42 639.998 350.111C640.584 314.803 674.29 301.324 682.593 299.891C682.738 299.86 682.89 299.89 683.013 299.974C683.135 300.059 683.217 300.191 683.24 300.338C683.267 300.483 683.235 300.633 683.151 300.754C683.067 300.876 682.938 300.959 682.793 300.985C674.659 302.402 641.693 315.589 641.123 350.126C641.123 350.276 641.062 350.42 640.955 350.524C640.847 350.629 640.702 350.685 640.553 350.681Z" fill="white"/>
<path d="M675.136 324.246C675.031 324.282 674.918 324.282 674.813 324.246C666.882 320.221 657.57 319.938 649.41 323.476C649.121 323.585 648.797 323.45 648.671 323.168C648.554 322.879 648.691 322.549 648.979 322.429C657.472 318.756 667.162 319.073 675.398 323.291C675.526 323.368 675.618 323.493 675.652 323.638C675.687 323.783 675.662 323.935 675.583 324.062C675.473 324.192 675.306 324.261 675.136 324.246Z" fill="white"/>
<path d="M122.669 370.6C122.824 357.999 114.012 331.764 101.103 315.235C88.1933 298.705 67.7818 286.443 53.1163 291.264C39.4829 295.763 40.6999 313.602 57.0753 325.664C73.4508 337.726 98.0832 352.853 105.108 373.419L120.035 398.698L122.669 370.6Z" fill="#37474F"/>
<path d="M123.362 387.823C122.95 387.786 122.614 387.476 122.546 387.068C114.612 343.934 80.2131 308.503 59.4627 300.538C58.9935 300.352 58.7604 299.824 58.9389 299.352C59.0214 299.121 59.1951 298.934 59.4194 298.835C59.6437 298.736 59.8989 298.734 60.1251 298.828C81.276 306.962 116.307 342.948 124.348 386.744C124.393 386.984 124.34 387.231 124.201 387.431C124.062 387.63 123.849 387.766 123.609 387.807L123.362 387.823Z" fill="white"/>
<path d="M116.616 415.274C114.675 408.172 106.156 396.372 92.2758 386.544C76.8709 375.668 57.3683 370.507 52.9471 362.143C47.6324 352.083 56.1667 342.748 72.0646 344.904C87.9624 347.061 115.66 369.121 119.743 401.903L116.616 415.274Z" fill="#455A64"/>
<path d="M119.773 407.895C119.413 407.861 119.106 407.62 118.987 407.279C106.232 370.307 78.2569 356.967 65.2551 355.118C65.0118 355.084 64.7922 354.954 64.6448 354.757C64.4974 354.561 64.4343 354.314 64.4695 354.07C64.5 353.828 64.6266 353.609 64.8207 353.461C65.0148 353.313 65.2602 353.25 65.5016 353.285C79.8898 355.334 107.711 368.875 120.728 406.678C120.892 407.159 120.638 407.682 120.158 407.849C120.036 407.896 119.903 407.912 119.773 407.895Z" fill="white"/>
<path d="M114.659 224.253L369.764 76.8896L379.931 82.7897C382.757 84.646 384.535 87.7327 384.722 91.1084L384.722 279.295C384.53 282.665 382.753 285.745 379.931 287.598L134.423 429.323C131.405 430.847 127.843 430.847 124.826 429.323L119.419 426.242C116.583 424.393 114.798 421.304 114.612 417.924L114.659 224.253Z" fill="#27DEBF"/>
<path opacity="0.3" d="M114.659 224.253L369.764 76.8896L379.931 82.7897C382.757 84.646 384.535 87.7327 384.722 91.1084L384.722 279.295C384.53 282.665 382.753 285.745 379.931 287.598L134.423 429.323C131.405 430.847 127.843 430.847 124.826 429.323L119.419 426.242C116.583 424.393 114.798 421.304 114.612 417.924L114.659 224.253Z" fill="black"/>
<path d="M368.362 60.3601L369.409 59.7901L365.435 57.4793C365.103 57.2809 364.752 57.1158 364.387 56.9864L252.07 15.3777C248.904 14.3273 245.422 15.4342 243.443 18.1198L117.893 201.531C115.939 204.689 114.825 208.295 114.658 212.006V224.253L118.556 226.517L369.764 76.8895V64.7197C369.722 63.1625 369.235 61.6498 368.362 60.3601Z" fill="#27DEBF"/>
<path opacity="0.05" d="M248.696 19.0133C248.195 19.4039 247.754 19.8658 247.387 20.3843L121.791 203.78C120.762 205.409 119.973 207.178 119.449 209.033L115.552 206.768C115.837 205.825 116.177 204.9 116.568 203.996L117.108 202.886C117.144 202.833 117.175 202.777 117.2 202.717C117.403 202.334 117.629 201.963 117.878 201.608L243.459 18.2893C243.644 18.0125 243.855 17.7546 244.09 17.519L244.753 16.9028L248.696 19.0133Z" fill="black"/>
<path opacity="0.35" d="M369.364 59.7747C369.022 59.5664 368.661 59.391 368.285 59.251L255.999 17.6577C253.488 16.8373 250.732 17.3606 248.697 19.0441L244.784 16.7796C246.839 15.1121 249.598 14.5963 252.117 15.4086L364.388 57.0019C364.753 57.1422 365.104 57.3176 365.435 57.5256L369.364 59.7747Z" fill="white"/>
<path d="M117.231 202.686C117.447 202.285 117.678 201.916 117.894 201.577C117.678 201.869 117.447 202.239 117.231 202.686Z" fill="#27DEBF"/>
<g opacity="0.2">
<rect width="100" height="100" transform="translate(40.542 72.5435)" fill="black"/>
</g>
<g opacity="0.2">
<rect width="100" height="100" transform="translate(85.8896 5.86865)" fill="black"/>
</g>
<path d="M247.449 20.3844L121.791 203.795C119.836 206.948 118.722 210.549 118.556 214.255L118.556 226.441L373.661 79.1387V66.9688C373.497 63.5818 371.408 60.588 368.285 59.2664L256.014 17.6731C252.873 16.6458 249.426 17.7367 247.449 20.3844Z" fill="#27DEBF"/>
<path opacity="0.15" d="M247.449 20.3844L121.791 203.795C119.836 206.948 118.722 210.549 118.556 214.255L118.556 226.441L373.661 79.1387V66.9688C373.497 63.5818 371.408 60.588 368.285 59.2664L256.014 17.6731C252.873 16.6458 249.426 17.7367 247.449 20.3844Z" fill="black"/>
<path opacity="0.1" d="M373.661 66.9686C373.616 65.4406 373.141 63.9564 372.29 62.686L119.449 209.033C118.921 210.715 118.625 212.462 118.571 214.224V226.409L373.661 79.1385V66.9686Z" fill="black"/>
<path d="M362.77 15.2854C362.876 14.2416 362.419 13.2203 361.569 12.6049L353.743 8.10673C352.786 7.66803 351.667 7.77996 350.816 8.39943L141.602 129.205C139.148 130.822 137.61 133.51 137.458 136.445V386.975C137.345 388.024 137.812 389.05 138.675 389.656L146.377 394.138C147.334 394.577 148.453 394.465 149.304 393.846L358.549 273.04C360.993 271.449 362.532 268.789 362.693 265.877L362.77 15.2854Z" fill="#F0F0F0"/>
<path d="M149.381 393.846L358.626 273.04C361.07 271.449 362.609 268.789 362.77 265.877V15.2852C362.77 12.6356 360.906 11.5727 358.626 12.8821L149.381 133.687C146.944 135.292 145.408 137.953 145.237 140.866V391.458C145.237 394.108 147.086 395.247 149.381 393.846Z" fill="#FAFAFA"/>
<path d="M145.222 391.458C145.143 392.407 145.507 393.34 146.208 393.984C144.806 393.199 139.368 390.041 138.691 389.656C137.821 389.061 137.348 388.038 137.458 386.99V136.445C137.506 135.005 137.931 133.603 138.691 132.378L146.393 136.845C145.635 138.082 145.211 139.494 145.161 140.943L145.222 391.458Z" fill="#E0E0E0"/>
<path d="M339.093 51.2095L301.906 72.6686C299.982 73.8796 298.747 75.9319 298.578 78.1989C298.578 80.2016 300.119 80.9564 301.921 79.8935L339.093 58.4344C341.021 57.2202 342.257 55.1612 342.421 52.8886C342.421 50.9014 340.926 50.1774 339.093 51.2095Z" fill="#E0E0E0"/>
<path d="M170.547 162.957L238.976 123.459C240.809 122.396 242.303 123.15 242.303 125.153C242.135 127.42 240.9 129.472 238.976 130.683L170.547 170.182C168.714 171.245 167.22 170.49 167.22 168.502C167.379 166.228 168.616 164.167 170.547 162.957Z" fill="#E0E0E0"/>
<path d="M170.547 184.631L339.092 87.334C340.926 86.271 342.42 87.0259 342.42 89.0131C342.256 91.2857 341.02 93.3447 339.092 94.5589L170.547 191.903C168.714 192.981 167.22 192.211 167.22 190.223C167.374 187.936 168.61 185.859 170.547 184.631Z" fill="#E0E0E0"/>
<path d="M170.547 199.097L339.092 101.784C340.926 100.721 342.42 101.476 342.42 103.463C342.256 105.735 341.02 107.794 339.092 109.009L170.547 206.321C168.714 207.384 167.22 206.63 167.22 204.627C167.389 202.36 168.623 200.308 170.547 199.097Z" fill="#E0E0E0"/>
<path d="M170.547 213.546L339.092 116.233C340.926 115.17 342.42 115.925 342.42 117.928C342.251 120.195 341.016 122.247 339.092 123.458L170.547 220.771C168.714 221.834 167.22 221.079 167.22 219.077C167.389 216.81 168.623 214.757 170.547 213.546Z" fill="#E0E0E0"/>
<path d="M170.547 237.285L339.092 139.988C340.926 138.925 342.42 139.68 342.42 141.667C342.256 143.939 341.02 145.998 339.092 147.213L170.547 244.51C168.714 245.573 167.22 244.818 167.22 242.831C167.384 240.558 168.619 238.499 170.547 237.285Z" fill="#E0E0E0"/>
<path d="M170.547 251.735L339.092 154.438C340.926 153.375 342.42 154.13 342.42 156.117C342.256 158.39 341.02 160.449 339.092 161.663L170.547 258.96C168.714 260.023 167.22 259.268 167.22 257.281C167.384 255.009 168.619 252.95 170.547 251.735Z" fill="#E0E0E0"/>
<path d="M170.547 266.201L339.092 168.888C340.926 167.825 342.42 168.58 342.42 170.567C342.256 172.839 341.02 174.898 339.092 176.113L170.547 273.425C168.714 274.488 167.22 273.734 167.22 271.731C167.384 269.462 168.62 267.408 170.547 266.201Z" fill="#E0E0E0"/>
<path d="M378.298 281.79C378.225 281.928 378.137 282.057 378.036 282.175L271.742 248.469C263.394 244.765 253.593 247.782 248.773 255.54L135.101 424.517L130.895 426.951C129.942 427.612 128.721 427.751 127.645 427.32L244.522 253.245C249.356 245.488 259.159 242.467 267.521 246.159L378.298 281.79Z" fill="#27DEBF"/>
<path opacity="0.4" d="M238.283 272.116L238.56 271.9L135.1 424.517L130.895 426.936C129.935 427.579 128.721 427.711 127.645 427.29L234.247 269.682L238.283 272.116Z" fill="white"/>
<path opacity="0.4" d="M378.391 281.805C378.31 281.942 378.217 282.071 378.113 282.191L271.82 248.469C263.467 244.763 253.66 247.78 248.835 255.54L244.63 253.091C249.475 245.374 259.245 242.378 267.583 246.051L378.391 281.805Z" fill="white"/>
<path d="M384.692 89.9068C384.461 88.5204 383.737 88.1353 382.797 88.7977C382.331 89.1507 381.921 89.5713 381.58 90.0455L381.041 90.8003L276.102 250.287L260.436 272.116C258.376 274.703 255.061 275.946 251.809 275.351L238.299 272.132L135.086 234.128C134.389 233.991 133.672 233.991 132.975 234.128C132.712 234.186 132.454 234.269 132.205 234.374L136.087 232.125L235.048 268.404L248.081 273.025C251.334 273.634 254.657 272.388 256.708 269.79L272.374 247.977L377.79 87.7656C378.114 87.3303 378.516 86.9594 378.976 86.6718L369.857 81.4187L373.677 79.2158L379.993 82.8514C382.445 84.4747 384.139 87.0184 384.692 89.9068Z" fill="#27DEBF"/>
<path opacity="0.4" d="M276.102 250.287L260.435 272.1C258.385 274.698 255.062 275.944 251.809 275.335L238.283 272.116L238.56 271.9L239.207 270.853L248.065 272.963C251.319 273.575 254.643 272.329 256.692 269.728L272.205 248.161L276.102 250.287Z" fill="white"/>
<path opacity="0.05" d="M379.931 82.7742L373.615 79.1387L369.795 81.3416L378.914 86.5947C378.456 86.8839 378.054 87.2546 377.728 87.6884L272.297 247.9L272.158 248.1L276.056 250.226L380.963 90.7232L381.502 89.9838C381.831 89.495 382.243 89.0675 382.719 88.7206C383.659 88.0736 384.383 88.4587 384.614 89.8297C384.064 86.9445 382.376 84.4018 379.931 82.7742Z" fill="black"/>
<path d="M137.165 237.178L114.658 224.253V417.908C114.844 421.288 116.629 424.377 119.465 426.227L124.872 429.308C127.889 430.832 131.451 430.832 134.469 429.308L137.165 427.767L137.165 237.178Z" fill="#27DEBF"/>
<path opacity="0.3" d="M137.165 237.178L114.658 224.253V417.908C114.844 421.288 116.629 424.377 119.465 426.227L124.872 429.308C127.889 430.832 131.451 430.832 134.469 429.308L137.165 427.767L137.165 237.178Z" fill="black"/>
<path d="M384.783 91.1081V279.279C384.711 281.01 384.18 282.69 383.243 284.147C382.526 285.379 381.567 286.453 380.424 287.305L380.239 287.398C380.143 287.478 380.04 287.55 379.931 287.613L134.438 429.338C133.485 430.011 132.256 430.156 131.172 429.724C130.345 429.242 129.808 428.383 129.74 427.428C129.716 427.141 129.716 426.853 129.74 426.566V238.379C129.654 237.011 130.245 235.689 131.321 234.84C132.397 233.992 133.821 233.725 135.131 234.127L238.344 272.131L251.854 275.351C255.107 275.946 258.422 274.702 260.481 272.116L276.102 250.287L381.009 90.8L381.548 90.0451C383.32 87.5803 384.783 88.0425 384.783 91.1081Z" fill="#27DEBF"/>
<path opacity="0.2" d="M384.783 91.1081V279.279C384.711 281.01 384.18 282.69 383.243 284.147C382.526 285.379 381.567 286.453 380.424 287.305L380.239 287.398C380.143 287.478 380.04 287.55 379.931 287.613L134.438 429.338C133.485 430.011 132.256 430.156 131.172 429.724C130.345 429.242 129.808 428.383 129.74 427.428C129.716 427.141 129.716 426.853 129.74 426.566V238.379C129.654 237.011 130.245 235.689 131.321 234.84C132.397 233.992 133.821 233.725 135.131 234.127L233.076 270.19L237.697 271.9L238.329 272.131L251.839 275.351C255.091 275.946 258.407 274.702 260.466 272.116L276.102 250.287L381.009 90.8L381.548 90.0451C383.32 87.5803 384.783 88.0425 384.783 91.1081Z" fill="black"/>
<path d="M237.667 271.9L131.158 429.724C130.088 429.048 129.491 427.825 129.617 426.566V423.485L234.371 268.142L237.667 271.9Z" fill="#27DEBF"/>
<path opacity="0.25" d="M248.759 255.54L131.158 429.724C130.088 429.048 129.491 427.825 129.617 426.566V423.485L244.43 253.199L248.759 255.54Z" fill="black"/>
<path d="M379.931 287.613L380.239 287.398L380.424 287.29C381.567 286.469 382.527 285.42 383.243 284.209C384.166 282.779 384.697 281.133 384.783 279.433L276.117 250.287L348.875 305.56L379.931 287.613Z" fill="#27DEBF"/>
<path opacity="0.25" d="M379.931 287.613L380.239 287.398L380.424 287.29C381.567 286.469 382.527 285.42 383.243 284.209C384.166 282.779 384.697 281.133 384.783 279.433L276.117 250.287L348.875 305.56L379.931 287.613Z" fill="black"/>
<path d="M383.289 284.147C382.573 285.359 381.613 286.408 380.47 287.228L380.285 287.336L134.469 429.339C133.517 430.017 132.283 430.157 131.203 429.708L248.758 255.479C253.631 247.706 263.468 244.682 271.865 248.377L383.289 284.147Z" fill="#27DEBF"/>
<path opacity="0.15" d="M383.289 284.147C382.573 285.359 381.613 286.408 380.47 287.228L380.285 287.336L134.469 429.339C133.517 430.017 132.283 430.157 131.203 429.708L248.758 255.479C253.631 247.706 263.468 244.682 271.865 248.377L383.289 284.147Z" fill="black"/>
<path opacity="0.15" d="M115.552 206.768L119.449 209.033C118.908 210.728 118.607 212.491 118.556 214.27V226.425L114.658 224.253V211.929C114.717 210.176 115.018 208.439 115.552 206.768Z" fill="black"/>
<path d="M136.072 232.063L132.19 234.297L128.246 232.032L118.541 226.44L122.315 224.207L136.072 232.063Z" fill="#27DEBF"/>
<path opacity="0.05" d="M136.241 232.125L122.377 224.207L118.603 226.44L128.308 232.032L132.251 234.297C132.487 234.19 132.736 234.112 132.991 234.066C133.686 233.914 134.406 233.914 135.101 234.066L142.942 236.946L233.046 270.129L234.448 268.034L136.241 232.125Z" fill="black"/>
<path d="M183.011 262.765C183.197 259.276 185.04 256.087 187.971 254.185L432.632 112.937C435.749 111.351 439.436 111.351 442.553 112.937L448.145 116.157C451.07 118.071 452.912 121.262 453.105 124.753L453.105 319.27C452.907 322.756 451.066 325.94 448.145 327.851L203.468 469.099C200.354 470.67 196.678 470.67 193.563 469.099L187.971 465.879C185.049 463.961 183.209 460.773 183.011 457.283L183.011 262.765Z" fill="#27DEBF"/>
<path d="M184.428 257.959L198.508 266.077L451.611 119.931C450.779 118.421 449.575 117.148 448.114 116.234L442.506 113.014C439.404 111.413 435.719 111.413 432.616 113.014L187.94 254.246C186.474 255.166 185.265 256.444 184.428 257.959Z" fill="#27DEBF"/>
<path opacity="0.35" d="M184.428 257.959L198.508 266.077L451.611 119.931C450.779 118.421 449.575 117.148 448.114 116.234L442.506 113.014C439.404 111.413 435.719 111.413 432.616 113.014L187.94 254.246C186.474 255.166 185.265 256.444 184.428 257.959Z" fill="white"/>
<path opacity="0.1" d="M182.979 262.842V457.298C183.163 460.792 185.007 463.987 187.94 465.894L193.532 469.191C193.965 469.436 194.418 469.642 194.888 469.807C195.555 470.022 196.241 470.177 196.936 470.269C198.239 470.439 199.562 470.393 200.849 470.131C201.177 470.067 201.501 469.984 201.82 469.884L202.421 469.684C201.645 469.976 200.784 469.942 200.033 469.592C198.942 468.882 198.346 467.618 198.492 466.326L198.492 266.062L184.412 257.943C183.525 259.428 183.032 261.114 182.979 262.842Z" fill="black"/>
<path d="M225.528 282.961L296.622 241.907C297.731 241.276 298.625 241.784 298.625 243.062V243.632C298.548 245.041 297.804 246.329 296.622 247.099L225.528 288.137C224.434 288.769 223.541 288.261 223.541 286.982V286.427C223.614 285.021 224.352 283.734 225.528 282.961Z" fill="#455A64"/>
<path d="M225.528 294.823L296.622 253.769C297.731 253.137 298.625 253.646 298.625 254.924V255.494C298.543 256.902 297.801 258.187 296.622 258.96L225.528 299.999C224.434 300.631 223.541 300.122 223.541 298.844V298.289C223.614 296.883 224.352 295.596 225.528 294.823Z" fill="#455A64"/>
<path d="M225.528 306.669L296.622 265.631C297.731 264.999 298.625 265.508 298.625 266.786V267.387C298.543 268.794 297.801 270.08 296.622 270.853L225.528 311.892C224.434 312.523 223.541 312.015 223.541 310.736V310.166C223.612 308.752 224.349 307.454 225.528 306.669Z" fill="#455A64"/>
<path d="M354.668 303.018L425.746 261.979C426.855 261.348 427.749 261.856 427.749 263.135V263.689C427.676 265.095 426.938 266.382 425.761 267.155L354.668 308.21C353.559 308.841 352.665 308.333 352.665 307.054V306.484C352.746 305.077 353.489 303.791 354.668 303.018Z" fill="#455A64"/>
<path d="M354.668 314.88L425.746 273.841C426.855 273.21 427.749 273.718 427.749 274.997V275.551C427.676 276.957 426.938 278.244 425.761 279.017L354.668 320.071C353.559 320.703 352.665 320.179 352.665 318.916V318.346C352.741 316.937 353.485 315.65 354.668 314.88Z" fill="#455A64"/>
<path d="M354.668 326.742L425.746 285.703C426.855 285.056 427.749 285.58 427.749 286.859V287.413C427.676 288.819 426.938 290.106 425.761 290.879L354.668 331.934C353.559 332.565 352.665 332.041 352.665 330.778V330.208C352.741 328.8 353.485 327.512 354.668 326.742Z" fill="#455A64"/>
<path d="M354.668 338.603L425.746 297.565C426.855 296.918 427.749 297.442 427.749 298.72V299.275C427.676 300.681 426.938 301.968 425.761 302.741L354.668 343.78C353.559 344.427 352.665 343.903 352.665 342.624V342.07C352.741 340.661 353.485 339.373 354.668 338.603Z" fill="#455A64"/>
<path opacity="0.1" d="M396.631 183.492L397.201 184.185C397.925 185.063 399.234 184.308 399.958 182.645L400.513 181.32C401.237 179.594 402.546 178.839 403.27 179.779L403.84 180.472C404.564 181.35 405.873 180.596 406.598 178.932L407.152 177.592C407.876 175.866 409.186 175.111 409.91 176.051L410.48 176.729C411.204 177.607 412.498 176.852 413.237 175.189L413.792 173.848C414.516 172.138 415.825 171.384 416.549 172.308L417.119 172.986C417.843 173.864 419.137 173.109 419.861 171.445L420.431 170.105C421.155 168.395 422.465 167.64 423.189 168.564L424.097 169.674C424.683 170.382 425.638 170.028 426.454 168.842L426.824 168.256C428.365 165.946 430.136 167.193 429.505 170.09C429.196 171.43 429.505 172.631 430.105 173.001L430.922 173.479C431.892 174.049 431.892 176.282 430.922 177.961C429.967 179.625 429.967 181.874 430.922 182.429C431.892 182.983 431.892 185.217 430.922 186.896C429.967 188.575 429.967 190.809 430.922 191.364C431.892 191.934 431.892 194.167 430.922 195.847C429.967 197.526 429.967 199.759 430.922 200.314C431.892 200.869 431.892 203.102 430.922 204.781C429.967 206.46 429.967 208.694 430.922 209.264C431.892 209.819 431.892 212.052 430.922 213.732L430.105 215.164C429.451 216.244 429.236 217.535 429.505 218.769C430.136 220.926 428.303 224.299 426.824 223.683L426.454 223.529C425.7 223.221 424.683 224.022 424.097 225.424L423.189 227.581C422.465 229.306 421.155 230.061 420.431 229.121L419.861 228.428C419.137 227.55 417.843 228.305 417.119 229.968L416.549 231.293C415.825 233.019 414.516 233.773 413.792 232.834L413.237 232.14C412.498 231.262 411.204 232.017 410.48 233.681L409.91 235.021C409.186 236.747 407.876 237.501 407.152 236.562L406.598 235.884C405.873 235.006 404.564 235.761 403.84 237.424L403.27 238.765C402.546 240.474 401.237 241.229 400.513 240.305L399.958 239.658C399.234 238.78 397.925 239.519 397.201 241.199L396.631 242.539C395.907 244.249 394.597 245.004 393.873 244.079L392.964 242.97C392.379 242.246 391.424 242.6 390.607 243.802L390.238 244.387C388.697 246.698 386.925 245.45 387.557 242.554C387.85 241.214 387.557 240.028 386.956 239.658L386.124 239.181C385.154 238.611 385.154 236.377 386.124 234.698C387.095 233.019 387.095 230.785 386.124 230.23C385.154 229.676 385.154 227.442 386.124 225.763C387.095 224.084 387.095 221.85 386.124 221.28C385.154 220.725 385.154 218.492 386.124 216.813C387.095 215.133 387.095 212.9 386.124 212.345C385.154 211.791 385.154 209.541 386.124 207.878C387.095 206.199 387.095 203.965 386.124 203.395C385.154 202.84 385.154 200.607 386.124 198.928L386.956 197.495C387.596 196.409 387.811 195.125 387.557 193.89C386.925 191.733 388.759 188.36 390.238 188.976L390.607 189.13C391.362 189.438 392.379 188.637 392.964 187.235L393.873 185.063C394.597 183.369 395.907 182.66 396.631 183.492Z" fill="black"/>
<path d="M398.418 182.968L398.972 183.646C399.696 184.524 401.006 183.769 401.73 182.105L402.3 180.765C403.024 179.04 404.333 178.3 405.057 179.225L405.612 179.902C406.336 180.78 407.645 180.026 408.369 178.362L408.939 177.022C409.663 175.312 410.957 174.557 411.681 175.481L412.251 176.159C412.975 177.052 414.285 176.298 415.009 174.619L415.579 173.278C416.303 171.568 417.597 170.814 418.321 171.738L418.891 172.431C419.615 173.309 420.924 172.554 421.648 170.891L422.203 169.566C422.927 167.84 424.236 167.086 424.96 168.025L425.885 169.134C426.47 169.858 427.425 169.504 428.242 168.303L428.611 167.733C430.152 165.406 431.923 166.654 431.276 169.55C430.984 170.891 431.276 172.077 431.877 172.446L432.709 172.939C433.68 173.494 433.68 175.728 432.709 177.407C431.739 179.086 431.739 181.32 432.709 181.874C433.68 182.444 433.68 184.678 432.709 186.357C431.739 188.021 431.739 190.255 432.709 190.825C433.68 191.379 433.68 193.613 432.709 195.292C431.739 196.971 431.739 199.205 432.709 199.759C433.68 200.329 433.68 202.563 432.709 204.242C431.739 205.921 431.739 208.155 432.709 208.71C433.68 209.264 433.68 211.498 432.709 213.177L431.877 214.625C431.237 215.705 431.022 216.985 431.276 218.214C431.923 220.371 430.09 223.745 428.611 223.144L428.242 222.99C427.471 222.666 426.47 223.483 425.885 224.885L424.96 227.041C424.236 228.751 422.927 229.506 422.203 228.582L421.648 227.904C420.924 227.011 419.615 227.765 418.891 229.445L418.321 230.785C417.597 232.495 416.303 233.25 415.579 232.325L415.009 231.632C414.285 230.754 412.975 231.509 412.251 233.173L411.681 234.497C410.957 236.223 409.663 236.978 408.939 236.038L408.369 235.345C407.645 234.467 406.336 235.221 405.612 236.885L405.057 238.21C404.333 239.935 403.024 240.69 402.3 239.75L401.73 239.057C401.006 238.179 399.696 238.934 398.972 240.598L398.418 241.938C397.694 243.663 396.384 244.418 395.66 243.478L394.751 242.369C394.151 241.661 393.211 242.015 392.379 243.201L392.009 243.787C390.469 246.113 388.697 244.849 389.344 241.953C389.637 240.613 389.344 239.427 388.743 239.042L387.911 238.564C386.941 238.01 386.941 235.776 387.911 234.097C388.882 232.418 388.882 230.184 387.911 229.614C386.941 229.059 386.941 226.826 387.911 225.147C388.882 223.467 388.882 221.234 387.911 220.679C386.941 220.109 386.941 217.875 387.911 216.212C388.882 214.533 388.882 212.299 387.911 211.729C386.941 211.174 386.941 208.941 387.911 207.262C388.882 205.582 388.882 203.349 387.911 202.794C386.941 202.224 386.941 199.99 387.911 198.311L388.743 196.879C389.385 195.794 389.599 194.508 389.344 193.274C388.697 191.117 390.53 187.759 392.009 188.36L392.379 188.514C393.149 188.822 394.151 188.021 394.751 186.619L395.66 184.462C396.369 182.829 397.678 182.074 398.418 182.968Z" fill="#F0F0F0"/>
<path d="M396.769 188.914L423.82 173.294C426.408 171.753 428.441 173.001 428.441 175.99V214.24C428.274 217.517 426.559 220.52 423.82 222.328L396.769 237.948C394.181 239.489 392.147 238.225 392.147 235.252V197.002C392.31 193.723 394.027 190.719 396.769 188.914Z" fill="#455A64"/>
<path d="M419.275 205.875C419.252 205.901 419.218 205.917 419.183 205.917C419.147 205.917 419.114 205.902 419.09 205.875L417.411 202.902L414.33 191.302C414.293 191.065 414.331 190.823 414.438 190.609L416.163 187.528V187.127L415.455 187.528C415.331 187.528 415.224 187.528 415.224 187.312C415.222 187.121 415.307 186.94 415.455 186.819L416.256 186.357C416.456 186.234 416.625 186.357 416.625 186.711V187.328C416.618 187.51 416.57 187.689 416.487 187.851L414.792 190.932L417.873 202.409L419.522 205.29C419.578 205.467 419.55 205.66 419.445 205.813C419.394 205.848 419.336 205.869 419.275 205.875Z" fill="#27DEBF"/>
<path d="M419.275 214.086C416.194 215.858 413.745 213.439 413.745 208.71C413.745 203.98 416.225 198.712 419.275 196.94C422.326 195.169 424.806 197.603 424.806 202.332C424.806 207.061 422.326 212.33 419.275 214.086ZM419.275 197.895C416.564 199.436 414.361 204.15 414.361 208.355C414.361 212.561 416.564 214.702 419.275 213.146C421.987 211.59 424.19 206.876 424.19 202.671C424.19 198.465 421.987 196.324 419.275 197.895Z" fill="#F0F0F0"/>
<path d="M425.253 202.301C425.176 202.301 425.099 202.301 425.099 202.147C425.099 197.171 422.495 194.629 419.276 196.493C416.056 198.357 413.453 203.903 413.453 208.817C413.455 208.943 413.398 209.063 413.299 209.141C413.206 209.141 413.145 209.141 413.145 209.002C413.145 203.749 415.902 197.911 419.307 195.954C422.711 193.998 425.468 196.678 425.468 201.916C425.49 202.078 425.402 202.234 425.253 202.301Z" fill="#27DEBF"/>
<path opacity="0.2" d="M425.253 202.301C425.176 202.301 425.099 202.301 425.099 202.147C425.099 197.171 422.495 194.629 419.276 196.493C416.056 198.357 413.453 203.903 413.453 208.817C413.455 208.943 413.398 209.063 413.299 209.141C413.206 209.141 413.145 209.141 413.145 209.002C413.145 203.749 415.902 197.911 419.307 195.954C422.711 193.998 425.468 196.678 425.468 201.916C425.49 202.078 425.402 202.234 425.253 202.301Z" fill="black"/>
<path d="M407.291 212.669C407.214 212.669 407.137 212.669 407.137 212.53C407.137 207.554 404.533 205.012 401.314 206.861C398.094 208.71 395.491 214.271 395.491 219.185C395.489 219.315 395.433 219.437 395.337 219.524C395.244 219.524 395.183 219.524 395.183 219.37C395.183 214.132 397.925 208.278 401.345 206.322C404.764 204.365 407.507 207.046 407.507 212.283C407.528 212.445 407.44 212.602 407.291 212.669Z" fill="#27DEBF"/>
<path opacity="0.2" d="M407.291 212.669C407.214 212.669 407.137 212.669 407.137 212.53C407.137 207.554 404.533 205.012 401.314 206.861C398.094 208.71 395.491 214.271 395.491 219.185C395.489 219.315 395.433 219.437 395.337 219.524C395.244 219.524 395.183 219.524 395.183 219.37C395.183 214.132 397.925 208.278 401.345 206.322C404.764 204.365 407.507 207.046 407.507 212.283C407.528 212.445 407.44 212.602 407.291 212.669Z" fill="black"/>
<path d="M401.314 224.469C398.233 226.225 395.783 223.806 395.783 219.077C395.783 214.348 398.263 209.079 401.314 207.307C404.364 205.536 406.844 207.97 406.844 212.699C406.844 217.428 404.364 222.712 401.314 224.469ZM401.314 208.263C398.602 209.803 396.399 214.532 396.399 218.723C396.399 222.913 398.602 225.085 401.314 223.513C404.025 221.942 406.228 217.259 406.228 213.053C406.228 208.848 404.025 206.707 401.314 208.263Z" fill="#F0F0F0"/>
<path d="M408.846 213.639L401.329 216.242C401.236 216.242 401.175 216.242 401.144 216.119C401.1 215.994 401.1 215.859 401.144 215.734L406.228 203.995C406.32 203.795 406.459 203.703 406.551 203.78C406.65 203.929 406.65 204.123 406.551 204.273L401.76 215.349L408.739 212.93L415.871 196.524C415.948 196.324 416.102 196.231 416.194 196.308C416.293 196.458 416.293 196.652 416.194 196.801L409.016 213.469C408.972 213.537 408.914 213.595 408.846 213.639Z" fill="#27DEBF"/>
<path d="M408.846 213.639C408.738 213.639 408.661 213.639 408.631 213.516L404.964 199.79C404.927 199.599 404.978 199.401 405.103 199.251C405.211 199.112 405.349 199.143 405.396 199.251L409.062 212.977C409.086 213.168 409.036 213.36 408.923 213.516L408.846 213.639Z" fill="#27DEBF"/>
<path d="M408.307 211.621L402.145 214.44C402.022 214.44 401.93 214.44 401.93 214.178C401.943 213.992 402.032 213.819 402.176 213.701L408.338 210.897C408.461 210.897 408.554 210.897 408.554 211.159C408.535 211.339 408.447 211.505 408.307 211.621Z" fill="#27DEBF"/>
<path d="M405.873 197.772C405.411 197.926 405.442 197.695 404.594 198.25C403.873 198.699 403.44 199.495 403.454 200.345C403.455 200.56 403.562 200.668 403.701 200.56C403.918 200.378 404.169 200.242 404.44 200.16C404.738 200.204 405.04 200.12 405.272 199.929C405.55 199.682 405.919 199.02 406.412 198.573C406.769 198.297 407.156 198.064 407.568 197.88L407.86 197.695C408.017 197.55 408.092 197.337 408.061 197.125C407.984 196.848 407.83 196.555 407.521 196.678C407.213 196.802 406.381 197.618 405.873 197.772Z" fill="#27DEBF"/>
<path opacity="0.2" d="M405.873 197.772C405.411 197.926 405.442 197.695 404.594 198.25C403.873 198.699 403.44 199.495 403.454 200.345C403.455 200.56 403.562 200.668 403.701 200.56C403.918 200.378 404.169 200.242 404.44 200.16C404.738 200.204 405.04 200.12 405.272 199.929C405.55 199.682 405.919 199.02 406.412 198.573C406.769 198.297 407.156 198.064 407.568 197.88L407.86 197.695C408.017 197.55 408.092 197.337 408.061 197.125C407.984 196.848 407.83 196.555 407.521 196.678C407.213 196.802 406.381 197.618 405.873 197.772Z" fill="black"/>
<path d="M407.984 210.389C407.891 210.389 407.814 210.389 407.768 210.281C407.73 210.089 407.781 209.891 407.906 209.742C411.898 204.981 414.31 199.096 414.808 192.904C414.809 192.723 414.91 192.557 415.07 192.473C415.193 192.473 415.286 192.565 415.27 192.765C414.752 199.242 412.238 205.399 408.076 210.389H407.984Z" fill="#27DEBF"/>
<path d="M412.944 204.227C412.944 204.227 412.837 204.227 412.79 204.227L412.143 203.764C412.036 203.764 412.02 203.487 412.143 203.287C412.267 203.087 412.359 202.979 412.451 203.056L413.114 203.502C413.206 203.502 413.222 203.78 413.114 203.98C413.083 204.077 413.024 204.163 412.944 204.227Z" fill="#27DEBF"/>
<path d="M408.846 215.472C408.061 215.935 407.414 215.303 407.414 214.101C407.381 212.906 407.911 211.765 408.846 211.02C409.616 210.574 410.263 211.19 410.263 212.407C410.298 213.594 409.773 214.729 408.846 215.472ZM408.846 211.575C408.13 212.139 407.72 213.005 407.737 213.917C407.737 214.841 408.23 215.334 408.846 214.979C409.552 214.409 409.956 213.545 409.94 212.638C409.94 211.698 409.447 211.221 408.846 211.575Z" fill="#F0F0F0"/>
<path d="M411.326 215.133C411.294 215.156 411.251 215.156 411.218 215.133L408.738 213.47C408.738 213.47 408.661 213.269 408.738 213.131C408.815 212.992 408.908 212.915 408.969 212.961L411.45 214.502C411.527 214.502 411.542 214.687 411.45 214.825C411.487 214.944 411.435 215.073 411.326 215.133Z" fill="#F0F0F0"/>
<path d="M411.835 214.841L410.618 215.549C410.541 215.549 410.464 215.549 410.464 215.38C410.464 215.25 410.52 215.126 410.618 215.041L411.835 214.348C411.927 214.348 411.989 214.348 411.989 214.502C411.996 214.633 411.939 214.76 411.835 214.841Z" fill="#27DEBF"/>
<path opacity="0.2" d="M411.835 214.841L410.618 215.549C410.541 215.549 410.464 215.549 410.464 215.38C410.464 215.25 410.52 215.126 410.618 215.041L411.835 214.348C411.927 214.348 411.989 214.348 411.989 214.502C411.996 214.633 411.939 214.76 411.835 214.841Z" fill="black"/>
<path d="M414.238 187.743C414.212 187.204 414.433 186.682 414.839 186.326C415.178 186.126 415.44 186.449 415.44 187.05C415.473 187.59 415.251 188.115 414.839 188.467C414.516 188.667 414.238 188.329 414.238 187.743Z" fill="#27DEBF"/>
<path opacity="0.4" d="M414.238 187.743C414.212 187.204 414.433 186.682 414.839 186.326C415.178 186.126 415.44 186.449 415.44 187.05C415.473 187.59 415.251 188.115 414.839 188.467C414.516 188.667 414.238 188.329 414.238 187.743Z" fill="black"/>
<path d="M414.839 187.898L412.836 189.053C412.574 189.207 412.574 188.206 412.836 188.052L414.839 186.896C415.054 186.773 415.054 187.774 414.839 187.898Z" fill="#27DEBF"/>
<path opacity="0.2" d="M414.839 187.898L412.836 189.053C412.574 189.207 412.574 188.206 412.836 188.052L414.839 186.896C415.054 186.773 415.054 187.774 414.839 187.898Z" fill="black"/>
<path d="M418.891 205.767C418.885 205.45 419.027 205.148 419.276 204.951C419.492 204.828 419.661 204.951 419.661 205.336C419.667 205.649 419.524 205.946 419.276 206.137C419.06 206.229 418.891 206.06 418.891 205.767Z" fill="#F0F0F0"/>
<path d="M400.928 216.104C400.922 215.791 401.065 215.493 401.313 215.303C401.529 215.179 401.698 215.303 401.698 215.672C401.704 215.99 401.562 216.292 401.313 216.489C401.097 216.55 400.928 216.443 400.928 216.104Z" fill="#F0F0F0"/>
<path d="M629.244 471.887C629.26 471.805 629.26 471.722 629.244 471.64C629.252 471.568 629.252 471.496 629.244 471.424C629.246 471.312 629.22 471.2 629.167 471.101C629.135 470.975 629.083 470.856 629.013 470.747C628.745 470.201 628.328 469.742 627.811 469.422L627.627 469.314L627.411 469.175H627.334L466.044 376.053L465.736 375.883C462.871 374.3 459.626 373.533 456.355 373.665H456.216C453.423 373.804 450.704 374.607 448.283 376.007L436.559 382.754L233.014 500.001L207.088 514.959C205.637 516.065 204.751 517.758 204.669 519.58V533.922C204.65 536.196 205.857 538.303 207.827 539.437L210.384 540.978L368.47 632.267C371.518 633.8 375.111 633.8 378.159 632.267L595.677 506.686L627.226 488.478L627.534 488.262L627.719 488.154C628.578 487.629 629.146 486.736 629.26 485.736C629.244 485.582 629.182 472.749 629.244 471.887Z" fill="#27DEBF"/>
<path opacity="0.25" d="M370.365 633.13L370.719 633.238C371.136 633.329 371.557 633.396 371.982 633.438C372.29 633.438 372.614 633.438 372.922 633.438H373.307V619.496C371.605 619.541 369.92 619.138 368.423 618.326L207.796 525.65C205.693 524.469 204.453 522.187 204.608 519.78L204.608 534.076C204.588 536.35 205.795 538.457 207.766 539.591L210.323 541.132L368.408 632.421C368.759 632.618 369.125 632.788 369.502 632.929C369.785 633.013 370.073 633.08 370.365 633.13Z" fill="black"/>
<path opacity="0.15" d="M629.244 485.828C629.131 486.828 628.562 487.721 627.704 488.247L627.519 488.354L627.211 488.57L595.677 506.779L378.159 632.359C376.735 633.11 375.148 633.501 373.538 633.499H373.384V619.558C375.054 619.564 376.701 619.174 378.19 618.418L627.565 474.428L627.75 474.32C628.609 473.795 629.177 472.902 629.29 471.902C629.182 472.749 629.244 485.581 629.244 485.828Z" fill="black"/>
<path opacity="0.4" d="M629.244 471.887C629.131 472.887 628.562 473.78 627.704 474.305L627.519 474.413L595.6 492.822L463.857 568.907L378.098 618.403C375.05 619.936 371.456 619.936 368.408 618.403L365.651 616.862L242.565 545.784L210.323 527.175L207.766 525.711C205.723 524.543 204.505 522.332 204.608 519.981V519.796C204.69 517.973 205.576 516.281 207.026 515.174L233.014 500.001L436.359 382.554L448.082 375.806C450.503 374.407 453.223 373.604 456.016 373.465L456.154 373.465C459.425 373.333 462.67 374.1 465.536 375.683L465.844 375.852L627.134 468.975H627.21L627.426 469.114L627.611 469.222C628.128 469.542 628.545 470.001 628.813 470.546C628.883 470.655 628.935 470.775 628.967 470.901C629.019 471 629.046 471.112 629.044 471.224C629.056 471.296 629.056 471.369 629.044 471.44C629.168 471.556 629.24 471.717 629.244 471.887Z" fill="black"/>
<path d="M629.244 471.887C629.131 472.887 628.562 473.78 627.704 474.305L627.519 474.413L595.6 492.822L463.857 568.907L378.098 618.403C375.05 619.936 371.456 619.936 368.408 618.403L365.651 616.862L242.565 545.784L210.323 527.175L207.766 525.711C205.723 524.543 204.505 522.331 204.608 519.981V519.796C205.571 519.537 206.556 519.366 207.55 519.288L236.419 516.422L386.232 501.495L409.616 499.153C414.761 498.645 419.383 496.781 419.876 494.994L424.605 479.296L453.875 381.383L456.077 374.096V374.004C456.125 373.837 456.193 373.677 456.278 373.526C459.549 373.395 462.793 374.162 465.659 375.745L465.967 375.914L472.977 379.981L627.257 469.037H627.334L627.549 469.175L627.734 469.283C628.251 469.603 628.668 470.062 628.936 470.608C629.006 470.717 629.058 470.837 629.09 470.962C629.143 471.062 629.169 471.173 629.167 471.286C629.179 471.357 629.179 471.43 629.167 471.501C629.233 471.618 629.26 471.753 629.244 471.887Z" fill="#27DEBF"/>
<path opacity="0.25" d="M627.226 474.613C627.334 474.555 627.437 474.488 627.534 474.413L627.719 474.305C628.583 473.785 629.153 472.889 629.26 471.886C629.21 470.648 628.465 469.544 627.334 469.037L445.34 477.879L444.955 481.561L595.708 492.822L627.226 474.613Z" fill="black"/>
<path opacity="0.25" d="M368.408 618.403C369.959 619.234 371.703 619.638 373.461 619.573C375.07 619.566 376.654 619.175 378.082 618.434L463.842 568.938L399.341 512.925L384.013 513.464L365.527 616.847L368.408 618.403Z" fill="black"/>
<path d="M629.229 471.887C629.123 472.89 628.552 473.785 627.688 474.305L627.503 474.413L378.16 618.403C376.731 619.144 375.147 619.535 373.538 619.543L387.557 489.91C388.127 484.534 400.466 480.128 416.502 479.543L629.229 471.887Z" fill="#27DEBF"/>
<path opacity="0.25" d="M456.247 373.465L455.446 381.167L445.279 478.218V478.511L445.032 480.883L442.829 501.973C442.259 507.349 429.936 511.77 413.868 512.356L399.465 512.879L385.015 513.403H384.152L236.989 518.702L204.639 519.889V519.704C204.721 517.881 205.607 516.189 207.057 515.082L233.014 500.001L436.467 382.6L448.144 375.853C450.565 374.453 453.285 373.651 456.078 373.511L456.247 373.465Z" fill="black"/>
<path d="M456.108 373.48V373.942V374.035L454.906 381.244L438.916 478.572V478.757L438.654 480.39L435.712 498.306C434.88 503.374 423.634 507.549 408.676 508.396L395.212 509.136L385.461 509.69H384.86L236.896 517.963L204.73 519.75C204.813 517.927 205.698 516.235 207.149 515.128L233.014 500.001L436.467 382.6L448.144 375.852C450.571 374.437 453.302 373.624 456.108 373.48Z" fill="#27DEBF"/>
<path d="M426.007 520.335C414.207 520.335 407.367 518.163 404.348 516.869C399.172 514.651 395.891 511.03 395.367 506.948C394.905 503.359 396.538 499.923 399.988 497.243C404.739 493.94 410.427 492.254 416.21 492.437C417.072 492.437 417.92 492.437 418.767 492.529C418.675 491.618 418.721 490.699 418.906 489.802C419.63 486.444 422.31 483.641 426.439 481.977C429.501 480.784 432.765 480.193 436.051 480.236C442.058 480.141 447.946 481.912 452.904 485.304C455.677 487.384 464.335 495.302 459.282 509.952L456.817 516.946L445.063 518.779C438.759 519.771 432.389 520.286 426.007 520.319V520.335Z" fill="#FAFAFA"/>
<path d="M427.594 484.827C421.432 487.353 420.061 492.36 424.082 496.581C416.518 494.408 407.136 495.61 401.868 499.662C396.029 504.206 397.678 510.645 405.565 514.019C409.539 515.714 421.293 519.288 444.585 515.683L454.522 514.142L456.355 508.889C460.607 496.565 454.059 490.018 451.04 487.754C444.11 483.17 435.438 482.088 427.594 484.827Z" fill="#455A64"/>
<path d="M28.4681 459.224L30.1318 459.301C32.2885 459.394 34.0755 458.361 33.906 457.114L33.7828 456.159C33.6133 454.911 35.4003 453.879 37.557 453.986H39.2207C41.362 454.079 43.149 453.047 42.9949 451.814L42.8563 450.859C42.7022 449.611 44.4892 448.579 46.6305 448.672H48.2942C50.4509 448.764 52.2379 447.732 52.0684 446.5L51.9452 445.529C51.7757 444.297 53.4857 443.265 55.7194 443.357H57.3831C59.5244 443.465 61.3268 442.433 61.1573 441.185L61.0341 440.23C60.8646 438.982 62.5746 437.95 64.7929 438.042L67.5041 438.165C68.9303 438.406 70.3679 437.807 71.2013 436.625L71.3862 436.147C72.1102 434.222 76.6701 433.96 78.0411 435.762C79.0244 436.718 80.3987 437.157 81.7537 436.948L83.7563 436.794C86.0671 436.594 88.0543 437.75 87.7308 439.09C87.3919 440.415 89.3791 441.57 91.6899 441.385C94.016 441.185 96.0033 442.34 95.6643 443.665C95.3408 445.005 97.3281 446.161 99.6388 445.96C101.965 445.775 103.952 446.915 103.613 448.256C103.29 449.596 105.277 450.751 107.588 450.551C109.914 450.366 111.901 451.506 111.562 452.846C111.239 454.186 113.226 455.326 115.537 455.142C117.863 454.957 119.85 456.097 119.511 457.437L119.234 458.592C119.018 459.486 119.85 460.364 121.298 460.734C124.379 461.519 123.963 464.153 120.636 464.585L119.804 464.677C118.094 464.893 116.908 465.817 117.046 466.819L117.247 468.359C117.416 469.607 115.706 470.639 113.472 470.547L111.886 470.732C109.744 470.639 107.957 471.671 108.111 472.904L108.25 473.874C108.404 475.107 106.617 476.139 104.476 476.046H102.812C100.656 475.954 98.8685 476.986 99.038 478.234L99.1612 479.189C99.3307 480.437 97.6208 481.469 95.387 481.361H93.7233C91.582 481.269 89.7951 482.301 89.9491 483.533L90.0723 484.504C90.2418 485.736 88.5319 486.768 86.3136 486.676H84.6344C82.4931 486.583 80.7062 487.615 80.8756 488.848L80.9989 489.818C81.1529 491.051 79.3659 492.083 77.2247 491.99L74.5288 491.883C73.0985 491.643 71.6571 492.242 70.8162 493.423L70.6468 493.901C69.9227 495.826 65.3629 496.088 63.9918 494.286C63.0076 493.331 61.6362 492.887 60.2792 493.084L58.292 493.254C55.9659 493.438 53.994 492.298 54.3175 490.958C54.641 489.618 52.6538 488.478 50.3431 488.663C48.0323 488.848 46.0451 487.708 46.3686 486.368C46.6921 485.027 44.7049 483.888 42.3941 484.072C40.0834 484.273 38.0962 483.117 38.4197 481.777C38.7432 480.437 36.7713 479.297 34.4452 479.482C32.1345 479.682 30.1472 478.527 30.4707 477.186C30.7942 475.862 28.8224 474.706 26.4963 474.891C24.1855 475.091 22.1983 473.936 22.5218 472.611L22.8145 471.456C23.0301 470.547 22.1829 469.684 20.7348 469.314C17.6538 468.529 18.0544 465.895 21.3972 465.479L22.2291 465.371C23.939 465.155 25.1098 464.246 24.9712 463.245L24.7709 461.704C24.5398 460.164 26.3268 459.132 28.4681 459.224Z" fill="#FAFAFA"/>
<path d="M30.6865 463.029L67.6583 441.647C71.186 439.613 76.1927 439.198 78.8269 440.723L112.887 460.41C115.537 461.951 114.828 464.831 111.347 466.865L74.3749 488.247C70.8471 490.28 65.8405 490.696 63.1909 489.171L29.0844 469.545C26.4348 468.005 27.1588 465.124 30.6865 463.029Z" fill="#27DEBF"/>
<path d="M88.1164 460.672C87.9859 460.713 87.8463 460.713 87.7159 460.672L81.9236 459.964L65.7947 455.542C65.5328 455.465 65.3633 455.311 65.3941 455.127L65.8101 452.662L65.4558 452.462L64.4853 453.016C64.2848 453.108 64.0541 453.108 63.8536 453.016C63.6842 452.908 63.6842 452.739 63.8536 452.646L64.9474 452.015C65.2633 451.86 65.6328 451.86 65.9487 452.015L66.5033 452.338C66.6573 452.431 66.7344 452.539 66.7036 452.662L66.2876 455.111L82.2471 459.486L87.8853 460.164C88.1318 460.164 88.2859 460.318 88.2396 460.472C88.2382 460.556 88.1909 460.633 88.1164 460.672Z" fill="#455A64"/>
<path d="M95.4175 464.893C90.6415 467.304 85.0044 467.304 80.2283 464.893C76.0228 462.459 76.0073 458.531 80.2283 456.128C85.0026 453.709 90.6432 453.709 95.4175 456.128C99.5615 458.546 99.5615 462.475 95.4175 464.893ZM81.0756 456.575C77.363 458.716 77.3784 462.213 81.0756 464.369C85.3224 466.519 90.3388 466.519 94.5857 464.369C98.2983 462.228 98.2829 458.731 94.5857 456.575C90.34 454.42 85.3212 454.42 81.0756 456.575Z" fill="#F0F0F0"/>
<path d="M96.1884 455.881C96.0607 455.959 95.9003 455.959 95.7725 455.881C90.7384 453.346 84.8009 453.346 79.7668 455.881C75.3764 458.423 75.4072 462.567 79.7668 465.124C79.8746 465.124 79.89 465.294 79.7668 465.371C79.635 465.432 79.4827 465.432 79.3509 465.371C74.7294 462.675 74.7294 458.315 79.3509 455.65C84.6413 452.961 90.8981 452.961 96.1884 455.65C96.3117 455.712 96.3117 455.82 96.1884 455.881Z" fill="#27DEBF"/>
<path opacity="0.2" d="M96.1884 455.881C96.0607 455.959 95.9003 455.959 95.7725 455.881C90.7384 453.346 84.8009 453.346 79.7668 455.881C75.3764 458.423 75.4072 462.567 79.7668 465.124C79.8746 465.124 79.89 465.294 79.7668 465.371C79.635 465.432 79.4827 465.432 79.3509 465.371C74.7294 462.675 74.7294 458.315 79.3509 455.65C84.6413 452.961 90.8981 452.961 96.1884 455.65C96.3117 455.712 96.3117 455.82 96.1884 455.881Z" fill="black"/>
<path d="M71.6169 470.084C71.4798 470.146 71.3227 470.146 71.1856 470.084C66.1604 467.535 60.2205 467.535 55.1953 470.084C50.8049 472.611 50.8203 476.755 55.1953 479.327C55.3185 479.327 55.3185 479.497 55.1953 479.574C55.0582 479.636 54.9011 479.636 54.7639 479.574C50.1425 476.878 50.1425 472.518 54.764 469.853C60.0543 467.164 66.3112 467.164 71.6015 469.853C71.7248 469.9 71.7248 470.007 71.6169 470.084Z" fill="#27DEBF"/>
<path opacity="0.2" d="M71.6169 470.084C71.4798 470.146 71.3227 470.146 71.1856 470.084C66.1604 467.535 60.2205 467.535 55.1953 470.084C50.8049 472.611 50.8203 476.755 55.1953 479.327C55.3185 479.327 55.3185 479.497 55.1953 479.574C55.0582 479.636 54.9011 479.636 54.7639 479.574C50.1425 476.878 50.1425 472.518 54.764 469.853C60.0543 467.164 66.3112 467.164 71.6015 469.853C71.7248 469.9 71.7248 470.007 71.6169 470.084Z" fill="black"/>
<path d="M70.8472 479.081C66.0711 481.492 60.434 481.492 55.6579 479.081C51.4524 476.662 51.4216 472.719 55.6579 470.316C60.4304 467.89 66.0747 467.89 70.8472 470.315C74.9911 472.734 75.0219 476.662 70.8472 479.081ZM56.4282 470.731C52.7156 472.873 52.731 476.385 56.4282 478.542C60.675 480.691 65.6914 480.691 69.9383 478.542C73.6509 476.4 73.62 472.904 69.9383 470.747C65.6938 468.592 60.6775 468.587 56.4282 470.731Z" fill="#F0F0F0"/>
<path d="M75.376 469.807L63.5296 474.875C63.3843 474.922 63.2282 474.922 63.0829 474.875C62.9603 474.863 62.8573 474.778 62.821 474.66L61.9121 466.11C61.9121 465.971 62.0816 465.848 62.328 465.833C62.5745 465.817 62.7902 465.941 62.8056 466.079L63.6221 474.136L74.5903 469.515L73.3734 457.56C73.3734 457.406 73.5428 457.298 73.7893 457.283C74.0358 457.268 74.2514 457.391 74.2668 457.53L75.4838 469.607C75.4981 469.691 75.4536 469.773 75.376 469.807Z" fill="#455A64"/>
<path d="M75.3762 469.807C75.2126 469.87 75.0315 469.87 74.8679 469.807L55.7658 464.57C55.5501 464.57 55.4423 464.354 55.5501 464.231C55.717 464.091 55.9427 464.045 56.1509 464.107L75.253 469.345C75.4687 469.345 75.5611 469.561 75.4687 469.684L75.3762 469.807Z" fill="#455A64"/>
<path d="M72.5726 469.037L63.3296 473.535C63.1308 473.634 62.8969 473.634 62.698 473.535C62.544 473.427 62.5748 473.258 62.698 473.181L71.941 468.667C72.1339 468.566 72.3643 468.566 72.5572 468.667C72.6593 468.663 72.7455 468.742 72.7497 468.844C72.754 468.947 72.6747 469.033 72.5726 469.037Z" fill="#455A64"/>
<path d="M55.6888 463.137C54.9892 463.323 54.3237 463.62 53.717 464.015C52.7927 464.6 52.6233 465.124 53.4243 465.648C53.6331 465.772 53.8933 465.772 54.1021 465.648C54.4089 465.406 54.752 465.213 55.1188 465.078C55.5856 465 56.0313 464.827 56.4283 464.569C56.7364 464.308 56.8288 463.784 57.368 463.306C57.8476 462.945 58.364 462.635 58.9085 462.382L59.2628 462.135C59.4476 462.012 59.386 461.827 59.1241 461.75C58.6772 461.583 58.1846 461.583 57.7377 461.75C57.1677 462.074 56.5207 462.798 55.6888 463.137Z" fill="#27DEBF"/>
<path opacity="0.2" d="M55.6888 463.137C54.9892 463.323 54.3237 463.62 53.717 464.015C52.7927 464.6 52.6233 465.124 53.4243 465.648C53.6331 465.772 53.8933 465.772 54.1021 465.648C54.4089 465.406 54.752 465.213 55.1188 465.078C55.5856 465 56.0313 464.827 56.4283 464.569C56.7364 464.308 56.8288 463.784 57.368 463.306C57.8476 462.945 58.364 462.635 58.9085 462.382L59.2628 462.135C59.4476 462.012 59.386 461.827 59.1241 461.75C58.6772 461.583 58.1846 461.583 57.7377 461.75C57.1677 462.074 56.5207 462.798 55.6888 463.137Z" fill="black"/>
<path d="M70.9396 468.59C70.7814 468.654 70.6049 468.654 70.4467 468.59C70.2156 468.59 70.1232 468.39 70.2156 468.251C73.4968 463.969 72.8344 459.917 68.2438 456.205C68.1051 456.097 68.1513 455.943 68.3516 455.85C68.5462 455.756 68.7731 455.756 68.9678 455.85C73.7587 459.717 74.4519 463.938 71.032 468.405C71.0533 468.481 71.0133 468.561 70.9396 468.59Z" fill="#455A64"/>
<path d="M74.6829 462.921C74.5991 462.971 74.5033 462.998 74.4056 462.998L72.7727 463.09C72.5262 463.09 72.3105 462.998 72.2797 462.859C72.2489 462.721 72.4338 462.598 72.6803 462.582L74.3132 462.49C74.5596 462.49 74.7753 462.582 74.8061 462.721C74.8183 462.808 74.7666 462.892 74.6829 462.921Z" fill="#455A64"/>
<path d="M77.0089 470.731C75.7844 471.354 74.336 471.354 73.1115 470.731C72.0332 470.1 72.0332 469.098 73.1115 468.482C74.336 467.859 75.7844 467.859 77.0089 468.482C78.0873 469.191 78.0873 470.131 77.0089 470.731ZM73.5428 468.729C72.711 469.206 72.7264 469.992 73.5428 470.47C74.506 470.982 75.6607 470.982 76.6238 470.47C76.9916 470.338 77.2371 469.99 77.2371 469.599C77.2371 469.209 76.9916 468.86 76.6238 468.729C75.6568 468.227 74.5048 468.233 73.5428 468.744L73.5428 468.729Z" fill="#F0F0F0"/>
<path d="M81.3841 469.345C81.3238 469.363 81.2595 469.363 81.1992 469.345L75.0373 469.746C74.8678 469.746 74.6983 469.746 74.6829 469.576C74.6675 469.407 74.7908 469.392 74.9602 469.376L81.1222 468.976C81.2917 468.976 81.4457 468.976 81.4765 469.145C81.5073 469.314 81.4457 469.314 81.3841 469.345Z" fill="#F0F0F0"/>
<path d="M82.0767 468.944L80.4284 469.9C80.2893 469.976 80.1207 469.976 79.9816 469.9C79.9136 469.899 79.8584 469.844 79.8584 469.776C79.8584 469.708 79.9136 469.653 79.9816 469.653L81.6454 468.698C81.7788 468.621 81.9432 468.621 82.0767 468.698C82.1448 468.698 82.1999 468.753 82.1999 468.821C82.1999 468.889 82.1448 468.944 82.0767 468.944Z" fill="#27DEBF"/>
<path opacity="0.2" d="M82.0767 468.944L80.4284 469.9C80.2893 469.976 80.1207 469.976 79.9816 469.9C79.9136 469.899 79.8584 469.844 79.8584 469.776C79.8584 469.708 79.9136 469.653 79.9816 469.653L81.6454 468.698C81.7788 468.621 81.9432 468.621 82.0767 468.698C82.1448 468.698 82.1999 468.753 82.1999 468.821C82.1999 468.889 82.1448 468.944 82.0767 468.944Z" fill="black"/>
<path d="M62.5895 453.786C62.0657 453.494 62.0041 453.031 62.4508 452.769C63.025 452.511 63.688 452.539 64.2378 452.847C64.7616 453.155 64.8232 453.601 64.3764 453.863C63.8023 454.122 63.1393 454.094 62.5895 453.786Z" fill="#27DEBF"/>
<path opacity="0.4" d="M62.5895 453.786C62.0657 453.494 62.0041 453.031 62.4508 452.769C63.025 452.511 63.688 452.539 64.2378 452.847C64.7616 453.155 64.8232 453.601 64.3764 453.863C63.8023 454.122 63.1393 454.094 62.5895 453.786Z" fill="black"/>
<path d="M63.7913 453.648L61.0493 455.188C60.695 455.389 59.8015 454.88 60.1558 454.68L62.8979 453.139C63.206 452.955 64.1303 453.463 63.7913 453.648Z" fill="#27DEBF"/>
<path opacity="0.2" d="M63.7913 453.648L61.0493 455.188C60.695 455.389 59.8015 454.88 60.1558 454.68L62.8979 453.139C63.206 452.955 64.1303 453.463 63.7913 453.648Z" fill="black"/>
<path d="M87.2376 460.795C87.1036 460.752 87.0127 460.628 87.0127 460.487C87.0127 460.347 87.1036 460.222 87.2376 460.179C87.5678 460.016 87.9548 460.016 88.2851 460.179C88.408 460.228 88.4887 460.347 88.4887 460.479C88.4887 460.612 88.408 460.731 88.2851 460.78C87.9578 460.95 87.5697 460.955 87.2376 460.795Z" fill="#F0F0F0"/>
<path d="M62.698 474.984C62.4053 474.814 62.4053 474.537 62.698 474.383C63.0265 474.213 63.4171 474.213 63.7456 474.383C64.0383 474.552 64.0383 474.814 63.7456 474.984C63.4171 475.154 63.0265 475.154 62.698 474.984Z" fill="#F0F0F0"/>
<path d="M89.8103 496.057L91.4741 496.134C93.6308 496.227 95.4177 495.195 95.2483 493.962L95.125 492.992C94.9556 491.759 96.6655 490.727 98.8992 490.82H100.563C102.704 490.912 104.491 489.88 104.337 488.632L104.214 487.677C104.044 486.429 105.754 485.397 107.973 485.489L109.652 485.566C111.793 485.659 113.58 484.627 113.411 483.394L113.287 482.424C113.133 481.191 114.92 480.159 117.062 480.252H118.725C120.882 480.344 122.669 479.312 122.5 478.064L122.376 477.109C122.207 475.877 123.917 474.845 126.151 474.937L128.846 475.045C130.273 475.285 131.71 474.686 132.544 473.504L132.728 473.027C133.452 471.101 138.012 470.839 139.383 472.642C140.366 473.598 141.739 474.043 143.096 473.843L145.083 473.674C147.394 473.489 149.381 474.629 149.058 475.969C148.719 477.309 150.706 478.449 153.032 478.265C155.343 478.064 157.33 479.22 157.007 480.56C156.668 481.9 158.655 483.04 160.981 482.855C163.292 482.655 165.279 483.81 164.956 485.15C164.617 486.475 166.604 487.631 168.93 487.446C171.241 487.246 173.228 488.401 172.904 489.741C172.581 491.066 174.568 492.221 176.879 492.021C179.205 491.836 181.192 492.992 180.853 494.316L180.576 495.472C180.36 496.365 181.208 497.243 182.64 497.613C185.721 498.399 185.305 501.033 181.978 501.449L181.146 501.557C179.436 501.772 178.265 502.681 178.389 503.683L178.589 505.223C178.758 506.455 177.048 507.488 174.83 507.395L173.151 507.318C171.01 507.226 169.223 508.258 169.392 509.49L169.515 510.461C169.669 511.693 167.882 512.725 165.741 512.633H164.077C161.921 512.525 160.134 513.557 160.303 514.805L160.427 515.76C160.596 517.008 158.886 518.04 156.652 517.948L154.989 517.871C152.847 517.778 151.06 518.81 151.214 520.043L151.353 521.013C151.507 522.246 149.72 523.278 147.579 523.185L145.915 523.108C143.758 523.016 141.971 524.048 142.141 525.296L142.264 526.251C142.434 527.499 140.724 528.531 138.49 528.438L135.794 528.315C134.368 528.071 132.928 528.671 132.097 529.856L131.912 530.333C131.188 532.259 126.628 532.521 125.257 530.718C124.275 529.761 122.9 529.322 121.544 529.532L119.557 529.686C117.247 529.887 115.259 528.731 115.583 527.391C115.922 526.051 113.934 524.911 111.608 525.096C109.298 525.296 107.31 524.141 107.634 522.8C107.973 521.476 105.986 520.32 103.659 520.52C101.349 520.705 99.3614 519.55 99.6849 518.225C100.024 516.885 98.0366 515.729 95.7104 515.93C93.3997 516.115 91.4125 514.975 91.736 513.634C92.0749 512.294 90.0876 511.139 87.7615 511.339C85.4508 511.524 83.4635 510.384 83.787 509.044L84.0797 507.888C84.2954 506.995 83.4481 506.117 82.0001 505.747C78.9191 504.946 79.335 502.327 82.6625 501.896L83.4943 501.803C85.2043 501.588 86.3751 500.663 86.2518 499.662L86.0362 498.122C85.8821 496.997 87.6691 495.965 89.8103 496.057Z" fill="#FAFAFA"/>
<path d="M92.0285 500.001L129 478.619C132.528 476.586 137.535 476.17 140.184 477.695L174.168 497.321C176.817 498.861 176.109 501.742 172.627 503.775L135.655 525.157C132.128 527.191 127.121 527.607 124.471 526.082L90.4264 506.379C87.7922 504.854 88.5008 501.958 92.0285 500.001Z" fill="#455A64"/>
<path d="M145.391 492.113C145.509 491.757 145.468 491.368 145.28 491.044C145.091 490.72 144.773 490.493 144.405 490.419C143.303 490.247 142.175 490.465 141.217 491.035C141.217 491.035 140.385 490.249 137.951 490.481C135.517 490.712 133.93 491.713 132.513 494.763C132.394 495.047 132.301 495.341 132.236 495.641C132.056 494.885 131.708 494.18 131.219 493.577C130.187 492.267 127.922 489.525 124.394 489.818C120.867 490.111 121.314 491.359 121.314 491.359C120.315 491.016 119.231 491.016 118.233 491.359C117.093 492.006 118.233 493.3 118.233 493.3C117.333 493.436 116.588 494.068 116.307 494.933C115.922 496.365 117.031 497.474 121.853 498.969C123.239 499.4 124.733 499.801 126.181 500.155C123.578 499.955 120.821 499.77 119.665 499.739C117.17 499.739 111.855 499.955 111.239 501.973C110.622 503.991 112.779 504.114 112.779 504.114C112.779 504.114 111.146 504.992 111.855 505.808C112.563 506.625 115.074 506.394 115.074 506.394C115.074 506.394 114.936 507.318 117.139 507.934C119.342 508.551 121.56 508.319 125.519 506.147C126.582 505.562 127.629 504.915 128.6 504.268C127.491 505.624 126.351 507.041 125.95 507.657C125.072 509.013 123.886 512.017 127.029 512.972C130.171 513.927 131.049 512.756 131.049 512.756C131.682 513.47 132.609 513.851 133.56 513.788C134.468 513.728 135.245 513.116 135.517 512.248C136.628 512.43 137.767 512.199 138.721 511.601C140.493 510.553 140.724 509.29 138.351 506.44C137.605 505.562 136.813 504.724 135.979 503.929C137.889 504.977 139.923 506.07 140.847 506.486C142.788 507.38 147.379 508.966 149.936 507.534C152.493 506.101 150.814 505.269 150.814 505.269C150.814 505.269 153.017 505.115 153.294 504.206C153.571 503.297 151.291 502.666 151.291 502.666C151.291 502.666 152.324 501.973 151.199 500.709C150.074 499.446 147.795 498.614 142.372 499.046H141.478C142.499 498.764 143.498 498.408 144.467 497.983C146.578 496.966 150.29 495.102 148.734 493.269C147.907 492.313 146.632 491.872 145.391 492.113Z" fill="#F0F0F0"/>
<path d="M141.694 494.285C139.362 494.829 137.179 495.881 135.301 497.367C134.285 498.121 132.22 499.693 133.16 500.74C133.268 500.863 133.591 500.863 133.776 500.817C135.609 500.355 136.256 498.845 137.273 497.906C138.811 496.746 140.421 495.686 142.095 494.732C142.372 494.486 142.141 494.224 141.694 494.285Z" fill="#E0E0E0"/>
<path d="M132.451 501.542L132.282 501.649C132.283 501.504 132.234 501.362 132.143 501.249C132.389 501.249 132.605 501.033 132.62 500.879C132.99 497.998 126.859 494.979 122.638 494.163C122.515 494.163 121.96 494.24 122.176 494.347C124.106 495.348 125.937 496.529 127.645 497.875C128.677 498.722 129.586 500.032 130.726 500.956H129.863C128.606 500.948 127.352 501.067 126.12 501.311C123.177 501.88 119.141 502.851 117.477 504.53C117.293 504.715 117.893 504.7 118.032 504.653C120.307 503.868 122.655 503.316 125.041 503.005C126.824 502.669 128.646 502.601 130.448 502.805C130.808 502.887 131.185 502.838 131.511 502.666C131.023 503.762 130.731 504.935 130.649 506.132C130.499 507.616 131.181 509.062 132.42 509.891C132.667 510.06 133.483 509.891 133.298 509.629C132.821 509.105 133.036 508.273 132.929 507.657C132.778 506.202 133.006 504.732 133.591 503.39L133.822 502.82L133.914 502.666C135.07 502.851 136.564 502.836 137.288 502.882C139.932 503.004 142.553 503.433 145.098 504.16C145.33 504.237 145.992 504.16 145.745 503.898C143.518 502.546 141.029 501.68 138.443 501.357C137.103 501.002 132.913 500.109 132.451 501.542Z" fill="#E0E0E0"/>
<path d="M134.9 499.801C135.478 500.038 135.855 500.601 135.855 501.225C135.855 501.85 135.478 502.413 134.9 502.65C133.349 503.451 131.506 503.451 129.955 502.65C129.377 502.413 129 501.85 129 501.225C129 500.601 129.377 500.038 129.955 499.8C131.506 499 133.349 499 134.9 499.801Z" fill="#27DEBF"/>
<path opacity="0.05" d="M133.129 502.419C131.57 502.749 129.962 502.148 129 500.879C128.769 501.526 129.093 502.204 129.955 502.697C131.506 503.497 133.349 503.497 134.9 502.697C135.794 502.188 136.102 501.464 135.824 500.802C135.289 501.793 134.255 502.414 133.129 502.419Z" fill="black"/>
<path d="M566.731 103.617C561.355 99.2574 547.722 90.7231 543.855 88.2121C539.388 85.3006 533.488 81.172 529.174 78.0603C529.174 78.0603 511.767 50.2082 511.613 47.4969L507.792 37.0216C507.222 35.3424 507.792 31.2601 508.131 28.6721C508.485 25.7914 509.179 23.2804 509.379 22.0326C510.195 17.103 503.109 14.8385 499.905 17.257C497.328 19.358 495.426 22.1706 494.436 25.3446C490.369 37.6686 498.488 52.1338 498.488 52.1338C498.488 52.1338 509.964 78.1527 512.352 82.8358C513.927 86.4419 516.217 89.6911 519.084 92.3868C519.084 92.3868 539.989 109.332 544.487 112.721C550.125 117.019 552.467 119.084 556.426 119.915C558.629 120.362 558.644 120.316 565.16 120.347C566.04 118.587 566.678 116.716 567.055 114.786C567.178 113.338 567.871 104.557 566.731 103.617Z" fill="#B16668"/>
<path d="M546.489 115.279L554.269 121.194L572.585 104.095C570.336 102.262 565.607 100.321 561.386 98.2718C559.214 97.2243 556.764 96.0843 553.483 94.1125C553.483 94.0662 546.566 103.864 546.489 115.279Z" fill="#455A64"/>
<path d="M469.018 12.7281C468.911 12.2694 469.192 11.81 469.649 11.696L512.783 0.0344683C513.437 -0.0672659 514.105 0.0577723 514.678 0.388781L515.864 1.0512C516.436 1.35885 516.879 1.86179 517.112 2.46846L524.075 30.1973C524.131 30.42 524.095 30.6558 523.977 30.8524C523.858 31.049 523.666 31.1902 523.443 31.2448L480.309 42.9063C479.656 42.994 478.992 42.8698 478.415 42.552L477.228 41.8896C476.663 41.5737 476.222 41.0735 475.981 40.4724L469.018 12.7281Z" fill="#27DEBF"/>
<path opacity="0.4" d="M469.11 12.0963L472.099 13.7601L516.773 1.71343C516.543 1.45148 516.273 1.22787 515.972 1.05102L514.786 0.38861C514.213 0.0587988 513.545 -0.0661669 512.891 0.0343008L469.757 11.6958C469.493 11.7262 469.256 11.8731 469.11 12.0963Z" fill="white"/>
<path opacity="0.2" d="M469.018 12.728L475.981 40.4569C476.213 41.0635 476.656 41.5665 477.229 41.8741L478.415 42.5365L478.692 42.6752L479.108 42.8138C479.35 42.876 479.598 42.9173 479.847 42.937H480.063C479.904 42.9467 479.744 42.9148 479.601 42.8446C479.404 42.7287 479.261 42.5409 479.2 42.3209L472.237 14.592C472.192 14.4787 472.205 14.35 472.273 14.2483C472.34 14.1465 472.454 14.0849 472.576 14.0837L472.037 13.7756L469.049 12.1118C468.958 12.3053 468.947 12.5265 469.018 12.728Z" fill="black"/>
<path opacity="0.2" d="M472.099 13.7603L496.099 24.3127C497.809 25.0676 499.489 24.9751 500.151 24.0816L502.724 20.6463L516.881 1.66748L503.479 20.9082L524.137 30.1512C524.197 30.3722 524.157 30.6085 524.029 30.7981L503.448 20.8928L500.521 25.0984C499.843 26.0689 498.01 26.1459 496.207 25.2832L492.988 23.7427L479.663 42.7986C479.466 42.6827 479.322 42.4948 479.262 42.2748L479.139 41.8127L492.88 23.6965L472.099 13.7603Z" fill="black"/>
<path d="M514.169 36.3131C514.324 33.571 513.677 30.8906 514.262 28.1639C514.401 27.4861 514.447 26.531 513.769 26.3769C513.583 26.3242 513.385 26.3242 513.199 26.3769C511.591 27.045 510.408 28.4524 510.026 30.1511C509.533 31.5838 509.24 34.3721 507.237 35.8047L511.859 48.1287C511.628 44.986 513.954 40.457 514.169 36.3131Z" fill="#B16668"/>
<path d="M573.895 351.79C574.244 351.877 574.517 352.15 574.603 352.499C574.924 354.057 575.166 355.63 575.327 357.213C575.934 359.733 576.136 362.332 575.928 364.915C575.528 366.826 572.94 368.69 568.072 370.076C564.245 371.276 560.666 373.155 557.504 375.622C553.619 378.593 548.937 380.341 544.055 380.644C539.079 380.783 533.903 379.458 532.702 375.884C532.194 374.343 531.808 371.802 538.864 369.013C541.268 368.135 543.588 367.042 545.796 365.747C549.108 363.806 554.053 361.234 556.795 358.677C559.295 356.145 560.743 352.759 560.847 349.202C562.781 348.548 564.916 348.927 566.507 350.206C568.098 351.485 568.927 353.489 568.703 355.518C569.042 355.719 569.458 355.395 569.581 355.026C569.654 354.644 569.695 354.258 569.704 353.87C569.905 353.043 570.525 352.382 571.337 352.129C572.142 351.782 573.027 351.664 573.895 351.79Z" fill="#37474F"/>
<path d="M641.938 351.96C641.547 353.058 641.339 354.214 641.322 355.38C641.125 356.335 640.991 357.303 640.921 358.276C640.921 359.138 640.721 360.171 639.92 360.494C639.249 360.663 638.541 360.429 638.102 359.893C637.687 359.358 637.306 358.797 636.962 358.214C636.101 357.053 634.77 356.331 633.327 356.242C631.894 356.165 631.786 356.242 630.846 357.351C630.954 357.613 631.555 359.031 631.663 359.308C634.273 365.821 634.695 373.007 632.864 379.781C631.992 381.698 630.746 383.421 629.198 384.849C628.501 385.542 627.765 386.195 626.995 386.806C626.326 387.212 625.811 387.83 625.532 388.562C625.417 389.393 625.567 390.24 625.963 390.98C626.568 391.966 627.536 392.674 628.659 392.952C632.834 394.455 637.426 394.301 641.491 392.521C643.22 391.683 644.712 390.428 645.835 388.87C648.223 384.711 647.961 380.752 647.992 377.178C648.116 371.809 648.787 366.466 649.995 361.234C650.765 356.458 643.432 351.236 641.938 351.96Z" fill="#37474F"/>
<path d="M557.611 356.258C560.538 353.084 561.108 350.096 560.692 344.165C560.276 338.234 557.349 286.381 556.071 273.564C554.068 251.997 552.99 191.564 554.838 176.636L612.299 181.119C616.473 191.548 619.523 204.365 618.876 224.499C618.383 239.904 618.753 281.498 618.753 281.498C623.993 286.664 628.083 292.88 630.754 299.737C635.175 310.413 640.258 347.292 640.258 347.292C640.711 348.869 641.272 350.414 641.938 351.913C643.19 353.434 643.915 355.321 644.002 357.29C644.002 363.658 643.326 370.019 641.986 376.257C641.335 379.359 639.071 381.875 636.053 382.846C635.341 383.138 634.572 383.264 633.804 383.216C633.409 383.212 633.027 383.071 632.726 382.816C632.171 382.261 632.726 380.982 632.726 380.335C632.892 379.29 632.99 378.235 633.018 377.177C633.018 375.098 633.018 372.556 632.88 370.507C632.608 365.862 631.859 361.258 630.646 356.766L629.537 354.101C629.537 354.101 604.627 303.896 597.556 291.649C591.933 282.052 588.205 244.772 584.215 224.376L577.483 273.102C579.16 278.164 580.407 283.358 581.211 288.63C582.259 297.673 575.866 333.089 573.956 345.628C573.607 347.965 573.581 350.339 573.879 352.684C573.201 358.137 569.103 359.816 564.882 362.912C562.772 364.453 553.513 370.076 547.937 371.216C543.392 372.125 539.911 369.398 542.699 367.657C548.014 364.16 554.684 359.416 557.611 356.258Z" fill="#B16668"/>
<path d="M586.604 239.92C586.018 234.435 584.432 226.949 584.432 226.949L582.583 239.611L579.81 272.301C580.583 275.553 581.185 278.844 581.613 282.16C582.417 290.152 582.179 298.215 580.904 306.145C579.718 313.139 577.238 325.694 577.238 325.694C566.824 331.132 558.936 325.556 558.936 325.556C558.936 325.556 557.92 311.568 555.994 291.033C554.069 270.498 553.375 249.994 553.237 232.941C553.237 232.941 550.772 190.424 557.951 161.724C566.392 167.671 591.472 168.857 601.593 160.877C601.593 160.877 605.644 167.578 614.502 182.552C621.45 194.29 619.416 213.177 619.524 228.951C619.724 253.291 619.524 280.789 619.524 280.789C622.739 284.356 625.616 288.214 628.12 292.312C632.557 299.46 634.821 315.342 634.821 315.342C634.821 315.342 630.338 324.862 615.057 325.278C615.057 325.278 600.191 298.212 596.463 292.081C592.735 285.949 587.174 245.388 586.604 239.92Z" fill="#37474F"/>
<path d="M584.432 226.949L578.855 205.459C572.035 204.555 565.52 202.07 559.83 198.203C559.83 198.203 561.54 206.06 576.267 208.37L582.614 229.46L582.244 242.415L584.432 226.949Z" fill="#263238"/>
<path d="M552.25 123.659C557.827 115.017 568.949 106.806 572.569 103.94L593.597 104.094C597.726 104.31 603.764 104.849 603.764 104.849C608.155 107.175 607.939 112.552 608.078 117.743C608.362 123.584 607.911 129.437 606.738 135.166L603.903 147.028L603.472 148.846C603.395 149.154 603.333 149.477 603.256 149.801C602.174 154.35 602.77 159.136 604.935 163.28C609.757 172.523 615.441 179.409 617.059 187.127C614.317 186.373 611.814 184.931 609.788 182.937C607.017 180.604 604.516 177.969 602.332 175.08C602.332 175.08 602.085 180.303 596.894 187.158C595.564 188.916 594.04 190.518 592.349 191.933C583.029 199.744 554.992 203.133 554.068 178.67C554.068 178.67 555.131 167.532 555.3 159.259C555.131 151.834 554.546 145.826 554.484 144.116C548.091 138.355 548.184 129.929 552.25 123.659Z" fill="#27DEBF"/>
<path opacity="0.1" d="M564.636 143.162C564.636 143.162 571.537 149.324 580.041 146.859C584.865 145.655 588.712 142.023 590.193 137.277C590.193 137.277 590.47 146.813 579.81 149.37C573.936 150.875 567.77 148.352 564.636 143.162Z" fill="black"/>
<path d="M590.054 42.2438C583.578 40.6946 576.779 41.2338 570.628 43.7843C551.495 38.8547 541.082 65.1201 559.013 74.132C559.013 74.132 562.972 92.4792 577.792 94.4511L592.426 94.8362C596.016 88.2737 607.723 85.1927 608.74 68.1087C610.635 53.8283 599.821 44.2619 590.054 42.2438Z" fill="#263238"/>
<path d="M607.194 102.756L607.809 102.718C616.301 102.194 623.61 108.653 624.134 117.145L625.948 146.559L625.333 146.597C616.841 147.121 609.533 140.661 609.009 132.17L607.194 102.756Z" fill="#263238"/>
<path d="M563.896 53.6743C560.939 55.5075 557.38 63.1021 558.042 78.8922C558.597 92.2636 562.987 95.4833 565.19 96.3921C567.393 97.301 571.568 96.654 575.635 95.8992L575.789 103.925C575.789 103.925 570.674 108.007 571.09 111.628C571.506 115.248 579.717 116.526 584.955 112.829C587.866 110.847 590.463 108.437 592.657 105.681L592.272 84.8693C592.272 84.8693 594.999 87.8116 599.451 84.7306C601.284 83.4617 602.477 81.4608 602.722 79.245C602.967 77.0293 602.241 74.8159 600.729 73.1769C599.349 71.995 597.463 71.5951 595.722 72.1153C593.981 72.6354 592.624 74.0043 592.118 75.7496C592.118 75.7496 586.31 75.4877 577.838 70.3732C568.641 64.8891 566.33 59.2509 563.896 53.6743Z" fill="#B16668"/>
<path d="M575.312 74.8253C575.289 75.7523 576.015 76.526 576.941 76.5614C577.868 76.5967 578.651 75.8807 578.698 74.9546C578.746 74.0285 578.04 73.2363 577.115 73.177C576.164 73.142 575.362 73.8758 575.312 74.8253Z" fill="#263238"/>
<path d="M573.602 86.5483L568.796 88.1812C568.984 88.8316 569.428 89.3777 570.026 89.6943C570.625 90.0109 571.326 90.0709 571.969 89.8604C573.32 89.3799 574.044 87.9123 573.602 86.5483Z" fill="#9A4A4D"/>
<path d="M560.523 70.3118L563.881 67.8932C563.587 67.4339 563.116 67.116 562.58 67.014C562.044 66.912 561.489 67.035 561.047 67.3541C560.116 68.0453 559.886 69.3429 560.523 70.3118Z" fill="#263238"/>
<path d="M561.37 74.24C561.371 75.1698 562.12 75.9256 563.05 75.9339C563.979 75.9421 564.742 75.1996 564.759 74.27C564.776 73.3404 564.04 72.5709 563.111 72.5455C562.164 72.5368 561.387 73.2932 561.37 74.24Z" fill="#263238"/>
<path d="M569.582 73.1309L569.504 83.2673L564.144 81.7114L569.582 73.1309Z" fill="#9A4A4D"/>
<path d="M575.574 95.8994C579.872 95.2524 588.668 92.5411 589.993 89.0288C589.458 90.816 588.381 92.3931 586.912 93.5424C584.309 95.8532 575.559 98.5798 575.559 98.5798L575.574 95.8994Z" fill="#9A4A4D"/>
<path d="M653.415 198.203C653.415 198.203 650.703 167.748 649.979 161.94C649.101 155.008 647.73 152.343 645.928 149.739C645.928 149.739 629.229 123.135 625.331 118.175C620.433 112.013 618.307 108.377 614.255 106.374C612.006 105.265 610.866 105.096 604.535 104.834C598.126 123.536 609.449 134.581 609.449 134.581L632.156 163.049C632.156 163.049 640.413 196.139 639.858 199.112C639.304 202.085 637.085 205.89 635.899 209.572C635.113 212.052 635.083 214.671 633.896 217.028C633.604 217.613 633.342 218.476 633.896 218.769C634.064 218.848 634.252 218.875 634.436 218.846C636.045 218.638 637.452 217.661 638.21 216.227C639.011 215.041 639.15 214.086 639.951 212.899C639.928 215.358 639.607 217.805 638.996 220.186C638.687 221.726 638.426 223.575 638.117 224.946C637.517 227.58 641.291 228.628 643.833 228.027C646.283 227.52 648.423 226.042 649.764 223.929C655.679 216.242 653.415 198.203 653.415 198.203Z" fill="#B16668"/>
<path d="M603.718 104.834C606.848 104.668 609.987 104.875 613.069 105.45C616.396 106.344 619.077 109.363 622.666 113.908C626.255 118.452 630.939 125.708 630.939 125.708C630.939 125.708 620.941 135.336 611.174 137.6L607.631 132.902C604.664 129.151 602.712 124.7 601.962 119.977C601.27 114.862 601.873 109.655 603.718 104.834Z" fill="#455A64"/>
</svg>
