<svg width="35" height="35" viewBox="0 0 40 44" fill="none" xmlns="http://www.w3.org/2000/svg">
<path d="M28.1172 18.8708V9.63542C28.1172 5.38494 24.6715 1.93924 20.421 1.93924C16.1705 1.93924 12.7247 5.38494 12.7247 9.63542L12.7247 18.8708M36.0309 14.7806L38.623 39.4084C38.7667 40.7731 37.6995 41.9594 36.3265 41.9594H4.51545C3.86052 41.9601 3.23611 41.6826 2.7977 41.1961C2.3593 40.7095 2.14815 40.0597 2.21685 39.4084L4.81099 14.7806C4.93492 13.6055 5.92597 12.7137 7.10754 12.7139H33.7344C34.9165 12.7139 35.9078 13.6066 36.0309 14.7806ZM13.4944 18.8708C13.4944 19.2959 13.1498 19.6405 12.7247 19.6405C12.2997 19.6405 11.9551 19.2959 11.9551 18.8708C11.9551 18.4458 12.2997 18.1012 12.7247 18.1012C13.1498 18.1012 13.4944 18.4458 13.4944 18.8708ZM28.8868 18.8708C28.8868 19.2959 28.5422 19.6405 28.1172 19.6405C27.6921 19.6405 27.3476 19.2959 27.3476 18.8708C27.3476 18.4458 27.6921 18.1012 28.1172 18.1012C28.5422 18.1012 28.8868 18.4458 28.8868 18.8708Z" stroke="#158B68" stroke-width="2.5" stroke-linecap="round" stroke-linejoin="round"/>
</svg>
