<svg width="46" height="30" viewBox="0 0 46 69" fill="none" xmlns="http://www.w3.org/2000/svg">
<path d="M42.2872 8.39716L16.9737 25.8604C15.1618 27.1111 16.0461 29.9524 18.2484 29.9524H27.2807C28.5202 29.9524 29.525 30.9571 29.525 32.1966L29.525 65.9694C29.5254 66.8474 30.0378 67.6445 30.8363 68.0094C31.6348 68.3744 32.5728 68.2403 33.2369 67.6661L45.0252 57.4667C45.5185 57.0426 45.8034 56.4252 45.8062 55.7746L45.8062 10.2449C45.8064 9.41067 45.3439 8.64512 44.6053 8.25727C43.8666 7.86942 42.9738 7.92332 42.2872 8.39716Z" fill="#1D71B8"/>
<path d="M12.5693 0.546528L0.775044 10.7399C0.282391 11.1665 -0.000453826 11.7863 4.20844e-05 12.438V57.3228C-0.00533664 58.2038 0.505261 59.0064 1.30548 59.375C2.10572 59.7435 3.04755 59.6097 3.71351 59.0329L15.5062 48.8321C15.9985 48.4058 16.2813 47.7866 16.2812 47.1355V2.25065C16.2837 1.37134 15.7725 0.571575 14.9734 0.204701C14.1742 -0.162174 13.2345 -0.0285528 12.5693 0.546528Z" fill="#00A19A"/>
</svg>
