<svg width="550" height="100" viewBox="0 0 620 180" fill="none" xmlns="http://www.w3.org/2000/svg">
<path d="M254.997 39.04C254.997 38.4 255.05 37.72 255.157 37C255.29 36.2533 255.477 35.4667 255.717 34.64C255.984 33.7867 256.304 32.8933 256.677 31.96L259.557 33.08C259.29 33.8267 259.05 34.5333 258.837 35.2C258.65 35.8667 258.504 36.4933 258.397 37.08C258.317 37.6667 258.277 38.2267 258.277 38.76C258.277 39.8 258.49 40.7067 258.917 41.48C259.37 42.2533 259.997 42.8933 260.797 43.4C261.597 43.9333 262.53 44.3333 263.597 44.6C264.664 44.8667 265.81 45 267.037 45C268.957 45 270.637 44.7867 272.077 44.36C273.517 43.96 274.717 43.44 275.677 42.8C276.637 42.16 277.344 41.4933 277.797 40.8C278.277 40.1067 278.517 39.4933 278.517 38.96C278.517 38.5867 278.29 38.2533 277.837 37.96C277.384 37.6667 276.797 37.3867 276.077 37.12C275.357 36.8533 274.597 36.5733 273.797 36.28C272.997 35.96 272.237 35.5867 271.517 35.16C270.797 34.7333 270.21 34.2267 269.757 33.64C269.304 33.0267 269.077 32.3067 269.077 31.48C269.077 30.3867 269.344 29.3067 269.877 28.24C270.437 27.1467 271.184 26.1467 272.117 25.24C273.077 24.3333 274.144 23.6133 275.317 23.08C276.49 22.52 277.704 22.24 278.957 22.24C280.077 22.24 281.037 22.4 281.837 22.72C282.637 23.0133 283.21 23.2933 283.557 23.56L282.237 26.4C281.784 26.1867 281.277 25.9867 280.717 25.8C280.157 25.6133 279.57 25.52 278.957 25.52C278.184 25.52 277.397 25.68 276.597 26C275.824 26.32 275.104 26.7467 274.437 27.28C273.797 27.8133 273.277 28.4 272.877 29.04C272.477 29.68 272.277 30.32 272.277 30.96C272.277 31.4133 272.504 31.8267 272.957 32.2C273.437 32.5733 274.05 32.92 274.797 33.24C275.544 33.56 276.33 33.8933 277.157 34.24C278.01 34.56 278.81 34.92 279.557 35.32C280.304 35.6933 280.904 36.1333 281.357 36.64C281.837 37.1467 282.077 37.7467 282.077 38.44C282.077 39.4267 281.744 40.4933 281.077 41.64C280.41 42.7867 279.424 43.8533 278.117 44.84C276.81 45.8533 275.21 46.68 273.317 47.32C271.45 47.96 269.29 48.28 266.837 48.28C265.157 48.28 263.597 48.0933 262.157 47.72C260.744 47.3467 259.49 46.7733 258.397 46C257.33 45.2533 256.49 44.2933 255.877 43.12C255.29 41.9733 254.997 40.6133 254.997 39.04ZM284.348 48.2L283.187 45.16C285.881 44.3067 287.948 43.28 289.388 42.08C290.854 40.9067 291.854 39.68 292.388 38.4C292.948 37.12 293.228 35.8933 293.228 34.72C293.228 33.9733 293.148 33.2533 292.988 32.56C292.828 31.8667 292.548 31.08 292.148 30.2C291.748 29.32 291.188 28.2267 290.468 26.92L293.388 25.44C294.401 27.1733 295.121 28.8133 295.548 30.36C296.001 31.9067 296.228 33.2667 296.228 34.44C296.228 36.12 295.948 37.64 295.388 39C294.854 40.36 294.134 41.56 293.228 42.6C292.348 43.6667 291.374 44.5733 290.308 45.32C289.268 46.0667 288.214 46.68 287.148 47.16C286.108 47.64 285.174 47.9867 284.348 48.2ZM310.515 39.2C308.382 39.2 306.742 38.96 305.595 38.48C304.475 38 303.702 37.2533 303.275 36.24C302.848 35.2267 302.608 33.92 302.555 32.32L301.755 10.44H305.035L305.835 31.04C305.888 32.3467 306.008 33.36 306.195 34.08C306.408 34.7733 306.862 35.2533 307.555 35.52C308.275 35.7867 309.395 35.92 310.915 35.92C311.475 35.92 311.875 36.08 312.115 36.4C312.382 36.6933 312.515 37.0533 312.515 37.48C312.515 37.9067 312.328 38.3067 311.955 38.68C311.582 39.0267 311.102 39.2 310.515 39.2ZM310.516 39.2L310.916 35.92H314.676C316.249 35.92 317.489 35.84 318.396 35.68C319.329 35.4933 320.009 35.2667 320.436 35C320.889 34.7067 321.182 34.4 321.316 34.08C321.476 33.7333 321.556 33.3867 321.556 33.04C321.556 32.4267 321.316 31.6667 320.836 30.76C320.382 29.8533 319.436 28.68 317.996 27.24C317.249 26.4933 316.502 25.8133 315.756 25.2C315.009 24.56 314.316 24 313.676 23.52C313.062 23.0133 312.569 22.5867 312.196 22.24C311.822 21.8933 311.636 21.6267 311.636 21.44C311.636 21.04 311.662 20.6533 311.716 20.28C311.796 19.9067 311.889 19.56 311.996 19.24C312.129 18.92 312.289 18.6667 312.476 18.48C313.009 17.92 313.689 17.36 314.516 16.8C315.369 16.24 316.356 15.6533 317.476 15.04C318.622 14.4267 319.902 13.7733 321.316 13.08C322.756 12.36 324.329 11.5733 326.036 10.72L327.396 13.68C325.262 14.6933 323.476 15.56 322.036 16.28C320.622 16.9733 319.422 17.6 318.436 18.16C317.449 18.6933 316.582 19.2 315.836 19.68C315.089 20.16 314.329 20.6933 313.556 21.28L314.156 19.76C315.836 21.0933 317.316 22.3467 318.596 23.52C319.902 24.6933 320.996 25.8267 321.876 26.92C322.756 27.9867 323.422 29.04 323.876 30.08C324.329 31.12 324.556 32.1733 324.556 33.24C324.556 33.8267 324.449 34.4667 324.236 35.16C324.022 35.8533 323.569 36.5067 322.876 37.12C322.182 37.7333 321.142 38.24 319.756 38.64C318.369 39.0133 316.502 39.2 314.156 39.2H310.516ZM353.85 39.84L354.89 36.56C356.517 36.56 358.237 36.4667 360.05 36.28C361.863 36.0667 363.663 35.7067 365.45 35.2C367.263 34.6667 368.983 33.9467 370.61 33.04C372.237 32.1333 373.663 30.9867 374.89 29.6L377.41 31.08C377.17 31.6933 377.01 32.1867 376.93 32.56C376.85 32.9067 376.81 33.2267 376.81 33.52C376.81 33.92 376.957 34.3067 377.25 34.68C377.543 35.0267 378.09 35.32 378.89 35.56C379.717 35.8 380.877 35.92 382.37 35.92C382.93 35.92 383.33 36.08 383.57 36.4C383.837 36.6933 383.97 37.0533 383.97 37.48C383.97 37.9067 383.783 38.3067 383.41 38.68C383.037 39.0267 382.557 39.2 381.97 39.2C380.263 39.2 378.757 39.0267 377.45 38.68C376.17 38.3067 375.21 37.7333 374.57 36.96C373.957 36.16 373.757 35.1333 373.97 33.88L374.69 34.12C373.623 35.08 372.343 35.92 370.85 36.64C369.383 37.3333 367.743 37.92 365.93 38.4C364.143 38.88 362.223 39.24 360.17 39.48C358.143 39.72 356.037 39.84 353.85 39.84ZM353.85 39.84C351.477 39.84 349.383 39.68 347.57 39.36C345.783 39.0667 344.29 38.6 343.09 37.96C341.89 37.32 340.983 36.4933 340.37 35.48C339.757 34.44 339.45 33.1867 339.45 31.72C339.45 31.0533 339.503 30.3733 339.61 29.68C339.717 28.96 339.85 28.24 340.01 27.52C340.197 26.8 340.383 26.1067 340.57 25.44L343.57 26.2C343.463 26.6 343.343 27.08 343.21 27.64C343.077 28.1733 342.957 28.72 342.85 29.28C342.77 29.84 342.73 30.3467 342.73 30.8C342.73 32.1867 343.077 33.3067 343.77 34.16C344.49 34.9867 345.73 35.6 347.49 36C349.25 36.3733 351.717 36.56 354.89 36.56L355.69 38.56L353.85 39.84ZM360.57 22.96C360.01 22.96 359.53 22.7733 359.13 22.4C358.757 22 358.57 21.5333 358.57 21C358.57 20.4667 358.757 20 359.13 19.6C359.53 19.2 360.01 19 360.57 19C361.103 19 361.557 19.2 361.93 19.6C362.33 20 362.53 20.4667 362.53 21C362.53 21.5333 362.33 22 361.93 22.4C361.557 22.7733 361.103 22.96 360.57 22.96ZM355.09 22.96C354.53 22.96 354.05 22.7733 353.65 22.4C353.277 22 353.09 21.5333 353.09 21C353.09 20.4667 353.277 20 353.65 19.6C354.05 19.2 354.53 19 355.09 19C355.623 19 356.077 19.2 356.45 19.6C356.85 20 357.05 20.4667 357.05 21C357.05 21.5333 356.85 22 356.45 22.4C356.077 22.7733 355.623 22.96 355.09 22.96ZM381.961 39.2L382.361 35.92C384.041 35.92 385.334 35.9067 386.241 35.88C387.174 35.8533 387.854 35.8267 388.281 35.8C388.708 35.7467 389.001 35.72 389.161 35.72C388.681 35.4533 388.121 35.04 387.481 34.48C386.841 33.8933 386.281 33.16 385.801 32.28C385.321 31.3733 385.081 30.3067 385.081 29.08C385.081 27.56 385.428 26.2267 386.121 25.08C386.841 23.9333 387.814 23.04 389.041 22.4C390.294 21.76 391.721 21.44 393.321 21.44C393.934 21.44 394.588 21.4933 395.281 21.6C395.974 21.7067 396.641 21.8667 397.281 22.08L396.601 25.16C396.068 25.0267 395.508 24.92 394.921 24.84C394.334 24.76 393.801 24.72 393.321 24.72C392.361 24.72 391.508 24.9067 390.761 25.28C390.014 25.6267 389.428 26.12 389.001 26.76C388.574 27.4 388.361 28.1733 388.361 29.08C388.361 29.7733 388.508 30.4133 388.801 31C389.094 31.56 389.481 32.0667 389.961 32.52C390.441 32.9733 390.974 33.3467 391.561 33.64C392.148 33.9333 392.721 34.16 393.281 34.32C393.868 34.48 394.388 34.5467 394.841 34.52C395.161 34.4133 395.454 34.32 395.721 34.24C395.988 34.16 396.281 34.0667 396.601 33.96C396.948 33.8267 397.361 33.6533 397.841 33.44C398.348 33.2267 398.988 32.9467 399.761 32.6L400.881 35.52C399.094 36.24 397.268 36.88 395.401 37.44C393.561 38 391.548 38.44 389.361 38.76C387.201 39.0533 384.734 39.2 381.961 39.2ZM413.718 39.2C411.585 39.2 409.945 38.96 408.798 38.48C407.678 38 406.905 37.2533 406.478 36.24C406.051 35.2267 405.811 33.92 405.758 32.32L404.958 10.44H408.238L409.038 31.04C409.091 32.3467 409.211 33.36 409.398 34.08C409.611 34.7733 410.065 35.2533 410.758 35.52C411.478 35.7867 412.598 35.92 414.118 35.92C414.678 35.92 415.078 36.08 415.318 36.4C415.585 36.6933 415.718 37.0533 415.718 37.48C415.718 37.9067 415.531 38.3067 415.158 38.68C414.785 39.0267 414.305 39.2 413.718 39.2ZM413.719 39.2L414.119 35.92C414.972 35.92 415.665 35.8667 416.199 35.76C416.732 35.6267 417.172 35.32 417.519 34.84C417.892 34.3333 418.239 33.5467 418.559 32.48C418.879 31.4133 419.252 29.92 419.679 28L422.679 28.84C422.572 29.2933 422.452 29.8133 422.319 30.4C422.185 30.96 422.065 31.5467 421.959 32.16C421.852 32.7467 421.799 33.2933 421.799 33.8C421.799 34.4667 422.052 34.9867 422.559 35.36C423.065 35.7333 423.985 35.92 425.319 35.92C426.119 35.92 426.772 35.8533 427.279 35.72C427.785 35.5867 428.199 35.2667 428.519 34.76C428.865 34.2533 429.172 33.44 429.439 32.32C429.705 31.2 429.985 29.6667 430.279 27.72L433.319 28.28C433.239 28.76 433.145 29.3467 433.039 30.04C432.932 30.7333 432.825 31.4267 432.719 32.12C432.639 32.7867 432.599 33.3467 432.599 33.8C432.599 34.1733 432.679 34.5333 432.839 34.88C433.025 35.2 433.372 35.4533 433.879 35.64C434.412 35.8267 435.199 35.92 436.239 35.92C437.012 35.92 437.679 35.8267 438.239 35.64C438.825 35.4533 439.265 35.1067 439.559 34.6C439.879 34.0933 440.039 33.3867 440.039 32.48C440.039 31.4667 439.799 30.2 439.319 28.68C438.865 27.1333 438.345 25.6 437.759 24.08L440.999 22.88C441.345 23.7333 441.665 24.7067 441.959 25.8C442.279 26.8933 442.545 27.9733 442.759 29.04C442.972 30.1067 443.079 31.04 443.079 31.84C443.079 33.0667 442.919 34.1467 442.599 35.08C442.279 36.0133 441.825 36.7867 441.239 37.4C440.652 37.9867 439.932 38.44 439.079 38.76C438.225 39.0533 437.265 39.2 436.199 39.2C434.945 39.2 433.919 39.0533 433.119 38.76C432.319 38.4667 431.705 38.0267 431.279 37.44C430.852 36.8267 430.572 36.0533 430.439 35.12H431.799C431.292 36.2667 430.759 37.1333 430.199 37.72C429.639 38.3067 428.945 38.7067 428.119 38.92C427.292 39.1067 426.199 39.2 424.839 39.2C424.172 39.2 423.452 39.0933 422.679 38.88C421.932 38.6667 421.279 38.2533 420.719 37.64C420.159 37 419.825 36.0533 419.719 34.8L420.919 34.56C420.465 35.92 419.905 36.9333 419.239 37.6C418.599 38.24 417.825 38.6667 416.919 38.88C416.012 39.0933 414.945 39.2 413.719 39.2ZM458.656 48.2L457.936 44.92C459.536 44.7067 461.003 44.4 462.336 44C463.696 43.6267 464.856 43.08 465.816 42.36C466.803 41.64 467.563 40.6933 468.096 39.52C468.629 38.3467 468.896 36.88 468.896 35.12C468.896 34.2933 468.816 33.5067 468.656 32.76C468.496 31.9867 468.256 31.3067 467.936 30.72C467.616 30.1333 467.229 29.6667 466.776 29.32C466.349 28.9733 465.856 28.8 465.296 28.8C464.683 28.8 464.123 29.04 463.616 29.52C463.136 29.9733 462.749 30.56 462.456 31.28C462.189 32 462.056 32.72 462.056 33.44C462.056 34 462.163 34.4933 462.376 34.92C462.616 35.32 463.003 35.6267 463.536 35.84C464.069 36.0533 464.763 36.16 465.616 36.16C466.389 36.16 467.163 36.08 467.936 35.92C468.736 35.76 469.416 35.5467 469.976 35.28L470.136 38.08C469.496 38.5333 468.736 38.8533 467.856 39.04C467.003 39.2267 466.136 39.32 465.256 39.32C464.243 39.32 463.336 39.2133 462.536 39C461.763 38.7867 461.096 38.48 460.536 38.08C460.003 37.6533 459.589 37.12 459.296 36.48C459.029 35.84 458.896 35.0933 458.896 34.24C458.896 33.2267 459.056 32.2133 459.376 31.2C459.696 30.16 460.149 29.2133 460.736 28.36C461.323 27.5067 462.029 26.8267 462.856 26.32C463.683 25.7867 464.603 25.52 465.616 25.52C466.683 25.52 467.616 25.8 468.416 26.36C469.216 26.8933 469.883 27.6267 470.416 28.56C470.949 29.4933 471.349 30.5467 471.616 31.72C471.883 32.8933 472.016 34.1067 472.016 35.36C472.016 37.84 471.509 39.9733 470.496 41.76C469.509 43.5733 468.016 45.0133 466.016 46.08C464.043 47.1467 461.589 47.8533 458.656 48.2ZM497.997 48.28C496.477 48.28 495.037 48.0667 493.677 47.64C492.317 47.24 491.103 46.64 490.037 45.84C488.997 45.04 488.17 44.0667 487.557 42.92C486.97 41.8 486.677 40.5067 486.677 39.04C486.677 38.4 486.73 37.72 486.837 37C486.97 36.2533 487.157 35.4667 487.397 34.64C487.663 33.7867 487.983 32.8933 488.357 31.96L491.237 33.08C490.97 33.8267 490.73 34.5333 490.517 35.2C490.33 35.8667 490.183 36.4933 490.077 37.08C489.997 37.6667 489.957 38.2267 489.957 38.76C489.957 40.12 490.317 41.2667 491.037 42.2C491.783 43.1333 492.77 43.8267 493.997 44.28C495.25 44.76 496.623 45 498.117 45C499.93 45 501.45 44.7867 502.677 44.36C503.903 43.96 504.877 43.4133 505.597 42.72C506.317 42.0533 506.823 41.3067 507.117 40.48C507.437 39.6533 507.597 38.8133 507.597 37.96C507.597 36.7867 507.503 35.68 507.317 34.64C507.157 33.6 506.93 32.5867 506.637 31.6C506.37 30.5867 506.077 29.56 505.757 28.52L508.997 27.64C509.29 28.6533 509.517 29.48 509.677 30.12C509.837 30.7333 509.957 31.2267 510.037 31.6C510.143 31.9733 510.237 32.3067 510.317 32.6C510.61 33.5867 510.943 34.32 511.317 34.8C511.717 35.2533 512.17 35.56 512.677 35.72C513.21 35.8533 513.81 35.92 514.477 35.92C515.01 35.92 515.477 35.8533 515.877 35.72C516.303 35.5867 516.69 35.2667 517.037 34.76C517.41 34.2533 517.73 33.44 517.997 32.32C518.29 31.2 518.557 29.6667 518.797 27.72L521.837 28.28C521.757 28.76 521.663 29.3467 521.557 30.04C521.45 30.7333 521.343 31.4267 521.237 32.12C521.157 32.7867 521.117 33.3467 521.117 33.8C521.117 34.1733 521.197 34.5333 521.357 34.88C521.543 35.2 521.89 35.4533 522.397 35.64C522.93 35.8267 523.717 35.92 524.757 35.92C525.583 35.92 526.29 35.8667 526.877 35.76C527.49 35.6267 527.957 35.32 528.277 34.84C528.623 34.3333 528.797 33.5467 528.797 32.48C528.797 31.8133 528.69 31.0267 528.477 30.12C528.263 29.1867 527.983 28.2 527.637 27.16C527.29 26.12 526.917 25.0933 526.517 24.08L529.757 22.88C530.103 23.7333 530.423 24.7067 530.717 25.8C531.037 26.8933 531.303 27.9733 531.517 29.04C531.73 30.1067 531.837 31.04 531.837 31.84C531.837 33.2 531.65 34.3467 531.277 35.28C530.93 36.2133 530.437 36.9733 529.797 37.56C529.157 38.1467 528.397 38.5733 527.517 38.84C526.663 39.08 525.73 39.2 524.717 39.2C523.783 39.2 522.97 39.12 522.277 38.96C521.61 38.8 521.037 38.56 520.557 38.24C520.103 37.8933 519.743 37.4667 519.477 36.96C519.237 36.4267 519.063 35.8133 518.957 35.12H520.317C519.89 36.08 519.41 36.8667 518.877 37.48C518.343 38.0667 517.703 38.5067 516.957 38.8C516.237 39.0667 515.343 39.2 514.277 39.2C513.45 39.2 512.743 39.0933 512.157 38.88C511.57 38.64 511.077 38.3467 510.677 38C510.303 37.6267 510.01 37.2133 509.797 36.76C509.583 36.28 509.423 35.8 509.317 35.32L510.957 37.36C510.823 38.64 510.53 39.92 510.077 41.2C509.65 42.48 508.957 43.6533 507.997 44.72C507.063 45.8133 505.783 46.68 504.157 47.32C502.53 47.96 500.477 48.28 497.997 48.28ZM533.996 48.2L532.836 45.16C535.529 44.3067 537.596 43.28 539.036 42.08C540.503 40.9067 541.503 39.68 542.036 38.4C542.596 37.12 542.876 35.8933 542.876 34.72C542.876 33.9733 542.796 33.2533 542.636 32.56C542.476 31.8667 542.196 31.08 541.796 30.2C541.396 29.32 540.836 28.2267 540.116 26.92L543.036 25.44C544.049 27.1733 544.769 28.8133 545.196 30.36C545.649 31.9067 545.876 33.2667 545.876 34.44C545.876 36.12 545.596 37.64 545.036 39C544.503 40.36 543.783 41.56 542.876 42.6C541.996 43.6667 541.023 44.5733 539.956 45.32C538.916 46.0667 537.863 46.68 536.796 47.16C535.756 47.64 534.823 47.9867 533.996 48.2ZM549.923 37.2L551.523 34.44C552.057 34.7867 552.803 35.12 553.763 35.44C554.723 35.76 555.843 35.92 557.123 35.92C558.457 35.92 559.51 35.7867 560.283 35.52C561.083 35.2533 561.657 34.8667 562.003 34.36C562.377 33.8267 562.563 33.2133 562.563 32.52C562.563 31.9867 562.443 31.3333 562.203 30.56C561.99 29.76 561.51 28.6933 560.763 27.36C560.017 26 558.87 24.2267 557.323 22.04L560.083 20.24C561.497 22.1867 562.617 23.9467 563.443 25.52C564.297 27.0933 564.897 28.48 565.243 29.68C565.617 30.8533 565.803 31.8667 565.803 32.72C565.803 33.7867 565.537 34.8267 565.003 35.84C564.47 36.8267 563.577 37.64 562.323 38.28C561.07 38.92 559.337 39.24 557.123 39.24C556.163 39.24 555.23 39.16 554.323 39C553.443 38.84 552.63 38.6133 551.883 38.32C551.137 38 550.483 37.6267 549.923 37.2ZM571.146 39L570.466 13.24H573.706L574.386 39H571.146ZM574.746 9.36C573.946 9.36 573.226 9.22666 572.586 8.96C571.946 8.66667 571.359 8.38667 570.826 8.12C570.293 7.85333 569.799 7.72 569.346 7.72C568.866 7.72 568.426 7.84 568.026 8.08C567.653 8.32 567.253 8.65333 566.826 9.08L565.306 7.8C565.919 7.02667 566.559 6.42667 567.226 6C567.893 5.54666 568.599 5.32 569.346 5.32C570.013 5.32 570.626 5.45333 571.186 5.72C571.746 5.98667 572.306 6.25333 572.866 6.52C573.453 6.78666 574.079 6.92 574.746 6.92C575.173 6.92 575.573 6.85333 575.946 6.72C576.319 6.56 576.773 6.32 577.306 6L578.466 7.64C577.613 8.38667 576.879 8.86667 576.266 9.08C575.679 9.26666 575.173 9.36 574.746 9.36Z" fill="#22445D"/>
<path d="M9.18152 114.96L8.31152 112.68C9.77152 112.2 10.9815 111.65 11.9415 111.03C12.9215 110.41 13.6915 109.75 14.2515 109.05C14.8315 108.35 15.2415 107.64 15.4815 106.92C15.7215 106.18 15.8415 105.47 15.8415 104.79C15.8415 103.81 15.6215 102.82 15.1815 101.82C14.7615 100.8 14.2915 99.84 13.7715 98.94L15.9615 97.83C16.3415 98.53 16.6715 99.22 16.9515 99.9C17.2515 100.58 17.5115 101.22 17.7315 101.82C17.9715 102.42 18.1615 102.97 18.3015 103.47C18.5815 104.33 18.9415 104.92 19.3815 105.24C19.8415 105.54 20.4615 105.69 21.2415 105.69C21.6615 105.69 21.9615 105.81 22.1415 106.05C22.3415 106.27 22.4415 106.54 22.4415 106.86C22.4415 107.18 22.3015 107.48 22.0215 107.76C21.7415 108.02 21.3815 108.15 20.9415 108.15C20.0615 108.15 19.3415 108 18.7815 107.7C18.2415 107.38 17.8315 106.97 17.5515 106.47C17.2715 105.95 17.0815 105.41 16.9815 104.85L17.9415 105.39C17.9415 106.71 17.6415 107.91 17.0415 108.99C16.4615 110.09 15.7115 111.04 14.7915 111.84C13.8715 112.66 12.9115 113.33 11.9115 113.85C10.9115 114.37 10.0015 114.74 9.18152 114.96ZM40.0661 108.15C39.2261 108.15 38.4561 108.1 37.7561 108C37.0561 107.88 36.4261 107.67 35.8661 107.37C35.3061 107.07 34.8361 106.64 34.4561 106.08C34.0761 105.5 33.7861 104.74 33.5861 103.8L35.3561 102.75C35.6161 103.55 35.9361 104.16 36.3161 104.58C36.6961 105 37.2061 105.29 37.8461 105.45C38.5061 105.61 39.3461 105.69 40.3661 105.69C40.7861 105.69 41.0861 105.81 41.2661 106.05C41.4661 106.27 41.5661 106.54 41.5661 106.86C41.5661 107.18 41.4261 107.48 41.1461 107.76C40.8661 108.02 40.5061 108.15 40.0661 108.15ZM20.9561 108.15L21.2261 105.69C22.2661 105.69 23.2861 105.61 24.2861 105.45C25.2861 105.29 26.2661 105.06 27.2261 104.76C28.1861 104.46 29.1061 104.1 29.9861 103.68C30.8861 103.24 31.7361 102.74 32.5361 102.18C32.0161 101.72 31.4161 101.32 30.7361 100.98C30.0561 100.64 29.3061 100.38 28.4861 100.2C27.6861 100 26.8361 99.9 25.9361 99.9C25.6161 99.9 25.3161 99.91 25.0361 99.93C24.7561 99.95 24.4761 99.99 24.1961 100.05C23.9161 100.09 23.5961 100.15 23.2361 100.23L22.7561 97.95C23.2961 97.79 23.8361 97.67 24.3761 97.59C24.9161 97.49 25.4361 97.44 25.9361 97.44C26.9761 97.44 27.9161 97.57 28.7561 97.83C29.5961 98.07 30.3561 98.37 31.0361 98.73C31.7361 99.09 32.3861 99.45 32.9861 99.81C33.6061 100.17 34.2061 100.48 34.7861 100.74C35.3661 100.98 35.9661 101.1 36.5861 101.1H37.2161L37.4261 103.26C36.5661 103.26 35.7761 103.38 35.0561 103.62C34.3361 103.86 33.6261 104.17 32.9261 104.55C32.2461 104.91 31.5261 105.3 30.7661 105.72C30.0061 106.12 29.1661 106.51 28.2461 106.89C27.3261 107.25 26.2661 107.55 25.0661 107.79C23.8861 108.03 22.5161 108.15 20.9561 108.15ZM40.0576 108.15L40.3576 105.69C41.3376 105.69 42.1176 105.63 42.6976 105.51C43.2776 105.39 43.6976 105.15 43.9576 104.79C44.2176 104.41 44.3476 103.85 44.3476 103.11C44.3476 102.61 44.2676 102.02 44.1076 101.34C43.9476 100.64 43.7376 99.9 43.4776 99.12C43.2176 98.34 42.9376 97.57 42.6376 96.81L45.0676 95.91C45.3276 96.55 45.5676 97.28 45.7876 98.1C46.0276 98.92 46.2276 99.73 46.3876 100.53C46.5476 101.33 46.6276 102.03 46.6276 102.63C46.6276 103.43 46.5376 104.14 46.3576 104.76C46.1976 105.36 45.9476 105.88 45.6076 106.32C45.2676 106.74 44.8276 107.09 44.2876 107.37C43.7676 107.63 43.1576 107.83 42.4576 107.97C41.7576 108.09 40.9576 108.15 40.0576 108.15ZM43.2676 113.73C42.8476 113.73 42.4876 113.58 42.1876 113.28C41.9076 113 41.7676 112.66 41.7676 112.26C41.7676 111.86 41.9076 111.51 42.1876 111.21C42.4876 110.91 42.8476 110.76 43.2676 110.76C43.6676 110.76 44.0076 110.91 44.2876 111.21C44.5876 111.51 44.7376 111.86 44.7376 112.26C44.7376 112.66 44.5876 113 44.2876 113.28C44.0076 113.58 43.6676 113.73 43.2676 113.73ZM62.6118 108C61.6318 108 60.7518 107.83 59.9718 107.49C59.1918 107.15 58.5718 106.63 58.1118 105.93C57.6718 105.23 57.4518 104.34 57.4518 103.26C57.4518 102.4 57.7818 101.33 58.4418 100.05C59.1018 98.75 60.2518 97.38 61.8918 95.94L62.4618 97.56L60.4218 95.73L61.9818 93.87C63.0218 94.69 63.9818 95.57 64.8618 96.51C65.7418 97.45 66.4518 98.45 66.9918 99.51C67.5318 100.57 67.8018 101.69 67.8018 102.87C67.8018 103.33 67.7218 103.85 67.5618 104.43C67.4018 105.01 67.1318 105.58 66.7518 106.14C66.3718 106.68 65.8418 107.13 65.1618 107.49C64.4818 107.83 63.6318 108 62.6118 108ZM62.6118 105.54C63.2918 105.54 63.8518 105.43 64.2918 105.21C64.7518 104.97 65.0918 104.64 65.3118 104.22C65.5518 103.8 65.6718 103.31 65.6718 102.75C65.6718 102.25 65.5818 101.73 65.4018 101.19C65.2418 100.63 64.9018 100.03 64.3818 99.39C63.8818 98.73 63.1118 97.99 62.0718 97.17L63.3918 97.11C62.6518 97.75 62.0118 98.43 61.4718 99.15C60.9318 99.85 60.5218 100.54 60.2418 101.22C59.9618 101.88 59.8218 102.48 59.8218 103.02C59.8218 103.86 60.0818 104.49 60.6018 104.91C61.1418 105.33 61.8118 105.54 62.6118 105.54ZM77.44 108.15C75.84 108.15 74.61 107.97 73.75 107.61C72.91 107.25 72.33 106.69 72.01 105.93C71.69 105.17 71.51 104.19 71.47 102.99L70.87 86.58H73.33L73.93 102.03C73.97 103.01 74.06 103.77 74.2 104.31C74.36 104.83 74.7 105.19 75.22 105.39C75.76 105.59 76.6 105.69 77.74 105.69C78.16 105.69 78.46 105.81 78.64 106.05C78.84 106.27 78.94 106.54 78.94 106.86C78.94 107.18 78.8 107.48 78.52 107.76C78.24 108.02 77.88 108.15 77.44 108.15ZM77.4104 91.5L76.3004 89.82C77.0804 89.34 78.0104 88.77 79.0904 88.11C80.1904 87.45 81.4504 86.72 82.8704 85.92C84.2904 85.12 85.8604 84.27 87.5804 83.37L88.4204 85.2C86.6804 86.12 85.1304 86.96 83.7704 87.72C82.4304 88.48 81.2404 89.17 80.2004 89.79C79.1604 90.41 78.2304 90.98 77.4104 91.5ZM77.4404 108.15L77.7404 105.69H80.0504C81.7104 105.69 82.9404 105.6 83.7404 105.42C84.5404 105.24 85.0604 105 85.3004 104.7C85.5604 104.4 85.6904 104.09 85.6904 103.77C85.6904 103.29 85.5104 102.76 85.1504 102.18C84.7904 101.6 84.3304 101.01 83.7704 100.41C83.2104 99.79 82.6104 99.18 81.9704 98.58C81.3504 97.98 80.7604 97.43 80.2004 96.93C79.6404 96.43 79.1804 96 78.8204 95.64C78.4604 95.26 78.2804 94.99 78.2804 94.83C78.2804 94.53 78.3004 94.24 78.3404 93.96C78.4004 93.68 78.4704 93.42 78.5504 93.18C78.6504 92.94 78.7704 92.75 78.9104 92.61C79.3104 92.19 79.8604 91.75 80.5604 91.29C81.2604 90.81 82.0704 90.33 82.9904 89.85C83.9104 89.35 84.8904 88.85 85.9304 88.35C86.9704 87.83 88.0204 87.31 89.0804 86.79L90.1004 89.01C89.1404 89.49 88.1804 89.97 87.2204 90.45C86.2604 90.91 85.3304 91.37 84.4304 91.83C83.5304 92.29 82.6804 92.76 81.8804 93.24C81.1004 93.7 80.3904 94.17 79.7504 94.65L79.9304 93.63C80.8304 94.39 81.6804 95.12 82.4804 95.82C83.2804 96.52 84.0404 97.24 84.7604 97.98C85.4804 98.7 86.1504 99.48 86.7704 100.32C87.3904 101.16 87.9704 102.09 88.5104 103.11C88.9304 103.89 89.4204 104.46 89.9804 104.82C90.5404 105.18 91.0904 105.42 91.6304 105.54C92.1904 105.64 92.6404 105.69 92.9804 105.69C93.4004 105.69 93.7004 105.81 93.8804 106.05C94.0804 106.27 94.1804 106.54 94.1804 106.86C94.1804 107.18 94.0404 107.48 93.7604 107.76C93.4804 108.02 93.1204 108.15 92.6804 108.15C92.1404 108.15 91.5004 108.07 90.7604 107.91C90.0404 107.73 89.3304 107.39 88.6304 106.89C87.9304 106.39 87.3504 105.63 86.8904 104.61L87.7904 104.97C87.4904 105.51 87.1404 105.98 86.7404 106.38C86.3604 106.76 85.8704 107.09 85.2704 107.37C84.6704 107.63 83.9404 107.83 83.0804 107.97C82.2204 108.09 81.1704 108.15 79.9304 108.15H77.4404ZM92.6748 108.15L92.9748 105.69C93.6148 105.69 94.1348 105.65 94.5348 105.57C94.9348 105.47 95.2648 105.24 95.5248 104.88C95.8048 104.5 96.0648 103.91 96.3048 103.11C96.5448 102.31 96.8248 101.19 97.1448 99.75L99.3948 100.38C99.3148 100.72 99.2248 101.11 99.1248 101.55C99.0248 101.97 98.9348 102.41 98.8548 102.87C98.7748 103.31 98.7348 103.72 98.7348 104.1C98.7348 104.6 98.9248 104.99 99.3048 105.27C99.6848 105.55 100.375 105.69 101.375 105.69C101.975 105.69 102.465 105.64 102.845 105.54C103.225 105.44 103.535 105.2 103.775 104.82C104.035 104.44 104.265 103.83 104.465 102.99C104.665 102.15 104.875 101 105.095 99.54L107.375 99.96C107.315 100.32 107.245 100.76 107.165 101.28C107.085 101.8 107.005 102.32 106.925 102.84C106.865 103.34 106.835 103.76 106.835 104.1C106.835 104.38 106.895 104.65 107.015 104.91C107.155 105.15 107.415 105.34 107.795 105.48C108.195 105.62 108.785 105.69 109.565 105.69C110.145 105.69 110.645 105.62 111.065 105.48C111.505 105.34 111.835 105.08 112.055 104.7C112.295 104.32 112.415 103.79 112.415 103.11C112.415 102.35 112.235 101.4 111.875 100.26C111.535 99.1 111.145 97.95 110.705 96.81L113.135 95.91C113.395 96.55 113.635 97.28 113.855 98.1C114.095 98.92 114.295 99.73 114.455 100.53C114.615 101.33 114.695 102.03 114.695 102.63C114.695 103.55 114.575 104.36 114.335 105.06C114.095 105.76 113.755 106.34 113.315 106.8C112.875 107.24 112.335 107.58 111.695 107.82C111.055 108.04 110.335 108.15 109.535 108.15C108.595 108.15 107.825 108.04 107.225 107.82C106.625 107.6 106.165 107.27 105.845 106.83C105.525 106.37 105.315 105.79 105.215 105.09H106.235C105.855 105.95 105.455 106.6 105.035 107.04C104.615 107.48 104.095 107.78 103.475 107.94C102.855 108.08 102.035 108.15 101.015 108.15C100.515 108.15 99.9748 108.07 99.3948 107.91C98.8348 107.75 98.3448 107.44 97.9248 106.98C97.5048 106.5 97.2548 105.79 97.1748 104.85L98.0748 104.67C97.7348 105.69 97.3148 106.45 96.8148 106.95C96.3348 107.43 95.7548 107.75 95.0748 107.91C94.3948 108.07 93.5948 108.15 92.6748 108.15ZM105.605 91.65C105.185 91.65 104.825 91.51 104.525 91.23C104.245 90.93 104.105 90.58 104.105 90.18C104.105 89.78 104.245 89.43 104.525 89.13C104.825 88.83 105.185 88.68 105.605 88.68C106.005 88.68 106.345 88.83 106.625 89.13C106.925 89.43 107.075 89.78 107.075 90.18C107.075 90.58 106.925 90.93 106.625 91.23C106.345 91.51 106.005 91.65 105.605 91.65ZM103.565 94.95C103.145 94.95 102.785 94.81 102.485 94.53C102.205 94.23 102.065 93.88 102.065 93.48C102.065 93.08 102.205 92.73 102.485 92.43C102.785 92.13 103.145 91.98 103.565 91.98C103.965 91.98 104.305 92.13 104.585 92.43C104.885 92.73 105.035 93.08 105.035 93.48C105.035 93.88 104.885 94.23 104.585 94.53C104.305 94.81 103.965 94.95 103.565 94.95ZM107.645 94.95C107.225 94.95 106.865 94.81 106.565 94.53C106.285 94.23 106.145 93.88 106.145 93.48C106.145 93.08 106.285 92.73 106.565 92.43C106.865 92.13 107.225 91.98 107.645 91.98C108.045 91.98 108.385 92.13 108.665 92.43C108.965 92.73 109.115 93.08 109.115 93.48C109.115 93.88 108.965 94.23 108.665 94.53C108.385 94.81 108.045 94.95 107.645 94.95ZM116.32 114.9L115.45 112.62C117.47 111.98 119.02 111.21 120.1 110.31C121.2 109.43 121.95 108.51 122.35 107.55C122.77 106.59 122.98 105.67 122.98 104.79C122.98 104.23 122.92 103.69 122.8 103.17C122.68 102.65 122.47 102.06 122.17 101.4C121.87 100.74 121.45 99.92 120.91 98.94L123.1 97.83C123.86 99.13 124.4 100.36 124.72 101.52C125.06 102.68 125.23 103.7 125.23 104.58C125.23 105.84 125.02 106.98 124.6 108C124.2 109.02 123.66 109.92 122.98 110.7C122.32 111.5 121.59 112.18 120.79 112.74C120.01 113.3 119.22 113.76 118.42 114.12C117.64 114.48 116.94 114.74 116.32 114.9ZM121.51 94.38C121.09 94.38 120.73 94.24 120.43 93.96C120.15 93.66 120.01 93.31 120.01 92.91C120.01 92.51 120.15 92.16 120.43 91.86C120.73 91.56 121.09 91.41 121.51 91.41C121.91 91.41 122.25 91.56 122.53 91.86C122.83 92.16 122.98 92.51 122.98 92.91C122.98 93.31 122.83 93.66 122.53 93.96C122.25 94.24 121.91 94.38 121.51 94.38ZM128.956 114.9L128.416 112.44C129.616 112.28 130.716 112.05 131.716 111.75C132.736 111.47 133.606 111.06 134.326 110.52C135.066 109.98 135.636 109.27 136.036 108.39C136.436 107.51 136.636 106.41 136.636 105.09C136.636 103.73 136.386 102.6 135.886 101.7C135.386 100.8 134.736 100.35 133.936 100.35C133.516 100.35 133.126 100.51 132.766 100.83C132.406 101.15 132.106 101.58 131.866 102.12C131.646 102.66 131.536 103.25 131.536 103.89C131.536 104.25 131.616 104.55 131.776 104.79C131.936 105.01 132.166 105.19 132.466 105.33C132.786 105.45 133.186 105.54 133.666 105.6C134.146 105.66 134.706 105.69 135.346 105.69H141.676C142.096 105.69 142.396 105.81 142.576 106.05C142.776 106.27 142.876 106.54 142.876 106.86C142.876 107.18 142.736 107.48 142.456 107.76C142.176 108.02 141.816 108.15 141.376 108.15H134.206C133.306 108.15 132.466 108.02 131.686 107.76C130.926 107.5 130.306 107.1 129.826 106.56C129.366 106 129.136 105.27 129.136 104.37C129.136 103.53 129.266 102.73 129.526 101.97C129.786 101.19 130.136 100.5 130.576 99.9C131.036 99.28 131.566 98.79 132.166 98.43C132.786 98.07 133.456 97.89 134.176 97.89C135.096 97.89 135.916 98.16 136.636 98.7C137.356 99.24 137.926 100.06 138.346 101.16C138.766 102.24 138.976 103.61 138.976 105.27C138.976 107.13 138.596 108.73 137.836 110.07C137.096 111.43 135.976 112.51 134.476 113.31C132.996 114.11 131.156 114.64 128.956 114.9ZM141.366 108.15L141.666 105.69C142.226 105.69 142.696 105.57 143.076 105.33C143.456 105.09 143.826 104.69 144.186 104.13C144.546 103.57 144.936 102.82 145.356 101.88C145.936 100.6 146.506 99.63 147.066 98.97C147.646 98.31 148.216 97.86 148.776 97.62C149.356 97.38 149.926 97.26 150.486 97.26C151.166 97.26 151.796 97.44 152.376 97.8C152.956 98.14 153.466 98.6 153.906 99.18C154.346 99.76 154.686 100.4 154.926 101.1C155.186 101.78 155.316 102.46 155.316 103.14C155.316 104.34 155.106 105.3 154.686 106.02C154.266 106.72 153.726 107.23 153.066 107.55C152.426 107.85 151.756 108 151.056 108C150.436 108 149.636 107.88 148.656 107.64C147.696 107.4 146.476 106.79 144.996 105.81L146.166 103.92C147.146 104.54 148.026 104.97 148.806 105.21C149.606 105.43 150.266 105.54 150.786 105.54C151.366 105.54 151.826 105.46 152.166 105.3C152.506 105.12 152.756 104.87 152.916 104.55C153.076 104.23 153.156 103.87 153.156 103.47C153.156 102.89 153.016 102.31 152.736 101.73C152.456 101.15 152.096 100.67 151.656 100.29C151.236 99.91 150.786 99.72 150.306 99.72C149.946 99.72 149.596 99.82 149.256 100.02C148.916 100.22 148.566 100.59 148.206 101.13C147.846 101.67 147.436 102.45 146.976 103.47C146.496 104.55 146.036 105.41 145.596 106.05C145.176 106.67 144.746 107.13 144.306 107.43C143.866 107.73 143.406 107.92 142.926 108C142.466 108.1 141.946 108.15 141.366 108.15ZM159.798 108L159.288 88.68H161.718L162.228 108H159.798ZM162.498 85.77C161.898 85.77 161.358 85.67 160.878 85.47C160.398 85.25 159.958 85.04 159.558 84.84C159.158 84.64 158.788 84.54 158.448 84.54C158.088 84.54 157.758 84.63 157.458 84.81C157.178 84.99 156.878 85.24 156.558 85.56L155.418 84.6C155.878 84.02 156.358 83.57 156.858 83.25C157.358 82.91 157.888 82.74 158.448 82.74C158.948 82.74 159.408 82.84 159.828 83.04C160.248 83.24 160.668 83.44 161.088 83.64C161.528 83.84 161.998 83.94 162.498 83.94C162.818 83.94 163.118 83.89 163.398 83.79C163.678 83.67 164.018 83.49 164.418 83.25L165.288 84.48C164.648 85.04 164.098 85.4 163.638 85.56C163.198 85.7 162.818 85.77 162.498 85.77ZM177.396 108.12C177.136 108.12 176.846 108.07 176.526 107.97C176.206 107.85 175.926 107.65 175.686 107.37C175.446 107.07 175.326 106.66 175.326 106.14C175.326 105.66 175.426 105.14 175.626 104.58C175.826 104.02 176.076 103.46 176.376 102.9C176.696 102.32 176.996 101.79 177.276 101.31L179.076 102.24C178.876 102.6 178.686 102.99 178.506 103.41C178.326 103.81 178.176 104.17 178.056 104.49C177.936 104.79 177.866 105 177.846 105.12C178.306 105.24 178.636 105.43 178.836 105.69C179.056 105.93 179.166 106.19 179.166 106.47C179.166 106.91 179.026 107.3 178.746 107.64C178.466 107.96 178.016 108.12 177.396 108.12ZM188.53 108C187.55 108 186.67 107.83 185.89 107.49C185.11 107.15 184.49 106.63 184.03 105.93C183.59 105.23 183.37 104.34 183.37 103.26C183.37 102.4 183.7 101.33 184.36 100.05C185.02 98.75 186.17 97.38 187.81 95.94L188.38 97.56L186.34 95.73L187.9 93.87C188.94 94.69 189.9 95.57 190.78 96.51C191.66 97.45 192.37 98.45 192.91 99.51C193.45 100.57 193.72 101.69 193.72 102.87C193.72 103.33 193.64 103.85 193.48 104.43C193.32 105.01 193.05 105.58 192.67 106.14C192.29 106.68 191.76 107.13 191.08 107.49C190.4 107.83 189.55 108 188.53 108ZM188.53 105.54C189.21 105.54 189.77 105.43 190.21 105.21C190.67 104.97 191.01 104.64 191.23 104.22C191.47 103.8 191.59 103.31 191.59 102.75C191.59 102.25 191.5 101.73 191.32 101.19C191.16 100.63 190.82 100.03 190.3 99.39C189.8 98.73 189.03 97.99 187.99 97.17L189.31 97.11C188.57 97.75 187.93 98.43 187.39 99.15C186.85 99.85 186.44 100.54 186.16 101.22C185.88 101.88 185.74 102.48 185.74 103.02C185.74 103.86 186 104.49 186.52 104.91C187.06 105.33 187.73 105.54 188.53 105.54ZM203.358 108.15C201.758 108.15 200.528 107.97 199.668 107.61C198.828 107.25 198.248 106.69 197.928 105.93C197.608 105.17 197.428 104.19 197.388 102.99L196.788 86.58H199.248L199.848 102.03C199.888 103.01 199.978 103.77 200.118 104.31C200.278 104.83 200.618 105.19 201.138 105.39C201.678 105.59 202.518 105.69 203.658 105.69C204.078 105.69 204.378 105.81 204.558 106.05C204.758 106.27 204.858 106.54 204.858 106.86C204.858 107.18 204.718 107.48 204.438 107.76C204.158 108.02 203.798 108.15 203.358 108.15ZM203.328 91.5L202.218 89.82C202.998 89.34 203.928 88.77 205.008 88.11C206.108 87.45 207.368 86.72 208.788 85.92C210.208 85.12 211.778 84.27 213.498 83.37L214.338 85.2C212.598 86.12 211.048 86.96 209.688 87.72C208.348 88.48 207.158 89.17 206.118 89.79C205.078 90.41 204.148 90.98 203.328 91.5ZM203.358 108.15L203.658 105.69H205.968C207.628 105.69 208.858 105.6 209.658 105.42C210.458 105.24 210.978 105 211.218 104.7C211.478 104.4 211.608 104.09 211.608 103.77C211.608 103.29 211.428 102.76 211.068 102.18C210.708 101.6 210.248 101.01 209.688 100.41C209.128 99.79 208.528 99.18 207.888 98.58C207.268 97.98 206.678 97.43 206.118 96.93C205.558 96.43 205.098 96 204.738 95.64C204.378 95.26 204.198 94.99 204.198 94.83C204.198 94.53 204.218 94.24 204.258 93.96C204.318 93.68 204.388 93.42 204.468 93.18C204.568 92.94 204.688 92.75 204.828 92.61C205.228 92.19 205.778 91.75 206.478 91.29C207.178 90.81 207.988 90.33 208.908 89.85C209.828 89.35 210.808 88.85 211.848 88.35C212.888 87.83 213.938 87.31 214.998 86.79L216.018 89.01C215.058 89.49 214.098 89.97 213.138 90.45C212.178 90.91 211.248 91.37 210.348 91.83C209.448 92.29 208.598 92.76 207.798 93.24C207.018 93.7 206.308 94.17 205.668 94.65L205.848 93.63C206.748 94.39 207.598 95.12 208.398 95.82C209.198 96.52 209.958 97.24 210.678 97.98C211.398 98.7 212.068 99.48 212.688 100.32C213.308 101.16 213.888 102.09 214.428 103.11C214.848 103.89 215.338 104.46 215.898 104.82C216.458 105.18 217.008 105.42 217.548 105.54C218.108 105.64 218.558 105.69 218.898 105.69C219.318 105.69 219.618 105.81 219.798 106.05C219.998 106.27 220.098 106.54 220.098 106.86C220.098 107.18 219.958 107.48 219.678 107.76C219.398 108.02 219.038 108.15 218.598 108.15C218.058 108.15 217.418 108.07 216.678 107.91C215.958 107.73 215.248 107.39 214.548 106.89C213.848 106.39 213.268 105.63 212.808 104.61L213.708 104.97C213.408 105.51 213.058 105.98 212.658 106.38C212.278 106.76 211.788 107.09 211.188 107.37C210.588 107.63 209.858 107.83 208.998 107.97C208.138 108.09 207.088 108.15 205.848 108.15H203.358ZM218.593 108.15L218.893 105.69C219.893 105.69 220.673 105.62 221.233 105.48C221.793 105.32 222.213 105.03 222.493 104.61C222.793 104.17 223.033 103.54 223.213 102.72C223.393 101.9 223.613 100.83 223.873 99.51L226.213 99.96C226.133 100.32 226.043 100.72 225.943 101.16C225.843 101.6 225.753 102.04 225.673 102.48C225.613 102.9 225.583 103.27 225.583 103.59C225.583 103.89 225.603 104.17 225.643 104.43C225.683 104.69 225.833 104.91 226.093 105.09C226.353 105.27 226.793 105.42 227.413 105.54C228.033 105.64 228.923 105.69 230.083 105.69C230.503 105.69 230.803 105.81 230.983 106.05C231.183 106.27 231.283 106.54 231.283 106.86C231.283 107.18 231.143 107.48 230.863 107.76C230.583 108.02 230.223 108.15 229.783 108.15C228.563 108.15 227.593 108.09 226.873 107.97C226.153 107.83 225.603 107.63 225.223 107.37C224.863 107.11 224.603 106.79 224.443 106.41C224.303 106.01 224.193 105.55 224.113 105.03L225.013 105.09C224.693 105.73 224.343 106.25 223.963 106.65C223.603 107.05 223.183 107.36 222.703 107.58C222.223 107.8 221.643 107.95 220.963 108.03C220.303 108.11 219.513 108.15 218.593 108.15ZM226.603 96.42C226.183 96.42 225.823 96.28 225.523 96C225.243 95.7 225.103 95.35 225.103 94.95C225.103 94.55 225.243 94.2 225.523 93.9C225.823 93.6 226.183 93.45 226.603 93.45C227.003 93.45 227.343 93.6 227.623 93.9C227.923 94.2 228.073 94.55 228.073 94.95C228.073 95.35 227.923 95.7 227.623 96C227.343 96.28 227.003 96.42 226.603 96.42ZM222.493 96.42C222.073 96.42 221.713 96.28 221.413 96C221.133 95.7 220.993 95.35 220.993 94.95C220.993 94.55 221.133 94.2 221.413 93.9C221.713 93.6 222.073 93.45 222.493 93.45C222.893 93.45 223.233 93.6 223.513 93.9C223.813 94.2 223.963 94.55 223.963 94.95C223.963 95.35 223.813 95.7 223.513 96C223.233 96.28 222.893 96.42 222.493 96.42ZM229.784 108.15L230.084 105.69C230.724 105.69 231.244 105.65 231.644 105.57C232.044 105.47 232.374 105.24 232.634 104.88C232.914 104.5 233.174 103.91 233.414 103.11C233.654 102.31 233.934 101.19 234.254 99.75L236.504 100.38C236.424 100.72 236.334 101.11 236.234 101.55C236.134 101.97 236.044 102.41 235.964 102.87C235.884 103.31 235.844 103.72 235.844 104.1C235.844 104.6 236.034 104.99 236.414 105.27C236.794 105.55 237.484 105.69 238.484 105.69C239.084 105.69 239.574 105.64 239.954 105.54C240.334 105.44 240.644 105.2 240.884 104.82C241.144 104.44 241.374 103.83 241.574 102.99C241.774 102.15 241.984 101 242.204 99.54L244.484 99.96C244.424 100.32 244.354 100.76 244.274 101.28C244.194 101.8 244.114 102.32 244.034 102.84C243.974 103.34 243.944 103.76 243.944 104.1C243.944 104.38 244.004 104.65 244.124 104.91C244.264 105.15 244.524 105.34 244.904 105.48C245.304 105.62 245.894 105.69 246.674 105.69C247.254 105.69 247.754 105.62 248.174 105.48C248.614 105.34 248.944 105.08 249.164 104.7C249.404 104.32 249.524 103.79 249.524 103.11C249.524 102.35 249.344 101.4 248.984 100.26C248.644 99.1 248.254 97.95 247.814 96.81L250.244 95.91C250.504 96.55 250.744 97.28 250.964 98.1C251.204 98.92 251.404 99.73 251.564 100.53C251.724 101.33 251.804 102.03 251.804 102.63C251.804 103.55 251.684 104.36 251.444 105.06C251.204 105.76 250.864 106.34 250.424 106.8C249.984 107.24 249.444 107.58 248.804 107.82C248.164 108.04 247.444 108.15 246.644 108.15C245.704 108.15 244.934 108.04 244.334 107.82C243.734 107.6 243.274 107.27 242.954 106.83C242.634 106.37 242.424 105.79 242.324 105.09H243.344C242.964 105.95 242.564 106.6 242.144 107.04C241.724 107.48 241.204 107.78 240.584 107.94C239.964 108.08 239.144 108.15 238.124 108.15C237.624 108.15 237.084 108.07 236.504 107.91C235.944 107.75 235.454 107.44 235.034 106.98C234.614 106.5 234.364 105.79 234.284 104.85L235.184 104.67C234.844 105.69 234.424 106.45 233.924 106.95C233.444 107.43 232.864 107.75 232.184 107.91C231.504 108.07 230.704 108.15 229.784 108.15ZM254.36 106.65L255.56 104.58C255.96 104.84 256.52 105.09 257.24 105.33C257.96 105.57 258.8 105.69 259.76 105.69C260.76 105.69 261.55 105.59 262.13 105.39C262.73 105.19 263.16 104.9 263.42 104.52C263.7 104.12 263.84 103.66 263.84 103.14C263.84 102.74 263.75 102.25 263.57 101.67C263.41 101.07 263.05 100.27 262.49 99.27C261.93 98.25 261.07 96.92 259.91 95.28L261.98 93.93C263.04 95.39 263.88 96.71 264.5 97.89C265.14 99.07 265.59 100.11 265.85 101.01C266.13 101.89 266.27 102.65 266.27 103.29C266.27 104.09 266.07 104.87 265.67 105.63C265.27 106.37 264.6 106.98 263.66 107.46C262.72 107.94 261.42 108.18 259.76 108.18C259.04 108.18 258.34 108.12 257.66 108C257 107.88 256.39 107.71 255.83 107.49C255.27 107.25 254.78 106.97 254.36 106.65ZM282.494 105.69C283.494 105.69 284.284 105.59 284.864 105.39C285.464 105.19 285.894 104.9 286.154 104.52C286.434 104.12 286.574 103.66 286.574 103.14C286.574 102.74 286.464 102.26 286.244 101.7C286.044 101.14 285.764 100.52 285.404 99.84C285.044 99.14 284.624 98.41 284.144 97.65C283.684 96.87 283.184 96.08 282.644 95.28L284.714 93.93C285.494 95.11 286.174 96.23 286.754 97.29C287.334 98.33 287.824 99.31 288.224 100.23C288.624 101.13 288.944 101.98 289.184 102.78C289.464 103.66 289.774 104.31 290.114 104.73C290.474 105.15 290.844 105.42 291.224 105.54C291.604 105.64 291.954 105.69 292.274 105.69C292.694 105.69 293.004 105.81 293.204 106.05C293.404 106.27 293.504 106.54 293.504 106.86C293.504 107.18 293.364 107.48 293.084 107.76C292.804 108.02 292.444 108.15 292.004 108.15C291.344 108.15 290.694 108.03 290.054 107.79C289.434 107.53 288.894 107.12 288.434 106.56C287.974 105.98 287.654 105.21 287.474 104.25L288.674 103.29C288.674 104.09 288.504 104.87 288.164 105.63C287.824 106.37 287.204 106.98 286.304 107.46C285.424 107.94 284.154 108.18 282.494 108.18C281.774 108.18 281.074 108.12 280.394 108C279.734 107.88 279.124 107.71 278.564 107.49C278.004 107.25 277.514 106.97 277.094 106.65L278.294 104.58C278.694 104.84 279.254 105.09 279.974 105.33C280.694 105.57 281.534 105.69 282.494 105.69ZM320.481 108.15C319.961 108.15 319.301 108.1 318.501 108C317.721 107.88 316.921 107.68 316.101 107.4C315.301 107.12 314.621 106.73 314.061 106.23L316.521 105C317.221 105.28 317.941 105.47 318.681 105.57C319.441 105.65 320.141 105.69 320.781 105.69C321.201 105.69 321.501 105.81 321.681 106.05C321.881 106.27 321.981 106.54 321.981 106.86C321.981 107.18 321.841 107.48 321.561 107.76C321.281 108.02 320.921 108.15 320.481 108.15ZM306.531 108.54C304.771 108.54 303.291 108.47 302.091 108.33C300.911 108.21 299.951 108.02 299.211 107.76C298.471 107.5 297.911 107.17 297.531 106.77C297.151 106.37 296.891 105.89 296.751 105.33L297.441 105.09C296.941 106.05 296.401 106.75 295.821 107.19C295.241 107.61 294.631 107.88 293.991 108C293.371 108.1 292.711 108.15 292.011 108.15L292.311 105.69C293.011 105.69 293.581 105.59 294.021 105.39C294.481 105.19 294.851 104.86 295.131 104.4C295.431 103.94 295.691 103.33 295.911 102.57C296.131 101.81 296.371 100.87 296.631 99.75L298.821 100.32C298.701 100.78 298.591 101.22 298.491 101.64C298.391 102.06 298.311 102.43 298.251 102.75C298.211 103.05 298.191 103.29 298.191 103.47C298.191 103.95 298.301 104.36 298.521 104.7C298.741 105.02 299.161 105.29 299.781 105.51C300.401 105.71 301.291 105.86 302.451 105.96C303.631 106.04 305.171 106.08 307.071 106.08C308.391 106.08 309.571 106 310.611 105.84C311.651 105.68 312.521 105.44 313.221 105.12C313.941 104.78 314.491 104.37 314.871 103.89C315.251 103.41 315.441 102.86 315.441 102.24C315.441 101.8 315.331 101.37 315.111 100.95C314.891 100.51 314.551 100.14 314.091 99.84C313.631 99.54 313.021 99.39 312.261 99.39C311.301 99.39 310.341 99.64 309.381 100.14C308.441 100.64 307.541 101.27 306.681 102.03C305.841 102.77 305.091 103.53 304.431 104.31C303.771 105.09 303.241 105.77 302.841 106.35L300.231 106.26C300.871 105.22 301.631 104.16 302.511 103.08C303.411 101.98 304.391 100.97 305.451 100.05C306.531 99.11 307.661 98.36 308.841 97.8C310.021 97.22 311.221 96.93 312.441 96.93C313.541 96.93 314.481 97.16 315.261 97.62C316.061 98.06 316.671 98.66 317.091 99.42C317.531 100.18 317.751 101.04 317.751 102C317.751 103.18 317.401 104.27 316.701 105.27C316.021 106.25 314.861 107.04 313.221 107.64C311.581 108.24 309.351 108.54 306.531 108.54ZM320.487 108.15L320.787 105.69C321.427 105.69 321.947 105.65 322.347 105.57C322.747 105.47 323.077 105.24 323.337 104.88C323.617 104.5 323.877 103.91 324.117 103.11C324.357 102.31 324.637 101.19 324.957 99.75L327.207 100.38C327.087 100.88 326.947 101.48 326.787 102.18C326.627 102.88 326.547 103.52 326.547 104.1C326.547 104.42 326.627 104.7 326.787 104.94C326.947 105.18 327.217 105.37 327.597 105.51C327.997 105.63 328.527 105.69 329.187 105.69C329.787 105.69 330.277 105.64 330.657 105.54C331.037 105.44 331.347 105.2 331.587 104.82C331.847 104.44 332.077 103.83 332.277 102.99C332.477 102.15 332.687 101 332.907 99.54L335.187 99.96C335.127 100.32 335.057 100.76 334.977 101.28C334.897 101.8 334.817 102.32 334.737 102.84C334.677 103.34 334.647 103.76 334.647 104.1C334.647 104.38 334.707 104.65 334.827 104.91C334.967 105.15 335.227 105.34 335.607 105.48C336.007 105.62 336.597 105.69 337.377 105.69C338.377 105.69 339.097 105.48 339.537 105.06C339.997 104.64 340.227 104 340.227 103.14C340.227 102.68 340.217 102.2 340.197 101.7C340.177 101.18 340.137 100.61 340.077 99.99C340.037 99.35 339.967 98.62 339.867 97.8L342.057 97.65C342.177 99.27 342.307 100.6 342.447 101.64C342.607 102.68 342.827 103.5 343.107 104.1C343.407 104.68 343.807 105.09 344.307 105.33C344.807 105.57 345.467 105.69 346.287 105.69C346.707 105.69 347.007 105.81 347.187 106.05C347.387 106.27 347.487 106.54 347.487 106.86C347.487 107.18 347.347 107.48 347.067 107.76C346.787 108.02 346.427 108.15 345.987 108.15C345.307 108.15 344.697 108.06 344.157 107.88C343.637 107.68 343.177 107.42 342.777 107.1C342.397 106.76 342.077 106.38 341.817 105.96C341.577 105.52 341.407 105.06 341.307 104.58L341.847 104.76C341.627 105.66 341.277 106.36 340.797 106.86C340.337 107.34 339.787 107.68 339.147 107.88C338.507 108.06 337.827 108.15 337.107 108.15C336.227 108.15 335.507 108.04 334.947 107.82C334.387 107.6 333.947 107.27 333.627 106.83C333.327 106.37 333.127 105.79 333.027 105.09H334.047C333.667 105.95 333.267 106.6 332.847 107.04C332.427 107.48 331.907 107.78 331.287 107.94C330.667 108.08 329.847 108.15 328.827 108.15C328.327 108.15 327.787 108.07 327.207 107.91C326.647 107.75 326.157 107.44 325.737 106.98C325.317 106.5 325.067 105.79 324.987 104.85L325.887 104.67C325.547 105.69 325.127 106.45 324.627 106.95C324.147 107.43 323.567 107.75 322.887 107.91C322.207 108.07 321.407 108.15 320.487 108.15ZM333.417 91.65C332.997 91.65 332.637 91.51 332.337 91.23C332.057 90.93 331.917 90.58 331.917 90.18C331.917 89.78 332.057 89.43 332.337 89.13C332.637 88.83 332.997 88.68 333.417 88.68C333.817 88.68 334.157 88.83 334.437 89.13C334.737 89.43 334.887 89.78 334.887 90.18C334.887 90.58 334.737 90.93 334.437 91.23C334.157 91.51 333.817 91.65 333.417 91.65ZM331.377 94.95C330.957 94.95 330.597 94.81 330.297 94.53C330.017 94.23 329.877 93.88 329.877 93.48C329.877 93.08 330.017 92.73 330.297 92.43C330.597 92.13 330.957 91.98 331.377 91.98C331.777 91.98 332.117 92.13 332.397 92.43C332.697 92.73 332.847 93.08 332.847 93.48C332.847 93.88 332.697 94.23 332.397 94.53C332.117 94.81 331.777 94.95 331.377 94.95ZM335.457 94.95C335.037 94.95 334.677 94.81 334.377 94.53C334.097 94.23 333.957 93.88 333.957 93.48C333.957 93.08 334.097 92.73 334.377 92.43C334.677 92.13 335.037 91.98 335.457 91.98C335.857 91.98 336.197 92.13 336.477 92.43C336.777 92.73 336.927 93.08 336.927 93.48C336.927 93.88 336.777 94.23 336.477 94.53C336.197 94.81 335.857 94.95 335.457 94.95ZM345.976 108.15L346.276 105.69C346.916 105.69 347.436 105.65 347.836 105.57C348.236 105.47 348.566 105.24 348.826 104.88C349.106 104.5 349.366 103.91 349.606 103.11C349.846 102.31 350.126 101.19 350.446 99.75L352.696 100.38C352.616 100.72 352.526 101.11 352.426 101.55C352.326 101.97 352.236 102.41 352.156 102.87C352.076 103.31 352.036 103.72 352.036 104.1C352.036 104.6 352.226 104.99 352.606 105.27C352.986 105.55 353.676 105.69 354.676 105.69C355.276 105.69 355.766 105.64 356.146 105.54C356.526 105.44 356.836 105.2 357.076 104.82C357.336 104.44 357.566 103.83 357.766 102.99C357.966 102.15 358.176 101 358.396 99.54L360.676 99.96C360.616 100.32 360.546 100.76 360.466 101.28C360.386 101.8 360.306 102.32 360.226 102.84C360.166 103.34 360.136 103.76 360.136 104.1C360.136 104.38 360.196 104.65 360.316 104.91C360.456 105.15 360.716 105.34 361.096 105.48C361.496 105.62 362.086 105.69 362.866 105.69C363.446 105.69 363.946 105.62 364.366 105.48C364.806 105.34 365.136 105.08 365.356 104.7C365.596 104.32 365.716 103.79 365.716 103.11C365.716 102.35 365.536 101.4 365.176 100.26C364.836 99.1 364.446 97.95 364.006 96.81L366.436 95.91C366.696 96.55 366.936 97.28 367.156 98.1C367.396 98.92 367.596 99.73 367.756 100.53C367.916 101.33 367.996 102.03 367.996 102.63C367.996 103.55 367.876 104.36 367.636 105.06C367.396 105.76 367.056 106.34 366.616 106.8C366.176 107.24 365.636 107.58 364.996 107.82C364.356 108.04 363.636 108.15 362.836 108.15C361.896 108.15 361.126 108.04 360.526 107.82C359.926 107.6 359.466 107.27 359.146 106.83C358.826 106.37 358.616 105.79 358.516 105.09H359.536C359.156 105.95 358.756 106.6 358.336 107.04C357.916 107.48 357.396 107.78 356.776 107.94C356.156 108.08 355.336 108.15 354.316 108.15C353.816 108.15 353.276 108.07 352.696 107.91C352.136 107.75 351.646 107.44 351.226 106.98C350.806 106.5 350.556 105.79 350.476 104.85L351.376 104.67C351.036 105.69 350.616 106.45 350.116 106.95C349.636 107.43 349.056 107.75 348.376 107.91C347.696 108.07 346.896 108.15 345.976 108.15ZM358.906 91.65C358.486 91.65 358.126 91.51 357.826 91.23C357.546 90.93 357.406 90.58 357.406 90.18C357.406 89.78 357.546 89.43 357.826 89.13C358.126 88.83 358.486 88.68 358.906 88.68C359.306 88.68 359.646 88.83 359.926 89.13C360.226 89.43 360.376 89.78 360.376 90.18C360.376 90.58 360.226 90.93 359.926 91.23C359.646 91.51 359.306 91.65 358.906 91.65ZM356.866 94.95C356.446 94.95 356.086 94.81 355.786 94.53C355.506 94.23 355.366 93.88 355.366 93.48C355.366 93.08 355.506 92.73 355.786 92.43C356.086 92.13 356.446 91.98 356.866 91.98C357.266 91.98 357.606 92.13 357.886 92.43C358.186 92.73 358.336 93.08 358.336 93.48C358.336 93.88 358.186 94.23 357.886 94.53C357.606 94.81 357.266 94.95 356.866 94.95ZM360.946 94.95C360.526 94.95 360.166 94.81 359.866 94.53C359.586 94.23 359.446 93.88 359.446 93.48C359.446 93.08 359.586 92.73 359.866 92.43C360.166 92.13 360.526 91.98 360.946 91.98C361.346 91.98 361.686 92.13 361.966 92.43C362.266 92.73 362.416 93.08 362.416 93.48C362.416 93.88 362.266 94.23 361.966 94.53C361.686 94.81 361.346 94.95 360.946 94.95ZM382.708 108.12C382.448 108.12 382.158 108.07 381.838 107.97C381.518 107.85 381.238 107.65 380.998 107.37C380.758 107.07 380.638 106.66 380.638 106.14C380.638 105.66 380.738 105.14 380.938 104.58C381.138 104.02 381.388 103.46 381.688 102.9C382.008 102.32 382.308 101.79 382.588 101.31L384.388 102.24C384.188 102.6 383.998 102.99 383.818 103.41C383.638 103.81 383.488 104.17 383.368 104.49C383.248 104.79 383.178 105 383.158 105.12C383.618 105.24 383.948 105.43 384.148 105.69C384.368 105.93 384.478 106.19 384.478 106.47C384.478 106.91 384.338 107.3 384.058 107.64C383.778 107.96 383.328 108.12 382.708 108.12ZM387.902 114.9L387.032 112.62C389.052 111.98 390.602 111.21 391.682 110.31C392.782 109.43 393.532 108.51 393.932 107.55C394.352 106.59 394.562 105.67 394.562 104.79C394.562 104.23 394.502 103.69 394.382 103.17C394.262 102.65 394.052 102.06 393.752 101.4C393.452 100.74 393.032 99.92 392.492 98.94L394.682 97.83C395.442 99.13 395.982 100.36 396.302 101.52C396.642 102.68 396.812 103.7 396.812 104.58C396.812 105.84 396.602 106.98 396.182 108C395.782 109.02 395.242 109.92 394.562 110.7C393.902 111.5 393.172 112.18 392.372 112.74C391.592 113.3 390.802 113.76 390.002 114.12C389.222 114.48 388.522 114.74 387.902 114.9ZM398.918 114.96L398.048 112.68C399.508 112.2 400.718 111.65 401.678 111.03C402.658 110.41 403.428 109.75 403.988 109.05C404.568 108.35 404.978 107.64 405.218 106.92C405.458 106.18 405.578 105.47 405.578 104.79C405.578 103.81 405.358 102.82 404.918 101.82C404.498 100.8 404.028 99.84 403.508 98.94L405.698 97.83C406.078 98.53 406.408 99.22 406.688 99.9C406.988 100.58 407.248 101.22 407.468 101.82C407.708 102.42 407.898 102.97 408.038 103.47C408.318 104.33 408.678 104.92 409.118 105.24C409.578 105.54 410.198 105.69 410.978 105.69C411.398 105.69 411.698 105.81 411.878 106.05C412.078 106.27 412.178 106.54 412.178 106.86C412.178 107.18 412.038 107.48 411.758 107.76C411.478 108.02 411.118 108.15 410.678 108.15C409.798 108.15 409.078 108 408.518 107.7C407.978 107.38 407.568 106.97 407.288 106.47C407.008 105.95 406.818 105.41 406.718 104.85L407.678 105.39C407.678 106.71 407.378 107.91 406.778 108.99C406.198 110.09 405.448 111.04 404.528 111.84C403.608 112.66 402.648 113.33 401.648 113.85C400.648 114.37 399.738 114.74 398.918 114.96ZM403.688 94.38C403.268 94.38 402.908 94.24 402.608 93.96C402.328 93.66 402.188 93.31 402.188 92.91C402.188 92.51 402.328 92.16 402.608 91.86C402.908 91.56 403.268 91.41 403.688 91.41C404.088 91.41 404.428 91.56 404.708 91.86C405.008 92.16 405.158 92.51 405.158 92.91C405.158 93.31 405.008 93.66 404.708 93.96C404.428 94.24 404.088 94.38 403.688 94.38ZM410.692 108.15L410.962 105.69C412.002 105.69 413.022 105.61 414.022 105.45C415.022 105.29 416.002 105.06 416.962 104.76C417.922 104.46 418.842 104.1 419.722 103.68C420.622 103.24 421.472 102.74 422.272 102.18C421.752 101.72 421.152 101.32 420.472 100.98C419.792 100.64 419.042 100.38 418.222 100.2C417.422 100 416.572 99.9 415.672 99.9C415.352 99.9 415.052 99.91 414.772 99.93C414.492 99.95 414.212 99.99 413.932 100.05C413.652 100.09 413.332 100.15 412.972 100.23L412.492 97.95C413.032 97.79 413.572 97.67 414.112 97.59C414.652 97.49 415.172 97.44 415.672 97.44C416.712 97.44 417.652 97.57 418.492 97.83C419.332 98.07 420.092 98.37 420.772 98.73C421.472 99.09 422.122 99.45 422.722 99.81C423.342 100.17 423.942 100.48 424.522 100.74C425.102 100.98 425.702 101.1 426.322 101.1H426.952L427.162 103.26C426.302 103.26 425.512 103.38 424.792 103.62C424.072 103.86 423.362 104.17 422.662 104.55C421.982 104.91 421.262 105.3 420.502 105.72C419.742 106.12 418.902 106.51 417.982 106.89C417.062 107.25 416.002 107.55 414.802 107.79C413.622 108.03 412.252 108.15 410.692 108.15ZM415.702 94.35C415.282 94.35 414.922 94.21 414.622 93.93C414.342 93.63 414.202 93.28 414.202 92.88C414.202 92.48 414.342 92.13 414.622 91.83C414.922 91.53 415.282 91.38 415.702 91.38C416.102 91.38 416.442 91.53 416.722 91.83C417.022 92.13 417.172 92.48 417.172 92.88C417.172 93.28 417.022 93.63 416.722 93.93C416.442 94.21 416.102 94.35 415.702 94.35ZM427.277 114.9L426.407 112.62C428.427 111.98 429.977 111.21 431.057 110.31C432.157 109.43 432.907 108.51 433.307 107.55C433.727 106.59 433.937 105.67 433.937 104.79C433.937 104.23 433.877 103.69 433.757 103.17C433.637 102.65 433.427 102.06 433.127 101.4C432.827 100.74 432.407 99.92 431.867 98.94L434.057 97.83C434.817 99.13 435.357 100.36 435.677 101.52C436.017 102.68 436.187 103.7 436.187 104.58C436.187 105.84 435.977 106.98 435.557 108C435.157 109.02 434.617 109.92 433.937 110.7C433.277 111.5 432.547 112.18 431.747 112.74C430.967 113.3 430.177 113.76 429.377 114.12C428.597 114.48 427.897 114.74 427.277 114.9ZM440.933 108L440.333 86.58H442.763L443.363 108H440.933ZM447.061 114.9L446.521 112.44C447.721 112.28 448.821 112.05 449.821 111.75C450.841 111.47 451.711 111.06 452.431 110.52C453.171 109.98 453.741 109.27 454.141 108.39C454.541 107.51 454.741 106.41 454.741 105.09C454.741 103.73 454.491 102.6 453.991 101.7C453.491 100.8 452.841 100.35 452.041 100.35C451.621 100.35 451.231 100.51 450.871 100.83C450.511 101.15 450.211 101.58 449.971 102.12C449.751 102.66 449.641 103.25 449.641 103.89C449.641 104.25 449.721 104.55 449.881 104.79C450.041 105.01 450.271 105.19 450.571 105.33C450.891 105.45 451.291 105.54 451.771 105.6C452.251 105.66 452.811 105.69 453.451 105.69H459.781C460.201 105.69 460.501 105.81 460.681 106.05C460.881 106.27 460.981 106.54 460.981 106.86C460.981 107.18 460.841 107.48 460.561 107.76C460.281 108.02 459.921 108.15 459.481 108.15H452.311C451.411 108.15 450.571 108.02 449.791 107.76C449.031 107.5 448.411 107.1 447.931 106.56C447.471 106 447.241 105.27 447.241 104.37C447.241 103.53 447.371 102.73 447.631 101.97C447.891 101.19 448.241 100.5 448.681 99.9C449.141 99.28 449.671 98.79 450.271 98.43C450.891 98.07 451.561 97.89 452.281 97.89C453.201 97.89 454.021 98.16 454.741 98.7C455.461 99.24 456.031 100.06 456.451 101.16C456.871 102.24 457.081 103.61 457.081 105.27C457.081 107.13 456.701 108.73 455.941 110.07C455.201 111.43 454.081 112.51 452.581 113.31C451.101 114.11 449.261 114.64 447.061 114.9ZM459.472 108.15L459.742 105.69C460.882 105.69 461.682 105.58 462.142 105.36C462.602 105.14 462.862 104.75 462.922 104.19C463.002 103.63 463.022 102.85 462.982 101.85L462.472 86.58H464.962L465.442 101.79C465.482 102.81 465.642 103.61 465.922 104.19C466.222 104.75 466.622 105.14 467.122 105.36C467.622 105.58 468.172 105.69 468.772 105.69C469.192 105.69 469.492 105.81 469.672 106.05C469.872 106.27 469.972 106.54 469.972 106.86C469.972 107.18 469.832 107.48 469.552 107.76C469.272 108.02 468.912 108.15 468.472 108.15C467.632 108.15 466.932 108.02 466.372 107.76C465.832 107.48 465.402 107.13 465.082 106.71C464.782 106.27 464.582 105.81 464.482 105.33L465.112 105.39C464.912 105.99 464.582 106.5 464.122 106.92C463.682 107.32 463.082 107.63 462.322 107.85C461.562 108.05 460.612 108.15 459.472 108.15ZM468.466 108.15L468.766 105.69C469.746 105.69 470.526 105.63 471.106 105.51C471.686 105.39 472.106 105.15 472.366 104.79C472.626 104.41 472.756 103.85 472.756 103.11C472.756 102.61 472.676 102.02 472.516 101.34C472.356 100.64 472.146 99.9 471.886 99.12C471.626 98.34 471.346 97.57 471.046 96.81L473.476 95.91C473.736 96.55 473.976 97.28 474.196 98.1C474.436 98.92 474.636 99.73 474.796 100.53C474.956 101.33 475.036 102.03 475.036 102.63C475.036 103.43 474.946 104.14 474.766 104.76C474.606 105.36 474.356 105.88 474.016 106.32C473.676 106.74 473.236 107.09 472.696 107.37C472.176 107.63 471.566 107.83 470.866 107.97C470.166 108.09 469.366 108.15 468.466 108.15ZM471.676 113.73C471.256 113.73 470.896 113.58 470.596 113.28C470.316 113 470.176 112.66 470.176 112.26C470.176 111.86 470.316 111.51 470.596 111.21C470.896 110.91 471.256 110.76 471.676 110.76C472.076 110.76 472.416 110.91 472.696 111.21C472.996 111.51 473.146 111.86 473.146 112.26C473.146 112.66 472.996 113 472.696 113.28C472.416 113.58 472.076 113.73 471.676 113.73ZM489.73 108.12C489.47 108.12 489.18 108.07 488.86 107.97C488.54 107.85 488.26 107.65 488.02 107.37C487.78 107.07 487.66 106.66 487.66 106.14C487.66 105.66 487.76 105.14 487.96 104.58C488.16 104.02 488.41 103.46 488.71 102.9C489.03 102.32 489.33 101.79 489.61 101.31L491.41 102.24C491.21 102.6 491.02 102.99 490.84 103.41C490.66 103.81 490.51 104.17 490.39 104.49C490.27 104.79 490.2 105 490.18 105.12C490.64 105.24 490.97 105.43 491.17 105.69C491.39 105.93 491.5 106.19 491.5 106.47C491.5 106.91 491.36 107.3 491.08 107.64C490.8 107.96 490.35 108.12 489.73 108.12ZM504.141 108.03C504.141 107.55 504.181 107.04 504.261 106.5C504.361 105.94 504.501 105.35 504.681 104.73C504.881 104.09 505.121 103.42 505.401 102.72L507.561 103.56C507.361 104.12 507.181 104.65 507.021 105.15C506.881 105.65 506.771 106.12 506.691 106.56C506.631 107 506.601 107.42 506.601 107.82C506.601 108.6 506.761 109.28 507.081 109.86C507.421 110.44 507.891 110.92 508.491 111.3C509.091 111.7 509.791 112 510.591 112.2C511.391 112.4 512.251 112.5 513.171 112.5C514.611 112.5 515.871 112.34 516.951 112.02C518.031 111.72 518.931 111.33 519.651 110.85C520.371 110.37 520.901 109.87 521.241 109.35C521.601 108.83 521.781 108.37 521.781 107.97C521.781 107.69 521.611 107.44 521.271 107.22C520.931 107 520.491 106.79 519.951 106.59C519.411 106.39 518.841 106.18 518.241 105.96C517.641 105.72 517.071 105.44 516.531 105.12C515.991 104.8 515.551 104.42 515.211 103.98C514.871 103.52 514.701 102.98 514.701 102.36C514.701 101.54 514.901 100.73 515.301 99.93C515.721 99.11 516.281 98.36 516.981 97.68C517.701 97 518.501 96.46 519.381 96.06C520.261 95.64 521.171 95.43 522.111 95.43C522.951 95.43 523.671 95.55 524.271 95.79C524.871 96.01 525.301 96.22 525.561 96.42L524.571 98.55C524.231 98.39 523.851 98.24 523.431 98.1C523.011 97.96 522.571 97.89 522.111 97.89C521.531 97.89 520.941 98.01 520.341 98.25C519.761 98.49 519.221 98.81 518.721 99.21C518.241 99.61 517.851 100.05 517.551 100.53C517.251 101.01 517.101 101.49 517.101 101.97C517.101 102.31 517.271 102.62 517.611 102.9C517.971 103.18 518.431 103.44 518.991 103.68C519.551 103.92 520.141 104.17 520.761 104.43C521.401 104.67 522.001 104.94 522.561 105.24C523.121 105.52 523.571 105.85 523.911 106.23C524.271 106.61 524.451 107.06 524.451 107.58C524.451 108.32 524.201 109.12 523.701 109.98C523.201 110.84 522.461 111.64 521.481 112.38C520.501 113.14 519.301 113.76 517.881 114.24C516.481 114.72 514.861 114.96 513.021 114.96C511.761 114.96 510.591 114.82 509.511 114.54C508.451 114.26 507.511 113.83 506.691 113.25C505.891 112.69 505.261 111.97 504.801 111.09C504.361 110.23 504.141 109.21 504.141 108.03ZM526.154 114.9L525.284 112.62C527.304 111.98 528.854 111.21 529.934 110.31C531.034 109.43 531.784 108.51 532.184 107.55C532.604 106.59 532.814 105.67 532.814 104.79C532.814 104.23 532.754 103.69 532.634 103.17C532.514 102.65 532.304 102.06 532.004 101.4C531.704 100.74 531.284 99.92 530.744 98.94L532.934 97.83C533.694 99.13 534.234 100.36 534.554 101.52C534.894 102.68 535.064 103.7 535.064 104.58C535.064 105.84 534.854 106.98 534.434 108C534.034 109.02 533.494 109.92 532.814 110.7C532.154 111.5 531.424 112.18 530.624 112.74C529.844 113.3 529.054 113.76 528.254 114.12C527.474 114.48 526.774 114.74 526.154 114.9ZM545.78 108.15C544.18 108.15 542.95 107.97 542.09 107.61C541.25 107.25 540.67 106.69 540.35 105.93C540.03 105.17 539.85 104.19 539.81 102.99L539.21 86.58H541.67L542.27 102.03C542.31 103.01 542.4 103.77 542.54 104.31C542.7 104.83 543.04 105.19 543.56 105.39C544.1 105.59 544.94 105.69 546.08 105.69C546.5 105.69 546.8 105.81 546.98 106.05C547.18 106.27 547.28 106.54 547.28 106.86C547.28 107.18 547.14 107.48 546.86 107.76C546.58 108.02 546.22 108.15 545.78 108.15ZM545.78 108.15L546.08 105.69C546.72 105.69 547.24 105.65 547.64 105.57C548.04 105.47 548.37 105.24 548.63 104.88C548.91 104.5 549.17 103.91 549.41 103.11C549.65 102.31 549.93 101.19 550.25 99.75L552.5 100.38C552.42 100.72 552.33 101.11 552.23 101.55C552.13 101.97 552.04 102.41 551.96 102.87C551.88 103.31 551.84 103.72 551.84 104.1C551.84 104.6 552.03 104.99 552.41 105.27C552.79 105.55 553.48 105.69 554.48 105.69C555.08 105.69 555.57 105.64 555.95 105.54C556.33 105.44 556.64 105.2 556.88 104.82C557.14 104.44 557.37 103.83 557.57 102.99C557.77 102.15 557.98 101 558.2 99.54L560.48 99.96C560.42 100.32 560.35 100.76 560.27 101.28C560.19 101.8 560.11 102.32 560.03 102.84C559.97 103.34 559.94 103.76 559.94 104.1C559.94 104.38 560 104.65 560.12 104.91C560.26 105.15 560.52 105.34 560.9 105.48C561.3 105.62 561.89 105.69 562.67 105.69C563.25 105.69 563.75 105.62 564.17 105.48C564.61 105.34 564.94 105.08 565.16 104.7C565.4 104.32 565.52 103.79 565.52 103.11C565.52 102.35 565.34 101.4 564.98 100.26C564.64 99.1 564.25 97.95 563.81 96.81L566.24 95.91C566.5 96.55 566.74 97.28 566.96 98.1C567.2 98.92 567.4 99.73 567.56 100.53C567.72 101.33 567.8 102.03 567.8 102.63C567.8 103.55 567.68 104.36 567.44 105.06C567.2 105.76 566.86 106.34 566.42 106.8C565.98 107.24 565.44 107.58 564.8 107.82C564.16 108.04 563.44 108.15 562.64 108.15C561.7 108.15 560.93 108.04 560.33 107.82C559.73 107.6 559.27 107.27 558.95 106.83C558.63 106.37 558.42 105.79 558.32 105.09H559.34C558.96 105.95 558.56 106.6 558.14 107.04C557.72 107.48 557.2 107.78 556.58 107.94C555.96 108.08 555.14 108.15 554.12 108.15C553.62 108.15 553.08 108.07 552.5 107.91C551.94 107.75 551.45 107.44 551.03 106.98C550.61 106.5 550.36 105.79 550.28 104.85L551.18 104.67C550.84 105.69 550.42 106.45 549.92 106.95C549.44 107.43 548.86 107.75 548.18 107.91C547.5 108.07 546.7 108.15 545.78 108.15ZM196.266 122.182V144H193.624V124.952H193.496L188.169 128.489V125.804L193.624 122.182H196.266ZM209.529 144.298C208.066 144.298 206.774 144.039 205.652 143.521C204.536 142.995 203.666 142.274 203.041 141.358C202.416 140.435 202.108 139.384 202.115 138.205C202.108 137.281 202.289 136.429 202.658 135.648C203.027 134.859 203.532 134.202 204.171 133.677C204.817 133.144 205.538 132.807 206.333 132.665V132.537C205.289 132.267 204.458 131.681 203.84 130.779C203.223 129.87 202.917 128.837 202.924 127.679C202.917 126.571 203.198 125.58 203.766 124.707C204.334 123.833 205.115 123.144 206.11 122.64C207.111 122.136 208.251 121.884 209.529 121.884C210.794 121.884 211.923 122.136 212.917 122.64C213.911 123.144 214.693 123.833 215.261 124.707C215.836 125.58 216.127 126.571 216.135 127.679C216.127 128.837 215.811 129.87 215.186 130.779C214.568 131.681 213.748 132.267 212.725 132.537V132.665C213.514 132.807 214.224 133.144 214.856 133.677C215.488 134.202 215.992 134.859 216.369 135.648C216.745 136.429 216.937 137.281 216.944 138.205C216.937 139.384 216.617 140.435 215.985 141.358C215.36 142.274 214.49 142.995 213.375 143.521C212.267 144.039 210.985 144.298 209.529 144.298ZM209.529 141.955C210.517 141.955 211.369 141.795 212.086 141.475C212.804 141.156 213.358 140.705 213.748 140.122C214.139 139.54 214.338 138.858 214.345 138.077C214.338 137.253 214.125 136.525 213.706 135.893C213.286 135.261 212.715 134.763 211.99 134.401C211.273 134.039 210.453 133.858 209.529 133.858C208.599 133.858 207.768 134.039 207.036 134.401C206.312 134.763 205.74 135.261 205.321 135.893C204.909 136.525 204.707 137.253 204.714 138.077C204.707 138.858 204.895 139.54 205.279 140.122C205.669 140.705 206.227 141.156 206.951 141.475C207.676 141.795 208.535 141.955 209.529 141.955ZM209.529 131.599C210.311 131.599 211.003 131.443 211.607 131.131C212.218 130.818 212.697 130.381 213.045 129.82C213.393 129.259 213.571 128.602 213.578 127.849C213.571 127.111 213.397 126.468 213.056 125.921C212.715 125.367 212.242 124.941 211.639 124.643C211.035 124.337 210.332 124.185 209.529 124.185C208.713 124.185 207.999 124.337 207.388 124.643C206.777 124.941 206.305 125.367 205.971 125.921C205.637 126.468 205.474 127.111 205.481 127.849C205.474 128.602 205.641 129.259 205.982 129.82C206.33 130.381 206.809 130.818 207.42 131.131C208.031 131.443 208.734 131.599 209.529 131.599ZM222.902 141.209C222.377 141.209 221.926 141.021 221.549 140.644C221.173 140.268 220.984 139.817 220.984 139.291C220.984 138.766 221.173 138.315 221.549 137.938C221.926 137.562 222.377 137.374 222.902 137.374C223.428 137.374 223.879 137.562 224.255 137.938C224.631 138.315 224.82 138.766 224.82 139.291C224.82 139.639 224.731 139.959 224.553 140.25C224.383 140.541 224.152 140.776 223.861 140.953C223.577 141.124 223.257 141.209 222.902 141.209ZM222.902 130.172C222.377 130.172 221.926 129.984 221.549 129.607C221.173 129.231 220.984 128.78 220.984 128.254C220.984 127.729 221.173 127.278 221.549 126.901C221.926 126.525 222.377 126.337 222.902 126.337C223.428 126.337 223.879 126.525 224.255 126.901C224.631 127.278 224.82 127.729 224.82 128.254C224.82 128.602 224.731 128.922 224.553 129.213C224.383 129.504 224.152 129.739 223.861 129.916C223.577 130.087 223.257 130.172 222.902 130.172ZM236.405 144.298C234.8 144.298 233.433 143.862 232.304 142.988C231.174 142.107 230.312 140.832 229.715 139.163C229.118 137.487 228.82 135.463 228.82 133.091C228.82 130.733 229.118 128.719 229.715 127.05C230.319 125.374 231.185 124.096 232.314 123.215C233.451 122.327 234.814 121.884 236.405 121.884C237.996 121.884 239.356 122.327 240.486 123.215C241.622 124.096 242.488 125.374 243.085 127.05C243.689 128.719 243.991 130.733 243.991 133.091C243.991 135.463 243.692 137.487 243.096 139.163C242.499 140.832 241.636 142.107 240.507 142.988C239.378 143.862 238.01 144.298 236.405 144.298ZM236.405 141.955C237.996 141.955 239.232 141.187 240.113 139.653C240.993 138.119 241.434 135.932 241.434 133.091C241.434 131.202 241.231 129.593 240.826 128.265C240.429 126.937 239.853 125.925 239.101 125.229C238.355 124.533 237.456 124.185 236.405 124.185C234.829 124.185 233.596 124.962 232.709 126.518C231.821 128.066 231.377 130.257 231.377 133.091C231.377 134.98 231.576 136.585 231.973 137.906C232.371 139.227 232.943 140.232 233.689 140.921C234.441 141.61 235.347 141.955 236.405 141.955ZM255.155 144.298C253.55 144.298 252.183 143.862 251.054 142.988C249.924 142.107 249.062 140.832 248.465 139.163C247.868 137.487 247.57 135.463 247.57 133.091C247.57 130.733 247.868 128.719 248.465 127.05C249.069 125.374 249.935 124.096 251.064 123.215C252.201 122.327 253.564 121.884 255.155 121.884C256.746 121.884 258.106 122.327 259.236 123.215C260.372 124.096 261.238 125.374 261.835 127.05C262.439 128.719 262.741 130.733 262.741 133.091C262.741 135.463 262.442 137.487 261.846 139.163C261.249 140.832 260.386 142.107 259.257 142.988C258.128 143.862 256.76 144.298 255.155 144.298ZM255.155 141.955C256.746 141.955 257.982 141.187 258.863 139.653C259.743 138.119 260.184 135.932 260.184 133.091C260.184 131.202 259.981 129.593 259.576 128.265C259.179 126.937 258.603 125.925 257.851 125.229C257.105 124.533 256.206 124.185 255.155 124.185C253.579 124.185 252.346 124.962 251.459 126.518C250.571 128.066 250.127 130.257 250.127 133.091C250.127 134.98 250.326 136.585 250.723 137.906C251.121 139.227 251.693 140.232 252.439 140.921C253.191 141.61 254.097 141.955 255.155 141.955ZM287.968 133.474V135.818H272.968V133.474H287.968ZM305.652 144.298C304.189 144.298 302.897 144.039 301.775 143.521C300.66 142.995 299.79 142.274 299.165 141.358C298.54 140.435 298.231 139.384 298.238 138.205C298.231 137.281 298.412 136.429 298.781 135.648C299.15 134.859 299.655 134.202 300.294 133.677C300.94 133.144 301.661 132.807 302.456 132.665V132.537C301.412 132.267 300.581 131.681 299.964 130.779C299.346 129.87 299.04 128.837 299.047 127.679C299.04 126.571 299.321 125.58 299.889 124.707C300.457 123.833 301.238 123.144 302.233 122.64C303.234 122.136 304.374 121.884 305.652 121.884C306.917 121.884 308.046 122.136 309.04 122.64C310.035 123.144 310.816 123.833 311.384 124.707C311.959 125.58 312.25 126.571 312.258 127.679C312.25 128.837 311.934 129.87 311.309 130.779C310.691 131.681 309.871 132.267 308.848 132.537V132.665C309.637 132.807 310.347 133.144 310.979 133.677C311.611 134.202 312.116 134.859 312.492 135.648C312.868 136.429 313.06 137.281 313.067 138.205C313.06 139.384 312.741 140.435 312.108 141.358C311.483 142.274 310.613 142.995 309.498 143.521C308.39 144.039 307.108 144.298 305.652 144.298ZM305.652 141.955C306.64 141.955 307.492 141.795 308.209 141.475C308.927 141.156 309.481 140.705 309.871 140.122C310.262 139.54 310.461 138.858 310.468 138.077C310.461 137.253 310.248 136.525 309.829 135.893C309.41 135.261 308.838 134.763 308.113 134.401C307.396 134.039 306.576 133.858 305.652 133.858C304.722 133.858 303.891 134.039 303.16 134.401C302.435 134.763 301.863 135.261 301.444 135.893C301.032 136.525 300.83 137.253 300.837 138.077C300.83 138.858 301.018 139.54 301.402 140.122C301.792 140.705 302.35 141.156 303.074 141.475C303.799 141.795 304.658 141.955 305.652 141.955ZM305.652 131.599C306.434 131.599 307.126 131.443 307.73 131.131C308.341 130.818 308.82 130.381 309.168 129.82C309.516 129.259 309.694 128.602 309.701 127.849C309.694 127.111 309.52 126.468 309.179 125.921C308.838 125.367 308.366 124.941 307.762 124.643C307.158 124.337 306.455 124.185 305.652 124.185C304.836 124.185 304.122 124.337 303.511 124.643C302.9 124.941 302.428 125.367 302.094 125.921C301.76 126.468 301.597 127.111 301.604 127.849C301.597 128.602 301.764 129.259 302.105 129.82C302.453 130.381 302.932 130.818 303.543 131.131C304.154 131.443 304.857 131.599 305.652 131.599ZM319.025 141.209C318.5 141.209 318.049 141.021 317.672 140.644C317.296 140.268 317.108 139.817 317.108 139.291C317.108 138.766 317.296 138.315 317.672 137.938C318.049 137.562 318.5 137.374 319.025 137.374C319.551 137.374 320.002 137.562 320.378 137.938C320.755 138.315 320.943 138.766 320.943 139.291C320.943 139.639 320.854 139.959 320.676 140.25C320.506 140.541 320.275 140.776 319.984 140.953C319.7 141.124 319.38 141.209 319.025 141.209ZM319.025 130.172C318.5 130.172 318.049 129.984 317.672 129.607C317.296 129.231 317.108 128.78 317.108 128.254C317.108 127.729 317.296 127.278 317.672 126.901C318.049 126.525 318.5 126.337 319.025 126.337C319.551 126.337 320.002 126.525 320.378 126.901C320.755 127.278 320.943 127.729 320.943 128.254C320.943 128.602 320.854 128.922 320.676 129.213C320.506 129.504 320.275 129.739 319.984 129.916C319.7 130.087 319.38 130.172 319.025 130.172ZM332.528 144.298C330.923 144.298 329.556 143.862 328.427 142.988C327.297 142.107 326.435 140.832 325.838 139.163C325.241 137.487 324.943 135.463 324.943 133.091C324.943 130.733 325.241 128.719 325.838 127.05C326.442 125.374 327.308 124.096 328.437 123.215C329.574 122.327 330.937 121.884 332.528 121.884C334.119 121.884 335.479 122.327 336.609 123.215C337.745 124.096 338.611 125.374 339.208 127.05C339.812 128.719 340.114 130.733 340.114 133.091C340.114 135.463 339.815 137.487 339.219 139.163C338.622 140.832 337.759 142.107 336.63 142.988C335.501 143.862 334.133 144.298 332.528 144.298ZM332.528 141.955C334.119 141.955 335.355 141.187 336.236 139.653C337.116 138.119 337.557 135.932 337.557 133.091C337.557 131.202 337.354 129.593 336.949 128.265C336.552 126.937 335.976 125.925 335.224 125.229C334.478 124.533 333.579 124.185 332.528 124.185C330.952 124.185 329.719 124.962 328.832 126.518C327.944 128.066 327.5 130.257 327.5 133.091C327.5 134.98 327.699 136.585 328.097 137.906C328.494 139.227 329.066 140.232 329.812 140.921C330.565 141.61 331.47 141.955 332.528 141.955ZM351.278 144.298C349.673 144.298 348.306 143.862 347.177 142.988C346.047 142.107 345.185 140.832 344.588 139.163C343.991 137.487 343.693 135.463 343.693 133.091C343.693 130.733 343.991 128.719 344.588 127.05C345.192 125.374 346.058 124.096 347.187 123.215C348.324 122.327 349.687 121.884 351.278 121.884C352.869 121.884 354.229 122.327 355.359 123.215C356.495 124.096 357.361 125.374 357.958 127.05C358.562 128.719 358.864 130.733 358.864 133.091C358.864 135.463 358.565 137.487 357.969 139.163C357.372 140.832 356.509 142.107 355.38 142.988C354.251 143.862 352.883 144.298 351.278 144.298ZM351.278 141.955C352.869 141.955 354.105 141.187 354.986 139.653C355.866 138.119 356.307 135.932 356.307 133.091C356.307 131.202 356.104 129.593 355.699 128.265C355.302 126.937 354.726 125.925 353.974 125.229C353.228 124.533 352.329 124.185 351.278 124.185C349.702 124.185 348.469 124.962 347.582 126.518C346.694 128.066 346.25 130.257 346.25 133.091C346.25 134.98 346.449 136.585 346.847 137.906C347.244 139.227 347.816 140.232 348.562 140.921C349.315 141.61 350.22 141.955 351.278 141.955ZM373.224 144.17C372.699 144.17 372.248 143.982 371.871 143.606C371.495 143.229 371.307 142.778 371.307 142.253C371.307 141.727 371.495 141.276 371.871 140.9C372.248 140.523 372.699 140.335 373.224 140.335C373.75 140.335 374.201 140.523 374.577 140.9C374.954 141.276 375.142 141.727 375.142 142.253C375.142 142.601 375.053 142.92 374.876 143.212C374.705 143.503 374.474 143.737 374.183 143.915C373.899 144.085 373.579 144.17 373.224 144.17ZM373.224 132.026C372.699 132.026 372.248 131.837 371.871 131.461C371.495 131.085 371.307 130.634 371.307 130.108C371.307 129.582 371.495 129.131 371.871 128.755C372.248 128.379 372.699 128.19 373.224 128.19C373.75 128.19 374.201 128.379 374.577 128.755C374.954 129.131 375.142 129.582 375.142 130.108C375.142 130.456 375.053 130.776 374.876 131.067C374.705 131.358 374.474 131.592 374.183 131.77C373.899 131.94 373.579 132.026 373.224 132.026ZM400.37 144.15C399.29 144.15 398.33 144 397.49 143.7C396.67 143.38 396.01 142.85 395.51 142.11C395.03 141.35 394.76 140.3 394.7 138.96L394.22 128.52H396.65L397.13 138.42C397.19 139.36 397.36 140.07 397.64 140.55C397.92 141.01 398.31 141.32 398.81 141.48C399.33 141.62 399.95 141.69 400.67 141.69C401.09 141.69 401.39 141.81 401.57 142.05C401.77 142.27 401.87 142.54 401.87 142.86C401.87 143.18 401.73 143.48 401.45 143.76C401.17 144.02 400.81 144.15 400.37 144.15ZM395.84 140.85C394.7 141.21 393.59 141.39 392.51 141.39C391.43 141.39 390.45 141.23 389.57 140.91C388.69 140.59 387.99 140.13 387.47 139.53C386.95 138.91 386.69 138.17 386.69 137.31C386.69 136.47 386.9 135.68 387.32 134.94C387.76 134.2 388.35 133.54 389.09 132.96C389.85 132.38 390.72 131.9 391.7 131.52C392.7 131.12 393.76 130.85 394.88 130.71L395.3 133.23C394.3 133.27 393.41 133.41 392.63 133.65C391.87 133.87 391.22 134.16 390.68 134.52C390.16 134.88 389.76 135.27 389.48 135.69C389.2 136.11 389.06 136.52 389.06 136.92C389.06 137.36 389.22 137.72 389.54 138C389.86 138.28 390.27 138.5 390.77 138.66C391.27 138.8 391.82 138.89 392.42 138.93C393.02 138.95 393.6 138.93 394.16 138.87C394.72 138.79 395.2 138.68 395.6 138.54L395.84 140.85ZM400.38 144.15L400.68 141.69C401.88 141.69 403.01 141.58 404.07 141.36C405.13 141.12 406.1 140.81 406.98 140.43C407.88 140.03 408.65 139.58 409.29 139.08C409.93 138.56 410.42 138.03 410.76 137.49C411.12 136.93 411.3 136.38 411.3 135.84C411.3 135.58 411.21 135.32 411.03 135.06C410.85 134.78 410.54 134.55 410.1 134.37C409.68 134.19 409.11 134.1 408.39 134.1C407.95 134.1 407.46 134.16 406.92 134.28C406.38 134.4 405.86 134.57 405.36 134.79C404.88 134.99 404.48 135.22 404.16 135.48C404.7 135.92 405.2 136.35 405.66 136.77C406.14 137.19 406.63 137.65 407.13 138.15C407.63 138.63 408.17 139.18 408.75 139.8C409.21 140.14 409.72 140.43 410.28 140.67C410.86 140.91 411.48 141.11 412.14 141.27C412.82 141.41 413.51 141.52 414.21 141.6C414.91 141.66 415.61 141.69 416.31 141.69C416.73 141.69 417.03 141.81 417.21 142.05C417.41 142.27 417.51 142.54 417.51 142.86C417.51 143.18 417.37 143.48 417.09 143.76C416.81 144.02 416.45 144.15 416.01 144.15C414.91 144.15 413.78 144.05 412.62 143.85C411.48 143.63 410.41 143.31 409.41 142.89C408.41 142.45 407.56 141.9 406.86 141.24C406.52 140.8 406.14 140.36 405.72 139.92C405.3 139.48 404.84 139.04 404.34 138.6C403.86 138.14 403.34 137.71 402.78 137.31C402.66 137.21 402.54 137.03 402.42 136.77C402.3 136.51 402.2 136.24 402.12 135.96C402.04 135.68 402 135.47 402 135.33C402 135.03 402.19 134.67 402.57 134.25C402.95 133.83 403.46 133.43 404.1 133.05C404.74 132.65 405.47 132.32 406.29 132.06C407.11 131.8 407.96 131.67 408.84 131.67C409.98 131.67 410.9 131.84 411.6 132.18C412.32 132.52 412.84 132.96 413.16 133.5C413.5 134.02 413.67 134.58 413.67 135.18C413.67 136.06 413.45 136.94 413.01 137.82C412.57 138.68 411.94 139.49 411.12 140.25C410.3 141.01 409.34 141.69 408.24 142.29C407.14 142.87 405.92 143.33 404.58 143.67C403.26 143.99 401.86 144.15 400.38 144.15ZM416.024 144.15L416.324 141.69C416.884 141.69 417.324 141.57 417.644 141.33C417.984 141.09 418.304 140.69 418.604 140.13C418.924 139.57 419.324 138.82 419.804 137.88C420.284 136.92 420.764 136.14 421.244 135.54C421.744 134.92 422.224 134.44 422.684 134.1C423.164 133.74 423.614 133.49 424.034 133.35C424.454 133.21 424.844 133.14 425.204 133.14C425.864 133.14 426.454 133.29 426.974 133.59C427.494 133.87 427.984 134.36 428.444 135.06C428.904 135.74 429.374 136.68 429.854 137.88C430.314 138.98 430.724 139.81 431.084 140.37C431.464 140.91 431.854 141.27 432.254 141.45C432.674 141.61 433.144 141.69 433.664 141.69C434.084 141.69 434.384 141.81 434.564 142.05C434.764 142.27 434.864 142.54 434.864 142.86C434.864 143.18 434.724 143.48 434.444 143.76C434.164 144.02 433.804 144.15 433.364 144.15C432.584 144.15 431.864 144.02 431.204 143.76C430.564 143.5 430.024 143.09 429.584 142.53L430.004 141.9C429.784 142.52 429.484 143.03 429.104 143.43C428.744 143.81 428.334 144.09 427.874 144.27C427.414 144.47 426.924 144.57 426.404 144.57C425.744 144.57 425.064 144.43 424.364 144.15C423.684 143.87 423.024 143.47 422.384 142.95C421.744 142.43 421.184 141.82 420.704 141.12C420.184 142.04 419.684 142.72 419.204 143.16C418.744 143.58 418.264 143.85 417.764 143.97C417.264 144.09 416.684 144.15 416.024 144.15ZM421.844 138.84C422.184 139.4 422.544 139.89 422.924 140.31C423.324 140.73 423.724 141.08 424.124 141.36C424.524 141.62 424.914 141.82 425.294 141.96C425.694 142.08 426.054 142.14 426.374 142.14C427.074 142.14 427.584 141.89 427.904 141.39C428.244 140.89 428.234 140.19 427.874 139.29C427.694 138.83 427.504 138.38 427.304 137.94C427.124 137.5 426.924 137.1 426.704 136.74C426.484 136.36 426.234 136.07 425.954 135.87C425.674 135.65 425.364 135.54 425.024 135.54C424.724 135.54 424.404 135.64 424.064 135.84C423.744 136.04 423.394 136.38 423.014 136.86C422.654 137.34 422.264 138 421.844 138.84ZM433.368 144.15L433.638 141.69C434.678 141.69 435.698 141.61 436.698 141.45C437.698 141.29 438.678 141.06 439.638 140.76C440.598 140.46 441.518 140.1 442.398 139.68C443.298 139.24 444.148 138.74 444.948 138.18C444.428 137.72 443.828 137.32 443.148 136.98C442.468 136.64 441.718 136.38 440.898 136.2C440.098 136 439.248 135.9 438.348 135.9C438.028 135.9 437.728 135.91 437.448 135.93C437.168 135.95 436.888 135.99 436.608 136.05C436.328 136.09 436.008 136.15 435.648 136.23L435.168 133.95C435.708 133.79 436.248 133.67 436.788 133.59C437.328 133.49 437.848 133.44 438.348 133.44C439.388 133.44 440.328 133.57 441.168 133.83C442.008 134.07 442.768 134.37 443.448 134.73C444.148 135.09 444.798 135.45 445.398 135.81C446.018 136.17 446.618 136.48 447.198 136.74C447.778 136.98 448.378 137.1 448.998 137.1H449.628L449.838 139.26C448.978 139.26 448.188 139.38 447.468 139.62C446.748 139.86 446.038 140.17 445.338 140.55C444.658 140.91 443.938 141.3 443.178 141.72C442.418 142.12 441.578 142.51 440.658 142.89C439.738 143.25 438.678 143.55 437.478 143.79C436.298 144.03 434.928 144.15 433.368 144.15ZM441.738 149.58C441.318 149.58 440.958 149.43 440.658 149.13C440.378 148.85 440.238 148.51 440.238 148.11C440.238 147.71 440.378 147.36 440.658 147.06C440.958 146.76 441.318 146.61 441.738 146.61C442.138 146.61 442.478 146.76 442.758 147.06C443.058 147.36 443.208 147.71 443.208 148.11C443.208 148.51 443.058 148.85 442.758 149.13C442.478 149.43 442.138 149.58 441.738 149.58ZM474.472 133.474V135.818H459.472V133.474H474.472ZM497.489 144.15C496.409 144.15 495.449 144 494.609 143.7C493.789 143.38 493.129 142.85 492.629 142.11C492.149 141.35 491.879 140.3 491.819 138.96L491.339 128.52H493.769L494.249 138.42C494.309 139.36 494.479 140.07 494.759 140.55C495.039 141.01 495.429 141.32 495.929 141.48C496.449 141.62 497.069 141.69 497.789 141.69C498.209 141.69 498.509 141.81 498.689 142.05C498.889 142.27 498.989 142.54 498.989 142.86C498.989 143.18 498.849 143.48 498.569 143.76C498.289 144.02 497.929 144.15 497.489 144.15ZM492.959 140.85C491.819 141.21 490.709 141.39 489.629 141.39C488.549 141.39 487.569 141.23 486.689 140.91C485.809 140.59 485.109 140.13 484.589 139.53C484.069 138.91 483.809 138.17 483.809 137.31C483.809 136.47 484.019 135.68 484.439 134.94C484.879 134.2 485.469 133.54 486.209 132.96C486.969 132.38 487.839 131.9 488.819 131.52C489.819 131.12 490.879 130.85 491.999 130.71L492.419 133.23C491.419 133.27 490.529 133.41 489.749 133.65C488.989 133.87 488.339 134.16 487.799 134.52C487.279 134.88 486.879 135.27 486.599 135.69C486.319 136.11 486.179 136.52 486.179 136.92C486.179 137.36 486.339 137.72 486.659 138C486.979 138.28 487.389 138.5 487.889 138.66C488.389 138.8 488.939 138.89 489.539 138.93C490.139 138.95 490.719 138.93 491.279 138.87C491.839 138.79 492.319 138.68 492.719 138.54L492.959 140.85ZM497.499 144.15L497.799 141.69C498.639 141.69 499.299 141.62 499.779 141.48C500.259 141.32 500.619 141.03 500.859 140.61C501.119 140.17 501.339 139.54 501.519 138.72C501.699 137.9 501.919 136.83 502.179 135.51L504.519 135.96C504.439 136.32 504.349 136.72 504.249 137.16C504.149 137.6 504.059 138.04 503.979 138.48C503.919 138.9 503.889 139.27 503.889 139.59C503.889 139.99 503.979 140.35 504.159 140.67C504.339 140.99 504.729 141.24 505.329 141.42C505.929 141.6 506.849 141.69 508.089 141.69C508.509 141.69 508.809 141.81 508.989 142.05C509.189 142.27 509.289 142.54 509.289 142.86C509.289 143.18 509.149 143.48 508.869 143.76C508.589 144.02 508.229 144.15 507.789 144.15C506.489 144.15 505.469 144.04 504.729 143.82C503.989 143.58 503.449 143.23 503.109 142.77C502.769 142.29 502.539 141.71 502.419 141.03L503.319 141.09C502.999 141.73 502.649 142.25 502.269 142.65C501.909 143.05 501.509 143.36 501.069 143.58C500.629 143.8 500.119 143.95 499.539 144.03C498.959 144.11 498.279 144.15 497.499 144.15ZM502.599 149.73C502.179 149.73 501.819 149.58 501.519 149.28C501.239 149 501.099 148.66 501.099 148.26C501.099 147.86 501.239 147.51 501.519 147.21C501.819 146.91 502.179 146.76 502.599 146.76C502.999 146.76 503.339 146.91 503.619 147.21C503.919 147.51 504.069 147.86 504.069 148.26C504.069 148.66 503.919 149 503.619 149.28C503.339 149.58 502.999 149.73 502.599 149.73ZM507.782 144.15L508.082 141.69C508.922 141.69 509.582 141.62 510.062 141.48C510.542 141.32 510.902 141.03 511.142 140.61C511.402 140.17 511.622 139.54 511.802 138.72C511.982 137.9 512.202 136.83 512.462 135.51L514.802 135.96C514.722 136.32 514.632 136.72 514.532 137.16C514.432 137.6 514.342 138.04 514.262 138.48C514.202 138.9 514.172 139.27 514.172 139.59C514.172 139.99 514.262 140.35 514.442 140.67C514.622 140.99 515.012 141.24 515.612 141.42C516.212 141.6 517.132 141.69 518.372 141.69C518.792 141.69 519.092 141.81 519.272 142.05C519.472 142.27 519.572 142.54 519.572 142.86C519.572 143.18 519.432 143.48 519.152 143.76C518.872 144.02 518.512 144.15 518.072 144.15C516.772 144.15 515.752 144.04 515.012 143.82C514.272 143.58 513.732 143.23 513.392 142.77C513.052 142.29 512.822 141.71 512.702 141.03L513.602 141.09C513.282 141.73 512.932 142.25 512.552 142.65C512.192 143.05 511.792 143.36 511.352 143.58C510.912 143.8 510.402 143.95 509.822 144.03C509.242 144.11 508.562 144.15 507.782 144.15ZM512.462 132.42C512.042 132.42 511.682 132.28 511.382 132C511.102 131.7 510.962 131.35 510.962 130.95C510.962 130.55 511.102 130.2 511.382 129.9C511.682 129.6 512.042 129.45 512.462 129.45C512.862 129.45 513.202 129.6 513.482 129.9C513.782 130.2 513.932 130.55 513.932 130.95C513.932 131.35 513.782 131.7 513.482 132C513.202 132.28 512.862 132.42 512.462 132.42ZM518.065 144.15L518.365 141.69C519.005 141.69 519.525 141.65 519.925 141.57C520.325 141.47 520.655 141.24 520.915 140.88C521.195 140.5 521.455 139.91 521.695 139.11C521.935 138.31 522.215 137.19 522.535 135.75L524.785 136.38C524.705 136.72 524.615 137.11 524.515 137.55C524.415 137.97 524.325 138.41 524.245 138.87C524.165 139.31 524.125 139.72 524.125 140.1C524.125 140.6 524.315 140.99 524.695 141.27C525.075 141.55 525.765 141.69 526.765 141.69C527.365 141.69 527.855 141.64 528.235 141.54C528.615 141.44 528.925 141.2 529.165 140.82C529.425 140.44 529.655 139.83 529.855 138.99C530.055 138.15 530.265 137 530.485 135.54L532.765 135.96C532.705 136.32 532.635 136.76 532.555 137.28C532.475 137.8 532.395 138.32 532.315 138.84C532.255 139.34 532.225 139.76 532.225 140.1C532.225 140.38 532.285 140.65 532.405 140.91C532.545 141.15 532.805 141.34 533.185 141.48C533.585 141.62 534.175 141.69 534.955 141.69C535.535 141.69 536.035 141.62 536.455 141.48C536.895 141.34 537.225 141.08 537.445 140.7C537.685 140.32 537.805 139.79 537.805 139.11C537.805 138.35 537.625 137.4 537.265 136.26C536.925 135.1 536.535 133.95 536.095 132.81L538.525 131.91C538.785 132.55 539.025 133.28 539.245 134.1C539.485 134.92 539.685 135.73 539.845 136.53C540.005 137.33 540.085 138.03 540.085 138.63C540.085 139.55 539.965 140.36 539.725 141.06C539.485 141.76 539.145 142.34 538.705 142.8C538.265 143.24 537.725 143.58 537.085 143.82C536.445 144.04 535.725 144.15 534.925 144.15C533.985 144.15 533.215 144.04 532.615 143.82C532.015 143.6 531.555 143.27 531.235 142.83C530.915 142.37 530.705 141.79 530.605 141.09H531.625C531.245 141.95 530.845 142.6 530.425 143.04C530.005 143.48 529.485 143.78 528.865 143.94C528.245 144.08 527.425 144.15 526.405 144.15C525.905 144.15 525.365 144.07 524.785 143.91C524.225 143.75 523.735 143.44 523.315 142.98C522.895 142.5 522.645 141.79 522.565 140.85L523.465 140.67C523.125 141.69 522.705 142.45 522.205 142.95C521.725 143.43 521.145 143.75 520.465 143.91C519.785 144.07 518.985 144.15 518.065 144.15ZM530.995 127.65C530.575 127.65 530.215 127.51 529.915 127.23C529.635 126.93 529.495 126.58 529.495 126.18C529.495 125.78 529.635 125.43 529.915 125.13C530.215 124.83 530.575 124.68 530.995 124.68C531.395 124.68 531.735 124.83 532.015 125.13C532.315 125.43 532.465 125.78 532.465 126.18C532.465 126.58 532.315 126.93 532.015 127.23C531.735 127.51 531.395 127.65 530.995 127.65ZM528.955 130.95C528.535 130.95 528.175 130.81 527.875 130.53C527.595 130.23 527.455 129.88 527.455 129.48C527.455 129.08 527.595 128.73 527.875 128.43C528.175 128.13 528.535 127.98 528.955 127.98C529.355 127.98 529.695 128.13 529.975 128.43C530.275 128.73 530.425 129.08 530.425 129.48C530.425 129.88 530.275 130.23 529.975 130.53C529.695 130.81 529.355 130.95 528.955 130.95ZM533.035 130.95C532.615 130.95 532.255 130.81 531.955 130.53C531.675 130.23 531.535 129.88 531.535 129.48C531.535 129.08 531.675 128.73 531.955 128.43C532.255 128.13 532.615 127.98 533.035 127.98C533.435 127.98 533.775 128.13 534.055 128.43C534.355 128.73 534.505 129.08 534.505 129.48C534.505 129.88 534.355 130.23 534.055 130.53C533.775 130.81 533.435 130.95 533.035 130.95ZM543.331 150.9L542.791 148.44C543.991 148.28 545.091 148.05 546.091 147.75C547.111 147.47 547.981 147.06 548.701 146.52C549.441 145.98 550.011 145.27 550.411 144.39C550.811 143.51 551.011 142.41 551.011 141.09C551.011 140.47 550.951 139.88 550.831 139.32C550.711 138.74 550.531 138.23 550.291 137.79C550.051 137.35 549.761 137 549.421 136.74C549.101 136.48 548.731 136.35 548.311 136.35C547.851 136.35 547.431 136.53 547.051 136.89C546.691 137.23 546.401 137.67 546.181 138.21C545.981 138.75 545.881 139.29 545.881 139.83C545.881 140.25 545.961 140.62 546.121 140.94C546.301 141.24 546.591 141.47 546.991 141.63C547.391 141.79 547.911 141.87 548.551 141.87C549.131 141.87 549.711 141.81 550.291 141.69C550.891 141.57 551.401 141.41 551.821 141.21L551.941 143.31C551.461 143.65 550.891 143.89 550.231 144.03C549.591 144.17 548.941 144.24 548.281 144.24C547.521 144.24 546.841 144.16 546.241 144C545.661 143.84 545.161 143.61 544.741 143.31C544.341 142.99 544.031 142.59 543.811 142.11C543.611 141.63 543.511 141.07 543.511 140.43C543.511 139.67 543.631 138.91 543.871 138.15C544.111 137.37 544.451 136.66 544.891 136.02C545.331 135.38 545.861 134.87 546.481 134.49C547.101 134.09 547.791 133.89 548.551 133.89C549.351 133.89 550.051 134.1 550.651 134.52C551.251 134.92 551.751 135.47 552.151 136.17C552.551 136.87 552.851 137.66 553.051 138.54C553.251 139.42 553.351 140.33 553.351 141.27C553.351 143.13 552.971 144.73 552.211 146.07C551.471 147.43 550.351 148.51 548.851 149.31C547.371 150.11 545.531 150.64 543.331 150.9ZM556.059 142.65L557.259 140.58C557.659 140.84 558.219 141.09 558.939 141.33C559.659 141.57 560.499 141.69 561.459 141.69C562.459 141.69 563.249 141.59 563.829 141.39C564.429 141.19 564.859 140.9 565.119 140.52C565.399 140.12 565.539 139.66 565.539 139.14C565.539 138.74 565.449 138.25 565.269 137.67C565.109 137.07 564.749 136.27 564.189 135.27C563.629 134.25 562.769 132.92 561.609 131.28L563.679 129.93C564.739 131.39 565.579 132.71 566.199 133.89C566.839 135.07 567.289 136.11 567.549 137.01C567.829 137.89 567.969 138.65 567.969 139.29C567.969 140.09 567.769 140.87 567.369 141.63C566.969 142.37 566.299 142.98 565.359 143.46C564.419 143.94 563.119 144.18 561.459 144.18C560.739 144.18 560.039 144.12 559.359 144C558.699 143.88 558.089 143.71 557.529 143.49C556.969 143.25 556.479 142.97 556.059 142.65Z" fill="#22445D"/>
<g filter="url(#filter0_d_1_6056)">
<path d="M593 15C593 6.71572 599.716 0 608 0H743C751.284 0 758 6.71573 758 15V150C758 158.284 751.284 165 743 165H608C599.716 165 593 158.284 593 150V15Z" fill="#FBF6F6"/>
</g>
<path d="M636 83.0758L672.275 46.7965C674.058 45.018 676.942 45.018 678.721 46.7965L715 83.0758M645.115 73.9604V114.98C645.115 117.495 647.157 119.537 649.673 119.537H666.385V99.7873C666.385 97.2715 668.426 95.2296 670.942 95.2296H680.058C682.574 95.2296 684.615 97.2715 684.615 99.7873V119.537H701.327C703.843 119.537 705.885 117.495 705.885 114.98V73.9604M660.308 119.537H693.731" stroke="#158B68" stroke-width="5" stroke-linecap="round" stroke-linejoin="round"/>
<defs>
<filter id="filter0_d_1_6056" x="593" y="0" width="180" height="180" filterUnits="userSpaceOnUse" color-interpolation-filters="sRGB">
<feFlood flood-opacity="0" result="BackgroundImageFix"/>
<feColorMatrix in="SourceAlpha" type="matrix" values="0 0 0 0 0 0 0 0 0 0 0 0 0 0 0 0 0 0 127 0" result="hardAlpha"/>
<feOffset dx="10" dy="10"/>
<feGaussianBlur stdDeviation="2.5"/>
<feComposite in2="hardAlpha" operator="out"/>
<feColorMatrix type="matrix" values="0 0 0 0 0 0 0 0 0 0 0 0 0 0 0 0 0 0 0.160784 0"/>
<feBlend mode="normal" in2="BackgroundImageFix" result="effect1_dropShadow_1_6056"/>
<feBlend mode="normal" in="SourceGraphic" in2="effect1_dropShadow_1_6056" result="shape"/>
</filter>
</defs>
</svg>
