<svg width="550" height="100" viewBox="0 0 620 180" fill="none" xmlns="http://www.w3.org/2000/svg">
<path d="M234.762 48.28C233.242 48.28 231.802 48.0667 230.442 47.64C229.082 47.24 227.869 46.64 226.802 45.84C225.762 45.04 224.936 44.0667 224.322 42.92C223.736 41.8 223.442 40.5067 223.442 39.04C223.442 38.4 223.496 37.72 223.602 37C223.736 36.2533 223.922 35.4667 224.162 34.64C224.429 33.7867 224.749 32.8933 225.122 31.96L228.002 33.08C227.736 33.8267 227.496 34.5333 227.282 35.2C227.096 35.8667 226.949 36.4933 226.842 37.08C226.762 37.6667 226.722 38.2267 226.722 38.76C226.722 40.12 227.082 41.2667 227.802 42.2C228.549 43.1333 229.536 43.8267 230.762 44.28C232.016 44.76 233.389 45 234.882 45C236.696 45 238.216 44.7867 239.442 44.36C240.669 43.96 241.642 43.4133 242.362 42.72C243.082 42.0533 243.589 41.3067 243.882 40.48C244.202 39.6533 244.362 38.8133 244.362 37.96C244.362 36.7867 244.269 35.68 244.082 34.64C243.922 33.6 243.696 32.5867 243.402 31.6C243.136 30.5867 242.842 29.56 242.522 28.52L245.762 27.64C246.056 28.6533 246.282 29.48 246.442 30.12C246.602 30.7333 246.722 31.2267 246.802 31.6C246.909 31.9733 247.002 32.3067 247.082 32.6C247.376 33.5867 247.709 34.32 248.082 34.8C248.482 35.2533 248.936 35.56 249.442 35.72C249.976 35.8533 250.576 35.92 251.242 35.92C251.776 35.92 252.242 35.8533 252.642 35.72C253.069 35.5867 253.456 35.2667 253.802 34.76C254.176 34.2533 254.496 33.44 254.762 32.32C255.056 31.2 255.322 29.6667 255.562 27.72L258.602 28.28C258.522 28.76 258.429 29.3467 258.322 30.04C258.216 30.7333 258.109 31.4267 258.002 32.12C257.922 32.7867 257.882 33.3467 257.882 33.8C257.882 34.1733 257.962 34.5333 258.122 34.88C258.309 35.2 258.656 35.4533 259.162 35.64C259.696 35.8267 260.482 35.92 261.522 35.92C262.349 35.92 263.056 35.8667 263.642 35.76C264.256 35.6267 264.722 35.32 265.042 34.84C265.389 34.3333 265.562 33.5467 265.562 32.48C265.562 31.8133 265.456 31.0267 265.242 30.12C265.029 29.1867 264.749 28.2 264.402 27.16C264.056 26.12 263.682 25.0933 263.282 24.08L266.522 22.88C266.869 23.7333 267.189 24.7067 267.482 25.8C267.802 26.8933 268.069 27.9733 268.282 29.04C268.496 30.1067 268.602 31.04 268.602 31.84C268.602 33.2 268.416 34.3467 268.042 35.28C267.696 36.2133 267.202 36.9733 266.562 37.56C265.922 38.1467 265.162 38.5733 264.282 38.84C263.429 39.08 262.496 39.2 261.482 39.2C260.549 39.2 259.736 39.12 259.042 38.96C258.376 38.8 257.802 38.56 257.322 38.24C256.869 37.8933 256.509 37.4667 256.242 36.96C256.002 36.4267 255.829 35.8133 255.722 35.12H257.082C256.656 36.08 256.176 36.8667 255.642 37.48C255.109 38.0667 254.469 38.5067 253.722 38.8C253.002 39.0667 252.109 39.2 251.042 39.2C250.216 39.2 249.509 39.0933 248.922 38.88C248.336 38.64 247.842 38.3467 247.442 38C247.069 37.6267 246.776 37.2133 246.562 36.76C246.349 36.28 246.189 35.8 246.082 35.32L247.722 37.36C247.589 38.64 247.296 39.92 246.842 41.2C246.416 42.48 245.722 43.6533 244.762 44.72C243.829 45.8133 242.549 46.68 240.922 47.32C239.296 47.96 237.242 48.28 234.762 48.28ZM282.242 39.2C280.108 39.2 278.468 38.96 277.322 38.48C276.202 38 275.428 37.2533 275.002 36.24C274.575 35.2267 274.335 33.92 274.282 32.32L273.482 10.44H276.762L277.562 31.04C277.615 32.3467 277.735 33.36 277.922 34.08C278.135 34.7733 278.588 35.2533 279.282 35.52C280.002 35.7867 281.122 35.92 282.642 35.92C283.202 35.92 283.602 36.08 283.842 36.4C284.108 36.6933 284.242 37.0533 284.242 37.48C284.242 37.9067 284.055 38.3067 283.682 38.68C283.308 39.0267 282.828 39.2 282.242 39.2ZM282.242 39.2L282.642 35.92C283.389 35.92 283.976 35.76 284.402 35.44C284.856 35.12 285.282 34.5867 285.682 33.84C286.109 33.0933 286.642 32.0933 287.282 30.84C287.922 29.56 288.562 28.52 289.202 27.72C289.869 26.8933 290.509 26.2533 291.122 25.8C291.762 25.32 292.362 24.9867 292.922 24.8C293.482 24.6133 294.002 24.52 294.482 24.52C295.362 24.52 296.149 24.72 296.842 25.12C297.536 25.4933 298.189 26.1467 298.802 27.08C299.416 27.9867 300.042 29.24 300.682 30.84C301.296 32.3067 301.842 33.4133 302.322 34.16C302.829 34.88 303.349 35.36 303.882 35.6C304.442 35.8133 305.069 35.92 305.762 35.92C306.322 35.92 306.722 36.08 306.962 36.4C307.229 36.6933 307.362 37.0533 307.362 37.48C307.362 37.9067 307.176 38.3067 306.802 38.68C306.429 39.0267 305.949 39.2 305.362 39.2C304.322 39.2 303.362 39.0267 302.482 38.68C301.629 38.3333 300.909 37.7867 300.322 37.04L300.882 36.2C300.589 37.0267 300.189 37.7067 299.682 38.24C299.202 38.7467 298.656 39.12 298.042 39.36C297.429 39.6267 296.776 39.76 296.082 39.76C295.202 39.76 294.296 39.5733 293.362 39.2C292.456 38.8267 291.576 38.2933 290.722 37.6C289.869 36.9067 289.122 36.0933 288.482 35.16C287.789 36.3867 287.122 37.2933 286.482 37.88C285.869 38.44 285.229 38.8 284.562 38.96C283.896 39.12 283.122 39.2 282.242 39.2ZM290.002 32.12C290.456 32.8667 290.936 33.52 291.442 34.08C291.976 34.64 292.509 35.1067 293.042 35.48C293.576 35.8267 294.096 36.0933 294.602 36.28C295.136 36.44 295.616 36.52 296.042 36.52C296.976 36.52 297.656 36.1867 298.082 35.52C298.536 34.8533 298.522 33.92 298.042 32.72C297.802 32.1067 297.549 31.5067 297.282 30.92C297.042 30.3333 296.776 29.8 296.482 29.32C296.189 28.8133 295.856 28.4267 295.482 28.16C295.109 27.8667 294.696 27.72 294.242 27.72C293.842 27.72 293.416 27.8533 292.962 28.12C292.536 28.3867 292.069 28.84 291.562 29.48C291.082 30.12 290.562 31 290.002 32.12ZM305.367 39.2L305.767 35.92C307.341 35.92 308.567 35.8667 309.447 35.76C310.327 35.6267 310.954 35.32 311.327 34.84C311.701 34.3333 311.887 33.5467 311.887 32.48C311.887 31.8133 311.781 31.0267 311.567 30.12C311.354 29.1867 311.074 28.2 310.727 27.16C310.381 26.12 310.007 25.0933 309.607 24.08L312.847 22.88C313.194 23.7333 313.514 24.7067 313.807 25.8C314.127 26.8933 314.394 27.9733 314.607 29.04C314.821 30.1067 314.927 31.04 314.927 31.84C314.927 33.1733 314.741 34.3067 314.367 35.24C314.021 36.1733 313.461 36.9333 312.687 37.52C311.914 38.1067 310.914 38.5333 309.687 38.8C308.487 39.0667 307.047 39.2 305.367 39.2ZM314.087 18.72C313.527 18.72 313.047 18.5333 312.647 18.16C312.274 17.76 312.087 17.2933 312.087 16.76C312.087 16.2267 312.274 15.76 312.647 15.36C313.047 14.96 313.527 14.76 314.087 14.76C314.621 14.76 315.074 14.96 315.447 15.36C315.847 15.76 316.047 16.2267 316.047 16.76C316.047 17.2933 315.847 17.76 315.447 18.16C315.074 18.5333 314.621 18.72 314.087 18.72ZM308.607 18.72C308.047 18.72 307.567 18.5333 307.167 18.16C306.794 17.76 306.607 17.2933 306.607 16.76C306.607 16.2267 306.794 15.76 307.167 15.36C307.567 14.96 308.047 14.76 308.607 14.76C309.141 14.76 309.594 14.96 309.967 15.36C310.367 15.76 310.567 16.2267 310.567 16.76C310.567 17.2933 310.367 17.76 309.967 18.16C309.594 18.5333 309.141 18.72 308.607 18.72ZM336.65 39C335.344 39 334.17 38.7733 333.13 38.32C332.09 37.8667 331.264 37.1733 330.65 36.24C330.064 35.3067 329.77 34.12 329.77 32.68C329.77 31.5333 330.21 30.1067 331.09 28.4C331.97 26.6667 333.504 24.84 335.69 22.92L336.45 25.08L333.73 22.64L335.81 20.16C337.197 21.2533 338.477 22.4267 339.65 23.68C340.824 24.9333 341.77 26.2667 342.49 27.68C343.21 29.0933 343.57 30.5867 343.57 32.16C343.57 32.7733 343.464 33.4667 343.25 34.24C343.037 35.0133 342.677 35.7733 342.17 36.52C341.664 37.24 340.957 37.84 340.05 38.32C339.144 38.7733 338.01 39 336.65 39ZM336.65 35.72C337.557 35.72 338.304 35.5733 338.89 35.28C339.504 34.96 339.957 34.52 340.25 33.96C340.57 33.4 340.73 32.7467 340.73 32C340.73 31.3333 340.61 30.64 340.37 29.92C340.157 29.1733 339.704 28.3733 339.01 27.52C338.344 26.64 337.317 25.6533 335.93 24.56L337.69 24.48C336.704 25.3333 335.85 26.24 335.13 27.2C334.41 28.1333 333.864 29.0533 333.49 29.96C333.117 30.84 332.93 31.64 332.93 32.36C332.93 33.48 333.277 34.32 333.97 34.88C334.69 35.44 335.584 35.72 336.65 35.72ZM343.34 48.2L342.18 45.16C344.873 44.3067 346.94 43.28 348.38 42.08C349.846 40.9067 350.846 39.68 351.38 38.4C351.94 37.12 352.22 35.8933 352.22 34.72C352.22 33.9733 352.14 33.2533 351.98 32.56C351.82 31.8667 351.54 31.08 351.14 30.2C350.74 29.32 350.18 28.2267 349.46 26.92L352.38 25.44C353.393 27.1733 354.113 28.8133 354.54 30.36C354.993 31.9067 355.22 33.2667 355.22 34.44C355.22 36.12 354.94 37.64 354.38 39C353.846 40.36 353.126 41.56 352.22 42.6C351.34 43.6667 350.366 44.5733 349.3 45.32C348.26 46.0667 347.206 46.68 346.14 47.16C345.1 47.64 344.166 47.9867 343.34 48.2ZM369.507 39.2C367.374 39.2 365.734 38.96 364.587 38.48C363.467 38 362.694 37.2533 362.267 36.24C361.841 35.2267 361.601 33.92 361.547 32.32L360.747 10.44H364.027L364.827 31.04C364.881 32.3467 365.001 33.36 365.187 34.08C365.401 34.7733 365.854 35.2533 366.547 35.52C367.267 35.7867 368.387 35.92 369.907 35.92C370.467 35.92 370.867 36.08 371.107 36.4C371.374 36.6933 371.507 37.0533 371.507 37.48C371.507 37.9067 371.321 38.3067 370.947 38.68C370.574 39.0267 370.094 39.2 369.507 39.2ZM369.508 39.2L369.908 35.92C370.654 35.92 371.241 35.76 371.668 35.44C372.121 35.12 372.548 34.5867 372.948 33.84C373.374 33.0933 373.908 32.0933 374.548 30.84C375.188 29.56 375.828 28.52 376.468 27.72C377.134 26.8933 377.774 26.2533 378.388 25.8C379.028 25.32 379.628 24.9867 380.188 24.8C380.748 24.6133 381.268 24.52 381.748 24.52C382.628 24.52 383.414 24.72 384.108 25.12C384.801 25.4933 385.454 26.1467 386.068 27.08C386.681 27.9867 387.308 29.24 387.948 30.84C388.561 32.3067 389.108 33.4133 389.588 34.16C390.094 34.88 390.614 35.36 391.148 35.6C391.708 35.8133 392.334 35.92 393.028 35.92C393.588 35.92 393.988 36.08 394.228 36.4C394.494 36.6933 394.628 37.0533 394.628 37.48C394.628 37.9067 394.441 38.3067 394.068 38.68C393.694 39.0267 393.214 39.2 392.628 39.2C391.588 39.2 390.628 39.0267 389.748 38.68C388.894 38.3333 388.174 37.7867 387.588 37.04L388.148 36.2C387.854 37.0267 387.454 37.7067 386.948 38.24C386.468 38.7467 385.921 39.12 385.308 39.36C384.694 39.6267 384.041 39.76 383.348 39.76C382.468 39.76 381.561 39.5733 380.628 39.2C379.721 38.8267 378.841 38.2933 377.988 37.6C377.134 36.9067 376.388 36.0933 375.748 35.16C375.054 36.3867 374.388 37.2933 373.748 37.88C373.134 38.44 372.494 38.8 371.828 38.96C371.161 39.12 370.388 39.2 369.508 39.2ZM377.268 32.12C377.721 32.8667 378.201 33.52 378.708 34.08C379.241 34.64 379.774 35.1067 380.308 35.48C380.841 35.8267 381.361 36.0933 381.868 36.28C382.401 36.44 382.881 36.52 383.308 36.52C384.241 36.52 384.921 36.1867 385.348 35.52C385.801 34.8533 385.788 33.92 385.308 32.72C385.068 32.1067 384.814 31.5067 384.548 30.92C384.308 30.3333 384.041 29.8 383.748 29.32C383.454 28.8133 383.121 28.4267 382.748 28.16C382.374 27.8667 381.961 27.72 381.508 27.72C381.108 27.72 380.681 27.8533 380.228 28.12C379.801 28.3867 379.334 28.84 378.828 29.48C378.348 30.12 377.828 31 377.268 32.12ZM392.633 39.2L393.033 35.92C393.886 35.92 394.579 35.8667 395.113 35.76C395.646 35.6267 396.086 35.32 396.433 34.84C396.806 34.3333 397.153 33.5467 397.473 32.48C397.793 31.4133 398.166 29.92 398.593 28L401.593 28.84C401.486 29.2933 401.366 29.8133 401.233 30.4C401.099 30.96 400.979 31.5467 400.873 32.16C400.766 32.7467 400.713 33.2933 400.713 33.8C400.713 34.4667 400.966 34.9867 401.473 35.36C401.979 35.7333 402.899 35.92 404.233 35.92C405.033 35.92 405.686 35.8533 406.193 35.72C406.699 35.5867 407.113 35.2667 407.433 34.76C407.779 34.2533 408.086 33.44 408.353 32.32C408.619 31.2 408.899 29.6667 409.193 27.72L412.233 28.28C412.153 28.76 412.059 29.3467 411.953 30.04C411.846 30.7333 411.739 31.4267 411.633 32.12C411.553 32.7867 411.513 33.3467 411.513 33.8C411.513 34.1733 411.593 34.5333 411.753 34.88C411.939 35.2 412.286 35.4533 412.793 35.64C413.326 35.8267 414.113 35.92 415.153 35.92C415.926 35.92 416.593 35.8267 417.153 35.64C417.739 35.4533 418.179 35.1067 418.473 34.6C418.793 34.0933 418.953 33.3867 418.953 32.48C418.953 31.4667 418.713 30.2 418.233 28.68C417.779 27.1333 417.259 25.6 416.673 24.08L419.913 22.88C420.259 23.7333 420.579 24.7067 420.873 25.8C421.193 26.8933 421.459 27.9733 421.673 29.04C421.886 30.1067 421.993 31.04 421.993 31.84C421.993 33.0667 421.833 34.1467 421.513 35.08C421.193 36.0133 420.739 36.7867 420.153 37.4C419.566 37.9867 418.846 38.44 417.993 38.76C417.139 39.0533 416.179 39.2 415.113 39.2C413.859 39.2 412.833 39.0533 412.033 38.76C411.233 38.4667 410.619 38.0267 410.193 37.44C409.766 36.8267 409.486 36.0533 409.353 35.12H410.713C410.206 36.2667 409.673 37.1333 409.113 37.72C408.553 38.3067 407.859 38.7067 407.033 38.92C406.206 39.1067 405.113 39.2 403.753 39.2C403.086 39.2 402.366 39.0933 401.593 38.88C400.846 38.6667 400.193 38.2533 399.633 37.64C399.073 37 398.739 36.0533 398.633 34.8L399.833 34.56C399.379 35.92 398.819 36.9333 398.153 37.6C397.513 38.24 396.739 38.6667 395.833 38.88C394.926 39.0933 393.859 39.2 392.633 39.2ZM409.873 17.2C409.313 17.2 408.833 17.0133 408.433 16.64C408.059 16.24 407.873 15.7733 407.873 15.24C407.873 14.7067 408.059 14.24 408.433 13.84C408.833 13.44 409.313 13.24 409.873 13.24C410.406 13.24 410.859 13.44 411.233 13.84C411.633 14.24 411.833 14.7067 411.833 15.24C411.833 15.7733 411.633 16.24 411.233 16.64C410.859 17.0133 410.406 17.2 409.873 17.2ZM407.153 21.6C406.593 21.6 406.113 21.4133 405.713 21.04C405.339 20.64 405.153 20.1733 405.153 19.64C405.153 19.1067 405.339 18.64 405.713 18.24C406.113 17.84 406.593 17.64 407.153 17.64C407.686 17.64 408.139 17.84 408.513 18.24C408.913 18.64 409.113 19.1067 409.113 19.64C409.113 20.1733 408.913 20.64 408.513 21.04C408.139 21.4133 407.686 21.6 407.153 21.6ZM412.593 21.6C412.033 21.6 411.553 21.4133 411.153 21.04C410.779 20.64 410.593 20.1733 410.593 19.64C410.593 19.1067 410.779 18.64 411.153 18.24C411.553 17.84 412.033 17.64 412.593 17.64C413.126 17.64 413.579 17.84 413.953 18.24C414.353 18.64 414.553 19.1067 414.553 19.64C414.553 20.1733 414.353 20.64 413.953 21.04C413.579 21.4133 413.126 21.6 412.593 21.6Z" fill="#22445D"/>
<path d="M240.591 108.298C238.986 108.298 237.619 107.862 236.489 106.988C235.36 106.107 234.497 104.832 233.9 103.163C233.304 101.487 233.006 99.4631 233.006 97.0909C233.006 94.733 233.304 92.7195 233.9 91.0504C234.504 89.3743 235.371 88.0959 236.5 87.2152C237.636 86.3274 239 85.8835 240.591 85.8835C242.182 85.8835 243.542 86.3274 244.671 87.2152C245.807 88.0959 246.674 89.3743 247.271 91.0504C247.874 92.7195 248.176 94.733 248.176 97.0909C248.176 99.4631 247.878 101.487 247.281 103.163C246.685 104.832 245.822 106.107 244.692 106.988C243.563 107.862 242.196 108.298 240.591 108.298ZM240.591 105.955C242.182 105.955 243.418 105.187 244.298 103.653C245.179 102.119 245.619 99.9318 245.619 97.0909C245.619 95.2017 245.417 93.593 245.012 92.2649C244.614 90.9368 244.039 89.9247 243.286 89.2287C242.54 88.5327 241.642 88.1847 240.591 88.1847C239.014 88.1847 237.782 88.9624 236.894 90.5178C236.006 92.0661 235.562 94.2571 235.562 97.0909C235.562 98.9801 235.761 100.585 236.159 101.906C236.557 103.227 237.128 104.232 237.874 104.921C238.627 105.61 239.533 105.955 240.591 105.955ZM259.895 86.1818V108H257.253V88.9517H257.125L251.798 92.4886V89.804L257.253 86.1818H259.895ZM273.84 86.1818V108H271.198V88.9517H271.07L265.744 92.4886V89.804L271.198 86.1818H273.84ZM289.533 95.919V98.2628H279.987V95.919H289.533ZM300.934 108.298C299.528 108.298 298.275 108.057 297.174 107.574C296.08 107.091 295.21 106.42 294.564 105.56C293.924 104.694 293.576 103.689 293.52 102.545H296.204C296.261 103.249 296.503 103.856 296.929 104.367C297.355 104.871 297.912 105.262 298.601 105.539C299.29 105.816 300.054 105.955 300.892 105.955C301.829 105.955 302.66 105.791 303.385 105.464C304.109 105.138 304.677 104.683 305.089 104.101C305.501 103.518 305.707 102.844 305.707 102.077C305.707 101.274 305.508 100.567 305.111 99.9567C304.713 99.3388 304.13 98.8558 303.363 98.5078C302.596 98.1598 301.659 97.9858 300.551 97.9858H298.804V95.642H300.551C301.417 95.642 302.177 95.4858 302.831 95.1733C303.491 94.8608 304.006 94.4205 304.375 93.8523C304.752 93.2841 304.94 92.6165 304.94 91.8494C304.94 91.1108 304.777 90.468 304.45 89.9212C304.123 89.3743 303.662 88.9482 303.065 88.6428C302.476 88.3374 301.78 88.1847 300.977 88.1847C300.224 88.1847 299.514 88.3232 298.846 88.6001C298.186 88.87 297.646 89.2642 297.227 89.7827C296.808 90.294 296.581 90.9119 296.545 91.6364H293.988C294.031 90.4929 294.375 89.4915 295.022 88.6321C295.668 87.7656 296.513 87.0909 297.557 86.608C298.608 86.125 299.763 85.8835 301.02 85.8835C302.369 85.8835 303.527 86.157 304.493 86.7038C305.459 87.2436 306.201 87.9574 306.719 88.8452C307.238 89.733 307.497 90.6918 307.497 91.7216C307.497 92.9503 307.174 93.9979 306.527 94.8643C305.888 95.7308 305.018 96.331 303.917 96.6648V96.8352C305.295 97.0625 306.371 97.6484 307.145 98.593C307.919 99.5305 308.307 100.692 308.307 102.077C308.307 103.263 307.983 104.328 307.337 105.273C306.698 106.21 305.824 106.949 304.716 107.489C303.608 108.028 302.348 108.298 300.934 108.298ZM320.036 108.298C318.63 108.298 317.376 108.057 316.275 107.574C315.182 107.091 314.312 106.42 313.665 105.56C313.026 104.694 312.678 103.689 312.621 102.545H315.306C315.363 103.249 315.604 103.856 316.03 104.367C316.456 104.871 317.014 105.262 317.703 105.539C318.392 105.816 319.155 105.955 319.993 105.955C320.931 105.955 321.762 105.791 322.486 105.464C323.211 105.138 323.779 104.683 324.191 104.101C324.603 103.518 324.809 102.844 324.809 102.077C324.809 101.274 324.61 100.567 324.212 99.9567C323.814 99.3388 323.232 98.8558 322.465 98.5078C321.698 98.1598 320.76 97.9858 319.652 97.9858H317.905V95.642H319.652C320.519 95.642 321.279 95.4858 321.932 95.1733C322.593 94.8608 323.108 94.4205 323.477 93.8523C323.853 93.2841 324.042 92.6165 324.042 91.8494C324.042 91.1108 323.878 90.468 323.552 89.9212C323.225 89.3743 322.763 88.9482 322.167 88.6428C321.577 88.3374 320.881 88.1847 320.079 88.1847C319.326 88.1847 318.616 88.3232 317.948 88.6001C317.287 88.87 316.748 89.2642 316.329 89.7827C315.91 90.294 315.682 90.9119 315.647 91.6364H313.09C313.133 90.4929 313.477 89.4915 314.123 88.6321C314.77 87.7656 315.615 87.0909 316.659 86.608C317.71 86.125 318.864 85.8835 320.121 85.8835C321.471 85.8835 322.628 86.157 323.594 86.7038C324.56 87.2436 325.302 87.9574 325.821 88.8452C326.339 89.733 326.598 90.6918 326.598 91.7216C326.598 92.9503 326.275 93.9979 325.629 94.8643C324.99 95.7308 324.12 96.331 323.019 96.6648V96.8352C324.397 97.0625 325.473 97.6484 326.247 98.593C327.021 99.5305 327.408 100.692 327.408 102.077C327.408 103.263 327.085 104.328 326.439 105.273C325.799 106.21 324.926 106.949 323.818 107.489C322.71 108.028 321.449 108.298 320.036 108.298ZM338.754 108.298C337.291 108.298 335.998 108.039 334.876 107.521C333.761 106.995 332.891 106.274 332.266 105.358C331.641 104.435 331.332 103.384 331.339 102.205C331.332 101.281 331.513 100.429 331.883 99.6477C332.252 98.8594 332.756 98.2024 333.395 97.6768C334.042 97.1442 334.763 96.8068 335.558 96.6648V96.5369C334.514 96.267 333.683 95.6811 333.065 94.7791C332.447 93.87 332.142 92.8366 332.149 91.679C332.142 90.571 332.422 89.5803 332.991 88.7067C333.559 87.8331 334.34 87.1442 335.334 86.6399C336.336 86.1357 337.476 85.8835 338.754 85.8835C340.018 85.8835 341.147 86.1357 342.142 86.6399C343.136 87.1442 343.917 87.8331 344.486 88.7067C345.061 89.5803 345.352 90.571 345.359 91.679C345.352 92.8366 345.036 93.87 344.411 94.7791C343.793 95.6811 342.973 96.267 341.95 96.5369V96.6648C342.738 96.8068 343.449 97.1442 344.081 97.6768C344.713 98.2024 345.217 98.8594 345.593 99.6477C345.97 100.429 346.162 101.281 346.169 102.205C346.162 103.384 345.842 104.435 345.21 105.358C344.585 106.274 343.715 106.995 342.6 107.521C341.492 108.039 340.21 108.298 338.754 108.298ZM338.754 105.955C339.741 105.955 340.593 105.795 341.311 105.475C342.028 105.156 342.582 104.705 342.973 104.122C343.363 103.54 343.562 102.858 343.569 102.077C343.562 101.253 343.349 100.525 342.93 99.8928C342.511 99.2607 341.939 98.7635 341.215 98.4013C340.498 98.0391 339.677 97.858 338.754 97.858C337.824 97.858 336.993 98.0391 336.261 98.4013C335.537 98.7635 334.965 99.2607 334.546 99.8928C334.134 100.525 333.932 101.253 333.939 102.077C333.932 102.858 334.12 103.54 334.503 104.122C334.894 104.705 335.451 105.156 336.176 105.475C336.9 105.795 337.76 105.955 338.754 105.955ZM338.754 95.5994C339.535 95.5994 340.228 95.4432 340.831 95.1307C341.442 94.8182 341.922 94.3814 342.27 93.8203C342.618 93.2592 342.795 92.6023 342.802 91.8494C342.795 91.1108 342.621 90.468 342.28 89.9212C341.939 89.3672 341.467 88.9411 340.863 88.6428C340.26 88.3374 339.557 88.1847 338.754 88.1847C337.937 88.1847 337.223 88.3374 336.613 88.6428C336.002 88.9411 335.53 89.3672 335.196 89.9212C334.862 90.468 334.699 91.1108 334.706 91.8494C334.699 92.6023 334.866 93.2592 335.206 93.8203C335.554 94.3814 336.034 94.8182 336.645 95.1307C337.255 95.4432 337.959 95.5994 338.754 95.5994ZM357.24 108.298C355.777 108.298 354.485 108.039 353.362 107.521C352.247 106.995 351.377 106.274 350.752 105.358C350.127 104.435 349.818 103.384 349.826 102.205C349.818 101.281 350 100.429 350.369 99.6477C350.738 98.8594 351.242 98.2024 351.882 97.6768C352.528 97.1442 353.249 96.8068 354.044 96.6648V96.5369C353 96.267 352.169 95.6811 351.551 94.7791C350.934 93.87 350.628 92.8366 350.635 91.679C350.628 90.571 350.909 89.5803 351.477 88.7067C352.045 87.8331 352.826 87.1442 353.821 86.6399C354.822 86.1357 355.962 85.8835 357.24 85.8835C358.505 85.8835 359.634 86.1357 360.628 86.6399C361.622 87.1442 362.404 87.8331 362.972 88.7067C363.547 89.5803 363.838 90.571 363.845 91.679C363.838 92.8366 363.522 93.87 362.897 94.7791C362.279 95.6811 361.459 96.267 360.436 96.5369V96.6648C361.225 96.8068 361.935 97.1442 362.567 97.6768C363.199 98.2024 363.703 98.8594 364.08 99.6477C364.456 100.429 364.648 101.281 364.655 102.205C364.648 103.384 364.328 104.435 363.696 105.358C363.071 106.274 362.201 106.995 361.086 107.521C359.978 108.039 358.696 108.298 357.24 108.298ZM357.24 105.955C358.228 105.955 359.08 105.795 359.797 105.475C360.514 105.156 361.068 104.705 361.459 104.122C361.85 103.54 362.049 102.858 362.056 102.077C362.049 101.253 361.835 100.525 361.416 99.8928C360.997 99.2607 360.426 98.7635 359.701 98.4013C358.984 98.0391 358.164 97.858 357.24 97.858C356.31 97.858 355.479 98.0391 354.747 98.4013C354.023 98.7635 353.451 99.2607 353.032 99.8928C352.62 100.525 352.418 101.253 352.425 102.077C352.418 102.858 352.606 103.54 352.99 104.122C353.38 104.705 353.938 105.156 354.662 105.475C355.387 105.795 356.246 105.955 357.24 105.955ZM357.24 95.5994C358.022 95.5994 358.714 95.4432 359.318 95.1307C359.929 94.8182 360.408 94.3814 360.756 93.8203C361.104 93.2592 361.282 92.6023 361.289 91.8494C361.282 91.1108 361.108 90.468 360.767 89.9212C360.426 89.3672 359.953 88.9411 359.35 88.6428C358.746 88.3374 358.043 88.1847 357.24 88.1847C356.424 88.1847 355.71 88.3374 355.099 88.6428C354.488 88.9411 354.016 89.3672 353.682 89.9212C353.348 90.468 353.185 91.1108 353.192 91.8494C353.185 92.6023 353.352 93.2592 353.693 93.8203C354.041 94.3814 354.52 94.8182 355.131 95.1307C355.742 95.4432 356.445 95.5994 357.24 95.5994ZM376.11 108.298C374.704 108.298 373.45 108.057 372.35 107.574C371.256 107.091 370.386 106.42 369.739 105.56C369.1 104.694 368.752 103.689 368.695 102.545H371.38C371.437 103.249 371.678 103.856 372.104 104.367C372.531 104.871 373.088 105.262 373.777 105.539C374.466 105.816 375.229 105.955 376.068 105.955C377.005 105.955 377.836 105.791 378.56 105.464C379.285 105.138 379.853 104.683 380.265 104.101C380.677 103.518 380.883 102.844 380.883 102.077C380.883 101.274 380.684 100.567 380.286 99.9567C379.889 99.3388 379.306 98.8558 378.539 98.5078C377.772 98.1598 376.835 97.9858 375.727 97.9858H373.979V95.642H375.727C376.593 95.642 377.353 95.4858 378.006 95.1733C378.667 94.8608 379.182 94.4205 379.551 93.8523C379.928 93.2841 380.116 92.6165 380.116 91.8494C380.116 91.1108 379.953 90.468 379.626 89.9212C379.299 89.3743 378.837 88.9482 378.241 88.6428C377.651 88.3374 376.955 88.1847 376.153 88.1847C375.4 88.1847 374.69 88.3232 374.022 88.6001C373.362 88.87 372.822 89.2642 372.403 89.7827C371.984 90.294 371.756 90.9119 371.721 91.6364H369.164C369.207 90.4929 369.551 89.4915 370.198 88.6321C370.844 87.7656 371.689 87.0909 372.733 86.608C373.784 86.125 374.938 85.8835 376.195 85.8835C377.545 85.8835 378.703 86.157 379.668 86.7038C380.634 87.2436 381.377 87.9574 381.895 88.8452C382.413 89.733 382.673 90.6918 382.673 91.7216C382.673 92.9503 382.35 93.9979 381.703 94.8643C381.064 95.7308 380.194 96.331 379.093 96.6648V96.8352C380.471 97.0625 381.547 97.6484 382.321 98.593C383.095 99.5305 383.482 100.692 383.482 102.077C383.482 103.263 383.159 104.328 382.513 105.273C381.874 106.21 381 106.949 379.892 107.489C378.784 108.028 377.524 108.298 376.11 108.298ZM395.212 108.298C393.805 108.298 392.552 108.057 391.451 107.574C390.357 107.091 389.487 106.42 388.841 105.56C388.202 104.694 387.854 103.689 387.797 102.545H390.482C390.538 103.249 390.78 103.856 391.206 104.367C391.632 104.871 392.19 105.262 392.879 105.539C393.568 105.816 394.331 105.955 395.169 105.955C396.107 105.955 396.938 105.791 397.662 105.464C398.386 105.138 398.955 104.683 399.367 104.101C399.778 103.518 399.984 102.844 399.984 102.077C399.984 101.274 399.786 100.567 399.388 99.9567C398.99 99.3388 398.408 98.8558 397.641 98.5078C396.874 98.1598 395.936 97.9858 394.828 97.9858H393.081V95.642H394.828C395.695 95.642 396.455 95.4858 397.108 95.1733C397.769 94.8608 398.283 94.4205 398.653 93.8523C399.029 93.2841 399.217 92.6165 399.217 91.8494C399.217 91.1108 399.054 90.468 398.727 89.9212C398.401 89.3743 397.939 88.9482 397.342 88.6428C396.753 88.3374 396.057 88.1847 395.254 88.1847C394.502 88.1847 393.791 88.3232 393.124 88.6001C392.463 88.87 391.923 89.2642 391.504 89.7827C391.085 90.294 390.858 90.9119 390.823 91.6364H388.266C388.308 90.4929 388.653 89.4915 389.299 88.6321C389.945 87.7656 390.791 87.0909 391.835 86.608C392.886 86.125 394.04 85.8835 395.297 85.8835C396.646 85.8835 397.804 86.157 398.77 86.7038C399.736 87.2436 400.478 87.9574 400.997 88.8452C401.515 89.733 401.774 90.6918 401.774 91.7216C401.774 92.9503 401.451 93.9979 400.805 94.8643C400.166 95.7308 399.296 96.331 398.195 96.6648V96.8352C399.573 97.0625 400.649 97.6484 401.423 98.593C402.197 99.5305 402.584 100.692 402.584 102.077C402.584 103.263 402.261 104.328 401.614 105.273C400.975 106.21 400.102 106.949 398.994 107.489C397.886 108.028 396.625 108.298 395.212 108.298ZM413.759 108.298C412.509 108.298 411.384 108.05 410.382 107.553C409.381 107.055 408.578 106.374 407.975 105.507C407.371 104.641 407.041 103.653 406.984 102.545H409.541C409.64 103.533 410.087 104.349 410.883 104.996C411.685 105.635 412.644 105.955 413.759 105.955C414.654 105.955 415.45 105.745 416.146 105.326C416.849 104.907 417.399 104.332 417.797 103.6C418.202 102.862 418.404 102.027 418.404 101.097C418.404 100.145 418.195 99.2962 417.776 98.5504C417.364 97.7976 416.796 97.2045 416.071 96.7713C415.347 96.3381 414.519 96.1179 413.589 96.1108C412.921 96.1037 412.236 96.2067 411.533 96.4197C410.83 96.6257 410.251 96.892 409.796 97.2188L407.325 96.9205L408.646 86.1818H419.981V88.5256H410.862L410.095 94.9602H410.222C410.67 94.6051 411.231 94.3104 411.906 94.076C412.58 93.8416 413.283 93.7244 414.015 93.7244C415.35 93.7244 416.54 94.044 417.584 94.6832C418.635 95.3153 419.459 96.1818 420.055 97.2827C420.659 98.3835 420.961 99.6406 420.961 101.054C420.961 102.446 420.649 103.689 420.024 104.783C419.406 105.869 418.553 106.729 417.467 107.361C416.38 107.986 415.144 108.298 413.759 108.298ZM432.182 108.298C430.719 108.298 429.426 108.039 428.304 107.521C427.189 106.995 426.319 106.274 425.694 105.358C425.069 104.435 424.76 103.384 424.767 102.205C424.76 101.281 424.941 100.429 425.31 99.6477C425.68 98.8594 426.184 98.2024 426.823 97.6768C427.469 97.1442 428.19 96.8068 428.986 96.6648V96.5369C427.942 96.267 427.111 95.6811 426.493 94.7791C425.875 93.87 425.57 92.8366 425.577 91.679C425.57 90.571 425.85 89.5803 426.418 88.7067C426.986 87.8331 427.768 87.1442 428.762 86.6399C429.763 86.1357 430.903 85.8835 432.182 85.8835C433.446 85.8835 434.575 86.1357 435.57 86.6399C436.564 87.1442 437.345 87.8331 437.913 88.7067C438.489 89.5803 438.78 90.571 438.787 91.679C438.78 92.8366 438.464 93.87 437.839 94.7791C437.221 95.6811 436.4 96.267 435.378 96.5369V96.6648C436.166 96.8068 436.876 97.1442 437.508 97.6768C438.141 98.2024 438.645 98.8594 439.021 99.6477C439.398 100.429 439.589 101.281 439.597 102.205C439.589 103.384 439.27 104.435 438.638 105.358C438.013 106.274 437.143 106.995 436.028 107.521C434.92 108.039 433.638 108.298 432.182 108.298ZM432.182 105.955C433.169 105.955 434.021 105.795 434.739 105.475C435.456 105.156 436.01 104.705 436.4 104.122C436.791 103.54 436.99 102.858 436.997 102.077C436.99 101.253 436.777 100.525 436.358 99.8928C435.939 99.2607 435.367 98.7635 434.643 98.4013C433.925 98.0391 433.105 97.858 432.182 97.858C431.251 97.858 430.42 98.0391 429.689 98.4013C428.964 98.7635 428.393 99.2607 427.974 99.8928C427.562 100.525 427.359 101.253 427.366 102.077C427.359 102.858 427.547 103.54 427.931 104.122C428.322 104.705 428.879 105.156 429.604 105.475C430.328 105.795 431.187 105.955 432.182 105.955ZM432.182 95.5994C432.963 95.5994 433.655 95.4432 434.259 95.1307C434.87 94.8182 435.349 94.3814 435.697 93.8203C436.045 93.2592 436.223 92.6023 436.23 91.8494C436.223 91.1108 436.049 90.468 435.708 89.9212C435.367 89.3672 434.895 88.9411 434.291 88.6428C433.687 88.3374 432.984 88.1847 432.182 88.1847C431.365 88.1847 430.651 88.3374 430.04 88.6428C429.43 88.9411 428.957 89.3672 428.623 89.9212C428.29 90.468 428.126 91.1108 428.133 91.8494C428.126 92.6023 428.293 93.2592 428.634 93.8203C428.982 94.3814 429.462 94.8182 430.072 95.1307C430.683 95.4432 431.386 95.5994 432.182 95.5994Z" fill="#22445D"/>
<g filter="url(#filter0_d_1_6058)">
<path d="M440 15C440 6.71572 446.716 0 455 0H590C598.284 0 605 6.71573 605 15V150C605 158.284 598.284 165 590 165H455C446.716 165 440 158.284 440 150V15Z" fill="#FBF6F6"/>
</g>
<path d="M488.5 64.3054C488.5 93.4015 512.089 116.99 541.185 116.99H549.088C553.452 116.99 556.99 113.452 556.99 109.088V104.269C556.99 102.456 555.757 100.876 553.998 100.437L538.463 96.552C536.917 96.1657 535.295 96.7452 534.343 98.0167L530.936 102.558C529.945 103.879 528.235 104.462 526.686 103.893C515.048 99.6143 505.876 90.442 501.597 78.8043C501.028 77.2554 501.611 75.5449 502.932 74.5544L507.474 71.1474C508.749 70.1956 509.325 68.5694 508.938 67.0275L505.054 51.4925C504.614 49.7342 503.034 48.5006 501.222 48.5H496.403C492.038 48.5 488.5 52.0382 488.5 56.4027V64.3054Z" stroke="#158B68" stroke-width="5" stroke-linecap="round" stroke-linejoin="round"/>
<defs>
<filter id="filter0_d_1_6058" x="440" y="0" width="180" height="180" filterUnits="userSpaceOnUse" color-interpolation-filters="sRGB">
<feFlood flood-opacity="0" result="BackgroundImageFix"/>
<feColorMatrix in="SourceAlpha" type="matrix" values="0 0 0 0 0 0 0 0 0 0 0 0 0 0 0 0 0 0 127 0" result="hardAlpha"/>
<feOffset dx="10" dy="10"/>
<feGaussianBlur stdDeviation="2.5"/>
<feComposite in2="hardAlpha" operator="out"/>
<feColorMatrix type="matrix" values="0 0 0 0 0 0 0 0 0 0 0 0 0 0 0 0 0 0 0.160784 0"/>
<feBlend mode="normal" in2="BackgroundImageFix" result="effect1_dropShadow_1_6058"/>
<feBlend mode="normal" in="SourceGraphic" in2="effect1_dropShadow_1_6058" result="shape"/>
</filter>
</defs>
</svg>
