<svg width="550" height="100" viewBox="0 0 620 180" fill="none" xmlns="http://www.w3.org/2000/svg">
<path d="M233.677 39.04C233.677 38.4 233.73 37.72 233.837 37C233.97 36.2533 234.157 35.4667 234.397 34.64C234.663 33.7867 234.983 32.8933 235.357 31.96L238.237 33.08C237.97 33.8267 237.73 34.5333 237.517 35.2C237.33 35.8667 237.183 36.4933 237.077 37.08C236.997 37.6667 236.957 38.2267 236.957 38.76C236.957 40.12 237.317 41.2667 238.037 42.2C238.757 43.1333 239.69 43.8267 240.837 44.28C242.01 44.76 243.263 45 244.597 45C247.21 45 249.25 44.5333 250.717 43.6C252.183 42.6933 253.21 41.48 253.797 39.96C254.383 38.4667 254.637 36.8267 254.557 35.04L253.677 10.44H256.997L257.637 30.72C257.69 32.08 257.903 33.1467 258.277 33.92C258.677 34.6667 259.21 35.1867 259.877 35.48C260.543 35.7733 261.277 35.92 262.077 35.92C262.637 35.92 263.037 36.08 263.277 36.4C263.543 36.6933 263.677 37.0533 263.677 37.48C263.677 37.9067 263.49 38.3067 263.117 38.68C262.743 39.0267 262.263 39.2 261.677 39.2C260.85 39.2 260.143 39.0933 259.557 38.88C258.97 38.64 258.49 38.3467 258.117 38C257.743 37.6267 257.45 37.2133 257.237 36.76C257.023 36.28 256.863 35.8 256.757 35.32L257.877 36.44C257.77 37.8533 257.463 39.2533 256.957 40.64C256.477 42.0533 255.73 43.3333 254.717 44.48C253.703 45.6267 252.343 46.5467 250.637 47.24C248.957 47.9333 246.877 48.28 244.397 48.28C243.01 48.28 241.663 48.0667 240.357 47.64C239.077 47.24 237.93 46.64 236.917 45.84C235.93 45.04 235.143 44.0667 234.557 42.92C233.97 41.8 233.677 40.5067 233.677 39.04ZM261.695 39.2L262.095 35.92C263.429 35.92 264.469 35.8267 265.215 35.64C265.962 35.4267 266.522 35.04 266.895 34.48C267.295 33.8933 267.615 33.0533 267.855 31.96C268.095 30.8667 268.389 29.44 268.735 27.68L271.855 28.28C271.749 28.76 271.629 29.2933 271.495 29.88C271.362 30.4667 271.242 31.0533 271.135 31.64C271.055 32.2 271.015 32.6933 271.015 33.12C271.015 33.52 271.042 33.8933 271.095 34.24C271.149 34.5867 271.349 34.88 271.695 35.12C272.042 35.36 272.629 35.56 273.455 35.72C274.282 35.8533 275.469 35.92 277.015 35.92C277.575 35.92 277.975 36.08 278.215 36.4C278.482 36.6933 278.615 37.0533 278.615 37.48C278.615 37.9067 278.429 38.3067 278.055 38.68C277.682 39.0267 277.202 39.2 276.615 39.2C274.989 39.2 273.695 39.12 272.735 38.96C271.775 38.7733 271.042 38.5067 270.535 38.16C270.055 37.8133 269.709 37.3867 269.495 36.88C269.309 36.3467 269.162 35.7333 269.055 35.04L270.255 35.12C269.829 35.9733 269.362 36.6667 268.855 37.2C268.375 37.7333 267.815 38.1467 267.175 38.44C266.535 38.7333 265.762 38.9333 264.855 39.04C263.975 39.1467 262.922 39.2 261.695 39.2ZM271.775 46.76C271.215 46.76 270.735 46.56 270.335 46.16C269.962 45.7867 269.775 45.3333 269.775 44.8C269.775 44.2667 269.962 43.8 270.335 43.4C270.735 43 271.215 42.8 271.775 42.8C272.309 42.8 272.762 43 273.135 43.4C273.535 43.8 273.735 44.2667 273.735 44.8C273.735 45.3333 273.535 45.7867 273.135 46.16C272.762 46.56 272.309 46.76 271.775 46.76ZM266.295 46.76C265.735 46.76 265.255 46.56 264.855 46.16C264.482 45.7867 264.295 45.3333 264.295 44.8C264.295 44.2667 264.482 43.8 264.855 43.4C265.255 43 265.735 42.8 266.295 42.8C266.829 42.8 267.282 43 267.655 43.4C268.055 43.8 268.255 44.2667 268.255 44.8C268.255 45.3333 268.055 45.7867 267.655 46.16C267.282 46.56 266.829 46.76 266.295 46.76ZM276.617 39.2L277.017 35.92C277.764 35.92 278.351 35.76 278.777 35.44C279.231 35.12 279.657 34.5867 280.057 33.84C280.484 33.0933 281.017 32.0933 281.657 30.84C282.297 29.56 282.937 28.52 283.577 27.72C284.244 26.8933 284.884 26.2533 285.497 25.8C286.137 25.32 286.737 24.9867 287.297 24.8C287.857 24.6133 288.377 24.52 288.857 24.52C289.737 24.52 290.524 24.72 291.217 25.12C291.911 25.4933 292.564 26.1467 293.177 27.08C293.791 27.9867 294.417 29.24 295.057 30.84C295.671 32.3067 296.217 33.4133 296.697 34.16C297.204 34.88 297.724 35.36 298.257 35.6C298.817 35.8133 299.444 35.92 300.137 35.92C300.697 35.92 301.097 36.08 301.337 36.4C301.604 36.6933 301.737 37.0533 301.737 37.48C301.737 37.9067 301.551 38.3067 301.177 38.68C300.804 39.0267 300.324 39.2 299.737 39.2C298.697 39.2 297.737 39.0267 296.857 38.68C296.004 38.3333 295.284 37.7867 294.697 37.04L295.257 36.2C294.964 37.0267 294.564 37.7067 294.057 38.24C293.577 38.7467 293.031 39.12 292.417 39.36C291.804 39.6267 291.151 39.76 290.457 39.76C289.577 39.76 288.671 39.5733 287.737 39.2C286.831 38.8267 285.951 38.2933 285.097 37.6C284.244 36.9067 283.497 36.0933 282.857 35.16C282.164 36.3867 281.497 37.2933 280.857 37.88C280.244 38.44 279.604 38.8 278.937 38.96C278.271 39.12 277.497 39.2 276.617 39.2ZM284.377 32.12C284.831 32.8667 285.311 33.52 285.817 34.08C286.351 34.64 286.884 35.1067 287.417 35.48C287.951 35.8267 288.471 36.0933 288.977 36.28C289.511 36.44 289.991 36.52 290.417 36.52C291.351 36.52 292.031 36.1867 292.457 35.52C292.911 34.8533 292.897 33.92 292.417 32.72C292.177 32.1067 291.924 31.5067 291.657 30.92C291.417 30.3333 291.151 29.8 290.857 29.32C290.564 28.8133 290.231 28.4267 289.857 28.16C289.484 27.8667 289.071 27.72 288.617 27.72C288.217 27.72 287.791 27.8533 287.337 28.12C286.911 28.3867 286.444 28.84 285.937 29.48C285.457 30.12 284.937 31 284.377 32.12ZM299.742 39.2L300.142 35.92C301.716 35.92 302.942 35.8667 303.822 35.76C304.702 35.6267 305.329 35.32 305.702 34.84C306.076 34.3333 306.262 33.5467 306.262 32.48C306.262 31.8133 306.156 31.0267 305.942 30.12C305.729 29.1867 305.449 28.2 305.102 27.16C304.756 26.12 304.382 25.0933 303.982 24.08L307.222 22.88C307.569 23.7333 307.889 24.7067 308.182 25.8C308.502 26.8933 308.769 27.9733 308.982 29.04C309.196 30.1067 309.302 31.04 309.302 31.84C309.302 33.1733 309.116 34.3067 308.742 35.24C308.396 36.1733 307.836 36.9333 307.062 37.52C306.289 38.1067 305.289 38.5333 304.062 38.8C302.862 39.0667 301.422 39.2 299.742 39.2ZM307.142 46.76C306.582 46.76 306.102 46.56 305.702 46.16C305.329 45.7867 305.142 45.3333 305.142 44.8C305.142 44.2667 305.329 43.8 305.702 43.4C306.102 43 306.582 42.8 307.142 42.8C307.676 42.8 308.129 43 308.502 43.4C308.902 43.8 309.102 44.2667 309.102 44.8C309.102 45.3333 308.902 45.7867 308.502 46.16C308.129 46.56 307.676 46.76 307.142 46.76ZM301.662 46.76C301.102 46.76 300.622 46.56 300.222 46.16C299.849 45.7867 299.662 45.3333 299.662 44.8C299.662 44.2667 299.849 43.8 300.222 43.4C300.622 43 301.102 42.8 301.662 42.8C302.196 42.8 302.649 43 303.022 43.4C303.422 43.8 303.622 44.2667 303.622 44.8C303.622 45.3333 303.422 45.7867 303.022 46.16C302.649 46.56 302.196 46.76 301.662 46.76ZM315.375 39L314.575 10.44H317.815L318.615 39H315.375ZM344.997 48.28C343.477 48.28 342.037 48.0667 340.677 47.64C339.317 47.24 338.103 46.64 337.037 45.84C335.997 45.04 335.17 44.0667 334.557 42.92C333.97 41.8 333.677 40.5067 333.677 39.04C333.677 38.4 333.73 37.72 333.837 37C333.97 36.2533 334.157 35.4667 334.397 34.64C334.663 33.7867 334.983 32.8933 335.357 31.96L338.237 33.08C337.97 33.8267 337.73 34.5333 337.517 35.2C337.33 35.8667 337.183 36.4933 337.077 37.08C336.997 37.6667 336.957 38.2267 336.957 38.76C336.957 40.12 337.317 41.2667 338.037 42.2C338.783 43.1333 339.77 43.8267 340.997 44.28C342.25 44.76 343.623 45 345.117 45C346.93 45 348.45 44.7867 349.677 44.36C350.903 43.96 351.877 43.4133 352.597 42.72C353.317 42.0533 353.823 41.3067 354.117 40.48C354.437 39.6533 354.597 38.8133 354.597 37.96C354.597 36.7867 354.503 35.68 354.317 34.64C354.157 33.6 353.93 32.5867 353.637 31.6C353.37 30.5867 353.077 29.56 352.757 28.52L355.997 27.64C356.29 28.6533 356.517 29.48 356.677 30.12C356.837 30.7333 356.957 31.2267 357.037 31.6C357.143 31.9733 357.237 32.3067 357.317 32.6C357.61 33.5867 357.943 34.32 358.317 34.8C358.717 35.2533 359.17 35.56 359.677 35.72C360.21 35.8533 360.81 35.92 361.477 35.92C362.01 35.92 362.477 35.8533 362.877 35.72C363.303 35.5867 363.69 35.2667 364.037 34.76C364.41 34.2533 364.73 33.44 364.997 32.32C365.29 31.2 365.557 29.6667 365.797 27.72L368.837 28.28C368.757 28.76 368.663 29.3467 368.557 30.04C368.45 30.7333 368.343 31.4267 368.237 32.12C368.157 32.7867 368.117 33.3467 368.117 33.8C368.117 34.1733 368.197 34.5333 368.357 34.88C368.543 35.2 368.89 35.4533 369.397 35.64C369.93 35.8267 370.717 35.92 371.757 35.92C372.583 35.92 373.29 35.8667 373.877 35.76C374.49 35.6267 374.957 35.32 375.277 34.84C375.623 34.3333 375.797 33.5467 375.797 32.48C375.797 31.8133 375.69 31.0267 375.477 30.12C375.263 29.1867 374.983 28.2 374.637 27.16C374.29 26.12 373.917 25.0933 373.517 24.08L376.757 22.88C377.103 23.7333 377.423 24.7067 377.717 25.8C378.037 26.8933 378.303 27.9733 378.517 29.04C378.73 30.1067 378.837 31.04 378.837 31.84C378.837 33.2 378.65 34.3467 378.277 35.28C377.93 36.2133 377.437 36.9733 376.797 37.56C376.157 38.1467 375.397 38.5733 374.517 38.84C373.663 39.08 372.73 39.2 371.717 39.2C370.783 39.2 369.97 39.12 369.277 38.96C368.61 38.8 368.037 38.56 367.557 38.24C367.103 37.8933 366.743 37.4667 366.477 36.96C366.237 36.4267 366.063 35.8133 365.957 35.12H367.317C366.89 36.08 366.41 36.8667 365.877 37.48C365.343 38.0667 364.703 38.5067 363.957 38.8C363.237 39.0667 362.343 39.2 361.277 39.2C360.45 39.2 359.743 39.0933 359.157 38.88C358.57 38.64 358.077 38.3467 357.677 38C357.303 37.6267 357.01 37.2133 356.797 36.76C356.583 36.28 356.423 35.8 356.317 35.32L357.957 37.36C357.823 38.64 357.53 39.92 357.077 41.2C356.65 42.48 355.957 43.6533 354.997 44.72C354.063 45.8133 352.783 46.68 351.157 47.32C349.53 47.96 347.477 48.28 344.997 48.28ZM380.996 48.2L379.836 45.16C382.529 44.3067 384.596 43.28 386.036 42.08C387.503 40.9067 388.503 39.68 389.036 38.4C389.596 37.12 389.876 35.8933 389.876 34.72C389.876 33.9733 389.796 33.2533 389.636 32.56C389.476 31.8667 389.196 31.08 388.796 30.2C388.396 29.32 387.836 28.2267 387.116 26.92L390.036 25.44C391.049 27.1733 391.769 28.8133 392.196 30.36C392.649 31.9067 392.876 33.2667 392.876 34.44C392.876 36.12 392.596 37.64 392.036 39C391.503 40.36 390.783 41.56 389.876 42.6C388.996 43.6667 388.023 44.5733 386.956 45.32C385.916 46.0667 384.863 46.68 383.796 47.16C382.756 47.64 381.823 47.9867 380.996 48.2ZM396.923 37.2L398.523 34.44C399.057 34.7867 399.803 35.12 400.763 35.44C401.723 35.76 402.843 35.92 404.123 35.92C405.457 35.92 406.51 35.7867 407.283 35.52C408.083 35.2533 408.657 34.8667 409.003 34.36C409.377 33.8267 409.563 33.2133 409.563 32.52C409.563 31.9867 409.443 31.3333 409.203 30.56C408.99 29.76 408.51 28.6933 407.763 27.36C407.017 26 405.87 24.2267 404.323 22.04L407.083 20.24C408.497 22.1867 409.617 23.9467 410.443 25.52C411.297 27.0933 411.897 28.48 412.243 29.68C412.617 30.8533 412.803 31.8667 412.803 32.72C412.803 33.7867 412.537 34.8267 412.003 35.84C411.47 36.8267 410.577 37.64 409.323 38.28C408.07 38.92 406.337 39.24 404.123 39.24C403.163 39.24 402.23 39.16 401.323 39C400.443 38.84 399.63 38.6133 398.883 38.32C398.137 38 397.483 37.6267 396.923 37.2ZM418.146 39L417.466 13.24H420.706L421.386 39H418.146ZM421.746 9.36C420.946 9.36 420.226 9.22666 419.586 8.96C418.946 8.66667 418.359 8.38667 417.826 8.12C417.293 7.85333 416.799 7.72 416.346 7.72C415.866 7.72 415.426 7.84 415.026 8.08C414.653 8.32 414.253 8.65333 413.826 9.08L412.306 7.8C412.919 7.02667 413.559 6.42667 414.226 6C414.893 5.54666 415.599 5.32 416.346 5.32C417.013 5.32 417.626 5.45333 418.186 5.72C418.746 5.98667 419.306 6.25333 419.866 6.52C420.453 6.78666 421.079 6.92 421.746 6.92C422.173 6.92 422.573 6.85333 422.946 6.72C423.319 6.56 423.773 6.32 424.306 6L425.466 7.64C424.613 8.38667 423.879 8.86667 423.266 9.08C422.679 9.26666 422.173 9.36 421.746 9.36Z" fill="#22445D"/>
<path d="M62.7797 108V86.1818H65.2939V94.2358H65.507C65.6917 93.9517 65.9474 93.5895 66.2741 93.1491C66.6079 92.7017 67.0837 92.304 67.7016 91.956C68.3266 91.6009 69.1718 91.4233 70.2371 91.4233C71.615 91.4233 72.8295 91.7678 73.8806 92.4567C74.9317 93.1456 75.752 94.1222 76.3415 95.3864C76.931 96.6506 77.2258 98.142 77.2258 99.8608C77.2258 101.594 76.931 103.096 76.3415 104.367C75.752 105.631 74.9353 106.612 73.8912 107.308C72.8472 107.996 71.6434 108.341 70.2797 108.341C69.2286 108.341 68.387 108.167 67.7549 107.819C67.1228 107.464 66.6363 107.062 66.2954 106.615C65.9545 106.161 65.6917 105.784 65.507 105.486H65.2087V108H62.7797ZM65.2513 99.8182C65.2513 101.054 65.4324 102.144 65.7947 103.089C66.1569 104.026 66.686 104.761 67.382 105.294C68.078 105.82 68.9303 106.082 69.9388 106.082C70.99 106.082 71.8671 105.805 72.5702 105.251C73.2805 104.69 73.8131 103.937 74.1682 102.993C74.5305 102.041 74.7116 100.983 74.7116 99.8182C74.7116 98.6676 74.534 97.6307 74.1789 96.7074C73.8309 95.777 73.3018 95.0419 72.5915 94.5021C71.8884 93.9553 71.0042 93.6818 69.9388 93.6818C68.9161 93.6818 68.0567 93.9411 67.3607 94.4595C66.6647 94.9709 66.1391 95.6882 65.784 96.6115C65.4289 97.5277 65.2513 98.5966 65.2513 99.8182ZM85.887 108.384C84.8501 108.384 83.909 108.188 83.0638 107.798C82.2187 107.4 81.5475 106.828 81.0503 106.082C80.5532 105.33 80.3046 104.42 80.3046 103.355C80.3046 102.418 80.4893 101.658 80.8586 101.075C81.2279 100.486 81.7215 100.024 82.3394 99.6903C82.9573 99.3565 83.6391 99.108 84.3849 98.9446C85.1377 98.7741 85.8941 98.6392 86.654 98.5398C87.6483 98.4119 88.4545 98.3161 89.0724 98.2521C89.6974 98.1811 90.1519 98.0639 90.436 97.9006C90.7272 97.7372 90.8728 97.4531 90.8728 97.0483V96.9631C90.8728 95.9119 90.5851 95.0952 90.0099 94.5128C89.4417 93.9304 88.5787 93.6392 87.4211 93.6392C86.2208 93.6392 85.2797 93.902 84.5979 94.4276C83.9161 94.9531 83.4367 95.5142 83.1597 96.1108L80.7733 95.2585C81.1995 94.2642 81.7677 93.4901 82.4779 92.9361C83.1952 92.375 83.9765 91.9844 84.8216 91.7642C85.6739 91.5369 86.512 91.4233 87.3358 91.4233C87.8614 91.4233 88.4651 91.4872 89.1469 91.6151C89.8358 91.7358 90.4999 91.9879 91.1391 92.3714C91.7854 92.755 92.3216 93.3338 92.7478 94.108C93.1739 94.8821 93.387 95.919 93.387 97.2188V108H90.8728V105.784H90.7449C90.5745 106.139 90.2904 106.519 89.8927 106.924C89.4949 107.329 88.9658 107.673 88.3053 107.957C87.6448 108.241 86.8387 108.384 85.887 108.384ZM86.2705 106.125C87.2648 106.125 88.1029 105.93 88.7847 105.539C89.4736 105.148 89.9921 104.644 90.3401 104.026C90.6952 103.408 90.8728 102.759 90.8728 102.077V99.7756C90.7662 99.9034 90.5319 100.021 90.1697 100.127C89.8145 100.227 89.4026 100.315 88.9339 100.393C88.4722 100.464 88.0212 100.528 87.5809 100.585C87.1476 100.635 86.7961 100.678 86.5262 100.713C85.8728 100.798 85.262 100.937 84.6938 101.129C84.1327 101.313 83.6782 101.594 83.3302 101.97C82.9893 102.339 82.8188 102.844 82.8188 103.483C82.8188 104.357 83.142 105.017 83.7883 105.464C84.4417 105.905 85.2691 106.125 86.2705 106.125ZM100.49 98.1562V108H97.9759V86.1818H100.49V94.1932H100.703C101.087 93.348 101.662 92.6768 102.429 92.1797C103.203 91.6754 104.233 91.4233 105.519 91.4233C106.634 91.4233 107.61 91.647 108.448 92.0945C109.286 92.5348 109.936 93.2131 110.398 94.1293C110.867 95.0384 111.101 96.196 111.101 97.6023V108H108.587V97.7727C108.587 96.473 108.249 95.468 107.575 94.7578C106.907 94.0405 105.98 93.6818 104.794 93.6818C103.97 93.6818 103.232 93.8558 102.578 94.2038C101.932 94.5518 101.421 95.0597 101.044 95.7273C100.675 96.3949 100.49 97.2045 100.49 98.1562ZM115.701 108V91.6364H118.13V94.108H118.3C118.598 93.2983 119.138 92.6413 119.919 92.1371C120.701 91.6328 121.581 91.3807 122.561 91.3807C122.746 91.3807 122.977 91.3842 123.254 91.3913C123.531 91.3984 123.74 91.4091 123.882 91.4233V93.9801C123.797 93.9588 123.602 93.9268 123.296 93.8842C122.998 93.8345 122.682 93.8097 122.348 93.8097C121.553 93.8097 120.843 93.9766 120.218 94.3104C119.6 94.6371 119.11 95.0916 118.747 95.674C118.392 96.2493 118.215 96.9062 118.215 97.6449V108H115.701ZM138.155 108V110.344H124.519V108H138.155ZM145.242 108.384C144.206 108.384 143.264 108.188 142.419 107.798C141.574 107.4 140.903 106.828 140.406 106.082C139.909 105.33 139.66 104.42 139.66 103.355C139.66 102.418 139.845 101.658 140.214 101.075C140.583 100.486 141.077 100.024 141.695 99.6903C142.313 99.3565 142.995 99.108 143.74 98.9446C144.493 98.7741 145.25 98.6392 146.009 98.5398C147.004 98.4119 147.81 98.3161 148.428 98.2521C149.053 98.1811 149.507 98.0639 149.791 97.9006C150.083 97.7372 150.228 97.4531 150.228 97.0483V96.9631C150.228 95.9119 149.941 95.0952 149.365 94.5128C148.797 93.9304 147.934 93.6392 146.777 93.6392C145.576 93.6392 144.635 93.902 143.953 94.4276C143.272 94.9531 142.792 95.5142 142.515 96.1108L140.129 95.2585C140.555 94.2642 141.123 93.4901 141.833 92.9361C142.551 92.375 143.332 91.9844 144.177 91.7642C145.029 91.5369 145.867 91.4233 146.691 91.4233C147.217 91.4233 147.821 91.4872 148.502 91.6151C149.191 91.7358 149.855 91.9879 150.495 92.3714C151.141 92.755 151.677 93.3338 152.103 94.108C152.529 94.8821 152.742 95.919 152.742 97.2188V108H150.228V105.784H150.1C149.93 106.139 149.646 106.519 149.248 106.924C148.85 107.329 148.321 107.673 147.661 107.957C147 108.241 146.194 108.384 145.242 108.384ZM145.626 106.125C146.62 106.125 147.458 105.93 148.14 105.539C148.829 105.148 149.348 104.644 149.696 104.026C150.051 103.408 150.228 102.759 150.228 102.077V99.7756C150.122 99.9034 149.887 100.021 149.525 100.127C149.17 100.227 148.758 100.315 148.289 100.393C147.828 100.464 147.377 100.528 146.936 100.585C146.503 100.635 146.152 100.678 145.882 100.713C145.228 100.798 144.617 100.937 144.049 101.129C143.488 101.313 143.034 101.594 142.686 101.97C142.345 102.339 142.174 102.844 142.174 103.483C142.174 104.357 142.497 105.017 143.144 105.464C143.797 105.905 144.625 106.125 145.626 106.125ZM163.979 108.341C162.445 108.341 161.124 107.979 160.016 107.254C158.908 106.53 158.056 105.532 157.459 104.261C156.863 102.989 156.564 101.537 156.564 99.9034C156.564 98.2415 156.87 96.7749 157.481 95.5036C158.098 94.2251 158.958 93.2273 160.059 92.5099C161.167 91.7855 162.459 91.4233 163.937 91.4233C165.087 91.4233 166.124 91.6364 167.047 92.0625C167.971 92.4886 168.727 93.0852 169.316 93.8523C169.906 94.6193 170.272 95.5142 170.414 96.5369H167.9C167.708 95.7912 167.282 95.1307 166.621 94.5554C165.968 93.973 165.087 93.6818 163.979 93.6818C162.999 93.6818 162.14 93.9375 161.401 94.4489C160.669 94.9531 160.098 95.6669 159.686 96.5902C159.281 97.5064 159.079 98.5824 159.079 99.8182C159.079 101.082 159.277 102.183 159.675 103.121C160.08 104.058 160.648 104.786 161.38 105.305C162.118 105.823 162.985 106.082 163.979 106.082C164.633 106.082 165.226 105.969 165.758 105.741C166.291 105.514 166.742 105.188 167.111 104.761C167.481 104.335 167.743 103.824 167.9 103.227H170.414C170.272 104.193 169.92 105.063 169.359 105.837C168.805 106.604 168.07 107.215 167.154 107.67C166.245 108.117 165.187 108.341 163.979 108.341ZM178.905 108.384C177.868 108.384 176.927 108.188 176.081 107.798C175.236 107.4 174.565 106.828 174.068 106.082C173.571 105.33 173.322 104.42 173.322 103.355C173.322 102.418 173.507 101.658 173.876 101.075C174.245 100.486 174.739 100.024 175.357 99.6903C175.975 99.3565 176.657 99.108 177.402 98.9446C178.155 98.7741 178.912 98.6392 179.672 98.5398C180.666 98.4119 181.472 98.3161 182.09 98.2521C182.715 98.1811 183.169 98.0639 183.454 97.9006C183.745 97.7372 183.89 97.4531 183.89 97.0483V96.9631C183.89 95.9119 183.603 95.0952 183.027 94.5128C182.459 93.9304 181.596 93.6392 180.439 93.6392C179.238 93.6392 178.297 93.902 177.616 94.4276C176.934 94.9531 176.454 95.5142 176.177 96.1108L173.791 95.2585C174.217 94.2642 174.785 93.4901 175.495 92.9361C176.213 92.375 176.994 91.9844 177.839 91.7642C178.691 91.5369 179.53 91.4233 180.353 91.4233C180.879 91.4233 181.483 91.4872 182.165 91.6151C182.853 91.7358 183.517 91.9879 184.157 92.3714C184.803 92.755 185.339 93.3338 185.765 94.108C186.191 94.8821 186.405 95.919 186.405 97.2188V108H183.89V105.784H183.763C183.592 106.139 183.308 106.519 182.91 106.924C182.513 107.329 181.983 107.673 181.323 107.957C180.662 108.241 179.856 108.384 178.905 108.384ZM179.288 106.125C180.282 106.125 181.12 105.93 181.802 105.539C182.491 105.148 183.01 104.644 183.358 104.026C183.713 103.408 183.89 102.759 183.89 102.077V99.7756C183.784 99.9034 183.549 100.021 183.187 100.127C182.832 100.227 182.42 100.315 181.951 100.393C181.49 100.464 181.039 100.528 180.598 100.585C180.165 100.635 179.814 100.678 179.544 100.713C178.89 100.798 178.28 100.937 177.711 101.129C177.15 101.313 176.696 101.594 176.348 101.97C176.007 102.339 175.836 102.844 175.836 103.483C175.836 104.357 176.16 105.017 176.806 105.464C177.459 105.905 178.287 106.125 179.288 106.125ZM197.172 108.341C195.809 108.341 194.605 107.996 193.561 107.308C192.517 106.612 191.7 105.631 191.111 104.367C190.521 103.096 190.226 101.594 190.226 99.8608C190.226 98.142 190.521 96.6506 191.111 95.3864C191.7 94.1222 192.521 93.1456 193.572 92.4567C194.623 91.7678 195.837 91.4233 197.215 91.4233C198.28 91.4233 199.122 91.6009 199.74 91.956C200.365 92.304 200.841 92.7017 201.168 93.1491C201.501 93.5895 201.761 93.9517 201.945 94.2358H202.158V86.1818H204.672V108H202.244V105.486H201.945C201.761 105.784 201.498 106.161 201.157 106.615C200.816 107.062 200.329 107.464 199.697 107.819C199.065 108.167 198.224 108.341 197.172 108.341ZM197.513 106.082C198.522 106.082 199.374 105.82 200.07 105.294C200.766 104.761 201.295 104.026 201.658 103.089C202.02 102.144 202.201 101.054 202.201 99.8182C202.201 98.5966 202.023 97.5277 201.668 96.6115C201.313 95.6882 200.788 94.9709 200.092 94.4595C199.396 93.9411 198.536 93.6818 197.513 93.6818C196.448 93.6818 195.56 93.9553 194.85 94.5021C194.147 95.0419 193.618 95.777 193.263 96.7074C192.915 97.6307 192.741 98.6676 192.741 99.8182C192.741 100.983 192.918 102.041 193.273 102.993C193.636 103.937 194.168 104.69 194.871 105.251C195.582 105.805 196.462 106.082 197.513 106.082ZM216.487 108.341C214.91 108.341 213.55 107.993 212.407 107.297C211.271 106.594 210.393 105.614 209.775 104.357C209.165 103.092 208.859 101.622 208.859 99.946C208.859 98.2699 209.165 96.7926 209.775 95.5142C210.393 94.2287 211.253 93.2273 212.354 92.5099C213.462 91.7855 214.754 91.4233 216.231 91.4233C217.084 91.4233 217.925 91.5653 218.756 91.8494C219.587 92.1335 220.344 92.5952 221.025 93.2344C221.707 93.8665 222.251 94.7045 222.655 95.7486C223.06 96.7926 223.263 98.0781 223.263 99.6051V100.67H210.649V98.4972H220.706C220.706 97.5739 220.521 96.75 220.152 96.0256C219.79 95.3011 219.271 94.7294 218.597 94.3104C217.929 93.8913 217.141 93.6818 216.231 93.6818C215.23 93.6818 214.364 93.9304 213.632 94.4276C212.908 94.9176 212.35 95.5568 211.959 96.3452C211.569 97.1335 211.373 97.9787 211.373 98.8807V100.33C211.373 101.565 211.587 102.613 212.013 103.472C212.446 104.325 213.046 104.974 213.813 105.422C214.58 105.862 215.472 106.082 216.487 106.082C217.148 106.082 217.744 105.99 218.277 105.805C218.817 105.614 219.282 105.33 219.672 104.953C220.063 104.57 220.365 104.094 220.578 103.526L223.007 104.207C222.751 105.031 222.322 105.756 221.718 106.381C221.114 106.999 220.369 107.482 219.481 107.83C218.593 108.17 217.595 108.341 216.487 108.341ZM227.087 108V91.6364H229.516V94.1932H229.729C230.07 93.3196 230.621 92.6413 231.381 92.1584C232.141 91.6683 233.053 91.4233 234.119 91.4233C235.198 91.4233 236.097 91.6683 236.814 92.1584C237.538 92.6413 238.103 93.3196 238.508 94.1932H238.678C239.097 93.348 239.726 92.6768 240.564 92.1797C241.402 91.6754 242.407 91.4233 243.579 91.4233C245.042 91.4233 246.239 91.8814 247.169 92.7976C248.099 93.7067 248.565 95.1236 248.565 97.0483V108H246.05V97.0483C246.05 95.8409 245.72 94.978 245.06 94.4595C244.399 93.9411 243.621 93.6818 242.726 93.6818C241.576 93.6818 240.685 94.0298 240.052 94.7259C239.42 95.4148 239.104 96.2884 239.104 97.3466V108H236.547V96.7926C236.547 95.8622 236.246 95.1129 235.642 94.5447C235.038 93.9695 234.261 93.6818 233.309 93.6818C232.655 93.6818 232.045 93.8558 231.476 94.2038C230.915 94.5518 230.461 95.0348 230.113 95.6527C229.772 96.2635 229.601 96.9702 229.601 97.7727V108H227.087ZM254.195 114.136C253.769 114.136 253.389 114.101 253.055 114.03C252.721 113.966 252.49 113.902 252.362 113.838L253.002 111.622C253.612 111.778 254.152 111.835 254.621 111.793C255.09 111.75 255.505 111.54 255.867 111.164C256.237 110.795 256.574 110.195 256.88 109.364L257.348 108.085L251.297 91.6364H254.024L258.541 104.676H258.712L263.229 91.6364H265.956L259.01 110.386C258.698 111.232 258.311 111.931 257.849 112.485C257.387 113.046 256.851 113.462 256.24 113.732C255.637 114.001 254.955 114.136 254.195 114.136ZM281.846 113.753C279.672 113.753 277.751 113.455 276.082 112.858C274.413 112.268 273.011 111.398 271.874 110.248C270.738 109.097 269.878 107.687 269.296 106.018C268.714 104.349 268.422 102.439 268.422 100.287C268.422 98.206 268.717 96.3452 269.307 94.7045C269.903 93.0639 270.766 91.6719 271.896 90.5284C273.032 89.3778 274.41 88.5007 276.029 87.897C277.655 87.2933 279.495 86.9915 281.547 86.9915C283.543 86.9915 285.29 87.3182 286.789 87.9716C288.295 88.6179 289.552 89.495 290.56 90.603C291.576 91.7038 292.336 92.9432 292.84 94.321C293.351 95.6989 293.607 97.1193 293.607 98.5824C293.607 99.6122 293.557 100.656 293.458 101.714C293.359 102.773 293.149 103.746 292.829 104.634C292.51 105.514 292.016 106.224 291.349 106.764C290.688 107.304 289.793 107.574 288.664 107.574C288.167 107.574 287.62 107.496 287.023 107.339C286.427 107.183 285.898 106.924 285.436 106.562C284.974 106.2 284.701 105.713 284.616 105.102H284.488C284.317 105.514 284.055 105.905 283.699 106.274C283.351 106.643 282.893 106.938 282.325 107.158C281.764 107.379 281.079 107.474 280.269 107.446C279.346 107.411 278.533 107.205 277.829 106.828C277.126 106.445 276.537 105.926 276.061 105.273C275.592 104.612 275.237 103.849 274.996 102.982C274.761 102.109 274.644 101.168 274.644 100.159C274.644 99.2003 274.786 98.3232 275.07 97.5277C275.354 96.7322 275.748 96.0362 276.253 95.4396C276.764 94.843 277.361 94.3672 278.043 94.0121C278.731 93.6499 279.474 93.4261 280.269 93.3409C280.979 93.2699 281.626 93.3018 282.208 93.4368C282.79 93.5646 283.27 93.7599 283.646 94.0227C284.023 94.2784 284.261 94.5625 284.36 94.875H284.488V93.6818H286.746V103.312C286.746 103.909 286.913 104.435 287.247 104.889C287.581 105.344 288.067 105.571 288.707 105.571C289.431 105.571 289.985 105.322 290.369 104.825C290.759 104.328 291.025 103.561 291.168 102.524C291.317 101.487 291.391 100.159 291.391 98.5398C291.391 97.5881 291.26 96.6506 290.997 95.7273C290.741 94.7969 290.351 93.9268 289.825 93.1172C289.307 92.3075 288.65 91.5937 287.854 90.9759C287.059 90.358 286.125 89.875 285.052 89.527C283.987 89.1719 282.776 88.9943 281.42 88.9943C279.751 88.9943 278.256 89.2536 276.935 89.772C275.621 90.2834 274.502 91.0327 273.579 92.0199C272.663 93 271.963 94.1932 271.48 95.5994C271.004 96.9986 270.766 98.5895 270.766 100.372C270.766 102.183 271.004 103.792 271.48 105.198C271.963 106.604 272.673 107.79 273.611 108.756C274.555 109.722 275.724 110.454 277.116 110.951C278.508 111.455 280.113 111.707 281.931 111.707C282.712 111.707 283.483 111.633 284.243 111.484C285.003 111.335 285.674 111.171 286.256 110.994C286.839 110.816 287.258 110.685 287.513 110.599L288.11 112.56C287.67 112.744 287.094 112.929 286.384 113.114C285.681 113.298 284.928 113.451 284.126 113.572C283.33 113.692 282.57 113.753 281.846 113.753ZM280.61 105.273C281.562 105.273 282.332 105.081 282.922 104.697C283.511 104.314 283.941 103.735 284.211 102.961C284.481 102.187 284.616 101.21 284.616 100.031C284.616 98.8381 284.467 97.9077 284.168 97.2401C283.87 96.5724 283.43 96.1037 282.847 95.8338C282.265 95.5639 281.547 95.429 280.695 95.429C279.886 95.429 279.193 95.642 278.618 96.0682C278.05 96.4872 277.613 97.0483 277.307 97.7514C277.009 98.4474 276.86 99.2074 276.86 100.031C276.86 100.94 276.981 101.796 277.222 102.599C277.464 103.394 277.858 104.04 278.405 104.538C278.952 105.028 279.687 105.273 280.61 105.273ZM303.976 114.477C302.761 114.477 301.717 114.321 300.843 114.009C299.97 113.703 299.242 113.298 298.66 112.794C298.084 112.297 297.626 111.764 297.285 111.196L299.288 109.79C299.515 110.088 299.803 110.429 300.151 110.812C300.499 111.203 300.975 111.54 301.579 111.825C302.189 112.116 302.988 112.261 303.976 112.261C305.297 112.261 306.387 111.942 307.246 111.303C308.106 110.663 308.535 109.662 308.535 108.298V104.974H308.322C308.138 105.273 307.875 105.642 307.534 106.082C307.2 106.516 306.717 106.903 306.085 107.244C305.46 107.577 304.615 107.744 303.549 107.744C302.228 107.744 301.042 107.432 299.991 106.807C298.947 106.182 298.12 105.273 297.509 104.08C296.905 102.886 296.603 101.437 296.603 99.733C296.603 98.0568 296.898 96.5973 297.488 95.3544C298.077 94.1044 298.897 93.1385 299.949 92.4567C301 91.7678 302.214 91.4233 303.592 91.4233C304.657 91.4233 305.503 91.6009 306.128 91.956C306.76 92.304 307.243 92.7017 307.576 93.1491C307.917 93.5895 308.18 93.9517 308.365 94.2358H308.62V91.6364H311.049V108.469C311.049 109.875 310.73 111.018 310.091 111.899C309.459 112.787 308.606 113.437 307.534 113.849C306.468 114.268 305.282 114.477 303.976 114.477ZM303.89 105.486C304.899 105.486 305.751 105.255 306.447 104.793C307.143 104.332 307.672 103.668 308.035 102.801C308.397 101.935 308.578 100.898 308.578 99.6903C308.578 98.5114 308.4 97.4709 308.045 96.5689C307.69 95.6669 307.165 94.9602 306.468 94.4489C305.772 93.9375 304.913 93.6818 303.89 93.6818C302.825 93.6818 301.937 93.9517 301.227 94.4915C300.524 95.0312 299.995 95.7557 299.64 96.6648C299.292 97.5739 299.118 98.5824 299.118 99.6903C299.118 100.827 299.295 101.832 299.65 102.705C300.013 103.572 300.545 104.254 301.248 104.751C301.959 105.241 302.839 105.486 303.89 105.486ZM315.652 108V91.6364H318.081V94.1932H318.294C318.635 93.3196 319.185 92.6413 319.945 92.1584C320.705 91.6683 321.618 91.4233 322.683 91.4233C323.763 91.4233 324.661 91.6683 325.378 92.1584C326.103 92.6413 326.667 93.3196 327.072 94.1932H327.243C327.662 93.348 328.29 92.6768 329.128 92.1797C329.966 91.6754 330.971 91.4233 332.143 91.4233C333.606 91.4233 334.803 91.8814 335.733 92.7976C336.664 93.7067 337.129 95.1236 337.129 97.0483V108H334.615V97.0483C334.615 95.8409 334.285 94.978 333.624 94.4595C332.964 93.9411 332.186 93.6818 331.291 93.6818C330.14 93.6818 329.249 94.0298 328.617 94.7259C327.985 95.4148 327.669 96.2884 327.669 97.3466V108H325.112V96.7926C325.112 95.8622 324.81 95.1129 324.206 94.5447C323.603 93.9695 322.825 93.6818 321.873 93.6818C321.22 93.6818 320.609 93.8558 320.041 94.2038C319.48 94.5518 319.025 95.0348 318.677 95.6527C318.336 96.2635 318.166 96.9702 318.166 97.7727V108H315.652ZM346.541 108.384C345.504 108.384 344.563 108.188 343.718 107.798C342.873 107.4 342.202 106.828 341.705 106.082C341.207 105.33 340.959 104.42 340.959 103.355C340.959 102.418 341.144 101.658 341.513 101.075C341.882 100.486 342.376 100.024 342.994 99.6903C343.612 99.3565 344.293 99.108 345.039 98.9446C345.792 98.7741 346.548 98.6392 347.308 98.5398C348.303 98.4119 349.109 98.3161 349.727 98.2521C350.352 98.1811 350.806 98.0639 351.09 97.9006C351.381 97.7372 351.527 97.4531 351.527 97.0483V96.9631C351.527 95.9119 351.239 95.0952 350.664 94.5128C350.096 93.9304 349.233 93.6392 348.075 93.6392C346.875 93.6392 345.934 93.902 345.252 94.4276C344.57 94.9531 344.091 95.5142 343.814 96.1108L341.428 95.2585C341.854 94.2642 342.422 93.4901 343.132 92.9361C343.85 92.375 344.631 91.9844 345.476 91.7642C346.328 91.5369 347.166 91.4233 347.99 91.4233C348.516 91.4233 349.119 91.4872 349.801 91.6151C350.49 91.7358 351.154 91.9879 351.793 92.3714C352.44 92.755 352.976 93.3338 353.402 94.108C353.828 94.8821 354.041 95.919 354.041 97.2188V108H351.527V105.784H351.399C351.229 106.139 350.945 106.519 350.547 106.924C350.149 107.329 349.62 107.673 348.96 107.957C348.299 108.241 347.493 108.384 346.541 108.384ZM346.925 106.125C347.919 106.125 348.757 105.93 349.439 105.539C350.128 105.148 350.646 104.644 350.994 104.026C351.35 103.408 351.527 102.759 351.527 102.077V99.7756C351.421 99.9034 351.186 100.021 350.824 100.127C350.469 100.227 350.057 100.315 349.588 100.393C349.127 100.464 348.676 100.528 348.235 100.585C347.802 100.635 347.45 100.678 347.18 100.713C346.527 100.798 345.916 100.937 345.348 101.129C344.787 101.313 344.332 101.594 343.984 101.97C343.644 102.339 343.473 102.844 343.473 103.483C343.473 104.357 343.796 105.017 344.443 105.464C345.096 105.905 345.923 106.125 346.925 106.125ZM358.63 108V91.6364H361.144V108H358.63ZM359.909 88.9091C359.419 88.9091 358.996 88.7422 358.641 88.4084C358.293 88.0746 358.119 87.6733 358.119 87.2045C358.119 86.7358 358.293 86.3345 358.641 86.0007C358.996 85.6669 359.419 85.5 359.909 85.5C360.399 85.5 360.818 85.6669 361.166 86.0007C361.521 86.3345 361.698 86.7358 361.698 87.2045C361.698 87.6733 361.521 88.0746 361.166 88.4084C360.818 88.7422 360.399 88.9091 359.909 88.9091ZM368.264 86.1818V108H365.749V86.1818H368.264ZM374.701 108.17C374.175 108.17 373.724 107.982 373.348 107.606C372.972 107.229 372.783 106.778 372.783 106.253C372.783 105.727 372.972 105.276 373.348 104.9C373.724 104.523 374.175 104.335 374.701 104.335C375.226 104.335 375.677 104.523 376.054 104.9C376.43 105.276 376.619 105.727 376.619 106.253C376.619 106.601 376.53 106.92 376.352 107.212C376.182 107.503 375.951 107.737 375.66 107.915C375.376 108.085 375.056 108.17 374.701 108.17ZM387.778 108.341C386.244 108.341 384.923 107.979 383.815 107.254C382.707 106.53 381.855 105.532 381.258 104.261C380.661 102.989 380.363 101.537 380.363 99.9034C380.363 98.2415 380.669 96.7749 381.279 95.5036C381.897 94.2251 382.757 93.2273 383.858 92.5099C384.965 91.7855 386.258 91.4233 387.735 91.4233C388.886 91.4233 389.923 91.6364 390.846 92.0625C391.769 92.4886 392.526 93.0852 393.115 93.8523C393.705 94.6193 394.071 95.5142 394.213 96.5369H391.698C391.507 95.7912 391.081 95.1307 390.42 94.5554C389.767 93.973 388.886 93.6818 387.778 93.6818C386.798 93.6818 385.938 93.9375 385.2 94.4489C384.468 94.9531 383.897 95.6669 383.485 96.5902C383.08 97.5064 382.877 98.5824 382.877 99.8182C382.877 101.082 383.076 102.183 383.474 103.121C383.879 104.058 384.447 104.786 385.179 105.305C385.917 105.823 386.784 106.082 387.778 106.082C388.431 106.082 389.024 105.969 389.557 105.741C390.09 105.514 390.541 105.188 390.91 104.761C391.279 104.335 391.542 103.824 391.698 103.227H394.213C394.071 104.193 393.719 105.063 393.158 105.837C392.604 106.604 391.869 107.215 390.953 107.67C390.044 108.117 388.985 108.341 387.778 108.341ZM404.536 108.341C403.059 108.341 401.762 107.989 400.647 107.286C399.539 106.583 398.673 105.599 398.048 104.335C397.43 103.071 397.121 101.594 397.121 99.9034C397.121 98.1989 397.43 96.7109 398.048 95.4396C398.673 94.1683 399.539 93.1811 400.647 92.478C401.762 91.7749 403.059 91.4233 404.536 91.4233C406.013 91.4233 407.306 91.7749 408.414 92.478C409.529 93.1811 410.395 94.1683 411.013 95.4396C411.638 96.7109 411.951 98.1989 411.951 99.9034C411.951 101.594 411.638 103.071 411.013 104.335C410.395 105.599 409.529 106.583 408.414 107.286C407.306 107.989 406.013 108.341 404.536 108.341ZM404.536 106.082C405.658 106.082 406.581 105.795 407.306 105.219C408.03 104.644 408.566 103.888 408.914 102.95C409.262 102.013 409.436 100.997 409.436 99.9034C409.436 98.8097 409.262 97.7905 408.914 96.8459C408.566 95.9013 408.03 95.1378 407.306 94.5554C406.581 93.973 405.658 93.6818 404.536 93.6818C403.414 93.6818 402.49 93.973 401.766 94.5554C401.041 95.1378 400.505 95.9013 400.157 96.8459C399.809 97.7905 399.635 98.8097 399.635 99.9034C399.635 100.997 399.809 102.013 400.157 102.95C400.505 103.888 401.041 104.644 401.766 105.219C402.49 105.795 403.414 106.082 404.536 106.082ZM415.788 108V91.6364H418.217V94.1932H418.43C418.771 93.3196 419.322 92.6413 420.082 92.1584C420.842 91.6683 421.754 91.4233 422.82 91.4233C423.899 91.4233 424.798 91.6683 425.515 92.1584C426.239 92.6413 426.804 93.3196 427.209 94.1932H427.379C427.798 93.348 428.427 92.6768 429.265 92.1797C430.103 91.6754 431.108 91.4233 432.28 91.4233C433.743 91.4233 434.94 91.8814 435.87 92.7976C436.801 93.7067 437.266 95.1236 437.266 97.0483V108H434.752V97.0483C434.752 95.8409 434.421 94.978 433.761 94.4595C433.1 93.9411 432.323 93.6818 431.428 93.6818C430.277 93.6818 429.386 94.0298 428.754 94.7259C428.122 95.4148 427.805 96.2884 427.805 97.3466V108H425.249V96.7926C425.249 95.8622 424.947 95.1129 424.343 94.5447C423.739 93.9695 422.962 93.6818 422.01 93.6818C421.357 93.6818 420.746 93.8558 420.178 94.2038C419.617 94.5518 419.162 95.0348 418.814 95.6527C418.473 96.2635 418.303 96.9702 418.303 97.7727V108H415.788Z" fill="#22445D"/>
<g filter="url(#filter0_d_1_6060)">
<path d="M440 15C440 6.71572 446.716 0 455 0H590C598.284 0 605 6.71573 605 15V150C605 158.284 598.284 165 590 165H455C446.716 165 440 158.284 440 150V15Z" fill="#FBF6F6"/>
</g>
<path d="M562.062 60.6802V103.521C562.062 108.591 557.952 112.701 552.882 112.701H491.681C486.611 112.701 482.5 108.591 482.5 103.521V60.6802M562.062 60.6802C562.062 55.6101 557.952 51.5 552.882 51.5H491.681C486.611 51.5 482.5 55.6101 482.5 60.6802M562.062 60.6802V61.6716C562.062 64.8596 560.409 67.8185 557.695 69.4896L527.096 88.3186C524.144 90.137 520.419 90.137 517.467 88.3186L486.866 69.4931C484.153 67.8218 482.5 64.8627 482.5 61.6757V60.6802" stroke="#158B68" stroke-width="5" stroke-linecap="round" stroke-linejoin="round"/>
<defs>
<filter id="filter0_d_1_6060" x="440" y="0" width="180" height="180" filterUnits="userSpaceOnUse" color-interpolation-filters="sRGB">
<feFlood flood-opacity="0" result="BackgroundImageFix"/>
<feColorMatrix in="SourceAlpha" type="matrix" values="0 0 0 0 0 0 0 0 0 0 0 0 0 0 0 0 0 0 127 0" result="hardAlpha"/>
<feOffset dx="10" dy="10"/>
<feGaussianBlur stdDeviation="2.5"/>
<feComposite in2="hardAlpha" operator="out"/>
<feColorMatrix type="matrix" values="0 0 0 0 0 0 0 0 0 0 0 0 0 0 0 0 0 0 0.160784 0"/>
<feBlend mode="normal" in2="BackgroundImageFix" result="effect1_dropShadow_1_6060"/>
<feBlend mode="normal" in="SourceGraphic" in2="effect1_dropShadow_1_6060" result="shape"/>
</filter>
</defs>
</svg>
