<svg width="38" height="27" viewBox="0 0 38 27" fill="none" xmlns="http://www.w3.org/2000/svg">
<path d="M25.7308 10.9231L34.2026 2.45128C34.5875 2.06678 35.1661 1.95184 35.6688 2.16C36.1716 2.36815 36.4995 2.85846 36.5 3.40256L36.5 23.8282C36.4995 24.3723 36.1716 24.8626 35.6688 25.0708C35.1661 25.2789 34.5875 25.164 34.2026 24.7795L25.7308 16.3077M5.53846 25.7308H21.6923C23.9227 25.7308 25.7308 23.9227 25.7308 21.6923V5.53846C25.7308 3.30808 23.9227 1.5 21.6923 1.5H5.53846C3.30808 1.5 1.5 3.30808 1.5 5.53846V21.6923C1.5 23.9227 3.30808 25.7308 5.53846 25.7308Z" stroke="white" stroke-width="2.5" stroke-linecap="round" stroke-linejoin="round"/>
</svg>
