<svg width="579" height="548" viewBox="0 0 579 548" fill="none" xmlns="http://www.w3.org/2000/svg">
<path d="M545.682 235.808C545.682 235.808 467.468 45.0732 324.481 8.18078C181.494 -28.7117 121.521 83.9882 99.6189 162.125C77.7164 240.263 -3.03218 343.695 4.28998 414.753C11.2665 482.252 70.4455 514.255 125.72 527.926C195.972 545.348 275.812 546.667 346.332 532.151C363.096 528.603 379.648 524.12 395.91 518.722C429.039 507.918 461.567 499.521 495.118 490.56C558.969 473.535 584.264 404.96 577.044 339.342C572.999 302.45 559.469 269.41 545.682 235.808Z" fill="#92E3A9"/>
<path opacity="0.7" d="M545.682 235.808C545.682 235.808 467.468 45.0732 324.481 8.18078C181.494 -28.7117 121.521 83.9882 99.6189 162.125C77.7164 240.263 -3.03218 343.695 4.28998 414.753C11.2665 482.252 70.4455 514.255 125.72 527.926C195.972 545.348 275.812 546.667 346.332 532.151C363.096 528.603 379.648 524.12 395.91 518.722C429.039 507.918 461.567 499.521 495.118 490.56C558.969 473.535 584.264 404.96 577.044 339.342C572.999 302.45 559.469 269.41 545.682 235.808Z" fill="white"/>
<line x1="28.352" y1="247.532" x2="51.9698" y2="473.777" stroke="#263238" stroke-width="2"/>
<line x1="46.435" y1="431.262" x2="35.7333" y2="419.959" stroke="#263238" stroke-width="2"/>
<path d="M39.7109 422.664C39.6794 419.171 38.1392 415.861 35.4866 413.588C32.7472 411.13 18.2821 405.05 16.9124 410.145C15.3763 415.687 30.187 426.555 39.7109 422.664Z" fill="#92E3A9" stroke="#263238"/>
<line x1="39.5787" y1="422.876" x2="25.8176" y2="414.299" stroke="#263238" stroke-width="0.5"/>
<line x1="49.1225" y1="456.992" x2="38.4208" y2="445.689" stroke="#263238" stroke-width="2"/>
<path d="M42.399 448.394C42.3578 444.894 40.8031 441.584 38.1363 439.318C35.3969 436.86 20.9318 430.78 19.5621 435.875C18.0643 441.405 32.9263 452.285 42.399 448.394Z" fill="#92E3A9" stroke="#263238"/>
<line x1="42.2662" y1="448.606" x2="28.5051" y2="440.029" stroke="#263238" stroke-width="0.5"/>
<line x1="39.8803" y1="368.486" x2="29.1787" y2="357.183" stroke="#263238" stroke-width="2"/>
<path d="M33.1565 359.875C33.1152 356.378 31.5659 353.07 28.9066 350.799C26.1543 348.341 11.6892 342.261 10.3195 347.355C8.83461 352.962 23.6325 363.766 33.1565 359.875Z" fill="#92E3A9" stroke="#263238"/>
<line x1="33.024" y1="360.087" x2="19.263" y2="351.51" stroke="#263238" stroke-width="0.5"/>
<line x1="42.5688" y1="394.216" x2="31.8671" y2="382.913" stroke="#263238" stroke-width="2"/>
<path d="M35.8443 385.605C35.8175 382.116 34.2872 378.808 31.6455 376.529C28.9061 374.071 14.441 367.991 13.0713 373.085C11.5096 378.628 26.3075 389.496 35.8443 385.605Z" fill="#92E3A9" stroke="#263238"/>
<line x1="35.7125" y1="385.817" x2="21.9514" y2="377.24" stroke="#263238" stroke-width="0.5"/>
<line x1="35.5277" y1="326.691" x2="24.8261" y2="315.388" stroke="#263238" stroke-width="2"/>
<path d="M28.804 318.08C28.7545 314.582 27.2014 311.275 24.5413 309.004C21.7891 306.546 7.32399 300.478 5.95429 305.599C4.46938 311.103 19.2673 321.971 28.804 318.08Z" fill="#92E3A9" stroke="#263238"/>
<line x1="28.6716" y1="318.292" x2="14.8977" y2="309.715" stroke="#263238" stroke-width="0.5"/>
<line x1="31.1371" y1="284.704" x2="20.4355" y2="273.401" stroke="#263238" stroke-width="2"/>
<path d="M24.4134 276.156C24.379 272.635 22.8135 269.304 20.1251 267.029C17.3729 264.572 2.90775 258.491 1.53805 263.586C0.0915363 269.116 14.8895 279.997 24.4134 276.156Z" fill="#92E3A9" stroke="#263238"/>
<line x1="24.2809" y1="276.318" x2="10.5198" y2="267.741" stroke="#263238" stroke-width="0.5"/>
<line x1="44.5157" y1="414.832" x2="52.6571" y2="401.557" stroke="#263238" stroke-width="2"/>
<path d="M51.0267 406.074C50.3459 402.64 51.1812 399.079 53.318 396.306C55.4942 393.337 68.3848 384.401 70.7786 389.099C73.39 394.207 61.1522 407.917 51.0267 406.074Z" fill="#92E3A9" stroke="#263238"/>
<line x1="50.8536" y1="405.893" x2="63.2449" y2="394.039" stroke="#263238" stroke-width="0.5"/>
<line x1="37.4503" y1="347.127" x2="45.5917" y2="333.852" stroke="#263238" stroke-width="2"/>
<path d="M43.9601 338.369C43.2909 334.948 44.1257 331.404 46.2515 328.641C48.4276 325.671 61.3182 316.736 63.712 321.434C66.3234 326.503 54.0857 340.161 43.9601 338.369Z" fill="#92E3A9" stroke="#263238"/>
<line x1="43.7881" y1="338.188" x2="56.1795" y2="326.335" stroke="#263238" stroke-width="0.5"/>
<line x1="34.3392" y1="317.365" x2="42.4806" y2="304.103" stroke="#263238" stroke-width="2"/>
<path d="M40.8496 308.607C40.176 305.169 41.0208 301.609 43.1665 298.84C45.3555 295.883 58.2461 286.935 60.6399 291.633C63.2129 296.753 50.9752 310.45 40.8496 308.607Z" fill="#92E3A9" stroke="#263238"/>
<line x1="40.6769" y1="308.426" x2="53.0682" y2="296.585" stroke="#263238" stroke-width="0.5"/>
<line x1="29.7946" y1="273.753" x2="37.9233" y2="260.478" stroke="#263238" stroke-width="2"/>
<path d="M36.2931 264.981C35.613 261.549 36.4535 257.991 38.5973 255.227C40.7735 252.257 53.6641 243.322 56.0579 248.02C58.6565 253.115 46.4315 266.824 36.2931 264.981Z" fill="#92E3A9" stroke="#263238"/>
<line x1="36.1203" y1="264.801" x2="48.5245" y2="252.96" stroke="#263238" stroke-width="0.5"/>
<path d="M27.1653 246.381C26.4846 242.948 27.3199 239.387 29.4567 236.614C31.6329 233.657 44.5234 224.709 46.9172 229.42C49.567 234.528 37.2909 248.225 27.1653 246.381Z" fill="#92E3A9" stroke="#263238"/>
<line x1="26.9933" y1="246.201" x2="39.3847" y2="234.36" stroke="#263238" stroke-width="0.5"/>
<path d="M27.8825 246.894C24.3964 247.21 20.9433 246.006 18.4098 243.591C15.6832 241.107 8.16903 227.346 13.0718 225.465C18.4354 223.404 30.7756 237.011 27.8825 246.894Z" fill="#92E3A9" stroke="#263238"/>
<line x1="27.685" y1="247.046" x2="17.201" y2="233.477" stroke="#263238" stroke-width="0.5"/>
<line x1="90.6294" y1="278.897" x2="67.1524" y2="505.154" stroke="#263238" stroke-width="2"/>
<line x1="70.4893" y1="462.422" x2="62.3479" y2="449.147" stroke="#263238" stroke-width="2"/>
<path d="M65.6838 452.618C66.3644 449.183 65.524 445.62 63.3797 442.851C61.2035 439.881 48.3001 430.959 45.9191 435.657C43.3077 440.765 55.5583 454.462 65.6838 452.618Z" fill="#92E3A9" stroke="#263238"/>
<line x1="65.5104" y1="452.798" x2="53.8103" y2="441.559" stroke="#263238" stroke-width="0.5"/>
<line x1="77.005" y1="399.633" x2="68.8635" y2="386.358" stroke="#263238" stroke-width="2"/>
<path d="M72.1995 389.829C72.88 386.393 72.0397 382.831 69.8953 380.062C67.7191 377.092 54.8157 368.17 52.4347 372.868C49.8234 377.975 62.0739 391.673 72.1995 389.829Z" fill="#92E3A9" stroke="#263238"/>
<line x1="72.026" y1="390.009" x2="60.3259" y2="378.77" stroke="#263238" stroke-width="0.5"/>
<line x1="74.3432" y1="425.363" x2="66.189" y2="412.089" stroke="#263238" stroke-width="2"/>
<path d="M69.5237 415.559C70.2044 412.125 69.3691 408.565 67.2323 405.792C65.0433 402.886 52.1271 393.926 49.759 398.598C47.1604 403.706 59.3981 417.403 69.5237 415.559Z" fill="#92E3A9" stroke="#263238"/>
<line x1="69.3513" y1="415.739" x2="57.6512" y2="404.513" stroke="#263238" stroke-width="0.5"/>
<line x1="81.345" y1="357.825" x2="73.2036" y2="344.563" stroke="#263238" stroke-width="2"/>
<path d="M76.5391 348.021C77.2192 344.59 76.3788 341.032 74.2349 338.267C72.0588 335.297 59.1554 326.362 56.7616 331.073C54.163 336.18 66.4135 349.877 76.5391 348.021Z" fill="#92E3A9" stroke="#263238"/>
<line x1="76.366" y1="348.202" x2="64.6659" y2="336.975" stroke="#263238" stroke-width="0.5"/>
<line x1="85.6976" y1="315.851" x2="77.5562" y2="302.589" stroke="#263238" stroke-width="2"/>
<path d="M80.8913 306.047C81.572 302.613 80.7367 299.053 78.6 296.28C76.4494 293.31 63.5076 284.388 61.0882 289.086C58.528 294.193 70.7657 307.89 80.8913 306.047Z" fill="#92E3A9" stroke="#263238"/>
<line x1="80.7185" y1="306.227" x2="69.0184" y2="295.001" stroke="#263238" stroke-width="0.5"/>
<line x1="71.9976" y1="445.941" x2="82.6865" y2="434.624" stroke="#263238" stroke-width="2"/>
<path d="M80.1621 438.729C80.2032 435.229 81.7579 431.919 84.4248 429.653C87.1642 427.195 101.629 421.102 102.999 426.197C104.497 431.701 89.6988 442.569 80.1621 438.729Z" fill="#92E3A9" stroke="#263238"/>
<line x1="80.0304" y1="438.491" x2="94.6107" y2="429.454" stroke="#263238" stroke-width="0.5"/>
<line x1="79.0254" y1="378.223" x2="89.7142" y2="366.92" stroke="#263238" stroke-width="2"/>
<path d="M87.1895 370.999C87.2319 367.496 88.7861 364.183 91.4522 361.91C94.1916 359.453 108.644 353.359 110.026 358.454C111.524 363.997 96.7262 374.878 87.1895 370.999Z" fill="#92E3A9" stroke="#263238"/>
<line x1="87.0575" y1="370.787" x2="101.625" y2="361.736" stroke="#263238" stroke-width="0.5"/>
<line x1="82.1099" y1="348.474" x2="92.7988" y2="337.158" stroke="#263238" stroke-width="2"/>
<path d="M90.2871 341.237C90.32 337.738 91.8708 334.426 94.5371 332.161C97.2765 329.703 111.742 323.61 113.111 328.705C114.609 334.235 99.811 345.128 90.2871 341.237Z" fill="#92E3A9" stroke="#263238"/>
<line x1="90.1553" y1="341.024" x2="104.723" y2="331.987" stroke="#263238" stroke-width="0.5"/>
<line x1="86.6289" y1="304.848" x2="97.3305" y2="293.531" stroke="#263238" stroke-width="2"/>
<path d="M94.8057 297.611C94.8468 294.111 96.4015 290.801 99.0684 288.535C101.808 286.077 116.26 279.984 117.643 285.079C119.14 290.609 104.342 301.502 94.8057 297.611Z" fill="#92E3A9" stroke="#263238"/>
<line x1="94.6739" y1="297.398" x2="109.241" y2="288.361" stroke="#263238" stroke-width="0.5"/>
<path d="M89.6982 277.526C89.7379 274.029 91.2874 270.72 93.9482 268.45C96.7004 265.993 111.153 259.899 112.522 264.994C114.02 270.524 99.235 281.418 89.6982 277.526Z" fill="#92E3A9" stroke="#263238"/>
<line x1="89.5664" y1="277.314" x2="104.134" y2="268.276" stroke="#263238" stroke-width="0.5"/>
<path d="M90.2997 278.179C86.8228 277.771 83.6915 275.881 81.7102 272.995C79.5597 269.999 75.0153 254.984 80.2253 254.152C85.8834 253.243 95.1641 269.103 90.2997 278.179Z" fill="#92E3A9" stroke="#263238"/>
<line x1="90.0747" y1="278.288" x2="82.6118" y2="262.85" stroke="#263238" stroke-width="0.5"/>
<line x1="63.7266" y1="186.665" x2="63.7266" y2="472.78" stroke="#263238" stroke-width="2"/>
<line x1="62.1635" y1="430.364" x2="52.6908" y2="418.011" stroke="#263238" stroke-width="2"/>
<path d="M56.3647 421.102C56.6901 417.617 55.4902 414.162 53.0748 411.629C50.5914 408.915 36.8432 401.388 34.9486 406.278C32.9261 411.629 46.4823 423.995 56.3647 421.102Z" fill="#92E3A9" stroke="#263238"/>
<line x1="56.2107" y1="421.299" x2="43.4098" y2="411.34" stroke="#263238" stroke-width="0.5"/>
<line x1="62.1635" y1="376.6" x2="52.6908" y2="364.247" stroke="#263238" stroke-width="2"/>
<path d="M56.3647 367.338C56.6901 363.853 55.4902 360.398 53.0748 357.865C50.5914 355.139 36.8432 347.624 34.9486 352.514C32.9261 357.865 46.4823 370.218 56.3647 367.338Z" fill="#92E3A9" stroke="#263238"/>
<line x1="56.2107" y1="367.535" x2="43.4098" y2="357.576" stroke="#263238" stroke-width="0.5"/>
<line x1="62.1635" y1="313.465" x2="52.6908" y2="301.113" stroke="#263238" stroke-width="2"/>
<path d="M56.3647 304.216C56.6901 300.732 55.4902 297.277 53.0748 294.744C50.5914 292.017 36.8432 284.503 34.9486 289.393C32.9261 294.744 46.4823 307.097 56.3647 304.216Z" fill="#92E3A9" stroke="#263238"/>
<line x1="56.2107" y1="304.414" x2="43.4098" y2="294.454" stroke="#263238" stroke-width="0.5"/>
<line x1="62.1632" y1="271.452" x2="52.6905" y2="259.087" stroke="#263238" stroke-width="2"/>
<path d="M56.3647 262.191C56.6901 258.706 55.4902 255.251 53.0748 252.718C50.5914 249.991 36.8432 242.477 34.9486 247.367C32.9261 252.718 46.4823 265.071 56.3647 262.191Z" fill="#92E3A9" stroke="#263238"/>
<line x1="56.2107" y1="262.388" x2="43.4098" y2="252.429" stroke="#263238" stroke-width="0.5"/>
<line x1="62.1632" y1="229.247" x2="52.6905" y2="216.882" stroke="#263238" stroke-width="2"/>
<path d="M56.3647 219.986C56.6901 216.501 55.4902 213.046 53.0748 210.513C50.5914 207.786 36.8432 200.272 34.9486 205.162C32.9261 210.513 46.4823 222.866 56.3647 219.986Z" fill="#92E3A9" stroke="#263238"/>
<line x1="56.2107" y1="220.183" x2="43.4098" y2="210.224" stroke="#263238" stroke-width="0.5"/>
<line x1="61.9581" y1="445.571" x2="71.4308" y2="433.205" stroke="#263238" stroke-width="2"/>
<path d="M69.3321 437.526C69.0152 434.04 70.2192 430.586 72.6347 428.053C75.1053 425.326 88.8536 417.812 90.7481 422.702C92.8091 428.053 79.2145 440.406 69.3321 437.526Z" fill="#92E3A9" stroke="#263238"/>
<line x1="69.179" y1="437.328" x2="82.7352" y2="426.831" stroke="#263238" stroke-width="0.5"/>
<line x1="61.9584" y1="360.047" x2="71.4311" y2="347.694" stroke="#263238" stroke-width="2"/>
<path d="M69.3321 352.015C69.0152 348.529 70.2192 345.076 72.6347 342.542C75.1053 339.816 88.8536 332.302 90.7481 337.192C92.8091 342.542 79.2145 354.895 69.3321 352.015Z" fill="#92E3A9" stroke="#263238"/>
<line x1="69.179" y1="351.817" x2="82.7352" y2="341.321" stroke="#263238" stroke-width="0.5"/>
<line x1="61.9584" y1="317.843" x2="71.4311" y2="305.49" stroke="#263238" stroke-width="2"/>
<path d="M69.3321 309.81C69.0152 306.324 70.2192 302.871 72.6347 300.338C75.1053 297.611 88.8536 290.097 90.7481 294.974C92.8091 300.338 79.2145 312.691 69.3321 309.81Z" fill="#92E3A9" stroke="#263238"/>
<line x1="69.179" y1="309.613" x2="82.7352" y2="299.116" stroke="#263238" stroke-width="0.5"/>
<line x1="61.9584" y1="262.056" x2="71.4311" y2="249.703" stroke="#263238" stroke-width="2"/>
<path d="M69.3321 254.024C69.0152 250.537 70.2192 247.084 72.6347 244.551C75.1053 241.824 88.8536 234.31 90.7481 239.187C92.8091 244.551 79.2145 256.955 69.3321 254.024Z" fill="#92E3A9" stroke="#263238"/>
<line x1="69.179" y1="253.826" x2="82.7352" y2="243.329" stroke="#263238" stroke-width="0.5"/>
<line x1="61.9584" y1="218.2" x2="71.4311" y2="205.847" stroke="#263238" stroke-width="2"/>
<path d="M69.3316 210.167C69.013 206.681 70.2172 203.227 72.6343 200.695C75.1048 197.968 88.8531 190.454 90.7476 195.331C92.8086 200.695 79.214 213.048 69.3316 210.167Z" fill="#92E3A9" stroke="#263238"/>
<line x1="69.179" y1="209.97" x2="82.7352" y2="199.473" stroke="#263238" stroke-width="0.5"/>
<path d="M62.1758 190.71C61.859 187.224 63.0629 183.771 65.4785 181.237C67.9491 178.511 81.6973 170.997 83.5919 175.886C85.6529 181.237 72.0582 193.59 62.1758 190.71Z" fill="#92E3A9" stroke="#263238"/>
<line x1="62.0237" y1="190.512" x2="75.5799" y2="180.015" stroke="#263238" stroke-width="0.5"/>
<path d="M62.8417 191.299C59.3413 191.249 56.0328 189.691 53.7658 187.023C51.3208 184.271 45.2531 169.806 50.3479 168.436C55.8779 166.951 66.746 181.762 62.8417 191.299Z" fill="#92E3A9" stroke="#263238"/>
<line x1="62.6291" y1="191.43" x2="53.6172" y2="176.837" stroke="#263238" stroke-width="0.5"/>
<path d="M74.5041 546.974H44.2041L40.415 470.463H78.2932L74.5041 546.974Z" fill="#263238" stroke="#263238"/>
<path d="M450.674 368.861C450.793 366.389 451.453 363.972 452.607 361.782C454.373 358.876 460.812 356.79 464.204 358.236C465.917 358.939 467.584 359.747 469.197 360.656C465.833 361.711 462.632 363.227 459.686 365.162C456.969 367.003 453.901 368.263 450.674 368.861Z" fill="#92E3A9"/>
<path d="M443.902 370.96C446.276 368.537 447.852 365.446 448.421 362.102C449.061 356.982 443.582 364.253 443.582 364.253C443.582 364.253 440.842 353.884 439.242 359.683C437.642 365.482 443.902 370.96 443.902 370.96Z" fill="#92E3A9"/>
<path d="M436.503 369.348C436.503 369.348 437.463 364.522 435.697 361.142C433.93 357.763 429.296 358.083 424.586 359.529C422.611 360.254 420.557 360.74 418.467 360.976C421.683 363.133 425.074 365.017 428.605 366.608C431.174 367.696 433.813 368.611 436.503 369.348Z" fill="#92E3A9"/>
<path d="M443.837 386.706C444.07 386.706 444.259 386.517 444.259 386.284V363.203C444.259 363.092 444.214 362.986 444.135 362.909C444.055 362.832 443.948 362.79 443.837 362.794C443.61 362.794 443.427 362.977 443.427 363.203V386.245C443.412 386.362 443.449 386.48 443.527 386.568C443.606 386.657 443.719 386.707 443.837 386.706Z" fill="#263238"/>
<path d="M441.93 386.706H441.994C442.218 386.667 442.371 386.457 442.34 386.232C442.263 385.656 440.317 372.01 433.712 364.471C433.548 364.311 433.287 364.311 433.123 364.471C433.043 364.548 432.998 364.654 432.998 364.765C432.998 364.876 433.043 364.982 433.123 365.059C439.523 372.446 441.533 386.283 441.559 386.424C441.612 386.586 441.76 386.698 441.93 386.706Z" fill="#263238"/>
<path d="M445.796 386.386C446.026 386.379 446.212 386.194 446.218 385.963C446.218 385.822 446.154 372.714 453.899 366.48C454.039 366.395 454.117 366.236 454.099 366.073C454.081 365.91 453.97 365.772 453.815 365.719C453.659 365.666 453.488 365.709 453.374 365.827C445.258 372.33 445.322 385.413 445.322 385.976C445.329 386.094 445.383 386.204 445.472 386.281C445.561 386.359 445.678 386.396 445.796 386.386Z" fill="#263238"/>
<path d="M439.358 386.245H439.461C439.569 386.218 439.661 386.148 439.717 386.052C439.772 385.955 439.786 385.84 439.755 385.733C438.939 382.925 437.668 380.269 435.992 377.873C435.927 377.781 435.829 377.719 435.718 377.7C435.608 377.681 435.494 377.706 435.403 377.771C435.222 377.913 435.183 378.17 435.313 378.36C436.93 380.675 438.158 383.239 438.948 385.951C439.001 386.131 439.17 386.253 439.358 386.245Z" fill="#263238"/>
<path d="M436.822 379.844C436.822 379.844 436.976 375.338 435.043 374.724C433.11 374.11 431.344 375.697 429.923 376.657C428.502 377.617 426.863 378.59 426.863 381.496C427.029 384.256 427.406 386.999 427.99 389.701C427.99 389.701 429.603 384.709 432.342 382.456C433.612 381.249 435.146 380.355 436.822 379.844Z" fill="#92E3A9"/>
<path d="M448.702 386.386C448.883 386.38 449.041 386.262 449.099 386.091C449.93 383.682 451.377 381.533 453.298 379.857C453.436 379.773 453.514 379.617 453.499 379.456C453.484 379.295 453.377 379.156 453.225 379.1C453.073 379.044 452.902 379.079 452.786 379.192C450.731 380.971 449.185 383.263 448.305 385.835C448.269 385.941 448.278 386.056 448.328 386.155C448.379 386.254 448.468 386.328 448.574 386.36L448.702 386.386Z" fill="#263238"/>
<path d="M450.674 381.265C450.321 379.54 450.666 377.744 451.634 376.273C453.247 374.186 457.113 374.66 459.046 376.913C460.979 379.166 463.718 385.938 463.718 385.938C461.292 384.113 458.378 383.048 455.347 382.878C450.828 382.878 450.674 381.265 450.674 381.265Z" fill="#92E3A9"/>
<path d="M437.834 411.066H450.686L457.113 389.816H431.408L437.834 411.066Z" fill="#263238" stroke="#263238" stroke-linecap="round" stroke-linejoin="round"/>
<rect x="457.189" y="389.816" width="25.8452" height="3.52027" transform="rotate(180 457.189 389.816)" fill="#263238" stroke="#263238" stroke-linecap="round" stroke-linejoin="round"/>
<g opacity="0.2">
<path d="M454.41 322.867C454.054 322.802 453.746 322.579 453.572 322.261C453.399 321.943 453.377 321.564 453.514 321.229L453.578 321.062C453.682 320.729 453.925 320.458 454.244 320.318C454.563 320.178 454.927 320.183 455.242 320.333C456.286 320.735 457.279 321.259 458.199 321.894C457.873 320.787 457.684 319.643 457.636 318.489C457.615 318.137 457.74 317.791 457.983 317.534C458.225 317.277 458.563 317.132 458.916 317.132H459.095C459.449 317.132 459.786 317.277 460.029 317.534C460.271 317.791 460.397 318.137 460.375 318.489C460.327 319.642 460.142 320.785 459.825 321.894C460.748 321.27 461.735 320.746 462.769 320.333C463.087 320.179 463.457 320.175 463.778 320.321C464.099 320.467 464.339 320.748 464.433 321.088L464.433 321.203C464.585 321.537 464.575 321.923 464.405 322.248C464.235 322.573 463.924 322.801 463.563 322.867C462.489 323.155 461.385 323.318 460.273 323.354C461.183 324.023 462.009 324.801 462.731 325.671C462.944 325.937 463.043 326.277 463.004 326.616C462.966 326.955 462.794 327.264 462.526 327.476L462.385 327.591C462.107 327.827 461.736 327.924 461.378 327.854C461.019 327.784 460.712 327.556 460.542 327.232C459.926 326.288 459.416 325.279 459.019 324.224C458.6 325.276 458.076 326.284 457.457 327.232C457.287 327.556 456.98 327.784 456.621 327.854C456.263 327.924 455.892 327.827 455.614 327.591L455.485 327.476C455.216 327.266 455.041 326.957 455.001 326.618C454.96 326.279 455.056 325.938 455.268 325.671C456.007 324.801 456.835 324.012 457.738 323.315C456.614 323.309 455.496 323.158 454.41 322.867Z" fill="black"/>
<path d="M467.391 322.867C467.034 322.802 466.727 322.579 466.553 322.261C466.379 321.943 466.358 321.564 466.495 321.229L466.559 321.062C466.662 320.729 466.905 320.458 467.224 320.318C467.544 320.178 467.908 320.183 468.223 320.333C469.266 320.735 470.259 321.259 471.18 321.894C470.853 320.787 470.664 319.643 470.617 318.489C470.595 318.137 470.721 317.791 470.963 317.534C471.206 317.277 471.543 317.132 471.897 317.132L471.999 317.132C472.352 317.132 472.69 317.277 472.933 317.534C473.175 317.791 473.3 318.137 473.279 318.489C473.23 319.642 473.046 320.785 472.729 321.894C473.651 321.27 474.638 320.746 475.673 320.333C475.995 320.205 476.355 320.213 476.671 320.355C476.987 320.497 477.232 320.762 477.35 321.088V321.203C477.502 321.537 477.491 321.923 477.321 322.248C477.151 322.573 476.841 322.801 476.479 322.867C475.405 323.155 474.301 323.318 473.19 323.354C474.1 324.023 474.925 324.801 475.647 325.671C475.861 325.937 475.959 326.277 475.921 326.616C475.882 326.955 475.71 327.264 475.443 327.476L475.302 327.591C475.025 327.827 474.657 327.924 474.3 327.854C473.943 327.784 473.638 327.555 473.471 327.232C472.846 326.291 472.331 325.282 471.935 324.224C471.516 325.276 470.993 326.284 470.373 327.232C470.204 327.556 469.896 327.784 469.538 327.854C469.179 327.924 468.809 327.827 468.53 327.591L468.402 327.476C468.133 327.266 467.958 326.957 467.917 326.618C467.876 326.279 467.972 325.938 468.184 325.671C468.923 324.801 469.751 324.012 470.655 323.315C469.552 323.304 468.456 323.153 467.391 322.867Z" fill="black"/>
<path d="M480.371 322.867C480.029 322.779 479.738 322.552 479.568 322.242C479.398 321.932 479.365 321.565 479.475 321.229L479.539 321.062C479.643 320.729 479.885 320.458 480.205 320.318C480.524 320.178 480.888 320.183 481.203 320.333C482.247 320.735 483.239 321.259 484.16 321.894C483.838 320.786 483.653 319.643 483.61 318.489C483.588 318.137 483.714 317.791 483.956 317.534C484.199 317.277 484.537 317.132 484.89 317.132H485.069C485.422 317.132 485.76 317.277 486.002 317.534C486.245 317.791 486.37 318.137 486.349 318.489C486.3 319.642 486.115 320.785 485.799 321.894C486.721 321.27 487.708 320.746 488.743 320.333C489.065 320.205 489.425 320.213 489.741 320.355C490.057 320.497 490.302 320.762 490.42 321.088V321.203C490.572 321.535 490.563 321.919 490.395 322.244C490.228 322.568 489.921 322.798 489.562 322.867C488.483 323.154 487.375 323.317 486.259 323.354C487.17 324.023 487.995 324.801 488.717 325.671C488.931 325.937 489.029 326.277 488.99 326.616C488.952 326.955 488.78 327.264 488.512 327.475L488.372 327.591C488.095 327.827 487.726 327.924 487.37 327.854C487.013 327.784 486.708 327.555 486.541 327.232C485.921 326.289 485.406 325.28 485.005 324.224C484.586 325.276 484.063 326.284 483.443 327.232C483.276 327.555 482.971 327.784 482.615 327.854C482.258 327.924 481.889 327.827 481.613 327.591L481.472 327.476C481.202 327.266 481.028 326.957 480.987 326.618C480.946 326.279 481.042 325.938 481.254 325.671C481.993 324.801 482.821 324.012 483.725 323.315C482.592 323.311 481.465 323.161 480.371 322.867Z" fill="black"/>
<path d="M493.351 322.867C493.008 322.779 492.717 322.552 492.548 322.242C492.378 321.932 492.344 321.565 492.454 321.229V321.062C492.558 320.729 492.801 320.458 493.12 320.318C493.439 320.178 493.804 320.183 494.119 320.333C495.162 320.735 496.155 321.259 497.076 321.894C496.759 320.785 496.574 319.642 496.525 318.489C496.504 318.137 496.629 317.791 496.872 317.534C497.114 317.277 497.452 317.132 497.805 317.132H497.984C498.338 317.132 498.675 317.277 498.918 317.534C499.16 317.791 499.286 318.137 499.265 318.489C499.216 319.642 499.031 320.785 498.714 321.894C499.637 321.27 500.624 320.746 501.658 320.333C501.98 320.205 502.341 320.213 502.657 320.355C502.973 320.497 503.218 320.762 503.335 321.088V321.203C503.487 321.535 503.478 321.919 503.311 322.244C503.144 322.568 502.836 322.798 502.478 322.867C501.399 323.154 500.291 323.317 499.175 323.354C500.085 324.023 500.911 324.801 501.633 325.671C501.846 325.937 501.944 326.277 501.906 326.616C501.868 326.955 501.695 327.264 501.428 327.476L501.287 327.591C501.011 327.827 500.642 327.924 500.285 327.854C499.929 327.784 499.624 327.555 499.457 327.232C498.836 326.289 498.321 325.28 497.921 324.224C497.489 325.278 496.953 326.286 496.32 327.232C496.153 327.555 495.848 327.784 495.492 327.854C495.135 327.924 494.766 327.827 494.49 327.591L494.349 327.476C494.08 327.266 493.905 326.957 493.864 326.618C493.823 326.279 493.919 325.938 494.131 325.671C494.87 324.801 495.698 324.012 496.602 323.315C495.504 323.303 494.411 323.152 493.351 322.867Z" fill="black"/>
<path d="M506.331 322.867C505.988 322.779 505.698 322.552 505.528 322.242C505.358 321.932 505.325 321.565 505.435 321.229L505.499 321.062C505.622 320.741 505.869 320.482 506.184 320.345C506.5 320.208 506.857 320.203 507.176 320.333C508.214 320.738 509.202 321.262 510.12 321.894C509.803 320.785 509.618 319.642 509.57 318.489C509.548 318.137 509.674 317.791 509.916 317.534C510.159 317.277 510.496 317.132 510.85 317.132L511.029 317.132C511.382 317.132 511.72 317.277 511.962 317.534C512.205 317.791 512.33 318.137 512.309 318.489C512.26 319.642 512.075 320.785 511.759 321.894C512.681 321.27 513.668 320.746 514.703 320.333C515.025 320.205 515.385 320.213 515.701 320.355C516.017 320.497 516.262 320.762 516.38 321.088V321.203C516.532 321.535 516.523 321.919 516.355 322.244C516.188 322.568 515.881 322.798 515.522 322.867C514.443 323.154 513.335 323.317 512.219 323.354C513.13 324.023 513.955 324.801 514.677 325.671C514.891 325.937 514.989 326.277 514.95 326.616C514.912 326.955 514.74 327.264 514.472 327.476L514.332 327.591C514.055 327.827 513.686 327.924 513.33 327.854C512.973 327.784 512.668 327.555 512.501 327.232C511.881 326.289 511.366 325.28 510.965 324.224C510.546 325.276 510.023 326.284 509.403 327.232C509.236 327.555 508.931 327.784 508.575 327.854C508.218 327.924 507.849 327.827 507.573 327.591L507.432 327.476C507.145 327.278 506.957 326.966 506.918 326.62C506.879 326.274 506.992 325.927 507.227 325.671C507.958 324.798 508.782 324.008 509.685 323.315C508.552 323.311 507.425 323.161 506.331 322.867Z" fill="black"/>
<path d="M519.362 322.867C519.02 322.779 518.729 322.552 518.559 322.242C518.39 321.932 518.356 321.565 518.466 321.229L518.53 321.062C518.653 320.741 518.9 320.482 519.215 320.345C519.531 320.208 519.888 320.203 520.207 320.333C521.245 320.738 522.233 321.262 523.151 321.894C522.835 320.785 522.65 319.642 522.601 318.489C522.58 318.137 522.705 317.791 522.948 317.534C523.19 317.277 523.528 317.132 523.881 317.132H524.06C524.413 317.132 524.751 317.277 524.994 317.534C525.236 317.791 525.361 318.137 525.34 318.489C525.291 319.642 525.107 320.785 524.79 321.894C525.715 321.267 526.707 320.743 527.747 320.333C528.065 320.184 528.433 320.182 528.753 320.327C529.073 320.473 529.313 320.75 529.411 321.088L529.411 321.203C529.563 321.535 529.554 321.919 529.387 322.244C529.219 322.568 528.912 322.798 528.553 322.867C527.475 323.155 526.366 323.318 525.251 323.354C526.162 324.027 526.991 324.804 527.721 325.671C527.933 325.938 528.029 326.279 527.988 326.618C527.948 326.957 527.773 327.266 527.504 327.475L527.363 327.591C527.087 327.827 526.718 327.924 526.361 327.854C526.004 327.784 525.699 327.555 525.532 327.232C524.912 326.289 524.397 325.28 523.996 324.224C523.577 325.276 523.054 326.284 522.434 327.232C522.267 327.555 521.962 327.784 521.606 327.854C521.249 327.924 520.88 327.827 520.604 327.591L520.463 327.476C520.176 327.278 519.989 326.966 519.949 326.62C519.91 326.274 520.023 325.927 520.258 325.671C520.989 324.798 521.813 324.008 522.716 323.315C521.583 323.311 520.456 323.161 519.362 322.867Z" fill="black"/>
<path d="M532.305 322.867C531.96 322.782 531.666 322.556 531.494 322.246C531.321 321.935 531.286 321.567 531.396 321.229L531.46 321.062C531.583 320.741 531.829 320.482 532.145 320.345C532.46 320.208 532.818 320.203 533.137 320.333C534.175 320.738 535.163 321.262 536.081 321.894C535.764 320.785 535.579 319.642 535.531 318.489C535.509 318.137 535.635 317.791 535.877 317.534C536.12 317.277 536.457 317.132 536.811 317.132H536.99C537.343 317.132 537.681 317.277 537.923 317.534C538.166 317.791 538.291 318.137 538.27 318.489C538.223 319.643 538.033 320.787 537.707 321.894C538.632 321.267 539.624 320.743 540.664 320.333C540.982 320.184 541.35 320.182 541.669 320.327C541.989 320.473 542.23 320.75 542.328 321.088V321.203C542.48 321.537 542.469 321.923 542.299 322.248C542.129 322.573 541.818 322.801 541.457 322.867C540.379 323.155 539.271 323.318 538.155 323.354C539.066 324.027 539.895 324.804 540.625 325.671C540.837 325.938 540.933 326.279 540.893 326.618C540.852 326.957 540.677 327.266 540.408 327.476L540.28 327.591C540.001 327.827 539.63 327.924 539.272 327.854C538.914 327.784 538.606 327.556 538.436 327.232C537.816 326.291 537.305 325.281 536.913 324.224C536.49 325.277 535.963 326.285 535.339 327.232C535.172 327.555 534.866 327.784 534.51 327.854C534.153 327.924 533.784 327.827 533.508 327.591L533.367 327.476C533.08 327.278 532.893 326.966 532.853 326.62C532.814 326.274 532.927 325.927 533.162 325.671C533.893 324.798 534.717 324.008 535.62 323.315C534.5 323.31 533.386 323.159 532.305 322.867Z" fill="black"/>
<path d="M545.284 322.867C544.939 322.782 544.646 322.556 544.473 322.246C544.301 321.935 544.265 321.567 544.375 321.229V321.062C544.498 320.741 544.745 320.482 545.06 320.345C545.376 320.208 545.733 320.203 546.052 320.333C547.091 320.738 548.079 321.262 548.996 321.894C548.68 320.785 548.495 319.642 548.446 318.489C548.425 318.137 548.55 317.791 548.793 317.534C549.035 317.277 549.373 317.132 549.726 317.132H549.905C550.259 317.132 550.596 317.277 550.839 317.534C551.081 317.791 551.207 318.137 551.185 318.489C551.138 319.643 550.949 320.787 550.622 321.894C551.548 321.267 552.539 320.743 553.579 320.333C553.898 320.184 554.265 320.182 554.585 320.327C554.905 320.473 555.145 320.75 555.243 321.088V321.203C555.395 321.537 555.385 321.923 555.215 322.248C555.045 322.573 554.734 322.801 554.373 322.867C553.294 323.155 552.186 323.318 551.07 323.354C551.982 324.027 552.811 324.804 553.541 325.671C553.753 325.938 553.849 326.279 553.808 326.618C553.767 326.957 553.593 327.266 553.323 327.476L553.182 327.591C552.906 327.827 552.537 327.924 552.181 327.854C551.824 327.784 551.519 327.555 551.352 327.232C550.731 326.291 550.22 325.281 549.829 324.224C549.406 325.277 548.878 326.285 548.254 327.232C548.087 327.555 547.782 327.784 547.425 327.854C547.069 327.924 546.7 327.827 546.424 327.591L546.283 327.476C545.996 327.278 545.808 326.966 545.769 326.62C545.73 326.274 545.842 325.927 546.078 325.671C546.809 324.798 547.633 324.008 548.536 323.315C547.437 323.305 546.345 323.154 545.284 322.867Z" fill="black"/>
</g>
<g opacity="0.2">
<path d="M199.07 35.498C198.714 35.4348 198.406 35.2155 198.23 34.9005C198.054 34.5855 198.029 34.2081 198.161 33.8723L198.238 33.6931C198.341 33.3603 198.584 33.0888 198.903 32.9488C199.223 32.8088 199.587 32.8142 199.902 32.9634C200.938 33.3741 201.925 33.8979 202.846 34.5252C202.529 33.4158 202.344 32.2728 202.296 31.1201C202.253 30.7636 202.371 30.4065 202.619 30.1464C202.867 29.8863 203.217 29.7505 203.576 29.776H203.742C204.093 29.7755 204.429 29.9192 204.671 30.1733C204.913 30.4274 205.04 30.7696 205.022 31.1201C204.975 32.2739 204.786 33.4175 204.459 34.5252C205.37 33.8967 206.344 33.3648 207.365 32.9378C207.685 32.7897 208.054 32.7895 208.374 32.9373C208.695 33.0852 208.934 33.3661 209.029 33.7059L209.029 33.8083C209.181 34.1423 209.17 34.5278 209 34.853C208.83 35.1781 208.52 35.4067 208.158 35.4724C207.08 35.7608 205.972 35.924 204.856 35.9589C205.77 36.6329 206.6 37.4152 207.326 38.2886C207.54 38.5547 207.638 38.8949 207.6 39.2337C207.561 39.5726 207.389 39.8821 207.122 40.0936L206.981 40.196C206.695 40.4075 206.333 40.4905 205.984 40.4249C205.634 40.3593 205.327 40.1512 205.137 39.8504C204.53 38.8846 204.032 37.8542 203.652 36.7781C203.231 37.8332 202.708 38.8449 202.091 39.7992C201.901 40.1 201.594 40.3081 201.244 40.3737C200.895 40.4392 200.534 40.3563 200.247 40.1448L200.107 40.0424C199.839 39.8309 199.667 39.5214 199.629 39.1825C199.59 38.8437 199.688 38.5035 199.902 38.2374C200.632 37.3605 201.456 36.5663 202.36 35.8693C201.252 35.886 200.146 35.7613 199.07 35.498Z" fill="black"/>
<path d="M212.05 35.498C211.695 35.4348 211.387 35.2155 211.211 34.9005C211.035 34.5855 211.009 34.2081 211.141 33.8723L211.218 33.6931C211.322 33.3603 211.565 33.0888 211.884 32.9488C212.203 32.8088 212.567 32.8142 212.882 32.9634C213.919 33.3714 214.907 33.8953 215.827 34.5252C215.51 33.4158 215.325 32.2728 215.276 31.1201C215.233 30.7636 215.352 30.4065 215.599 30.1464C215.847 29.8864 216.198 29.7505 216.556 29.776L216.723 29.776C217.081 29.7505 217.432 29.8863 217.679 30.1464C217.927 30.4064 218.046 30.7635 218.003 31.1201C217.955 32.2739 217.766 33.4175 217.439 34.5252C218.35 33.8967 219.324 33.3648 220.345 32.9378C220.665 32.7897 221.035 32.7895 221.355 32.9374C221.675 33.0852 221.914 33.3661 222.009 33.7059V33.8083C222.161 34.1423 222.151 34.5278 221.981 34.853C221.811 35.1782 221.5 35.4067 221.139 35.4724C220.06 35.7608 218.952 35.924 217.836 35.9589C218.751 36.633 219.58 37.4152 220.307 38.2886C220.52 38.5547 220.619 38.8949 220.58 39.2337C220.542 39.5726 220.37 39.8821 220.102 40.0936L219.961 40.196C219.675 40.4075 219.314 40.4905 218.964 40.4249C218.615 40.3593 218.308 40.1512 218.118 39.8504C217.51 38.8846 217.012 37.8542 216.633 36.7781C216.211 37.8331 215.688 38.8449 215.071 39.7992C214.881 40.0999 214.575 40.3081 214.225 40.3737C213.875 40.4392 213.514 40.3563 213.228 40.1448L213.087 40.0424C212.82 39.8309 212.648 39.5214 212.609 39.1825C212.571 38.8437 212.669 38.5035 212.882 38.2374C213.616 37.3635 214.44 36.5697 215.34 35.8693C214.232 35.886 213.127 35.7613 212.05 35.498Z" fill="black"/>
<path d="M225.03 35.498C224.674 35.4348 224.366 35.2155 224.19 34.9005C224.014 34.5855 223.989 34.2081 224.121 33.8723L224.198 33.6931C224.301 33.3603 224.544 33.0888 224.863 32.9488C225.183 32.8088 225.547 32.8142 225.862 32.9634C226.899 33.3714 227.887 33.8953 228.806 34.5252C228.489 33.4158 228.304 32.2728 228.256 31.1201C228.213 30.7636 228.331 30.4065 228.579 30.1464C228.827 29.8863 229.177 29.7505 229.536 29.776H229.702C230.06 29.7505 230.411 29.8863 230.659 30.1464C230.907 30.4064 231.025 30.7635 230.982 31.1201C230.935 32.2739 230.746 33.4175 230.419 34.5252C231.33 33.8967 232.304 33.3648 233.325 32.9378C233.645 32.7897 234.014 32.7895 234.334 32.9374C234.655 33.0852 234.894 33.3661 234.989 33.7059V33.8083C235.141 34.1423 235.13 34.5278 234.96 34.853C234.79 35.1782 234.479 35.4067 234.118 35.4724C233.04 35.7608 231.932 35.924 230.816 35.9589C231.73 36.6329 232.56 37.4152 233.286 38.2886C233.5 38.5547 233.598 38.8949 233.56 39.2337C233.521 39.5726 233.349 39.8821 233.082 40.0936L232.941 40.196C232.655 40.4075 232.293 40.4905 231.944 40.4249C231.594 40.3593 231.287 40.1512 231.097 39.8504C230.49 38.8846 229.992 37.8542 229.612 36.7781C229.191 37.8331 228.668 38.8449 228.051 39.7992C227.861 40.1 227.554 40.3081 227.204 40.3737C226.855 40.4392 226.493 40.3563 226.207 40.1448L226.067 40.0424C225.799 39.8309 225.627 39.5214 225.589 39.1825C225.55 38.8437 225.648 38.5035 225.862 38.2374C226.595 37.3635 227.419 36.5697 228.32 35.8692C227.212 35.886 226.106 35.7613 225.03 35.498Z" fill="black"/>
<path d="M238.01 35.498C237.655 35.4348 237.347 35.2155 237.171 34.9005C236.994 34.5855 236.969 34.2081 237.101 33.8723L237.178 33.6931C237.282 33.3603 237.525 33.0888 237.844 32.9488C238.163 32.8088 238.527 32.8142 238.842 32.9634C239.879 33.3714 240.867 33.8953 241.786 34.5252C241.47 33.4158 241.285 32.2728 241.236 31.1201C241.193 30.7635 241.312 30.4064 241.559 30.1464C241.807 29.8863 242.158 29.7505 242.516 29.776L242.683 29.776C243.041 29.7505 243.392 29.8863 243.639 30.1464C243.887 30.4064 244.006 30.7635 243.963 31.1201C243.915 32.2739 243.726 33.4175 243.399 34.5252C244.31 33.8968 245.284 33.3648 246.305 32.9378C246.625 32.7897 246.994 32.7895 247.315 32.9373C247.635 33.0852 247.874 33.3661 247.969 33.7059V33.8083C248.121 34.1423 248.111 34.5278 247.941 34.853C247.771 35.1782 247.46 35.4067 247.099 35.4724C246.02 35.7608 244.912 35.924 243.796 35.9589C244.711 36.6329 245.54 37.4152 246.267 38.2886C246.48 38.5547 246.578 38.8949 246.54 39.2337C246.502 39.5726 246.33 39.8821 246.062 40.0936L245.921 40.196C245.64 40.3865 245.294 40.4572 244.96 40.3923C244.626 40.3275 244.332 40.1325 244.142 39.8504C243.512 38.8875 242.993 37.857 242.593 36.7781C242.171 37.8332 241.648 38.8449 241.031 39.7992C240.841 40.0999 240.535 40.3081 240.185 40.3737C239.835 40.4393 239.474 40.3563 239.188 40.1448L239.047 40.0424C238.78 39.8309 238.607 39.5214 238.569 39.1825C238.531 38.8437 238.629 38.5035 238.842 38.2374C239.576 37.3635 240.399 36.5697 241.3 35.8693C240.192 35.886 239.086 35.7613 238.01 35.498Z" fill="black"/>
<path d="M250.991 35.498C250.635 35.4348 250.327 35.2155 250.151 34.9005C249.975 34.5855 249.949 34.208 250.082 33.8723L250.159 33.6931C250.257 33.3556 250.497 33.0778 250.817 32.9326C251.137 32.7874 251.504 32.7893 251.823 32.9378C252.86 33.3457 253.848 33.8696 254.767 34.4995C254.45 33.3901 254.265 32.2472 254.217 31.0945C254.174 30.7379 254.292 30.3808 254.54 30.1208C254.788 29.8607 255.138 29.7249 255.497 29.7504H255.663C256.021 29.7249 256.372 29.8607 256.62 30.1208C256.867 30.3808 256.986 30.7379 256.943 31.0945C256.894 32.2472 256.71 33.3901 256.393 34.4995C257.315 33.8747 258.302 33.3511 259.337 32.9378C259.657 32.7897 260.026 32.7895 260.346 32.9373C260.667 33.0852 260.906 33.3661 261.001 33.7059L261.001 33.8083C261.153 34.1423 261.142 34.5278 260.972 34.8529C260.802 35.1781 260.492 35.4067 260.131 35.4724C259.052 35.7608 257.944 35.924 256.828 35.9588C257.742 36.6329 258.572 37.4152 259.298 38.2886C259.512 38.5547 259.61 38.8949 259.572 39.2337C259.533 39.5726 259.361 39.882 259.094 40.0935L258.953 40.196C258.667 40.4075 258.306 40.4904 257.956 40.4249C257.606 40.3593 257.3 40.1511 257.11 39.8503C256.484 38.8869 255.969 37.8564 255.573 36.7781C255.151 37.8331 254.628 38.8449 254.012 39.7991C253.822 40.0999 253.515 40.3081 253.165 40.3737C252.816 40.4392 252.454 40.3563 252.168 40.1448L252.028 40.0423C251.76 39.8309 251.588 39.5213 251.549 39.1825C251.511 38.8437 251.609 38.5035 251.823 38.2374C252.558 37.3605 253.386 36.5664 254.293 35.8692C253.181 35.887 252.071 35.7622 250.991 35.498Z" fill="black"/>
<path d="M263.971 35.498C263.629 35.4121 263.338 35.1889 263.166 34.8812C262.994 34.5736 262.956 34.2085 263.062 33.8723L263.139 33.6931C263.242 33.3603 263.485 33.0888 263.804 32.9488C264.124 32.8088 264.488 32.8142 264.803 32.9634C265.843 33.3737 266.835 33.8975 267.76 34.5252C267.433 33.4175 267.244 32.2739 267.197 31.1201C267.154 30.7635 267.272 30.4065 267.52 30.1464C267.768 29.8863 268.119 29.7505 268.477 29.776H268.643C269.001 29.7505 269.352 29.8863 269.6 30.1464C269.848 30.4065 269.966 30.7635 269.923 31.1201C269.874 32.2728 269.69 33.4158 269.373 34.5252C270.292 33.8948 271.274 33.3627 272.304 32.9378C272.624 32.7897 272.993 32.7895 273.314 32.9374C273.634 33.0852 273.873 33.3661 273.968 33.7059L273.968 33.8083C274.12 34.1423 274.11 34.5278 273.94 34.853C273.77 35.1782 273.459 35.4067 273.098 35.4724C272.024 35.7599 270.92 35.9231 269.808 35.9589C270.73 36.6336 271.568 37.4157 272.304 38.2886C272.518 38.5547 272.616 38.8949 272.577 39.2337C272.539 39.5726 272.367 39.8821 272.099 40.0936L271.959 40.196C271.673 40.4075 271.311 40.4905 270.962 40.4249C270.612 40.3593 270.305 40.1512 270.115 39.8504C269.481 38.8881 268.957 37.8576 268.554 36.7781C268.132 37.8332 267.609 38.8449 266.992 39.7992C266.802 40.1 266.495 40.3081 266.146 40.3737C265.796 40.4392 265.435 40.3563 265.149 40.1448L265.008 40.0424C264.74 39.8309 264.568 39.5214 264.53 39.1825C264.491 38.8437 264.59 38.5035 264.803 38.2374C265.538 37.3605 266.366 36.5664 267.273 35.8693C266.161 35.887 265.051 35.7622 263.971 35.498Z" fill="black"/>
<path d="M276.951 35.498C276.596 35.4359 276.288 35.216 276.114 34.9C275.94 34.5839 275.918 34.206 276.055 33.8723V33.6931C276.159 33.3603 276.402 33.0888 276.721 32.9488C277.04 32.8089 277.405 32.8142 277.719 32.9634C278.76 33.3737 279.751 33.8974 280.677 34.5251C280.35 33.4175 280.161 32.2739 280.113 31.1201C280.096 30.7696 280.223 30.4273 280.465 30.1733C280.707 29.9192 281.042 29.7755 281.393 29.776L281.56 29.776C281.918 29.7505 282.269 29.8864 282.517 30.1464C282.764 30.4065 282.883 30.7635 282.84 31.1201C282.791 32.2728 282.606 33.4157 282.289 34.5251C283.213 33.9029 284.2 33.3794 285.234 32.9634C285.554 32.8153 285.923 32.8151 286.243 32.9629C286.564 33.1108 286.803 33.3917 286.898 33.7315V33.8339C287.05 34.168 287.039 34.5534 286.869 34.8786C286.699 35.2038 286.388 35.4323 286.027 35.498C284.953 35.7855 283.849 35.9487 282.737 35.9845C283.646 36.6616 284.471 37.4436 285.195 38.3142C285.409 38.5803 285.507 38.9205 285.469 39.2593C285.43 39.5982 285.258 39.9077 284.99 40.1192L284.85 40.2216C284.564 40.4331 284.202 40.5161 283.853 40.4505C283.503 40.3849 283.196 40.1768 283.006 39.876C282.401 38.9016 281.908 37.8625 281.534 36.7781C281.119 37.8503 280.601 38.8793 279.985 39.8504C279.795 40.1512 279.489 40.3593 279.139 40.4249C278.789 40.4905 278.428 40.4075 278.142 40.196L278.001 40.0936C277.734 39.8821 277.562 39.5726 277.523 39.2337C277.485 38.8949 277.583 38.5547 277.796 38.2886C278.531 37.4117 279.36 36.6176 280.267 35.9205C279.148 35.9225 278.034 35.7806 276.951 35.498Z" fill="black"/>
<path d="M289.931 35.498C289.575 35.4359 289.267 35.216 289.093 34.9C288.919 34.584 288.898 34.206 289.035 33.8723L289.099 33.6931C289.202 33.3603 289.445 33.0888 289.765 32.9488C290.084 32.8089 290.448 32.8142 290.763 32.9634C291.803 33.3737 292.795 33.8975 293.72 34.5252C293.393 33.4175 293.204 32.2739 293.157 31.1201C293.114 30.7636 293.232 30.4065 293.48 30.1464C293.728 29.8864 294.079 29.7505 294.437 29.776L294.603 29.776C294.961 29.7505 295.312 29.8863 295.56 30.1464C295.808 30.4064 295.926 30.7635 295.883 31.1201C295.835 32.2728 295.65 33.4158 295.333 34.5252C296.257 33.9029 297.244 33.3794 298.277 32.9634C298.597 32.8153 298.966 32.8151 299.287 32.9629C299.607 33.1108 299.846 33.3917 299.941 33.7315L299.941 33.8339C300.093 34.1679 300.083 34.5534 299.913 34.8786C299.742 35.2038 299.432 35.4323 299.071 35.498C297.996 35.7854 296.893 35.9487 295.781 35.9845C296.689 36.6616 297.514 37.4436 298.239 38.3142C298.452 38.5803 298.55 38.9205 298.512 39.2593C298.474 39.5982 298.301 39.9077 298.034 40.1192L297.893 40.2216C297.607 40.4331 297.246 40.5161 296.896 40.4505C296.546 40.3849 296.24 40.1768 296.05 39.876C295.423 38.9045 294.907 37.8653 294.514 36.7781C294.092 37.8331 293.569 38.8449 292.952 39.7991C292.762 40.0999 292.455 40.3081 292.106 40.3737C291.756 40.4392 291.395 40.3563 291.109 40.1448L290.968 40.0424C290.7 39.8309 290.528 39.5214 290.49 39.1825C290.451 38.8437 290.55 38.5035 290.763 38.2374C291.498 37.3605 292.326 36.5664 293.234 35.8693C292.121 35.887 291.011 35.7622 289.931 35.498Z" fill="black"/>
</g>
<g opacity="0.2">
<path d="M307.724 440.752C307.369 440.688 307.06 440.469 306.884 440.154C306.708 439.839 306.683 439.462 306.815 439.126L306.879 438.947C307.002 438.625 307.249 438.367 307.564 438.229C307.88 438.092 308.237 438.088 308.556 438.217C309.592 438.628 310.579 439.151 311.5 439.779C311.185 438.673 311 437.535 310.95 436.386C310.903 436.028 311.019 435.667 311.268 435.404C311.516 435.141 311.869 435.003 312.23 435.03H312.409C312.762 435.029 313.1 435.174 313.343 435.431C313.585 435.688 313.71 436.034 313.689 436.386C313.641 437.536 313.452 438.675 313.126 439.779C314.054 439.156 315.045 438.633 316.083 438.217C316.403 438.069 316.772 438.069 317.093 438.217C317.413 438.364 317.652 438.645 317.747 438.985V439.087C317.905 439.421 317.897 439.809 317.726 440.136C317.555 440.463 317.24 440.691 316.877 440.752C315.799 441.045 314.69 441.208 313.574 441.238C314.483 441.919 315.312 442.7 316.045 443.568C316.257 443.835 316.353 444.177 316.312 444.516C316.271 444.855 316.097 445.163 315.827 445.373L315.699 445.475C315.413 445.687 315.052 445.77 314.702 445.704C314.352 445.638 314.046 445.43 313.856 445.129C313.235 444.183 312.724 443.17 312.332 442.108C311.893 443.167 311.349 444.18 310.707 445.129C310.534 445.446 310.228 445.669 309.873 445.736C309.519 445.803 309.152 445.707 308.876 445.475L308.735 445.373C308.448 445.175 308.261 444.863 308.222 444.517C308.182 444.171 308.295 443.825 308.53 443.568C309.261 442.695 310.085 441.905 310.988 441.212C309.885 441.199 308.788 441.044 307.724 440.752Z" fill="black"/>
<path d="M320.705 440.752C320.349 440.688 320.041 440.469 319.865 440.154C319.689 439.839 319.663 439.462 319.796 439.126L319.872 438.947C319.976 438.614 320.219 438.342 320.538 438.202C320.857 438.062 321.222 438.068 321.537 438.217C322.572 438.628 323.56 439.151 324.481 439.779C324.165 438.673 323.98 437.535 323.93 436.386C323.883 436.028 324 435.667 324.248 435.404C324.496 435.141 324.85 435.003 325.21 435.03L325.39 435.029C325.743 435.029 326.081 435.174 326.323 435.431C326.566 435.688 326.691 436.034 326.67 436.386C326.621 437.536 326.432 438.675 326.107 439.779C327.035 439.156 328.026 438.633 329.064 438.217C329.384 438.069 329.753 438.069 330.073 438.216C330.393 438.364 330.633 438.645 330.728 438.985V439.087C330.885 439.421 330.877 439.809 330.706 440.136C330.535 440.463 330.221 440.69 329.857 440.751C328.78 441.045 327.671 441.208 326.555 441.238C327.463 441.919 328.292 442.7 329.025 443.568C329.237 443.835 329.333 444.177 329.292 444.516C329.252 444.854 329.077 445.163 328.808 445.373L328.68 445.475C328.393 445.687 328.032 445.77 327.683 445.704C327.333 445.638 327.026 445.43 326.836 445.129C326.216 444.183 325.705 443.17 325.313 442.108C324.894 443.165 324.371 444.177 323.751 445.129C323.561 445.43 323.254 445.638 322.905 445.704C322.555 445.77 322.194 445.687 321.908 445.475L321.767 445.373C321.48 445.175 321.293 444.863 321.253 444.517C321.214 444.171 321.327 443.824 321.562 443.568C322.293 442.695 323.117 441.905 324.02 441.212C322.9 441.203 321.785 441.049 320.705 440.752Z" fill="black"/>
<path d="M333.748 440.752C333.393 440.688 333.085 440.469 332.909 440.154C332.733 439.839 332.707 439.462 332.84 439.126L332.916 438.947C333.02 438.614 333.263 438.342 333.582 438.202C333.901 438.062 334.266 438.068 334.581 438.217C335.616 438.628 336.604 439.151 337.525 439.779C337.209 438.673 337.024 437.535 336.974 436.386C336.927 436.028 337.044 435.667 337.292 435.404C337.54 435.141 337.894 435.003 338.254 435.03L338.434 435.029C338.787 435.029 339.125 435.174 339.367 435.431C339.609 435.688 339.735 436.034 339.714 436.386C339.665 437.536 339.476 438.675 339.151 439.779C340.079 439.156 341.07 438.633 342.108 438.217C342.428 438.069 342.797 438.069 343.117 438.216C343.437 438.364 343.677 438.645 343.772 438.985L343.772 439.087C343.929 439.421 343.921 439.809 343.75 440.136C343.579 440.463 343.265 440.69 342.901 440.752C341.824 441.045 340.715 441.208 339.599 441.238C340.507 441.919 341.336 442.7 342.069 443.568C342.281 443.835 342.377 444.177 342.336 444.516C342.295 444.854 342.121 445.163 341.851 445.373L341.723 445.475C341.437 445.687 341.076 445.77 340.726 445.704C340.377 445.638 340.07 445.43 339.88 445.129C339.26 444.183 338.749 443.17 338.357 442.108C337.938 443.165 337.415 444.177 336.795 445.129C336.605 445.43 336.298 445.638 335.949 445.704C335.599 445.77 335.238 445.687 334.952 445.475L334.811 445.373C334.543 445.161 334.371 444.852 334.333 444.513C334.294 444.174 334.393 443.834 334.606 443.568C335.337 442.695 336.161 441.905 337.064 441.212C335.944 441.203 334.829 441.048 333.748 440.752Z" fill="black"/>
<path d="M346.664 440.752C346.309 440.688 346.001 440.469 345.825 440.154C345.649 439.839 345.623 439.462 345.756 439.126L345.832 438.947C345.936 438.614 346.179 438.342 346.498 438.202C346.817 438.062 347.182 438.068 347.497 438.217C348.532 438.628 349.52 439.151 350.441 439.779C350.125 438.673 349.94 437.535 349.89 436.386C349.843 436.028 349.96 435.667 350.208 435.404C350.456 435.141 350.81 435.003 351.17 435.03H351.35C351.703 435.029 352.041 435.174 352.283 435.431C352.525 435.688 352.651 436.034 352.63 436.386C352.581 437.536 352.392 438.675 352.066 439.779C352.995 439.156 353.986 438.633 355.024 438.217C355.344 438.069 355.713 438.069 356.033 438.217C356.353 438.364 356.593 438.645 356.688 438.985V439.087C356.845 439.421 356.837 439.809 356.666 440.136C356.495 440.463 356.181 440.691 355.817 440.751C354.74 441.046 353.631 441.209 352.515 441.238C353.423 441.919 354.252 442.7 354.985 443.568C355.198 443.834 355.297 444.174 355.258 444.513C355.22 444.852 355.048 445.161 354.78 445.373L354.639 445.475C354.353 445.687 353.992 445.77 353.643 445.704C353.293 445.638 352.986 445.43 352.796 445.129C352.176 444.183 351.665 443.17 351.273 442.108C350.854 443.165 350.331 444.177 349.711 445.129C349.521 445.43 349.214 445.638 348.865 445.704C348.515 445.77 348.154 445.687 347.868 445.475L347.727 445.373C347.459 445.161 347.287 444.852 347.249 444.513C347.211 444.174 347.309 443.834 347.522 443.568C348.256 442.698 349.08 441.909 349.98 441.212C348.86 441.203 347.745 441.048 346.664 440.752Z" fill="black"/>
<path d="M359.645 440.752C359.29 440.688 358.981 440.469 358.805 440.154C358.629 439.839 358.604 439.462 358.736 439.126L358.813 438.947C358.916 438.614 359.159 438.342 359.478 438.202C359.798 438.062 360.162 438.068 360.477 438.217C361.513 438.628 362.5 439.151 363.421 439.779C363.105 438.673 362.921 437.535 362.871 436.386C362.85 436.034 362.975 435.688 363.217 435.431C363.46 435.174 363.798 435.029 364.151 435.03H364.317C364.67 435.029 365.008 435.174 365.251 435.431C365.493 435.688 365.619 436.034 365.597 436.386C365.549 437.536 365.36 438.675 365.034 439.779C365.962 439.156 366.954 438.633 367.991 438.217C368.311 438.069 368.68 438.069 369.001 438.217C369.321 438.364 369.56 438.645 369.655 438.985L369.655 439.087C369.813 439.421 369.805 439.809 369.634 440.136C369.463 440.463 369.149 440.691 368.785 440.751C367.708 441.046 366.599 441.209 365.482 441.238C366.391 441.919 367.22 442.7 367.953 443.568C368.166 443.834 368.264 444.174 368.226 444.513C368.188 444.852 368.015 445.161 367.748 445.373L367.607 445.475C367.32 445.691 366.956 445.777 366.603 445.711C366.25 445.645 365.941 445.434 365.751 445.13C365.131 444.183 364.62 443.17 364.228 442.109C363.808 443.165 363.285 444.177 362.666 445.129C362.476 445.43 362.169 445.638 361.82 445.704C361.47 445.77 361.109 445.687 360.823 445.475L360.682 445.373C360.414 445.161 360.242 444.852 360.204 444.513C360.165 444.174 360.264 443.834 360.477 443.568C361.211 442.698 362.035 441.909 362.935 441.212C361.823 441.2 360.717 441.045 359.645 440.752Z" fill="black"/>
<path d="M372.625 440.752C372.27 440.688 371.962 440.469 371.786 440.154C371.61 439.839 371.584 439.462 371.717 439.126L371.793 438.947C371.897 438.614 372.14 438.342 372.459 438.202C372.778 438.062 373.142 438.068 373.457 438.217C374.495 438.625 375.482 439.149 376.402 439.779C376.086 438.673 375.901 437.535 375.851 436.386C375.83 436.034 375.955 435.688 376.198 435.431C376.44 435.174 376.778 435.029 377.131 435.03H377.272C377.625 435.029 377.963 435.174 378.206 435.431C378.448 435.688 378.573 436.034 378.552 436.386C378.504 437.536 378.315 438.675 377.989 439.779C378.917 439.156 379.908 438.633 380.946 438.217C381.266 438.069 381.635 438.069 381.956 438.217C382.276 438.364 382.515 438.645 382.61 438.985V439.087C382.768 439.421 382.76 439.809 382.589 440.136C382.418 440.463 382.103 440.691 381.74 440.751C380.662 441.046 379.554 441.209 378.437 441.238C379.346 441.919 380.175 442.7 380.908 443.568C381.121 443.834 381.219 444.174 381.181 444.513C381.142 444.852 380.97 445.161 380.703 445.373L380.562 445.475C380.276 445.687 379.915 445.77 379.565 445.704C379.215 445.638 378.909 445.43 378.719 445.129C378.099 444.183 377.587 443.17 377.195 442.108C376.776 443.165 376.253 444.177 375.634 445.129C375.444 445.43 375.137 445.638 374.787 445.704C374.438 445.77 374.076 445.687 373.79 445.475L373.65 445.373C373.382 445.161 373.21 444.852 373.172 444.513C373.133 444.174 373.231 443.834 373.445 443.568C374.182 442.701 375.005 441.912 375.902 441.212C374.795 441.199 373.694 441.044 372.625 440.752Z" fill="black"/>
<path d="M385.605 440.752C385.25 440.688 384.941 440.469 384.765 440.154C384.589 439.839 384.564 439.462 384.696 439.126L384.773 438.947C384.876 438.614 385.119 438.342 385.439 438.202C385.758 438.062 386.122 438.068 386.437 438.217C387.474 438.625 388.462 439.149 389.381 439.779C389.065 438.673 388.881 437.535 388.831 436.386C388.81 436.034 388.935 435.688 389.177 435.431C389.42 435.174 389.758 435.029 390.111 435.03H390.277C390.63 435.029 390.968 435.174 391.211 435.431C391.453 435.688 391.578 436.034 391.557 436.386C391.509 437.536 391.32 438.675 390.994 439.779C391.91 439.158 392.888 438.635 393.913 438.217C394.233 438.069 394.602 438.069 394.922 438.217C395.243 438.364 395.482 438.645 395.577 438.985L395.577 439.087C395.734 439.421 395.726 439.809 395.555 440.136C395.384 440.463 395.07 440.691 394.706 440.752C393.629 441.046 392.52 441.21 391.404 441.238C392.313 441.919 393.141 442.7 393.874 443.568C394.088 443.834 394.186 444.174 394.148 444.513C394.109 444.852 393.937 445.161 393.669 445.373L393.529 445.475C393.243 445.687 392.881 445.77 392.532 445.704C392.182 445.638 391.875 445.43 391.685 445.13C391.065 444.183 390.554 443.17 390.162 442.109C389.743 443.165 389.22 444.177 388.6 445.129C388.41 445.43 388.104 445.638 387.754 445.704C387.404 445.77 387.043 445.687 386.757 445.475L386.616 445.373C386.349 445.161 386.177 444.852 386.138 444.513C386.1 444.174 386.198 443.834 386.411 443.568C387.15 442.698 387.978 441.909 388.882 441.212C387.774 441.199 386.673 441.044 385.605 440.752Z" fill="black"/>
<path d="M398.585 440.752C398.23 440.688 397.922 440.469 397.746 440.154C397.57 439.839 397.544 439.462 397.676 439.126L397.753 438.947C397.857 438.614 398.1 438.342 398.419 438.202C398.738 438.062 399.102 438.068 399.417 438.217C400.455 438.625 401.442 439.149 402.362 439.779C402.046 438.673 401.861 437.535 401.811 436.386C401.79 436.034 401.915 435.688 402.158 435.431C402.4 435.174 402.738 435.029 403.091 435.03H403.258C403.611 435.029 403.949 435.174 404.191 435.431C404.434 435.688 404.559 436.034 404.538 436.386C404.489 437.536 404.3 438.675 403.975 439.779C404.903 439.156 405.894 438.633 406.932 438.217C407.252 438.069 407.621 438.069 407.941 438.217C408.261 438.364 408.501 438.645 408.596 438.985V439.087C408.753 439.421 408.745 439.809 408.574 440.136C408.403 440.463 408.089 440.691 407.725 440.752C406.648 441.046 405.539 441.209 404.423 441.238C405.331 441.919 406.16 442.7 406.893 443.568C407.106 443.834 407.205 444.174 407.166 444.513C407.128 444.852 406.956 445.161 406.688 445.373L406.548 445.475C406.261 445.687 405.9 445.77 405.551 445.704C405.201 445.638 404.894 445.43 404.704 445.129C404.084 444.183 403.573 443.17 403.181 442.108C402.754 443.166 402.222 444.178 401.594 445.129C401.404 445.43 401.097 445.638 400.747 445.704C400.398 445.77 400.036 445.687 399.75 445.475L399.609 445.373C399.342 445.161 399.17 444.852 399.131 444.513C399.093 444.174 399.191 443.834 399.405 443.568C400.143 442.698 400.971 441.909 401.875 441.212C400.763 441.2 399.658 441.045 398.585 440.752Z" fill="black"/>
</g>
<g opacity="0.2">
<path d="M514.755 377.771V368.657C514.952 363.048 519.556 358.602 525.169 358.602C530.781 358.602 535.385 363.048 535.582 368.657V377.707H539.73V368.657C539.496 360.783 533.046 354.521 525.169 354.521C517.291 354.521 510.841 360.783 510.607 368.657V377.771H514.755Z" stroke="black"/>
<rect x="509.071" y="377.796" width="31.7848" height="26.2932" stroke="black"/>
<path d="M528.324 388.716C528.212 386.885 526.695 385.458 524.861 385.458C523.027 385.458 521.51 386.885 521.398 388.716C521.401 389.971 522.102 391.121 523.216 391.698L522.627 397.664H527.044L526.468 391.698C527.593 391.127 528.308 389.978 528.324 388.716Z" stroke="black"/>
</g>
<g opacity="0.2">
<path d="M64.4288 91.8224V82.6825C64.6255 77.0732 69.2297 72.6276 74.8424 72.6276C80.4551 72.6276 85.0593 77.0732 85.256 82.6825V91.7328H89.4035V82.6825C89.1699 74.8087 82.7196 68.5469 74.8424 68.5469C66.9651 68.5469 60.5148 74.8087 60.2812 82.6825V91.8224H64.4288Z" stroke="black"/>
<rect x="58.7451" y="91.8224" width="31.7848" height="26.2932" stroke="black"/>
<path d="M77.9468 102.742C77.8355 100.911 76.3183 99.4832 74.4842 99.4832C72.65 99.4832 71.1328 100.911 71.0215 102.742C71.0239 103.997 71.7246 105.147 72.8392 105.724L72.2504 111.702H76.7051L76.1291 105.724C77.2396 105.142 77.9387 103.995 77.9468 102.742Z" stroke="black"/>
</g>
<g opacity="0.2">
<path d="M461.273 22.9147V16.9366C461.432 13.2797 464.442 10.3964 468.103 10.3964C471.763 10.3964 474.774 13.2797 474.932 16.9366L474.932 22.8763H477.659V16.9366C477.659 11.6626 473.383 7.38708 468.109 7.38708C462.835 7.38708 458.56 11.6626 458.56 16.9366V22.9147H461.273Z" stroke="black"/>
<rect x="457.548" y="22.9275" width="20.8528" height="17.2557" stroke="black"/>
<path d="M470.144 30.096C470.055 28.9072 469.064 27.9883 467.872 27.9883C466.68 27.9883 465.689 28.9072 465.6 30.096C465.603 30.9156 466.062 31.6653 466.79 32.0418L466.406 35.9717H469.325L468.953 32.0418C469.682 31.6653 470.14 30.9156 470.144 30.096Z" stroke="black"/>
</g>
<rect x="115.069" y="75.9747" width="407.43" height="216.388" fill="white" stroke="#263238" stroke-linecap="round" stroke-linejoin="round"/>
<rect x="186.063" y="75.9747" width="336.423" height="20.2896" fill="#D9D9D9" stroke="#263238" stroke-linecap="round" stroke-linejoin="round"/>
<rect x="257.416" y="75.9747" width="265.07" height="20.2896" fill="#A8A8A8" stroke="#263238" stroke-linecap="round" stroke-linejoin="round"/>
<rect x="114.724" y="56.146" width="407.762" height="20.2896" fill="#263238" stroke="#263238" stroke-linecap="round" stroke-linejoin="round"/>
<path d="M397.818 70.3038H132.696C130.271 70.3038 128.306 68.338 128.306 65.9131C128.306 64.7498 128.769 63.6343 129.592 62.8129C130.416 61.9915 131.533 61.5318 132.696 61.5352H397.818C400.237 61.5352 402.201 63.4932 402.208 65.9131C402.201 68.3352 400.24 70.2968 397.818 70.3038Z" fill="#A8A8A8" stroke="#263238" stroke-linecap="round" stroke-linejoin="round"/>
<circle cx="477.85" cy="66.502" r="3.68668" fill="white" stroke="#263238" stroke-linecap="round" stroke-linejoin="round"/>
<path d="M496.91 66.502C496.915 65.0034 496.016 63.6497 494.632 63.0738C493.248 62.4979 491.654 62.8136 490.594 63.8733C489.535 64.933 489.219 66.5273 489.795 67.9109C490.371 69.2944 491.724 70.1939 493.223 70.1887C495.259 70.1887 496.91 68.5382 496.91 66.502Z" fill="white" stroke="#263238" stroke-linecap="round" stroke-linejoin="round"/>
<circle cx="508.584" cy="66.502" r="3.68668" fill="white" stroke="#263238" stroke-linecap="round" stroke-linejoin="round"/>
<path d="M141.388 162.612H186.69V131.864H160.397L157.722 124.362H141.388V162.612Z" fill="#D9D9D9" stroke="#B5B5B5"/>
<path d="M141.388 221.996H186.69V191.248H160.397L157.722 183.746H141.388V221.996Z" fill="#D9D9D9" stroke="#B5B5B5"/>
<path d="M141.388 281.379H186.69V250.631H160.397L157.722 243.117H141.388V281.379Z" fill="#D9D9D9" stroke="#B5B5B5"/>
<path d="M204.33 162.612H249.62V131.864H223.327L220.664 124.362H204.33V162.612Z" fill="#D9D9D9" stroke="#B5B5B5"/>
<path d="M204.33 221.996H249.62V191.248H223.327L220.664 183.746H204.33V221.996Z" fill="#D9D9D9" stroke="#B5B5B5"/>
<path d="M204.33 281.379H249.62V250.631H223.327L220.664 243.117H204.33V281.379Z" fill="#D9D9D9" stroke="#B5B5B5"/>
<path d="M267.26 162.612H312.55V131.864H286.269L283.594 124.362H267.26V162.612Z" fill="#D9D9D9" stroke="#B5B5B5"/>
<path d="M267.26 221.996H312.55V191.248H286.269L283.594 183.746H267.26V221.996Z" fill="#D9D9D9" stroke="#B5B5B5"/>
<path d="M267.26 281.379H312.55V250.631H286.269L283.594 243.117H267.26V281.379Z" fill="#D9D9D9" stroke="#B5B5B5"/>
<path d="M330.189 162.612H375.492V131.864H349.199L346.523 124.362H330.189V162.612Z" fill="#D9D9D9" stroke="#B5B5B5"/>
<path d="M330.189 221.996H375.492V191.248H349.199L346.523 183.746H330.189V221.996Z" fill="#D9D9D9" stroke="#B5B5B5"/>
<path d="M330.189 281.379H375.492V250.631H349.199L346.523 243.117H330.189V281.379Z" fill="#D9D9D9" stroke="#B5B5B5"/>
<path d="M393.132 162.612H438.422V131.864H412.128L409.466 124.362H393.132V162.612Z" fill="#D9D9D9" stroke="#B5B5B5"/>
<path d="M393.132 221.996H438.422V191.248H412.128L409.466 183.746H393.132V221.996Z" fill="#D9D9D9" stroke="#B5B5B5"/>
<path d="M393.132 281.379H438.422V250.631H412.128L409.466 243.117H393.132V281.379Z" fill="#D9D9D9" stroke="#B5B5B5"/>
<path d="M456.062 162.612H501.364V131.864H475.071L472.396 124.362H456.062V162.612Z" fill="#D9D9D9" stroke="#B5B5B5"/>
<path d="M456.062 221.996H501.364V191.248H475.071L472.396 183.746H456.062V221.996Z" fill="#D9D9D9" stroke="#B5B5B5"/>
<path d="M456.062 281.379H501.364V250.631H475.071L472.396 243.117H456.062V281.379Z" fill="#D9D9D9" stroke="#B5B5B5"/>
<rect opacity="0.3" x="231.802" y="118.717" width="163.213" height="144.011" fill="black"/>
<rect x="235.898" y="111.357" width="163.213" height="144.011" fill="white" stroke="#263238" stroke-linecap="round" stroke-linejoin="round"/>
<rect x="235.898" y="111.357" width="163.213" height="10.292" fill="#263238" stroke="#263238" stroke-linecap="round" stroke-linejoin="round"/>
<path d="M307.302 173.032V157.85C307.302 152.102 311.961 147.443 317.709 147.443C323.457 147.443 328.116 152.102 328.116 157.85V166.721H332.264V157.85C332.264 149.812 325.747 143.295 317.709 143.295C309.671 143.295 303.154 149.812 303.154 157.85L303.154 173.032H307.302Z" fill="white" stroke="#263238" stroke-linecap="round" stroke-linejoin="round"/>
<rect x="301.605" y="171.547" width="31.7848" height="26.2932" fill="#92E3A9" stroke="#263238" stroke-linecap="round" stroke-linejoin="round"/>
<line x1="337.664" y1="161.249" x2="339.324" y2="157.455" stroke="#263238" stroke-linecap="round" stroke-linejoin="round"/>
<line x1="338.716" y1="166.989" x2="345.371" y2="166.989" stroke="#263238" stroke-linecap="round" stroke-linejoin="round"/>
<line x1="338.04" y1="172.813" x2="341.479" y2="176.498" stroke="#263238" stroke-linecap="round" stroke-linejoin="round"/>
<path d="M320.807 182.466C320.84 180.763 319.631 179.287 317.955 178.984C316.278 178.682 314.629 179.642 314.065 181.25C313.501 182.858 314.188 184.637 315.687 185.449L315.111 191.427H319.553L318.977 185.449C320.096 184.875 320.802 183.724 320.807 182.466Z" fill="#263238" stroke="#263238" stroke-linecap="round" stroke-linejoin="round"/>
<path d="M255.471 212.555C255.471 210.345 257.262 208.555 259.471 208.555H375.525C377.734 208.555 379.525 210.345 379.525 212.555V226.943C379.525 229.153 377.734 230.943 375.525 230.943H259.471C257.262 230.943 255.471 229.153 255.471 226.943V212.555Z" fill="white" stroke="#263238" stroke-linecap="round" stroke-linejoin="round"/>
<path d="M267.517 220.459C267.16 220.394 266.853 220.171 266.679 219.853C266.505 219.536 266.484 219.156 266.621 218.821L266.685 218.655C266.788 218.322 267.031 218.05 267.35 217.91C267.67 217.77 268.034 217.776 268.349 217.925C269.393 218.327 270.385 218.851 271.306 219.487C270.979 218.379 270.79 217.235 270.743 216.082C270.721 215.729 270.847 215.383 271.089 215.126C271.332 214.869 271.669 214.724 272.023 214.725H272.202C272.555 214.724 272.893 214.869 273.135 215.126C273.378 215.383 273.503 215.729 273.482 216.082C273.433 217.234 273.248 218.377 272.932 219.487C273.854 218.862 274.841 218.338 275.876 217.925C276.194 217.772 276.563 217.768 276.884 217.913C277.206 218.059 277.446 218.34 277.54 218.68L277.54 218.795C277.692 219.129 277.681 219.515 277.511 219.84C277.341 220.165 277.031 220.394 276.669 220.459C275.595 220.747 274.491 220.91 273.38 220.946C274.29 221.615 275.115 222.394 275.837 223.263C276.051 223.529 276.149 223.869 276.111 224.208C276.072 224.547 275.9 224.856 275.633 225.068L275.492 225.183C275.213 225.419 274.842 225.516 274.484 225.446C274.126 225.377 273.818 225.148 273.648 224.825C273.033 223.88 272.522 222.871 272.125 221.816C271.706 222.869 271.183 223.876 270.563 224.825C270.394 225.148 270.086 225.377 269.728 225.446C269.369 225.516 268.999 225.419 268.72 225.183L268.592 225.068C268.323 224.858 268.148 224.55 268.107 224.211C268.066 223.872 268.162 223.531 268.374 223.263C269.113 222.393 269.941 221.604 270.845 220.907C269.721 220.901 268.602 220.751 267.517 220.459Z" fill="#263238"/>
<path d="M280.496 220.459C280.14 220.394 279.832 220.171 279.658 219.853C279.484 219.536 279.463 219.156 279.6 218.821L279.664 218.655C279.768 218.322 280.011 218.05 280.33 217.91C280.649 217.77 281.013 217.776 281.328 217.925C282.372 218.327 283.365 218.851 284.285 219.487C283.959 218.379 283.769 217.235 283.722 216.082C283.701 215.729 283.826 215.383 284.069 215.126C284.311 214.869 284.649 214.724 285.002 214.725H285.105C285.458 214.724 285.796 214.869 286.038 215.126C286.28 215.383 286.406 215.729 286.385 216.082C286.336 217.234 286.151 218.377 285.834 219.487C286.757 218.862 287.744 218.338 288.778 217.925C289.101 217.797 289.461 217.805 289.777 217.947C290.093 218.09 290.338 218.354 290.455 218.68V218.795C290.607 219.129 290.597 219.515 290.427 219.84C290.257 220.165 289.946 220.394 289.585 220.459C288.511 220.747 287.407 220.91 286.295 220.946C287.205 221.615 288.031 222.394 288.753 223.263C288.966 223.529 289.065 223.869 289.026 224.208C288.988 224.547 288.816 224.856 288.548 225.068L288.407 225.183C288.131 225.419 287.762 225.516 287.405 225.446C287.049 225.376 286.744 225.147 286.577 224.825C285.952 223.884 285.436 222.874 285.041 221.816C284.622 222.869 284.098 223.876 283.479 224.825C283.309 225.148 283.002 225.377 282.643 225.446C282.285 225.516 281.914 225.419 281.635 225.183L281.508 225.068C281.238 224.858 281.064 224.55 281.023 224.211C280.982 223.872 281.078 223.531 281.29 223.263C282.029 222.393 282.857 221.604 283.76 220.907C282.658 220.896 281.561 220.745 280.496 220.459Z" fill="#263238"/>
<path d="M293.476 220.459C293.134 220.371 292.843 220.145 292.674 219.834C292.504 219.524 292.47 219.157 292.58 218.821V218.655C292.684 218.322 292.927 218.05 293.246 217.91C293.565 217.77 293.93 217.776 294.245 217.925C295.288 218.327 296.281 218.851 297.202 219.487C296.879 218.378 296.694 217.235 296.651 216.082C296.63 215.729 296.755 215.383 296.998 215.126C297.24 214.869 297.578 214.724 297.931 214.725H298.11C298.464 214.724 298.802 214.869 299.044 215.126C299.286 215.383 299.412 215.729 299.391 216.082C299.342 217.234 299.157 218.377 298.84 219.487C299.763 218.862 300.75 218.338 301.784 217.925C302.107 217.797 302.467 217.805 302.783 217.947C303.099 218.09 303.344 218.354 303.461 218.68L303.461 218.795C303.613 219.128 303.604 219.511 303.437 219.836C303.27 220.161 302.962 220.39 302.604 220.459C301.525 220.746 300.417 220.909 299.301 220.946C300.211 221.615 301.037 222.393 301.759 223.263C301.972 223.529 302.07 223.869 302.032 224.208C301.994 224.547 301.822 224.856 301.554 225.068L301.413 225.183C301.137 225.419 300.768 225.516 300.411 225.446C300.055 225.376 299.75 225.147 299.583 224.825C298.962 223.881 298.447 222.872 298.046 221.816C297.628 222.869 297.104 223.876 296.485 224.825C296.318 225.147 296.013 225.376 295.656 225.446C295.3 225.516 294.931 225.419 294.654 225.183L294.513 225.068C294.244 224.858 294.069 224.55 294.029 224.211C293.988 223.872 294.084 223.531 294.296 223.263C295.035 222.393 295.863 221.604 296.766 220.908C295.655 220.898 294.55 220.748 293.476 220.459Z" fill="#263238"/>
<path d="M306.457 220.459C306.114 220.371 305.824 220.145 305.654 219.834C305.484 219.524 305.451 219.157 305.561 218.821V218.655C305.665 218.322 305.907 218.05 306.227 217.91C306.546 217.77 306.91 217.776 307.225 217.925C308.269 218.327 309.261 218.851 310.182 219.487C309.865 218.377 309.68 217.234 309.632 216.082C309.61 215.729 309.736 215.383 309.978 215.126C310.221 214.869 310.558 214.724 310.912 214.725H311.091C311.444 214.724 311.782 214.869 312.024 215.126C312.267 215.383 312.392 215.729 312.371 216.082C312.322 217.234 312.137 218.377 311.821 219.487C312.743 218.862 313.73 218.338 314.765 217.925C315.087 217.797 315.447 217.805 315.763 217.947C316.079 218.09 316.324 218.354 316.442 218.68V218.795C316.594 219.128 316.585 219.511 316.417 219.836C316.25 220.16 315.943 220.39 315.584 220.459C314.505 220.746 313.397 220.909 312.281 220.946C313.192 221.615 314.017 222.393 314.739 223.263C314.953 223.529 315.051 223.869 315.012 224.208C314.974 224.547 314.802 224.856 314.534 225.068L314.394 225.183C314.117 225.419 313.748 225.516 313.392 225.446C313.035 225.376 312.73 225.147 312.563 224.825C311.943 223.881 311.428 222.872 311.027 221.816C310.596 222.87 310.06 223.878 309.427 224.825C309.26 225.147 308.955 225.376 308.598 225.446C308.242 225.516 307.873 225.419 307.596 225.183L307.455 225.068C307.186 224.858 307.011 224.55 306.971 224.211C306.93 223.872 307.026 223.531 307.238 223.263C307.977 222.393 308.805 221.604 309.708 220.907C308.61 220.895 307.518 220.744 306.457 220.459Z" fill="#263238"/>
<path d="M319.437 220.459C319.095 220.371 318.804 220.145 318.635 219.834C318.465 219.524 318.431 219.157 318.541 218.821L318.605 218.655C318.728 218.333 318.975 218.075 319.29 217.937C319.606 217.8 319.963 217.796 320.282 217.925C321.321 218.33 322.309 218.854 323.226 219.487C322.91 218.377 322.725 217.234 322.676 216.082C322.655 215.729 322.78 215.383 323.023 215.126C323.265 214.869 323.603 214.724 323.956 214.725H324.135C324.489 214.724 324.826 214.869 325.069 215.126C325.311 215.383 325.437 215.729 325.415 216.082C325.367 217.234 325.182 218.377 324.865 219.487C325.788 218.862 326.775 218.338 327.809 217.925C328.131 217.797 328.492 217.805 328.808 217.947C329.124 218.09 329.369 218.354 329.486 218.68L329.486 218.795C329.638 219.128 329.629 219.511 329.462 219.836C329.294 220.161 328.987 220.39 328.629 220.459C327.55 220.746 326.442 220.909 325.326 220.946C326.236 221.615 327.062 222.394 327.784 223.263C327.997 223.529 328.095 223.869 328.057 224.208C328.018 224.547 327.846 224.856 327.579 225.068L327.438 225.183C327.162 225.419 326.793 225.516 326.436 225.446C326.08 225.376 325.774 225.147 325.608 224.825C324.987 223.881 324.472 222.872 324.071 221.816C323.652 222.869 323.129 223.876 322.51 224.825C322.343 225.147 322.038 225.376 321.681 225.446C321.324 225.516 320.955 225.419 320.679 225.183L320.538 225.068C320.251 224.87 320.064 224.558 320.024 224.212C319.985 223.866 320.098 223.52 320.333 223.263C321.064 222.39 321.888 221.6 322.791 220.908C321.659 220.904 320.531 220.753 319.437 220.459Z" fill="#263238"/>
<path d="M332.469 220.459C332.126 220.371 331.836 220.145 331.666 219.834C331.496 219.524 331.462 219.157 331.573 218.821L331.637 218.655C331.759 218.333 332.006 218.075 332.322 217.937C332.637 217.8 332.995 217.796 333.314 217.925C334.352 218.33 335.34 218.854 336.258 219.487C335.941 218.377 335.756 217.234 335.707 216.082C335.686 215.729 335.812 215.383 336.054 215.126C336.296 214.869 336.634 214.724 336.987 214.725H337.167C337.52 214.724 337.858 214.869 338.1 215.126C338.342 215.383 338.468 215.729 338.447 216.082C338.398 217.234 338.213 218.377 337.896 219.487C338.822 218.859 339.813 218.335 340.853 217.925C341.172 217.776 341.539 217.775 341.859 217.92C342.179 218.065 342.42 218.343 342.517 218.68V218.795C342.669 219.128 342.66 219.511 342.493 219.836C342.326 220.161 342.018 220.39 341.66 220.459C340.581 220.747 339.473 220.91 338.357 220.946C339.268 221.619 340.098 222.397 340.828 223.263C341.04 223.531 341.136 223.872 341.095 224.211C341.054 224.55 340.879 224.858 340.61 225.068L340.469 225.183C340.193 225.419 339.824 225.516 339.467 225.446C339.111 225.376 338.806 225.147 338.639 224.825C338.019 223.881 337.503 222.872 337.103 221.816C336.684 222.869 336.16 223.876 335.541 224.825C335.374 225.147 335.069 225.376 334.712 225.446C334.356 225.516 333.987 225.419 333.71 225.183L333.57 225.068C333.282 224.87 333.095 224.558 333.056 224.212C333.016 223.866 333.129 223.52 333.365 223.263C334.095 222.39 334.92 221.6 335.823 220.907C334.69 220.904 333.563 220.753 332.469 220.459Z" fill="#263238"/>
<path d="M345.41 220.459C345.065 220.374 344.772 220.149 344.599 219.838C344.427 219.527 344.391 219.159 344.501 218.821L344.565 218.655C344.688 218.333 344.935 218.075 345.25 217.937C345.566 217.8 345.923 217.796 346.242 217.925C347.281 218.33 348.268 218.854 349.186 219.487C348.87 218.377 348.685 217.234 348.636 216.082C348.615 215.729 348.74 215.383 348.983 215.126C349.225 214.869 349.563 214.724 349.916 214.725H350.095C350.449 214.724 350.786 214.869 351.029 215.126C351.271 215.383 351.397 215.729 351.375 216.082C351.328 217.235 351.139 218.379 350.812 219.487C351.738 218.859 352.729 218.335 353.769 217.925C354.088 217.776 354.455 217.775 354.775 217.92C355.095 218.065 355.335 218.343 355.433 218.68V218.795C355.585 219.129 355.575 219.515 355.405 219.84C355.234 220.165 354.924 220.394 354.563 220.459C353.484 220.747 352.376 220.91 351.26 220.946C352.172 221.619 353.001 222.397 353.731 223.263C353.943 223.531 354.039 223.872 353.998 224.211C353.957 224.55 353.783 224.858 353.513 225.068L353.385 225.183C353.107 225.419 352.736 225.516 352.377 225.446C352.019 225.377 351.712 225.148 351.542 224.825C350.921 223.883 350.41 222.874 350.018 221.816C349.596 222.869 349.068 223.877 348.444 224.825C348.277 225.147 347.972 225.376 347.615 225.446C347.259 225.516 346.89 225.419 346.613 225.183L346.473 225.068C346.186 224.87 345.998 224.558 345.959 224.212C345.92 223.866 346.032 223.52 346.268 223.263C346.998 222.39 347.823 221.6 348.726 220.907C347.606 220.902 346.491 220.752 345.41 220.459Z" fill="#263238"/>
<path d="M358.391 220.459C358.046 220.374 357.752 220.149 357.58 219.838C357.407 219.527 357.372 219.159 357.482 218.821V218.655C357.604 218.333 357.851 218.075 358.167 217.937C358.482 217.8 358.84 217.796 359.159 217.925C360.197 218.33 361.185 218.854 362.103 219.487C361.786 218.377 361.601 217.234 361.552 216.082C361.531 215.729 361.657 215.383 361.899 215.126C362.142 214.869 362.479 214.724 362.833 214.725H363.012C363.365 214.724 363.703 214.869 363.945 215.126C364.188 215.383 364.313 215.729 364.292 216.082C364.244 217.235 364.055 218.379 363.729 219.487C364.654 218.859 365.646 218.335 366.686 217.925C367.004 217.776 367.371 217.775 367.691 217.92C368.011 218.065 368.252 218.343 368.35 218.68V218.795C368.502 219.129 368.491 219.515 368.321 219.84C368.151 220.165 367.84 220.394 367.479 220.459C366.401 220.747 365.293 220.91 364.177 220.946C365.088 221.619 365.917 222.397 366.647 223.263C366.859 223.531 366.955 223.872 366.914 224.211C366.874 224.55 366.699 224.858 366.43 225.068L366.289 225.183C366.013 225.419 365.644 225.516 365.287 225.446C364.93 225.376 364.625 225.147 364.458 224.825C363.838 223.883 363.327 222.874 362.935 221.816C362.512 222.869 361.985 223.877 361.36 224.825C361.194 225.147 360.888 225.376 360.532 225.446C360.175 225.516 359.806 225.419 359.53 225.183L359.389 225.068C359.102 224.87 358.915 224.558 358.875 224.212C358.836 223.866 358.949 223.52 359.184 223.263C359.915 222.39 360.739 221.6 361.642 220.907C360.544 220.897 359.451 220.746 358.391 220.459Z" fill="#263238"/>
<path d="M154.984 546.897H159.4C160.005 546.898 160.505 546.426 160.539 545.822L164.047 509.288H150.35L153.844 545.822C153.884 546.423 154.381 546.892 154.984 546.897Z" fill="white" stroke="#263238" stroke-linecap="round" stroke-linejoin="round"/>
<path d="M112.292 546.897H116.709C117.311 546.892 117.808 546.423 117.848 545.822L121.343 509.288H107.646L111.153 545.822C111.187 546.426 111.687 546.898 112.292 546.897Z" fill="white" stroke="#263238" stroke-linecap="round" stroke-linejoin="round"/>
<path d="M181.865 546.897H186.282C186.887 546.898 187.387 546.426 187.421 545.822L190.928 509.288H177.231L180.726 545.822C180.766 546.423 181.263 546.892 181.865 546.897Z" fill="white" stroke="#263238" stroke-linecap="round" stroke-linejoin="round"/>
<path d="M226.221 546.897H230.637C231.24 546.892 231.736 546.423 231.777 545.822L235.271 509.288H221.574L225.082 545.822C225.116 546.426 225.616 546.898 226.221 546.897Z" fill="white" stroke="#263238" stroke-linecap="round" stroke-linejoin="round"/>
<path d="M161.653 510.786H249.366C249.366 510.786 258.326 480.831 265.316 451.901C272.305 422.971 280.267 386.616 271.793 379.128C263.319 371.639 240.891 384.619 223.943 388.088C206.994 391.557 203.461 387.589 192.056 375.633C180.65 363.677 170.627 344.232 151.182 331.777C131.737 319.321 117.298 317.324 103.818 325.799C95.2524 333.887 90.0814 344.929 89.3533 356.688C88.3676 376.132 93.8464 400.556 100.874 414.01C107.902 427.464 161.653 510.786 161.653 510.786Z" fill="white" stroke="#263238" stroke-linecap="round" stroke-linejoin="round"/>
<path d="M149.325 455.946H244.052C244.052 455.946 261.116 438.883 263.676 397.919" stroke="#263238" stroke-linecap="round" stroke-linejoin="round"/>
<path d="M215.545 290.302L204.818 296.856C204.818 296.856 212.268 337.678 210.489 359.133C208.71 380.587 199.762 401.145 199.762 401.145H228.654C228.654 401.145 239.381 375.544 244.156 357.622C248.93 339.701 240.584 297.726 240.584 297.726L215.545 290.302Z" fill="#757575" stroke="#263238" stroke-linecap="round" stroke-linejoin="round"/>
<path d="M334.466 399.11C334.466 399.11 340.623 397.151 342.274 397.164C343.926 397.177 349.289 401.376 349.289 401.376C349.289 401.376 349.507 402.912 348.291 403.232C347.075 403.552 342.914 400.672 342.914 400.672L335.989 402.72L334.466 399.11Z" fill="#D9D9D9" stroke="#263238" stroke-linecap="round" stroke-linejoin="round"/>
<path d="M335.132 395.206C337.797 395.578 340.429 396.155 343.005 396.934C344.477 397.663 347.421 403.808 347.421 403.808C347.421 403.808 346.934 405.28 345.706 405.088C344.477 404.896 342.019 400.416 342.019 400.416L334.889 399.135L335.132 395.206Z" fill="#D9D9D9" stroke="#263238" stroke-linecap="round" stroke-linejoin="round"/>
<path d="M328.411 393.222L336.527 395.193L341.647 398.637L344.591 405.754C344.003 406.323 343.189 406.595 342.377 406.496C341.097 406.253 335.976 400.595 335.976 400.595L328.629 395.923L326.171 393.222H328.411Z" fill="#D9D9D9" stroke="#263238" stroke-linecap="round" stroke-linejoin="round"/>
<path d="M310.707 391.02C310.707 391.02 323.24 391.506 325.94 391.506C328.641 391.506 335.772 397.151 337.001 397.651C338.229 398.15 343.401 405.51 343.401 405.51C343.401 405.51 343.644 405.51 341.929 406.01C340.214 406.509 337.5 404.73 337.5 404.73L334.069 400.544L325.71 399.072C325.71 399.072 331.855 402.272 333.327 402.758C334.799 403.245 335.785 404.973 335.298 405.959C334.812 406.944 327.387 403.757 327.387 403.757C325.576 404.615 323.476 404.615 321.665 403.757C318.708 402.285 318.324 402.246 315.201 400.8C312.077 399.353 305.805 395.679 305.805 395.679L310.707 391.02Z" fill="#D9D9D9" stroke="#263238" stroke-linecap="round" stroke-linejoin="round"/>
<path d="M246.831 303.41C246.831 303.41 251.605 304.306 252.796 306.982C253.986 309.657 261.757 370.462 261.757 370.462L312.961 389.177L311.975 407.098C311.975 407.098 251.337 399.661 247.164 400.557C242.99 401.453 232.852 402.643 228.679 399.353C224.506 396.064 240.302 382.405 243.195 369.758C250.031 339.893 249.173 319.411 249.173 319.411C249.173 319.411 240.878 299.839 246.831 303.41Z" fill="#92E3A9" stroke="#263238" stroke-linecap="round" stroke-linejoin="round"/>
<path d="M253.398 338.267C253.398 338.267 245.948 368.068 242.671 376.119C239.393 384.171 232.827 397.574 232.827 397.574L225.684 398.764C225.684 398.764 240.584 366.583 243.259 353.769C245.935 340.955 239.982 308.479 239.688 307.289C239.393 306.098 241.774 298.648 246.242 300.133" fill="#92E3A9"/>
<path d="M253.398 338.267C253.398 338.267 245.948 368.068 242.671 376.119C239.393 384.171 232.827 397.574 232.827 397.574L225.684 398.764C225.684 398.764 240.584 366.583 243.259 353.769C245.935 340.955 239.982 308.479 239.688 307.289C239.393 306.098 241.774 298.648 246.242 300.133" stroke="#263238" stroke-linecap="round" stroke-linejoin="round"/>
<path d="M239.982 329.933L231.341 351.682L222.099 328.436L233.133 319.795L239.982 329.933Z" fill="white" stroke="#263238" stroke-linecap="round" stroke-linejoin="round"/>
<path d="M242.069 312.345L245.346 337.678L231.342 326.951L242.069 312.345Z" fill="white" stroke="#263238" stroke-linecap="round" stroke-linejoin="round"/>
<path d="M281.111 267.286C281.111 267.286 280.804 284.106 279.435 286.487C278.065 288.868 275.172 292.414 275.044 295.627C274.916 298.84 278.756 305.778 276.452 308.006C274.958 309.323 272.881 309.756 270.986 309.145C270.986 309.145 263.497 318.106 259.311 320.179C255.125 322.253 243.95 316.339 243.95 316.339L232.801 327.86L212.242 290.609L224.019 282.685C224.019 282.685 228.563 259.272 243.144 254.344C257.724 249.415 278.833 261.384 281.111 267.286Z" fill="#D9D9D9" stroke="#263238" stroke-linecap="round" stroke-linejoin="round"/>
<path d="M240.047 288.484C240.047 288.484 235.541 297.893 239.406 303.845" stroke="#263238" stroke-linecap="round" stroke-linejoin="round"/>
<path d="M268.784 291.326C268.221 292.606 268.247 293.886 268.848 294.116C269.45 294.347 270.397 293.566 270.961 292.286C271.524 291.006 271.511 289.726 270.961 289.495C270.41 289.265 269.36 290.046 268.784 291.326Z" fill="#263238"/>
<path d="M266.045 309.861C266.045 309.861 261.539 308.953 261.539 305.355" stroke="#263238" stroke-linecap="round" stroke-linejoin="round"/>
<line x1="266.444" y1="292.419" x2="269.007" y2="294.754" stroke="#263238" stroke-linecap="round" stroke-linejoin="round"/>
<path d="M274.865 286.397C274.865 286.397 274.699 281.981 267.543 283.837" stroke="#263238" stroke-linecap="round" stroke-linejoin="round"/>
<path d="M290.93 254.689C287.781 255.035 284.644 257.48 283.595 255.381C282.545 253.281 283.249 245.601 278.001 244.909C272.752 244.218 273.111 246.65 271.37 247.009C269.629 247.367 267.529 239.328 260.899 240.365C254.268 241.402 250.094 244.205 249.723 245.588C238.279 245.498 231.239 250.158 226.195 259.502C220.652 269.743 224.044 282.672 224.044 282.672C224.044 282.672 218.822 286.717 222.995 287.908C227.168 289.098 240.046 288.484 240.046 288.484L238.689 287.882C237.319 287.281 235.117 282.762 239.623 276.233C244.129 269.705 247.189 275.35 247.585 278.141C247.982 280.931 248.213 283.261 249.851 284.042C251.49 284.823 252.603 282.979 253.026 280.56C253.448 278.141 258.377 278 261.987 276.413C265.596 274.825 262.179 271.612 259.145 266.671C256.111 261.73 263.804 260.591 270.947 265.071C275.069 267.631 277.22 269.039 279.255 269.295L279.358 269.359C279.358 269.359 282.839 272.15 285.643 269.705C288.446 267.26 290.174 266.914 292.619 264.111C295.064 261.307 294.066 254.395 290.93 254.689Z" fill="#263238" stroke="#263238" stroke-linecap="round" stroke-linejoin="round"/>
<path d="M213.42 288.51L233.095 326.656L220.576 339.765C220.576 339.765 209.848 310.86 208.658 303.704C207.467 296.548 206.571 291.492 206.571 291.492L213.42 288.51Z" fill="white" stroke="#263238" stroke-linecap="round" stroke-linejoin="round"/>
<path d="M224.851 396.217C224.851 396.217 282.456 393.222 289.714 396.217C296.972 399.213 298.675 406.88 297.817 414.561C296.959 422.242 292.697 467.467 290.994 480.268C289.292 493.069 288.434 508.866 289.714 511.848C290.994 514.831 294.834 519.951 293.554 522.947C292.274 525.942 290.136 527.21 290.136 528.49C290.427 529.747 291.011 530.918 291.839 531.908C291.839 531.908 307.635 538.73 313.178 540.868C318.721 543.006 319.156 544.709 317.876 545.553C316.596 546.398 290.136 545.553 285.438 545.553C280.741 545.553 271.793 542.571 271.793 542.571V544.709H260.272V536.593C260.272 534.014 260.413 531.45 260.696 528.899C260.694 528.912 258.556 523.369 258.992 521.232C259.427 519.094 261.974 514.409 262.832 510.146C263.69 505.883 262.832 499.905 262.397 495.207C262.056 491.79 262.203 488.342 262.832 484.966C263.254 482.406 260.272 435.9 260.272 435.9C260.272 435.9 226.554 446.141 223.149 446.563C219.744 446.986 191.991 457.227 180.47 454.244C168.95 451.261 185.168 414.983 197.969 402.618C210.77 390.252 224.851 396.217 224.851 396.217Z" fill="#263238" stroke="#263238" stroke-linecap="round" stroke-linejoin="round"/>
<path d="M201.387 391.941C201.387 391.941 239.355 394.937 243.63 399.199C247.906 403.462 246.613 412 246.613 417.543C246.613 423.086 241.493 496.909 241.07 501.185C240.648 505.46 245.333 509.71 243.63 512.706C242.248 515.058 241.376 517.675 241.07 520.386C241.07 521.666 252.591 531.05 257.276 533.61C261.961 536.17 275.198 539.153 277.335 541.29C279.473 543.428 279.038 545.131 275.198 546.411C271.357 547.691 239.355 546.411 239.355 546.411C239.355 546.411 234.67 546.411 232.954 545.131C232.05 544.419 231.045 543.845 229.972 543.428L229.549 546.257H212.908C212.065 541.644 211.492 536.985 211.193 532.304C211.342 528.722 211.77 525.157 212.473 521.641C210.998 519.357 210.257 516.677 210.348 513.96C210.77 510.12 213.753 508.405 213.753 505.844C213.753 503.284 211.193 495.604 211.628 490.919C212.063 486.233 212.473 480.678 212.473 480.678L208.632 443.12C208.632 443.12 183.03 457.201 170.665 455.921C158.299 454.641 154.868 452.938 151.463 446.96C148.058 440.982 148.045 415.815 153.588 405.997C159.131 396.178 189.866 387.256 201.387 391.941Z" fill="#263238" stroke="#263238" stroke-linecap="round" stroke-linejoin="round"/>
<path d="M206.61 291.518C206.61 291.518 215.57 313.868 216.441 327.271C217.311 340.673 216.146 371.972 212.869 380.907C209.592 389.842 208.095 395.513 208.095 395.513C208.095 395.513 178.307 399.98 174.428 401.465C170.549 402.95 162.51 414.586 161.013 424.417C160.59 427.246 160.283 430.306 160.065 433.224C159.647 439.901 160.151 446.604 161.563 453.143C161.806 454.423 161.857 455.396 161.486 455.767C160.296 456.957 144.333 449.738 138.969 431.266C133.606 412.794 136.281 391.045 141.056 380.907C145.831 370.768 164.29 310.284 172.342 302.245C180.393 294.206 206.61 291.518 206.61 291.518Z" fill="#92E3A9" stroke="#263238" stroke-linecap="round" stroke-linejoin="round"/>
<path d="M307.418 398.841C307.418 398.841 318.683 400.301 321.589 401.03C323.517 401.627 325.215 402.803 326.453 404.397L325.365 405.408L317.224 402.323L307.418 398.841Z" fill="#D9D9D9" stroke="#263238" stroke-linecap="round" stroke-linejoin="round"/>
<path d="M311.987 400.633C311.987 400.633 318.861 401.056 319.668 401.913C320.474 402.771 324.161 408.928 324.161 408.928L322.484 410.055L317.85 405.703L311.987 402.464V400.633Z" fill="#D9D9D9" stroke="#263238" stroke-linecap="round" stroke-linejoin="round"/>
<path d="M299.391 398.099C299.391 398.099 312.192 399.187 314.688 400.659C317.184 402.131 320.449 408.659 320.449 408.659L318.631 409.376L312.461 403.206L297.215 400.646L299.391 398.099Z" fill="#D9D9D9" stroke="#263238" stroke-linecap="round" stroke-linejoin="round"/>
<path d="M298.828 404.563C298.828 404.563 302.348 406.394 304.166 406.394C305.984 406.394 311.744 404.422 311.744 404.422C309.5 403.448 307.205 402.593 304.87 401.862C303.744 401.76 298.828 404.563 298.828 404.563Z" fill="#D9D9D9" stroke="#263238" stroke-linecap="round" stroke-linejoin="round"/>
<path d="M283.825 392.287C283.825 392.287 299.071 395.923 300.889 397.011C302.707 398.099 311.424 402.451 312.512 403.181C313.6 403.91 316.877 409.722 316.877 409.722C316.877 409.722 314.689 412.282 313.972 410.439C312.872 408.563 311.529 406.841 309.978 405.318L303.436 403.142C301.029 404.27 298.414 404.889 295.756 404.96C291.762 404.96 287.461 401.017 287.461 401.017L280.139 402.886L283.825 392.287Z" fill="#D9D9D9" stroke="#263238" stroke-linecap="round" stroke-linejoin="round"/>
<path d="M193.527 307.186C193.527 307.186 202.577 315.084 203.32 323.994C204.062 332.903 203.96 336.487 204.024 337.985C204.088 339.483 209.4 378.615 209.4 378.615L285.477 390.943L284.017 407.84L197.329 406.176C197.329 406.176 191.415 407.367 188.215 403.053C185.015 398.739 166.453 333.313 166.453 333.313" fill="#92E3A9"/>
<path d="M193.527 307.186C193.527 307.186 202.577 315.084 203.32 323.994C204.062 332.903 203.96 336.487 204.024 337.985C204.088 339.483 209.4 378.615 209.4 378.615L285.477 390.943L284.017 407.84L197.329 406.176C197.329 406.176 191.415 407.367 188.215 403.053C185.015 398.739 166.453 333.313 166.453 333.313" stroke="#263238" stroke-linecap="round" stroke-linejoin="round"/>
<path d="M194.488 384.568C193.638 385.298 192.87 386.118 192.196 387.013" stroke="#263238" stroke-linecap="round" stroke-linejoin="round"/>
<path d="M208.3 379.934C204.559 379.924 200.87 380.801 197.534 382.494" stroke="#263238" stroke-linecap="round" stroke-linejoin="round"/>
<path d="M203.038 383.186C203.038 383.186 195.703 385.643 194.18 390.789" stroke="#263238" stroke-linecap="round" stroke-linejoin="round"/>
<path d="M161.653 510.786C161.653 510.786 160.155 457.406 146.701 422.459C133.247 387.513 125.272 383.083 119.819 384.581C114.366 386.079 106.365 395.539 101.386 389.061C96.4062 382.584 88.9305 364.637 91.9131 348.687C94.8957 332.737 100.874 329.754 103.882 325.773C106.89 321.792 90.9146 331.252 83.9381 341.711C76.9615 352.169 76.9615 377.553 80.9554 404.013C84.9493 430.473 94.9085 505.243 98.3904 508.226C101.872 511.208 110.359 511.221 110.359 511.221H156.212L161.653 510.786Z" fill="white" stroke="#263238" stroke-linecap="round" stroke-linejoin="round"/>
<rect x="293.183" y="406.15" width="117.129" height="5.12039" fill="white" stroke="#263238" stroke-linecap="round" stroke-linejoin="round"/>
<rect x="353.578" y="406.15" width="56.734" height="5.12039" fill="#B2B2B2" stroke="#263238" stroke-linecap="round" stroke-linejoin="round"/>
<path d="M426.632 360.374H369.898L353.577 406.138H410.311L426.632 360.374Z" fill="#D9D9D9" stroke="#263238" stroke-linecap="round" stroke-linejoin="round"/>
<path d="M367.914 547H367.108C365.277 547 363.792 545.516 363.792 543.685V414.395H371.217V543.685C371.217 545.511 369.74 546.993 367.914 547Z" fill="#525252" stroke="#263238" stroke-linecap="round" stroke-linejoin="round"/>
<path d="M381.419 547H380.612C378.781 547 377.297 545.515 377.297 543.684L377.297 414.394H384.772V543.684C384.772 544.571 384.418 545.42 383.788 546.043C383.158 546.665 382.305 547.01 381.419 547Z" fill="#525252" stroke="#263238" stroke-linecap="round" stroke-linejoin="round"/>
<path d="M276.336 547H275.53C273.698 547 272.214 545.516 272.214 543.685V414.395H279.639V543.685C279.639 545.511 278.162 546.993 276.336 547Z" fill="#525252" stroke="#263238" stroke-linecap="round" stroke-linejoin="round"/>
<path d="M461.246 547H460.44C458.609 547 457.124 545.516 457.124 543.685L457.124 414.395H464.549V543.685C464.549 545.511 463.072 546.993 461.246 547Z" fill="#525252" stroke="#263238" stroke-linecap="round" stroke-linejoin="round"/>
<rect x="471.576" y="417.454" width="208.003" height="6.04206" transform="rotate(180 471.576 417.454)" fill="white" stroke="#263238" stroke-linecap="round" stroke-linejoin="round"/>
<rect x="471.576" y="481.497" width="208.003" height="6.04206" transform="rotate(180 471.576 481.497)" fill="white" stroke="#263238" stroke-linecap="round" stroke-linejoin="round"/>
<rect x="300.657" y="469.298" width="54.3146" height="6.05486" fill="white" stroke="#263238" stroke-linecap="round" stroke-linejoin="round"/>
<rect x="330.586" y="469.298" width="24.3987" height="6.05486" fill="white" stroke="#263238" stroke-linecap="round" stroke-linejoin="round"/>
<rect x="383.121" y="469.298" width="54.3146" height="6.05486" fill="white" stroke="#263238" stroke-linecap="round" stroke-linejoin="round"/>
<rect x="413.05" y="469.298" width="24.3987" height="6.05486" fill="white" stroke="#263238" stroke-linecap="round" stroke-linejoin="round"/>
<rect x="296.178" y="462.961" width="54.3146" height="6.05486" fill="white" stroke="#263238" stroke-linecap="round" stroke-linejoin="round"/>
<rect x="326.093" y="462.961" width="24.3987" height="6.05486" fill="white" stroke="#263238" stroke-linecap="round" stroke-linejoin="round"/>
<line x1="13.3281" y1="546.474" x2="573.011" y2="546.474" stroke="#263238" stroke-linecap="round" stroke-linejoin="round"/>
</svg>
