<svg width="35" height="35" viewBox="0 0 35 35" fill="none" xmlns="http://www.w3.org/2000/svg">
<path d="M1.28906 5.81111C1.28906 3.43015 3.21921 1.5 5.60017 1.5H9.91128C12.2922 1.5 14.2224 3.43015 14.2224 5.81111V10.1222C14.2224 12.5032 12.2922 14.4333 9.91128 14.4333H5.60017C3.21921 14.4333 1.28906 12.5032 1.28906 10.1222V5.81111ZM1.28906 24.4926C1.28906 22.1116 3.21921 20.1815 5.60017 20.1815H9.91128C12.2922 20.1815 14.2224 22.1116 14.2224 24.4926V28.8037C14.2224 31.1847 12.2922 33.1148 9.91128 33.1148H5.60017C3.21921 33.1148 1.28906 31.1847 1.28906 28.8037V24.4926ZM19.9705 5.81111C19.9705 3.43015 21.9007 1.5 24.2816 1.5H28.5927C30.9737 1.5 32.9038 3.43015 32.9038 5.81111V10.1222C32.9038 12.5032 30.9737 14.4333 28.5927 14.4333H24.2816C21.9007 14.4333 19.9705 12.5032 19.9705 10.1222V5.81111ZM19.9705 24.4926C19.9705 22.1116 21.9007 20.1815 24.2816 20.1815H28.5927C30.9737 20.1815 32.9038 22.1116 32.9038 24.4926V28.8037C32.9038 31.1847 30.9737 33.1148 28.5927 33.1148H24.2816C21.9007 33.1148 19.9705 31.1847 19.9705 28.8037V24.4926Z" stroke="white" stroke-width="2.5" stroke-linecap="round" stroke-linejoin="round"/>
</svg>
