<svg width="20" height="20" viewBox="0 0 30 27" fill="none" xmlns="http://www.w3.org/2000/svg">
<path d="M7.9467 12.4616C9.0627 12.4616 10.0693 11.8441 10.7588 10.9663C11.8337 9.59496 13.1829 8.46313 14.7202 7.64318C15.7213 7.11149 16.5895 6.31949 17.009 5.26857C17.3037 4.5323 17.455 3.74653 17.4548 2.9535L17.4548 2.07703C17.4548 1.50351 17.9198 1.03857 18.4933 1.03857C20.2139 1.03857 21.6087 2.43338 21.6087 4.15396C21.6087 5.74903 21.2487 7.25965 20.6076 8.60965C20.2393 9.38226 20.7558 10.3847 21.6115 10.3847M21.6115 10.3847H25.9398C27.3604 10.3847 28.6328 11.3456 28.7838 12.7593C28.8461 13.3436 28.8779 13.9363 28.8779 14.5386C28.8836 18.3273 27.5889 22.0033 25.2101 24.9522C24.6728 25.6196 23.8435 25.9616 22.9878 25.9616H17.4272C16.7584 25.9616 16.0924 25.8536 15.4568 25.6432L11.1452 24.2032C10.5098 23.9919 9.84446 23.8843 9.17485 23.8847L6.93731 23.8847M21.6115 10.3847H18.4933H21.6115ZM6.93731 23.8847C7.05224 24.1686 7.17685 24.4455 7.31116 24.7182C7.58393 25.2721 7.20316 25.9616 6.58701 25.9616H5.32978C4.09885 25.9616 2.95793 25.2444 2.59932 24.0675C2.11975 22.4935 1.87664 20.857 1.87793 19.2116C1.87793 17.0613 2.28639 15.0079 3.02855 13.1221C3.45224 12.0504 4.53224 11.4232 5.68562 11.4232H7.14362C7.79716 11.4232 8.17516 12.193 7.83593 12.7524C6.65332 14.6991 6.02959 16.9339 6.03316 19.2116C6.03316 20.8649 6.35439 22.4419 6.9387 23.8847H6.93731Z" fill="#158B68"/>
<path d="M7.9467 12.4616C9.0627 12.4616 10.0693 11.8441 10.7588 10.9663C11.8337 9.59496 13.1829 8.46313 14.7202 7.64318C15.7213 7.11149 16.5895 6.31949 17.009 5.26857C17.3037 4.5323 17.455 3.74653 17.4548 2.9535L17.4548 2.07703C17.4548 1.50351 17.9198 1.03857 18.4933 1.03857C20.2139 1.03857 21.6087 2.43338 21.6087 4.15396C21.6087 5.74903 21.2487 7.25965 20.6076 8.60965C20.2393 9.38226 20.7558 10.3847 21.6115 10.3847M21.6115 10.3847H25.9398C27.3604 10.3847 28.6328 11.3456 28.7838 12.7593C28.8461 13.3436 28.8779 13.9363 28.8779 14.5386C28.8836 18.3273 27.5889 22.0033 25.2101 24.9522C24.6728 25.6196 23.8435 25.9616 22.9878 25.9616H17.4272C16.7584 25.9616 16.0924 25.8536 15.4568 25.6432L11.1452 24.2032C10.5098 23.9919 9.84446 23.8843 9.17485 23.8847L6.93731 23.8847M21.6115 10.3847H18.4933M6.93731 23.8847C7.05224 24.1686 7.17685 24.4455 7.31116 24.7182C7.58393 25.2721 7.20316 25.9616 6.58701 25.9616H5.32978C4.09885 25.9616 2.95793 25.2444 2.59932 24.0675C2.11975 22.4935 1.87664 20.857 1.87793 19.2116C1.87793 17.0613 2.28639 15.0079 3.02855 13.1221C3.45224 12.0504 4.53224 11.4232 5.68562 11.4232H7.14362C7.79716 11.4232 8.17516 12.193 7.83593 12.7524C6.65332 14.6991 6.02959 16.9339 6.03316 19.2116C6.03316 20.8649 6.35439 22.4419 6.9387 23.8847H6.93731Z" stroke="#158B68" stroke-width="2" stroke-linecap="round" stroke-linejoin="round"/>
</svg>