<svg width="39" height="8" viewBox="0 0 39 8" fill="none" xmlns="http://www.w3.org/2000/svg">
<path d="M5.91672 3.92723C5.91672 5.0088 5.03993 5.88559 3.95836 5.88559C2.87679 5.88559 2 5.0088 2 3.92723C2 2.84566 2.87679 1.96887 3.95836 1.96887C5.03993 1.96887 5.91672 2.84566 5.91672 3.92723ZM21.5836 3.92723C21.5836 5.0088 20.7068 5.88559 19.6252 5.88559C18.5437 5.88559 17.6669 5.0088 17.6669 3.92723C17.6669 2.84566 18.5437 1.96887 19.6252 1.96887C20.7068 1.96887 21.5836 2.84566 21.5836 3.92723ZM37.2505 3.92723C37.2505 5.0088 36.3737 5.88559 35.2921 5.88559C34.2106 5.88559 33.3338 5.0088 33.3338 3.92723C33.3338 2.84566 34.2106 1.96887 35.2921 1.96887C36.3737 1.96887 37.2505 2.84566 37.2505 3.92723Z" stroke="#22445D" stroke-width="2.5" stroke-linecap="round" stroke-linejoin="round"/>
</svg>
