<svg width="85" height="67" viewBox="0 0 85 67" fill="none" xmlns="http://www.w3.org/2000/svg">
<path d="M82.062 11.6802V54.521C82.062 59.5911 77.9519 63.7012 72.8818 63.7012H11.6807C6.61059 63.7012 2.50049 59.5911 2.50049 54.521V11.6802M82.062 11.6802C82.062 6.61011 77.9519 2.5 72.8818 2.5H11.6807C6.61059 2.5 2.50049 6.6101 2.50049 11.6802M82.062 11.6802V12.6716C82.062 15.8596 80.4091 18.8185 77.6955 20.4896L47.0957 39.3186C44.1436 41.137 40.4189 41.137 37.4668 39.3186L6.86617 20.4931C4.15266 18.8218 2.50014 15.8627 2.50049 12.6757V11.6802" stroke="#158B68" stroke-width="5" stroke-linecap="round" stroke-linejoin="round"/>
</svg>
