<svg width="150" height="86" viewBox="0 0 170 86" fill="none" xmlns="http://www.w3.org/2000/svg">
<path d="M0.5 43C0.5 19.5279 19.5279 0.5 43 0.5H127C150.472 0.5 169.5 19.5279 169.5 43C169.5 66.4721 150.472 85.5 127 85.5H43C19.5279 85.5 0.5 66.4721 0.5 43Z" fill="white" stroke="#158B68"/>
<path d="M33.0972 43H67.8734M33.0972 50.9037H67.8734M33.0972 58.8074H67.8734M37.049 27.1926H63.9216C66.1041 27.1926 67.8734 28.9619 67.8734 31.1444C67.8734 33.327 66.1041 35.0963 63.9216 35.0963H37.049C34.8665 35.0963 33.0972 33.327 33.0972 31.1444C33.0972 28.9619 34.8665 27.1926 37.049 27.1926Z" stroke="#158B68" stroke-width="2" stroke-linecap="round" stroke-linejoin="round"/>
<path d="M105.288 31.5037C105.288 29.1227 107.218 27.1926 109.599 27.1926H113.91C116.291 27.1926 118.221 29.1227 118.221 31.5037V35.8148C118.221 38.1958 116.291 40.1259 113.91 40.1259H109.599C107.218 40.1259 105.288 38.1958 105.288 35.8148V31.5037ZM105.288 50.1852C105.288 47.8042 107.218 45.8741 109.599 45.8741H113.91C116.291 45.8741 118.221 47.8042 118.221 50.1852V54.4963C118.221 56.8772 116.291 58.8074 113.91 58.8074H109.599C107.218 58.8074 105.288 56.8772 105.288 54.4963V50.1852ZM123.97 31.5037C123.97 29.1227 125.9 27.1926 128.281 27.1926H132.592C134.973 27.1926 136.903 29.1227 136.903 31.5037V35.8148C136.903 38.1958 134.973 40.1259 132.592 40.1259H128.281C125.9 40.1259 123.97 38.1958 123.97 35.8148V31.5037ZM123.97 50.1852C123.97 47.8042 125.9 45.8741 128.281 45.8741H132.592C134.973 45.8741 136.903 47.8042 136.903 50.1852V54.4963C136.903 56.8772 134.973 58.8074 132.592 58.8074H128.281C125.9 58.8074 123.97 56.8772 123.97 54.4963V50.1852Z" stroke="#158B68" stroke-width="2" stroke-linecap="round" stroke-linejoin="round"/>
</svg>
