<svg width="31" height="29" viewBox="0 0 31 29" fill="none" xmlns="http://www.w3.org/2000/svg">
<path d="M12.9758 4.11907H29.9998M12.9758 4.11907C12.9758 5.56555 11.8032 6.73815 10.3567 6.73815C8.91023 6.73815 7.73763 5.56555 7.73763 4.11907M12.9758 4.11907C12.9758 2.6726 11.8032 1.5 10.3567 1.5C8.91023 1.5 7.73763 2.6726 7.73763 4.11907M7.73763 4.11907H1.18994M12.9758 25.0717H29.9998M12.9758 25.0717C12.9758 26.5181 11.8032 27.6907 10.3567 27.6907C8.91023 27.6907 7.73763 26.5181 7.73763 25.0717M12.9758 25.0717C12.9758 23.6252 11.8032 22.4526 10.3567 22.4526C8.91023 22.4526 7.73763 23.6252 7.73763 25.0717M7.73763 25.0717H1.18994M23.4521 14.5954H29.9998M23.4521 14.5954C23.4521 16.0418 22.2795 17.2144 20.833 17.2144C19.3865 17.2144 18.2139 16.0418 18.2139 14.5954M23.4521 14.5954C23.4521 13.1489 22.2795 11.9763 20.833 11.9763C19.3865 11.9763 18.2139 13.1489 18.2139 14.5954M18.2139 14.5954H1.18994" stroke="#22445D" stroke-width="2" stroke-linecap="round" stroke-linejoin="round"/>
</svg>
