<svg width="567" height="577" viewBox="0 0 567 577" fill="none" xmlns="http://www.w3.org/2000/svg">
<path d="M196.631 241.367C209.576 251.436 228.089 249.852 239.135 237.729C250.18 225.606 250.04 207.026 238.813 195.071C227.586 183.116 209.051 181.811 196.26 192.074L189.383 186.764L179.147 189.963L180.315 179.728L171.686 173.023L161.464 176.21L162.632 165.974L155.211 160.212L148.971 162.151L149.688 155.911L145.32 152.512L135.523 153.468L134.195 168.523L185.52 208.417C182.259 220.635 186.637 233.618 196.631 241.367ZM234.029 230.654C230.98 234.577 225.327 235.287 221.402 232.239C217.477 229.191 216.765 223.539 219.811 219.613C222.857 215.686 228.508 214.971 232.436 218.015C236.356 221.071 237.068 226.721 234.029 230.654Z" fill="#EBEBEB"/>
<path d="M237.999 121.381C243.561 114.584 242.957 104.652 236.613 98.5783C230.269 92.5051 220.32 92.3349 213.772 98.1877C207.224 104.04 206.281 113.946 211.607 120.929L208.647 124.54L210.226 130.063L204.757 129.306L201.079 133.847L202.659 139.369L197.203 138.599L194.017 142.502L194.972 145.861L191.64 145.397L189.795 147.667L190.18 152.977L198.225 153.88L220.236 126.917C226.732 128.808 233.729 126.628 237.999 121.381ZM232.689 101.228C234.748 102.914 235.05 105.95 233.364 108.009C231.678 110.068 228.643 110.371 226.583 108.686C224.524 107 224.22 103.965 225.905 101.905C226.714 100.896 227.895 100.256 229.181 100.129C230.468 100.001 231.751 100.397 232.742 101.228L232.689 101.228Z" fill="#EBEBEB"/>
<path d="M166.987 7.34155V104.759H27.0471L22.0156 8.01862L166.987 7.34155Z" fill="#E0E0E0"/>
<rect x="118.557" y="147.959" width="96.5416" height="139.94" transform="rotate(-90 118.557 147.959)" fill="white"/>
<path d="M162.579 105.224H21.3516V7.35486H162.579V105.224ZM22.6526 103.896H161.252V8.68243H22.6791L22.6526 103.896Z" fill="#E0E0E0"/>
<rect x="37.1631" y="20.0067" width="109.618" height="72.5522" fill="white"/>
<path d="M146.795 20.0066H146.25H144.684L138.683 20.1261H116.114L37.2031 20.2854L37.5217 19.9668C37.5217 42.1374 37.5217 66.6976 37.5217 92.519L37.1765 92.1738L146.808 92.2535L146.529 92.519C146.529 70.4413 146.635 52.3464 146.675 39.7344C146.675 33.4284 146.675 28.5164 146.742 25.1311C146.742 23.4583 146.742 22.1838 146.742 21.2944C146.742 20.4049 146.742 19.9668 146.742 19.9668C146.742 19.9668 146.742 20.3916 146.742 21.2944C146.742 22.1971 146.742 23.4318 146.742 25.078C146.742 28.4367 146.742 33.3488 146.742 39.6813C146.742 52.3332 146.835 70.4944 146.888 92.6385V92.9173H146.622H36.9907H36.6455V92.5588C36.6455 66.7374 36.6455 42.1772 36.6455 20.0066V19.688H36.9641L116.088 19.8473L138.657 19.9402H144.618H146.144L146.795 20.0066Z" fill="#E0E0E0"/>
<path d="M22.002 7.73987C22.8664 8.16473 23.6775 8.69058 24.4182 9.30641C25.8519 10.3419 27.7902 11.8023 29.901 13.4883C32.0119 15.1743 33.8838 16.7674 35.2114 17.9622C35.9615 18.5582 36.6349 19.245 37.216 20.0067C37.0833 20.1527 33.7245 17.3515 29.5161 14.0326C26.8828 12.0935 24.3732 9.99181 22.002 7.73987Z" fill="#E0E0E0"/>
<path d="M161.942 8.01862C159.649 10.2756 157.2 12.3694 154.614 14.2848C152.153 16.3713 149.549 18.2832 146.821 20.0067C149.124 17.7487 151.581 15.6549 154.176 13.7405C156.627 11.6531 159.222 9.74105 161.942 8.01862Z" fill="#E0E0E0"/>
<path d="M161.836 104.573L146.237 91.9216L161.836 104.573Z" fill="white"/>
<path d="M146.237 91.9216C149.025 93.7584 151.687 95.7809 154.203 97.9754C156.874 100.017 159.407 102.235 161.783 104.613C158.993 102.78 156.331 100.757 153.818 98.5595C151.136 96.5309 148.602 94.3126 146.237 91.9216Z" fill="#E0E0E0"/>
<path d="M22.002 104.56C24.2816 102.324 26.7172 100.252 29.2904 98.3604C31.7262 96.2933 34.3035 94.3991 37.0036 92.6917C34.7365 94.9408 32.3048 97.0176 29.7285 98.9047C27.2904 100.971 24.7084 102.861 22.002 104.56Z" fill="#E0E0E0"/>
<rect x="83.7217" y="111.596" width="24.2947" height="68.981" transform="rotate(-90 83.7217 111.596)" fill="#E0E0E0"/>
<path d="M514.388 560.716C514.388 560.902 400.376 561.062 259.758 561.062C119.141 561.062 5.08887 560.902 5.08887 560.716C5.08887 560.531 119.088 560.371 259.758 560.371C400.429 560.371 514.388 560.531 514.388 560.716Z" fill="#263238"/>
<path d="M407.903 512.658L440.761 560.438L452.51 560.716L430.977 511.583L407.903 512.658Z" fill="#263238"/>
<path d="M61.1788 515.088L43.8672 560.225H52.523L82.752 515.287L61.1788 515.088Z" fill="#263238"/>
<path d="M53.718 351.092L55.0456 409.505C55.2213 417.763 61.8695 424.417 70.1269 424.6L396.964 431.875C401.118 431.968 405.134 430.382 408.105 427.477C411.076 424.571 412.75 420.59 412.749 416.435L412.749 346.073C412.741 325.334 397.446 307.773 376.904 304.918C317.07 296.687 193.698 284.036 93.9304 302.011C70.2716 306.241 53.2121 327.063 53.718 351.092Z" fill="#92E3A9"/>
<path d="M52.2845 371.497C52.2845 371.497 25.3612 359.031 19.8517 371.497C14.3423 383.963 20.5288 399.256 26.5826 407.779C32.6363 416.302 32.6098 521.606 32.6098 521.606L440.947 517.238L445.779 415.984C445.779 415.984 465.361 391.862 464.139 381.467C462.918 371.072 446.39 355.937 427.419 371.457C408.447 386.976 403.522 419.409 403.522 419.409L77.9599 421.865C77.9599 421.865 79.075 376.316 52.2845 371.497Z" fill="#92E3A9"/>
<path d="M399.393 439.641C399.393 439.827 327.054 439.986 237.84 439.986C148.627 439.986 76.2871 439.867 76.2871 439.641C76.2871 439.415 148.6 439.296 237.84 439.296C327.08 439.296 399.393 439.482 399.393 439.641Z" fill="#263238"/>
<path d="M76.2868 484.248C76.2697 484.142 76.2697 484.035 76.2868 483.929C76.2868 483.677 76.2868 483.358 76.2868 482.987C76.2868 482.155 76.2603 480.947 76.2072 479.362C76.2072 476.163 76.2072 471.636 76.2072 466.087C76.2072 454.855 76.2868 439.336 75.7691 422.276C75.6679 414.244 75.0471 406.226 73.9105 398.274C73.6715 397.398 73.4325 396.521 73.2068 395.619C72.9812 394.716 72.5431 393.959 72.1979 393.149C71.4943 391.543 70.7774 390.003 69.9941 388.556C68.5799 385.863 66.9177 383.307 65.029 380.922C63.4519 378.969 61.6718 377.189 59.7187 375.612C58.2351 374.431 56.6387 373.4 54.9527 372.532C53.4837 371.855 51.9817 371.253 50.4521 370.727L50.7575 370.727L51.6735 370.979C52.8452 371.315 53.983 371.759 55.0721 372.306C56.8062 373.129 58.4445 374.139 59.9576 375.32C61.952 376.887 63.7684 378.667 65.3742 380.63C67.315 383.019 69.0221 385.589 70.4721 388.304C71.2819 389.764 72.012 391.304 72.7289 392.924C73.0874 393.734 73.4193 394.57 73.7512 395.406L74.5079 398.061C75.6923 406.05 76.3354 414.109 76.4329 422.184C76.9506 439.309 76.778 454.829 76.6718 466.06C76.5922 471.623 76.5258 476.15 76.486 479.336C76.486 480.863 76.486 482.071 76.486 482.96V483.89C76.2868 484.128 76.2868 484.248 76.2868 484.248Z" fill="#263238"/>
<path d="M49.1114 394.995C49.4284 394.779 49.8031 394.663 50.1867 394.663C51.2539 394.581 52.3158 394.877 53.187 395.499C53.7995 395.928 54.3003 396.497 54.6474 397.159C55.0442 397.936 55.1792 398.821 55.0324 399.681C54.7364 401.709 53.2216 403.345 51.2222 403.797C49.2101 404.085 47.2213 403.138 46.1774 401.394C45.7302 400.649 45.5045 399.793 45.5269 398.924C45.6241 397.064 46.7287 395.404 48.4078 394.596C48.7463 394.414 49.1249 394.318 49.5096 394.318C49.5096 394.384 49.1246 394.477 48.5272 394.835C47.6923 395.353 47.024 396.099 46.6022 396.986C45.9609 398.251 46.0212 399.759 46.7616 400.969C47.6904 402.456 49.4047 403.261 51.1426 403.027C52.8435 402.629 54.1437 401.255 54.4482 399.535C54.687 398.121 54.0998 396.694 52.9348 395.858C52.1782 395.255 51.2464 394.915 50.2796 394.888C49.5096 394.928 49.1246 395.061 49.1114 394.995Z" fill="#263238"/>
<path d="M50.9572 421.201C50.1831 420.627 49.5517 419.882 49.1118 419.024C46.6434 414.958 46.5824 409.872 48.9525 405.748C49.3759 404.88 49.9883 404.118 50.7448 403.518C50.8377 403.597 50.1473 404.434 49.4172 405.974C48.421 407.968 47.9114 410.17 47.9303 412.399C47.9668 414.631 48.5261 416.822 49.5632 418.798C50.3332 420.312 51.0634 421.135 50.9572 421.201Z" fill="#263238"/>
<path d="M46.6822 381.785C46.61 382.46 46.4767 383.126 46.2839 383.777C45.7014 386.953 46.3981 390.232 48.2222 392.897C48.6524 393.419 49.0472 393.969 49.4037 394.543C49.4037 394.543 48.6603 394.172 47.8239 393.216C45.6387 390.547 44.8683 386.991 45.7529 383.657C45.9014 382.965 46.2209 382.322 46.6822 381.785Z" fill="#263238"/>
<path d="M38.7295 396.468C38.8888 396.336 40.1235 397.584 42.0086 398.553C43.8938 399.522 45.6064 399.88 45.5798 400.04C44.2205 400.214 42.8432 399.904 41.69 399.163C40.4208 398.635 39.3744 397.682 38.7295 396.468Z" fill="#263238"/>
<path d="M442.513 484.248C442.513 484.434 350.419 484.593 236.818 484.593C123.217 484.593 31.1494 484.434 31.1494 484.248C31.1494 484.062 123.23 483.903 236.924 483.903C350.618 483.903 442.513 484.049 442.513 484.248Z" fill="#263238"/>
<path d="M397.973 419.794C398.172 419.794 398.318 434.211 398.318 451.988C398.318 469.764 398.172 484.208 397.973 484.208C397.774 484.208 397.628 469.791 397.628 451.988C397.628 434.185 397.787 419.794 397.973 419.794Z" fill="#263238"/>
<path d="M261.617 308.397H260.98L259.121 308.463L251.992 308.662L225.733 309.273L139.121 311.012C130.665 311.211 122.394 311.185 114.455 311.716C106.81 312.044 99.2471 313.425 91.9791 315.818C85.4227 318.018 79.5555 321.895 74.9595 327.063C72.8747 329.397 71.0907 331.984 69.6492 334.762C68.3345 337.317 67.2461 339.983 66.3966 342.728C65.0321 347.496 64.1427 352.388 63.7415 357.331C63.3299 361.712 63.2901 365.496 63.2635 368.602C63.237 371.709 63.2635 374.099 63.3565 375.732C63.3565 376.528 63.3565 377.139 63.3565 377.59C63.3565 378.041 63.3565 378.227 63.3565 378.227C63.3565 378.227 63.3565 378.015 63.3565 377.59C63.3565 377.165 63.3565 376.528 63.2503 375.732C63.1706 374.112 63.0644 371.749 63.0378 368.602C63.0113 365.456 63.0378 361.699 63.3963 357.291C63.7871 352.299 64.6766 347.358 66.0514 342.542C66.892 339.749 67.9759 337.034 69.2907 334.431C70.7197 331.596 72.5042 328.955 74.6011 326.571C79.2594 321.325 85.2093 317.389 91.8596 315.154C99.1521 312.72 106.748 311.312 114.428 310.972C122.394 310.441 130.678 310.454 139.135 310.255L225.759 308.715L252.005 308.33L259.148 308.251H261.006L261.617 308.397Z" fill="#263238"/>
<path d="M157.084 353.88C157.084 353.88 156.646 354.092 155.969 354.61C155.012 355.344 154.295 356.347 153.911 357.491C153.281 359.148 153.558 361.013 154.641 362.416C155.871 364.277 158.132 365.171 160.301 364.654C162.471 364.138 164.086 362.321 164.346 360.106C164.675 358.362 164.083 356.571 162.779 355.367C161.919 354.525 160.829 353.957 159.646 353.734C158.81 353.588 158.319 353.641 158.319 353.588C158.743 353.431 159.201 353.39 159.646 353.468C161.85 353.721 163.749 355.134 164.624 357.172C165.016 358.14 165.121 359.199 164.93 360.225C164.579 362.657 162.779 364.627 160.389 365.195C157.999 365.763 155.504 364.814 154.097 362.801C153.467 361.973 153.085 360.983 152.995 359.947C152.935 359.042 153.076 358.135 153.406 357.291C153.86 356.086 154.688 355.057 155.769 354.358C156.157 354.084 156.611 353.919 157.084 353.88Z" fill="#263238"/>
<path d="M151.494 388.277C150.989 386.998 150.65 385.66 150.485 384.294C149.837 381.052 149.91 377.708 150.698 374.497C151.549 371.244 153.591 368.429 156.419 366.611C157.274 366.082 158.212 365.7 159.194 365.483C159.546 365.372 159.916 365.336 160.283 365.376C159.019 365.782 157.807 366.334 156.672 367.023C154.056 368.872 152.176 371.584 151.361 374.683C150.613 377.804 150.477 381.042 150.963 384.215C151.282 386.737 151.6 388.251 151.494 388.277Z" fill="#263238"/>
<path d="M156.327 333.435C155.622 334.371 154.97 335.346 154.375 336.356C151.586 341.495 153.046 347.907 157.787 351.331C158.763 351.99 159.778 352.588 160.827 353.123C160.498 353.122 160.173 353.054 159.871 352.924C159.035 352.629 158.241 352.227 157.508 351.729C152.301 348.328 150.723 341.414 153.937 336.09C154.382 335.323 154.927 334.618 155.557 333.993C156.008 333.528 156.3 333.342 156.327 333.435Z" fill="#263238"/>
<path d="M155.105 359.986C152.679 360.393 150.277 360.934 147.91 361.606C145.618 362.503 143.375 363.522 141.192 364.659C145.029 361.322 150.032 359.641 155.105 359.986Z" fill="#263238"/>
<g opacity="0.3">
<path d="M112.211 440.889C125.1 450.766 141.148 455.605 157.349 454.497C153.985 470.1 150.631 485.708 147.286 501.321C146.396 505.476 145.56 510.109 147.737 513.773C150.79 518.911 157.893 519.415 163.867 519.336C170.505 519.243 177.435 519.084 183.329 516.004C191.68 511.649 196.167 502.409 199.406 493.567C202.646 484.726 205.447 475.247 212.111 468.596C219.762 477.312 230.117 483.207 241.517 485.336C244.836 485.947 248.606 486.133 251.262 484.009C253.917 481.885 254.673 478.141 253.996 474.849C253.113 471.604 251.642 468.548 249.655 465.834L230.219 435.698C227.564 431.623 224.723 427.321 220.276 425.383C216.784 423.856 212.828 424.055 209.031 424.228C177.3 426.076 145.806 430.836 114.946 438.446" fill="black"/>
</g>
<g opacity="0.3">
<path d="M216.055 291.483C208.195 312.247 178.882 317.013 168.541 336.621C158.358 356.057 170.983 381.759 160.495 401.088C156.606 408.231 149.875 413.554 146.131 420.75C143.582 425.582 142.268 431.37 138.166 434.942C133.36 439.123 125.912 439.044 120.137 436.336C114.362 433.627 109.928 428.768 105.812 423.896C98.1125 414.762 90.8772 404.885 87.2263 393.481C81.0398 373.873 86.7219 351.689 99.1746 335.307C111.627 318.924 130.067 307.866 149.543 301.241C169.018 294.616 189.623 292.121 210.107 290.196" fill="black"/>
</g>
<path d="M121.664 236.88C124.639 232.243 128.753 228.445 133.612 225.848C138.506 223.244 144.228 222.667 149.543 224.241C154.857 225.927 158.891 230.285 160.164 235.712C161 239.973 159.859 244.726 162.062 248.47C164.585 252.771 170.678 254.125 172.829 258.639C173.974 261.472 173.734 264.677 172.178 267.308C170.631 269.892 168.661 272.199 166.35 274.132C167.742 275.003 168.972 276.108 169.988 277.398C171.012 278.718 171.301 280.465 170.758 282.044C169.892 283.581 168.465 284.723 166.775 285.23C159.358 288.357 151.159 289.126 143.29 287.434C141.193 286.983 138.79 286.412 137.064 287.686" fill="#263238"/>
<path d="M174.807 252.638L170.545 265.635L199.566 282.111L170.359 283.053L172.537 306.724L228.76 292.917C228.76 292.917 232.132 269.99 174.807 252.638L170.824 251.682C169.366 251.34 168.17 250.303 167.625 248.908C167.169 247.79 166.319 246.878 165.235 246.346L160.442 243.85V247.647L163.098 250.74L162.673 258.081C162.443 261.329 164.602 264.264 167.771 265.011L170.426 265.635" fill="#B78876"/>
<path d="M111.229 299.635C110.074 299.635 99.3607 302.29 93.2272 310.043C87.0938 317.796 78.2256 347.135 78.2256 347.135L100.794 351.039L110.539 375.506C110.539 375.506 168.222 367.952 165.155 364.885C162.191 362.158 159.089 359.583 155.862 357.172L169.138 312.95L185.069 304.348L179.692 282.257L147.605 286.598L111.229 299.635Z" fill="#FAFAFA"/>
<path d="M166.377 323.173C166.377 323.359 148.388 323.518 126.217 323.518C104.047 323.518 86.0449 323.359 86.0449 323.173C86.0449 322.987 104.034 322.827 126.217 322.827C148.401 322.827 166.377 322.987 166.377 323.173Z" fill="#92E3A9"/>
<path d="M162.779 336.17C162.779 336.356 144.79 336.515 122.62 336.515C100.449 336.515 82.4473 336.356 82.4473 336.17C82.4473 335.984 100.423 335.824 122.62 335.824C144.817 335.824 162.779 335.984 162.779 336.17Z" fill="#92E3A9"/>
<path d="M162.779 350.202C162.779 350.401 149.158 350.561 132.35 350.561C115.543 350.561 101.936 350.401 101.936 350.202C101.936 350.003 115.557 349.857 132.35 349.857C149.144 349.857 162.779 350.016 162.779 350.202Z" fill="#92E3A9"/>
<path d="M167.439 363.73C167.439 363.916 153.818 364.075 137.024 364.075C120.23 364.075 106.609 363.916 106.609 363.73C106.609 363.544 120.217 363.385 137.024 363.385C153.831 363.385 167.439 363.531 167.439 363.73Z" fill="#92E3A9"/>
<path d="M181.843 305.688C181.843 305.888 172.842 306.034 161.757 306.034C150.671 306.034 141.657 305.888 141.657 305.688C141.657 305.489 150.645 305.343 161.757 305.343C172.869 305.343 181.843 305.556 181.843 305.688Z" fill="#92E3A9"/>
<path d="M183.303 291.908C183.303 292.107 174.342 292.466 163.297 292.718C152.251 292.97 143.264 293.037 143.264 292.851C143.264 292.665 152.212 292.293 163.27 292.028C174.329 291.762 183.303 291.722 183.303 291.908Z" fill="#92E3A9"/>
<path d="M105.494 329.917C105 333.578 104.277 337.205 103.33 340.776C102.607 344.402 101.663 347.98 100.502 351.49C100.996 347.829 101.714 344.203 102.653 340.63C103.368 337.002 104.317 333.423 105.494 329.917Z" fill="#263238"/>
<path d="M168.289 495.678L151.481 548.689L171.74 550.733L190.778 504.666L168.289 495.678Z" fill="#B78876"/>
<path d="M183.118 530.103L173.466 553.999C173.466 553.999 194.548 571.855 193.194 576.448L146.118 559.442L159.62 521.526L183.118 530.103Z" fill="#455A64"/>
<path d="M159.646 546.724C158.605 546.669 157.69 547.407 157.522 548.436C157.426 549.476 158.161 550.41 159.195 550.56C160.297 550.615 161.264 549.831 161.438 548.742C161.438 547.733 160.443 546.578 159.447 546.724" fill="#E0E0E0"/>
<path d="M146.118 559.442L147.632 555.672L192.212 573.435C192.212 573.435 193.977 575.094 193.194 576.488L146.118 559.442Z" fill="#E0E0E0"/>
<path d="M174.316 554.079C174.223 554.304 172.988 553.999 171.66 554.318C170.333 554.636 169.311 555.406 169.138 555.234C168.965 555.061 169.775 553.906 171.475 553.494C173.174 553.083 174.435 553.879 174.316 554.079Z" fill="#263238"/>
<path d="M178.511 557.902C178.511 558.154 177.343 558.181 176.214 558.871C175.086 559.562 174.528 560.451 174.263 560.451C173.997 560.451 174.356 559.004 175.776 558.181C177.197 557.358 178.59 557.69 178.511 557.902Z" fill="#263238"/>
<path d="M179.175 564.832C178.949 564.832 179.042 563.504 180.091 562.495C181.14 561.486 182.401 561.34 182.427 561.566C182.454 561.792 181.538 562.23 180.702 563.093C179.865 563.956 179.414 564.898 179.175 564.832Z" fill="#263238"/>
<path d="M175.856 548.383C175.683 548.556 174.74 547.852 173.413 547.467C172.085 547.082 170.917 547.135 170.864 546.896C170.811 546.657 172.099 546.179 173.652 546.657C175.205 547.135 176.081 548.237 175.856 548.383Z" fill="#263238"/>
<path d="M177.767 543.511C176.921 543.438 176.11 543.14 175.417 542.648C174.619 542.191 173.883 541.634 173.227 540.989C172.826 540.618 172.458 540.214 172.125 539.781C171.915 539.539 171.745 539.266 171.621 538.971C171.43 538.524 171.566 538.005 171.953 537.71C172.302 537.468 172.746 537.409 173.147 537.55C173.448 537.661 173.733 537.808 173.997 537.988C174.47 538.292 174.915 538.639 175.325 539.024C175.99 539.672 176.55 540.42 176.984 541.241C177.459 541.955 177.7 542.8 177.674 543.657C177.542 543.657 177.276 542.781 176.466 541.546C175.996 540.83 175.434 540.178 174.794 539.608C174.422 539.264 174.017 538.957 173.585 538.692C173.134 538.387 172.709 538.227 172.51 538.4C172.311 538.572 172.417 538.506 172.51 538.679C172.614 538.893 172.743 539.093 172.895 539.276C173.202 539.682 173.53 540.072 173.877 540.444C174.482 541.066 175.14 541.635 175.842 542.144C176.515 542.554 177.159 543.011 177.767 543.511Z" fill="#263238"/>
<path d="M177.342 543.737C177.14 542.899 177.214 542.019 177.554 541.228C177.991 539.806 178.814 538.533 179.931 537.55C180.416 537.014 181.145 536.768 181.856 536.9C182.281 537.069 182.575 537.465 182.612 537.922C182.636 538.243 182.609 538.565 182.533 538.878C182.425 539.431 182.233 539.964 181.962 540.458C181.517 541.295 180.869 542.007 180.077 542.529C178.749 543.418 177.647 543.352 177.661 543.259C178.371 542.899 179.058 542.495 179.718 542.051C180.372 541.521 180.903 540.855 181.272 540.099C181.479 539.678 181.63 539.232 181.723 538.772C181.829 538.254 181.789 537.776 181.577 537.763C181.365 537.749 180.807 537.909 180.475 538.241C180.093 538.561 179.742 538.917 179.426 539.303C178.888 539.97 178.441 540.707 178.099 541.493C177.554 542.794 177.488 543.75 177.342 543.737Z" fill="#263238"/>
<path d="M232.078 445.775L257.169 489.386L277.694 476.216L252.496 431.941L232.078 445.775Z" fill="#B78876"/>
<path d="M270.605 463.75L283.575 486.107C283.575 486.107 310.605 480.424 313.406 484.314L271.03 510.999L249.403 477.026L270.605 463.75Z" fill="#455A64"/>
<path d="M269.303 492.492C268.606 493.265 268.606 494.441 269.304 495.214C270.055 495.902 271.207 495.902 271.959 495.214C272.68 494.374 272.651 493.125 271.892 492.32C271.015 491.664 269.778 491.809 269.078 492.651" fill="#E0E0E0"/>
<path d="M271.03 510.972L268.985 507.467L310.379 483.199C310.379 483.199 312.782 482.827 313.406 484.288L271.03 510.972Z" fill="#E0E0E0"/>
<path d="M284.119 485.429C284.239 485.642 283.27 486.385 282.672 487.686C282.075 488.987 282.075 490.209 281.836 490.248C281.597 490.288 281.146 488.921 281.836 487.328C282.526 485.735 284.04 485.204 284.119 485.429Z" fill="#263238"/>
<path d="M289.722 484.46C289.895 484.633 289.218 485.549 289.072 486.876C288.925 488.204 289.297 489.24 289.072 489.359C288.846 489.479 287.996 488.403 288.209 486.704C288.421 485.005 289.589 484.274 289.722 484.46Z" fill="#263238"/>
<path d="M295.603 488.191C295.43 488.363 294.501 487.514 294.275 486.04C294.05 484.567 294.78 483.518 294.979 483.624C295.178 483.73 294.979 484.726 295.125 485.934C295.271 487.142 295.789 488.045 295.603 488.191Z" fill="#263238"/>
<path d="M280.602 480.663C280.602 480.916 279.5 481.221 278.385 481.991C277.27 482.761 276.593 483.743 276.367 483.637C276.141 483.531 276.566 482.23 277.894 481.287C279.221 480.345 280.602 480.438 280.602 480.663Z" fill="#263238"/>
<path d="M277.906 476.216C277.906 476.296 277.229 476.946 275.782 477.544C274.927 477.881 274.036 478.121 273.127 478.261C272.585 478.329 272.04 478.368 271.494 478.38C271.172 478.392 270.85 478.356 270.538 478.274C270.072 478.147 269.75 477.721 269.755 477.238C269.777 476.811 270.005 476.42 270.366 476.189C270.636 476.025 270.926 475.895 271.229 475.804C272.632 475.323 274.136 475.209 275.596 475.473C277.163 475.765 277.986 476.335 277.933 476.415C277.88 476.495 277.004 476.189 275.53 476.07C274.669 476.006 273.804 476.051 272.954 476.203C272.462 476.291 271.978 476.419 271.507 476.588C270.976 476.76 270.591 476.999 270.605 477.265C270.618 477.53 270.605 477.398 270.804 477.477C271.034 477.531 271.271 477.553 271.507 477.544C272.883 477.562 274.253 477.369 275.57 476.973C276.329 476.663 277.11 476.41 277.906 476.216Z" fill="#263238"/>
<path d="M277.827 476.681C277.827 476.76 276.898 476.269 275.969 474.981C275.436 474.22 275.041 473.37 274.801 472.472C274.657 471.942 274.564 471.4 274.522 470.853C274.4 470.134 274.661 469.404 275.212 468.928C275.593 468.687 276.079 468.687 276.46 468.928C276.728 469.105 276.969 469.32 277.177 469.565C277.542 469.999 277.846 470.481 278.08 470.999C278.457 471.867 278.617 472.815 278.544 473.76C278.411 475.38 277.708 476.176 277.642 476.11C277.788 475.329 277.89 474.54 277.947 473.747C277.93 472.908 277.731 472.084 277.363 471.33C277.152 470.891 276.879 470.484 276.553 470.122C276.208 469.724 275.809 469.459 275.663 469.618C275.395 469.938 275.283 470.362 275.358 470.773C275.382 471.273 275.448 471.771 275.557 472.26C275.752 473.092 276.065 473.892 276.486 474.636C277.203 475.937 277.92 476.574 277.827 476.681Z" fill="#263238"/>
<path d="M157.388 439.641L206.668 406.133L237.747 466.631L265.998 451.324C265.998 451.324 233.459 371.935 221.776 369.412C215.231 367.978 140.17 382.303 140.17 382.303L131.779 378.095L110.538 375.506L109.211 378.944C101.713 397.93 102.571 419.197 111.574 437.517L112.609 439.628L157.388 439.641Z" fill="#263238"/>
<path d="M140.09 397.716C140.462 399.376 181.245 437.544 181.245 437.544L157.747 516.521L192.822 523.226L228.042 428.091L163.668 364.938L134.209 377.245L140.09 397.716Z" fill="#263238"/>
<path d="M206.668 406.12C206.775 406.279 195.822 413.899 182.228 423.153C168.633 432.406 157.508 439.774 157.389 439.641C157.269 439.508 168.222 431.848 181.829 422.595C195.437 413.342 206.549 405.961 206.668 406.12Z" fill="#455A64"/>
<path d="M231.959 455.346C231.505 454.779 231.105 454.17 230.765 453.528C230.034 452.333 229.025 450.567 227.791 448.39C225.335 444.022 222.069 437.915 218.617 431.131C215.165 424.348 212.112 418.095 209.975 413.568C208.899 411.297 208.05 409.452 207.479 408.178C207.143 407.533 206.872 406.857 206.669 406.16C207.07 406.765 207.425 407.4 207.731 408.058L210.386 413.368C212.696 417.949 215.789 424.069 219.201 430.853C222.613 437.637 225.839 443.797 228.189 448.217C229.318 450.355 230.26 452.12 230.977 453.461C231.353 454.063 231.681 454.694 231.959 455.346Z" fill="#455A64"/>
<path d="M188.56 423.418C187.513 426.33 186.252 429.161 184.79 431.888C183.527 434.709 182.058 437.434 180.396 440.04C182.701 434.304 185.43 428.749 188.56 423.418Z" fill="#455A64"/>
<path d="M78.2253 347.135L70.2598 376.555C69.2317 380.36 69.7071 384.415 71.5874 387.879C74.8854 394.001 81.8718 397.16 88.6468 395.592L151.773 380.046L145.135 366.93L95.4042 371.244L100.714 351.039L78.2253 347.135Z" fill="#B78876"/>
<path d="M106.224 391.782L107.047 387.507L141.258 381.361L151.202 328.616L214.74 321.049L204.066 377.351L106.224 391.782Z" fill="#455A64"/>
<path d="M179.733 357.026C178.237 356.96 176.939 355.972 176.479 354.547C176.018 353.123 176.492 351.562 177.666 350.633C178.841 349.704 180.469 349.604 181.749 350.381C183.029 351.157 183.691 352.648 183.41 354.119C183.188 355.932 181.548 357.229 179.733 357.026Z" fill="#EBEBEB"/>
<path d="M115.517 240.504L115.636 244.314L117.07 301.4C117.242 308.038 123.071 313.163 130.16 312.924C137.329 312.698 143.09 307.082 143.037 300.378C142.971 293.355 143.037 285.947 143.037 285.947C143.037 285.947 152.078 284.341 153.817 272.499C154.68 266.618 154.269 256.98 153.684 249.107C153.433 245.714 151.806 242.571 149.182 240.406C146.558 238.24 143.164 237.24 139.785 237.637L115.517 240.504Z" fill="#B78876"/>
<path d="M149.105 255.732C149.12 256.555 148.48 257.242 147.658 257.285C147.274 257.318 146.892 257.196 146.598 256.947C146.304 256.698 146.122 256.342 146.091 255.957C146.075 255.139 146.708 254.454 147.525 254.404C148.328 254.335 149.034 254.929 149.105 255.732Z" fill="#263238"/>
<path d="M151.653 254.192C151.468 254.391 150.326 253.554 148.68 253.568C147.033 253.581 145.865 254.431 145.679 254.231C145.493 254.032 145.785 253.78 146.303 253.395C147.002 252.9 147.836 252.631 148.693 252.625C149.541 252.617 150.372 252.872 151.069 253.355C151.574 253.78 151.746 254.099 151.653 254.192Z" fill="#263238"/>
<path d="M133.014 256.316C133.037 257.142 132.393 257.833 131.567 257.869C130.765 257.938 130.058 257.344 129.988 256.541C129.972 255.721 130.614 255.037 131.435 255.001C131.819 254.965 132.202 255.083 132.498 255.329C132.795 255.576 132.981 255.931 133.014 256.316Z" fill="#263238"/>
<path d="M135.629 254.683C135.444 254.882 134.302 254.046 132.656 254.059C131.009 254.072 129.841 254.922 129.655 254.723C129.47 254.524 129.748 254.271 130.266 253.886C130.97 253.391 131.808 253.122 132.669 253.116C133.513 253.108 134.339 253.363 135.032 253.846C135.537 254.231 135.722 254.59 135.629 254.683Z" fill="#263238"/>
<path d="M141.683 266.697C142.544 266.42 143.436 266.251 144.339 266.193C144.763 266.193 145.148 266.06 145.215 265.768C145.246 265.341 145.144 264.914 144.923 264.547L143.662 261.387C142.486 258.716 141.527 255.955 140.794 253.13C142.188 255.681 143.365 258.346 144.312 261.095L145.533 264.268C145.797 264.769 145.881 265.345 145.772 265.901C145.652 266.2 145.403 266.429 145.095 266.525C144.861 266.589 144.621 266.624 144.378 266.631C143.487 266.77 142.581 266.792 141.683 266.697Z" fill="#263238"/>
<path d="M143.037 285.987C137.46 286.166 131.944 284.786 127.106 282.004C127.106 282.004 131.089 290.076 142.852 288.828L143.037 285.987Z" fill="#AA6550"/>
<path d="M136.281 251.988C136.108 252.426 134.488 252.147 132.563 252.28C130.638 252.413 129.072 252.877 128.833 252.466C128.727 252.267 129.019 251.868 129.656 251.47C130.509 250.97 131.47 250.683 132.457 250.634C133.441 250.56 134.428 250.719 135.338 251.098C136.028 251.417 136.36 251.789 136.281 251.988Z" fill="#263238"/>
<path d="M150.976 248.47C150.684 248.842 149.556 248.47 148.215 248.47C146.874 248.47 145.719 248.749 145.454 248.364C145.188 247.979 145.454 247.806 145.998 247.448C147.364 246.565 149.13 246.601 150.458 247.541C150.936 247.965 151.096 248.35 150.976 248.47Z" fill="#263238"/>
<path d="M141.512 272.605C141.033 272.682 140.544 272.632 140.091 272.459L138.763 272.087C138.392 271.968 137.98 271.795 137.516 271.623C137.05 271.495 136.627 271.243 136.294 270.893C136.015 270.534 136.068 269.897 136.706 269.326C137.603 268.672 138.761 268.492 139.815 268.842C140.869 269.193 141.689 270.031 142.016 271.092C142.295 271.928 141.95 272.486 141.512 272.605Z" fill="#AA6550"/>
<path d="M141.737 272.459C141.578 272.579 140.781 270.946 138.869 270.455C137.7 270.287 136.508 270.419 135.404 270.84C135.404 270.84 135.617 270.415 136.267 270.083C137.127 269.654 138.112 269.55 139.042 269.791C139.975 270.027 140.791 270.593 141.339 271.384C141.75 271.981 141.816 272.433 141.737 272.459Z" fill="#263238"/>
<path d="M129.191 232.831C132.949 238.756 132.058 246.5 127.054 251.417C124.226 254.072 120.018 256.103 119.739 259.953C119.42 264.215 124.359 267.401 124.359 271.676C124.359 275.951 119.301 278.871 118.305 283.159C117.509 286.611 119.633 290.063 121.969 292.678C124.306 295.294 127.28 297.603 128.607 300.843C130.031 304.531 129.887 308.641 128.209 312.22C126.529 315.741 124.287 318.965 121.571 321.765C118.041 320.501 114.365 319.685 110.632 319.336C110.857 317.929 111.096 316.508 111.335 315.101C111.263 316.789 110.11 318.237 108.481 318.686C106.881 319.092 105.207 319.115 103.596 318.752C98.6197 317.965 93.7299 316.707 88.9922 314.995C91.1109 313.085 92.9045 310.843 94.3025 308.357C95.7011 305.804 95.7557 302.727 94.4485 300.126C93.2803 298.135 91.1296 296.86 90.0543 294.816C88.4479 291.762 89.7755 287.886 92.0589 285.297C94.3423 282.708 97.4489 281.022 100.17 278.898C102.892 276.774 105.388 273.906 105.6 270.454C105.892 265.994 102.268 261.918 102.719 257.471C103.224 252.399 108.587 249.293 110.685 244.646C112.212 241.288 112.012 237.146 114.349 234.291C116.207 232.226 118.922 231.146 121.691 231.371C124.42 231.608 127.048 232.52 129.337 234.026" fill="#263238"/>
<path d="M143.993 287.262C141.869 288.43 141.989 291.682 143.29 293.74C144.591 295.798 146.675 297.272 147.963 299.343C150.211 303.248 149.294 308.208 145.799 311.052L150.897 312.977L152.012 312.353L155.145 310.574L153.671 314.198H156.937C160.476 314.271 163.75 312.327 165.379 309.184C167.008 306.041 166.71 302.246 164.611 299.396C163.283 297.537 161.185 296.064 160.721 293.82C160.177 291.098 162.234 288.642 163.23 286.067C164.856 281.603 163.419 276.601 159.672 273.681" fill="#263238"/>
<path d="M43.4289 179.821C44.0391 180.123 44.4249 180.746 44.4246 181.427V190.269C44.4236 190.822 44.1631 191.343 43.721 191.676C43.2808 192.019 42.7022 192.127 42.1677 191.968C40.6948 191.591 39.1321 191.831 37.8398 192.632C36.6484 193.312 35.7927 194.456 35.4767 195.791C35.2374 197.148 35.5636 198.544 36.3795 199.655C37.227 200.913 38.5406 201.783 40.0303 202.071C43.1157 202.38 46.0038 200.511 46.9868 197.57C47.2838 196.639 48.2793 196.125 49.2105 196.422C50.1417 196.719 50.6558 197.715 50.3589 198.646C48.8353 203.247 44.2864 206.143 39.4727 205.576C37.0176 205.155 34.8433 203.743 33.4588 201.673C32.0873 199.752 31.5599 197.354 31.9985 195.035C32.5145 192.74 33.9558 190.761 35.9812 189.565C37.4516 188.681 39.1379 188.222 40.8534 188.237V181.427C40.8534 180.444 41.6499 179.648 42.6324 179.648C42.9073 179.646 43.1793 179.705 43.4289 179.821Z" fill="#92E3A9"/>
<path d="M40.9866 176.103C40.9723 175.306 41.6055 174.648 42.4027 174.631C43.1999 174.614 43.8605 175.245 43.88 176.042C43.8995 176.839 43.2705 177.502 42.4735 177.524C42.0874 177.535 41.7131 177.391 41.4338 177.124C41.1545 176.857 40.9935 176.49 40.9866 176.103Z" fill="#92E3A9"/>
<path d="M84.2526 223.445C84.2526 223.445 83.8144 223.445 83.0843 223.817C82.0843 224.247 81.2408 224.975 80.6681 225.901C80.2617 226.535 80.0031 227.251 79.9114 227.999C79.8092 228.855 79.9615 229.723 80.3495 230.494C81.1632 232.37 83.061 233.538 85.1018 233.419C87.1426 233.3 88.8923 231.92 89.4832 229.963C89.7804 229.151 89.8312 228.269 89.6293 227.428C89.4436 226.696 89.1041 226.013 88.6336 225.423C87.9502 224.568 87.0249 223.939 85.9784 223.618C85.2217 223.405 84.7703 223.432 84.7703 223.392H85.0889C85.2214 223.38 85.3547 223.38 85.4872 223.392C85.662 223.402 85.8353 223.428 86.005 223.471C87.1288 223.737 88.1355 224.361 88.8725 225.25C89.3966 225.855 89.7738 226.573 89.9744 227.348C90.1924 228.226 90.1509 229.148 89.855 230.003C89.5304 230.973 88.9419 231.832 88.1557 232.486C87.3177 233.206 86.2707 233.639 85.1686 233.72C84.0665 233.764 82.9789 233.457 82.0621 232.844C81.2012 232.292 80.5116 231.51 80.0707 230.587C79.6762 229.762 79.5243 228.841 79.6326 227.932C79.7449 227.138 80.0353 226.38 80.4822 225.715C81.1178 224.745 82.0487 224.005 83.1374 223.604C83.3065 223.544 83.4795 223.495 83.6552 223.458C83.7802 223.42 83.9096 223.398 84.0402 223.392C84.113 223.4 84.1844 223.418 84.2526 223.445Z" fill="#263238"/>
<path d="M97.2089 236.283C97.2089 236.283 96.9301 236.349 96.492 236.548C95.8606 236.826 95.3283 237.289 94.9653 237.876C94.407 238.724 94.3364 239.803 94.7794 240.717C95.2859 241.871 96.4575 242.588 97.716 242.514C98.9745 242.44 100.054 241.591 100.422 240.385C100.758 239.425 100.561 238.36 99.9039 237.584C99.4753 237.042 98.8918 236.644 98.2311 236.442C97.7665 236.296 97.4877 236.309 97.4877 236.269C97.7445 236.202 98.0141 236.202 98.2709 236.269C99.5048 236.562 100.482 237.503 100.82 238.725C100.985 239.293 100.985 239.896 100.82 240.464C100.419 241.814 99.2161 242.769 97.8105 242.852C96.4049 242.935 95.0977 242.129 94.5404 240.836C94.2751 240.302 94.1779 239.701 94.2617 239.11C94.3331 238.606 94.5193 238.124 94.806 237.703C95.214 237.089 95.8102 236.623 96.5053 236.376C96.7302 236.293 96.9704 236.262 97.2089 236.283Z" fill="#263238"/>
<path d="M82.1545 197.132C82.1545 197.132 82.1545 196.907 82.1545 196.469C82.1545 196.03 82.1545 195.367 82.1545 194.517C82.1545 194.079 82.1545 193.601 82.1545 193.07C82.1545 192.539 82.0749 191.968 82.0351 191.344C81.9952 190.72 81.9421 190.016 81.8757 189.326C81.8589 188.955 81.8101 188.587 81.7297 188.224L81.5306 187.056C80.8757 183.153 79.6359 179.371 77.8532 175.838C75.5332 171.163 72.3379 166.976 68.4406 163.505L66.7812 162.058C66.197 161.606 65.5731 161.181 64.9624 160.73L64.0198 160.066C63.7234 159.822 63.4032 159.609 63.0639 159.429L61.0195 158.194C60.6743 157.995 60.3424 157.783 59.984 157.597L58.8821 157.092L56.665 156.084C55.895 155.765 55.0985 155.526 54.3152 155.247L53.1204 154.836L52.5097 154.636L51.8857 154.49C50.2099 154.048 48.507 153.715 46.7878 153.495C45.9116 153.402 45.0222 153.243 44.1327 153.189L41.4775 153.11C41.0261 153.11 40.5748 153.11 40.1499 153.11L38.8224 153.216C37.8931 153.296 36.9637 153.322 36.0477 153.442C34.1699 153.709 32.3117 154.099 30.4852 154.61L29.0912 155.008C28.8655 155.008 28.6266 155.128 28.4009 155.207L27.7238 155.473L24.989 156.535C24.0995 156.933 23.2233 157.411 22.3338 157.863C21.8957 158.101 21.4444 158.287 21.0063 158.553L19.6787 159.363C17.9583 160.441 16.3127 161.634 14.7534 162.934L12.5097 165.045L11.9389 165.576L11.4211 166.16L10.3989 167.341L9.36339 168.51L8.43408 169.837L7.51805 171.165L7.0534 171.815C6.90737 172.041 6.77461 172.267 6.64185 172.492L5.03548 175.267C4.59738 176.236 4.14601 177.205 3.7079 178.188C0.252569 186.307 -0.451456 195.333 1.70325 203.89L2.57946 206.996L3.73445 209.97L4.02652 210.713L4.38497 211.417L5.10186 212.838L5.80548 214.232L6.65513 215.559L7.49151 216.887L7.90306 217.537L8.38099 218.148L10.2794 220.591C11.62 222.115 13.0615 223.548 14.5941 224.879L15.7225 225.874C16.0942 226.206 16.519 226.472 16.9173 226.764C17.7271 227.335 18.5104 227.945 19.3335 228.476L21.8559 229.884L22.4799 230.255L23.1436 230.561L24.4712 231.158C26.1959 231.945 27.9698 232.619 29.7815 233.176C30.6843 233.442 31.6003 233.614 32.4367 233.84L33.7643 234.158C34.2157 234.251 34.667 234.278 35.0919 234.344L37.747 234.689C38.6365 234.782 39.526 234.689 40.4022 234.796C42.1391 234.854 43.878 234.792 45.6063 234.61L46.2435 234.61L46.8675 234.504L48.1154 234.291C48.9385 234.132 49.7616 234.026 50.5582 233.827L52.9212 233.176L54.0895 232.857L55.2047 232.419L57.3952 231.57C57.7576 231.44 58.1085 231.28 58.444 231.092L59.4795 230.574C60.1565 230.229 60.8071 229.91 61.4841 229.552L63.3427 228.37C67.761 225.544 71.5888 221.888 74.6139 217.604C74.9458 217.139 75.291 216.687 75.6096 216.276L76.4327 214.869L77.2292 213.541C77.362 213.315 77.4947 213.103 77.6142 212.877C77.7337 212.652 77.8134 212.413 77.9196 212.187L79.1144 209.611C79.4596 208.788 79.6985 207.952 79.9773 207.195L80.3756 206.067C80.5061 205.722 80.6082 205.367 80.6809 205.005L81.1589 203.027C81.2916 202.416 81.4509 201.858 81.5439 201.341C81.6368 200.823 81.6766 200.345 81.743 199.92C81.8492 199.07 81.9422 198.433 82.0085 197.982C82.0749 197.53 82.1147 197.331 82.1147 197.331C82.1147 197.331 82.1147 197.557 82.1147 197.995L81.8758 199.933C81.8758 200.358 81.7696 200.836 81.7032 201.354C81.6368 201.872 81.4642 202.443 81.3315 203.053C81.1987 203.664 81.0394 204.381 80.8801 205.031C80.8092 205.398 80.7071 205.758 80.5748 206.107C80.442 206.478 80.3225 206.85 80.1897 207.235C79.9109 208.005 79.6853 208.841 79.3268 209.678C78.9684 210.514 78.5568 211.364 78.1586 212.333L77.8399 213.023C77.7337 213.249 77.5877 213.475 77.4682 213.7C77.2027 214.138 76.9372 214.603 76.6717 215.028C76.4062 215.453 76.1273 215.971 75.8486 216.462C75.5698 216.953 75.1848 217.378 74.8529 217.856C71.8023 222.118 67.9571 225.752 63.5286 228.556L61.6567 229.751C61.0062 230.109 60.3291 230.441 59.6388 230.786L58.6166 231.317C58.2752 231.504 57.9202 231.663 57.5545 231.795L55.3374 232.658L54.2223 233.096L53.054 233.428L50.6776 234.092C49.8678 234.291 49.0314 234.397 48.2083 234.557L46.9472 234.782L46.3232 234.889H45.6727C43.9361 235.08 42.1884 235.151 40.442 235.101C39.5525 235.101 38.6498 235.101 37.7868 234.995L35.1317 234.65C34.667 234.65 34.2157 234.557 33.8041 234.451L32.4765 234.145C31.5738 233.92 30.6445 233.747 29.7417 233.481C27.9267 232.928 26.1523 232.25 24.4314 231.45L23.1038 230.853L22.44 230.547L21.8028 230.176L19.2406 228.689C18.4175 228.158 17.6209 227.534 16.8111 226.963C16.3995 226.658 15.9747 226.392 15.603 226.06L14.4613 225.065C12.8428 223.722 11.3211 222.267 9.90769 220.71L7.98269 218.254L7.50476 217.63L7.07993 216.966L6.24356 215.639L5.39391 214.311L4.67701 212.904L3.94684 211.47L3.5884 210.753L3.26978 209.97C2.87151 208.974 2.48651 207.965 2.10151 206.97C1.71651 205.974 1.51738 204.885 1.21203 203.837C-0.938326 195.204 -0.215914 186.107 3.26979 177.922L4.59736 174.962C5.14167 174.032 5.68598 173.103 6.21701 172.174C6.36304 171.948 6.48253 171.709 6.62856 171.483L7.09321 170.833L8.03579 169.505L8.9651 168.178L10.0139 166.983L11.0494 165.801L11.5672 165.217L12.138 164.673L14.4082 162.536C15.9832 161.228 17.6466 160.03 19.3866 158.951L20.7142 158.141C21.139 157.862 21.6036 157.677 22.0417 157.438C22.9312 157 23.8074 156.508 24.6969 156.11L27.4583 155.035L28.1486 154.769L28.839 154.57L30.2462 154.185C32.085 153.669 33.9568 153.279 35.8486 153.017C36.7912 152.897 37.7205 152.858 38.6498 152.778L39.9773 152.685C40.4287 152.685 40.8934 152.685 41.3049 152.685L44.0397 152.765C44.9425 152.765 45.8187 152.977 46.6949 153.083C48.4301 153.298 50.1473 153.64 51.8326 154.105L52.4699 154.251C52.669 154.251 52.8681 154.384 53.0673 154.451L54.2754 154.862C55.0719 155.154 55.8818 155.38 56.6385 155.699L59.0281 156.867L60.13 157.371L61.1788 157.969L63.2233 159.164C63.5613 159.357 63.8852 159.575 64.1924 159.814L65.135 160.491C65.7457 160.942 66.3829 161.367 66.967 161.819L68.6398 163.279C72.5701 166.795 75.7842 171.037 78.1054 175.772C79.889 179.324 81.1159 183.13 81.743 187.056C81.8094 187.454 81.8757 187.853 81.9421 188.224C82.011 188.593 82.0553 188.965 82.0749 189.339C82.0749 190.056 82.1811 190.733 82.2209 191.357C82.2607 191.981 82.3139 192.565 82.3271 193.096C82.3404 193.627 82.3271 194.105 82.3271 194.544C82.3271 195.393 82.3271 196.044 82.3271 196.495L82.1545 197.132Z" fill="#263238"/>
<rect x="260.502" y="0.371704" width="274.079" height="416.05" fill="white"/>
<rect x="259.944" y="21.5599" width="274.158" height="179.051" fill="#F5F5F5"/>
<path d="M326.921 225.901V229.884H332.775V231.317H326.921V236.044H325.248V224.361H333.506V225.901H326.921Z" fill="#263238"/>
<path d="M334.514 231.663C334.482 229.792 335.584 228.088 337.302 227.35C339.021 226.612 341.015 226.986 342.349 228.297C343.683 229.608 344.092 231.596 343.384 233.327C342.676 235.058 340.992 236.189 339.121 236.19C337.897 236.246 336.705 235.789 335.831 234.93C334.957 234.071 334.48 232.887 334.514 231.663ZM342.095 231.663C342.022 230.03 340.652 228.759 339.019 228.81C337.386 228.86 336.096 230.213 336.124 231.847C336.152 233.48 337.487 234.788 339.121 234.782C339.942 234.803 340.733 234.476 341.3 233.882C341.866 233.288 342.155 232.481 342.095 231.663Z" fill="#263238"/>
<path d="M350.698 227.149V228.702H350.326C349.537 228.656 348.77 228.964 348.231 229.541C347.692 230.118 347.438 230.906 347.538 231.689L347.538 236.097H345.932V227.228H347.472V228.702C348.167 227.616 349.415 227.015 350.698 227.149Z" fill="#263238"/>
<path d="M361.039 227.228V234.862C361.039 237.995 359.46 239.402 356.459 239.402C354.94 239.469 353.445 238.999 352.237 238.075L352.994 236.84C353.966 237.603 355.17 238.011 356.406 237.995C358.49 237.995 359.446 237.026 359.446 235.021V234.318C358.634 235.212 357.467 235.698 356.26 235.645C354.674 235.734 353.168 234.938 352.348 233.576C351.528 232.215 351.528 230.512 352.348 229.151C353.168 227.79 354.674 226.994 356.26 227.082C357.518 227.025 358.729 227.567 359.526 228.543V227.215L361.039 227.228ZM359.473 231.41C359.367 229.806 358.034 228.558 356.426 228.558C354.818 228.558 353.485 229.806 353.379 231.41C353.485 233.015 354.818 234.263 356.426 234.263C358.034 234.263 359.367 233.015 359.473 231.41Z" fill="#263238"/>
<path d="M363.283 231.663C363.251 229.792 364.352 228.088 366.071 227.35C367.789 226.612 369.784 226.986 371.118 228.297C372.452 229.608 372.861 231.596 372.153 233.327C371.445 235.058 369.76 236.189 367.89 236.19C366.666 236.246 365.473 235.789 364.6 234.93C363.726 234.071 363.249 232.887 363.283 231.663ZM370.863 231.663C370.791 230.03 369.42 228.759 367.787 228.81C366.154 228.86 364.865 230.213 364.893 231.847C364.921 233.48 366.256 234.788 367.89 234.782C368.711 234.803 369.502 234.476 370.068 233.882C370.635 233.288 370.924 232.481 370.863 231.663Z" fill="#263238"/>
<path d="M379.679 235.566C379.122 235.987 378.439 236.207 377.74 236.19C376.978 236.279 376.217 236.016 375.672 235.476C375.127 234.936 374.857 234.178 374.939 233.415L374.939 228.556H373.426V227.228H374.992V225.29H376.585V227.228H379.121V228.556H376.585V233.349C376.54 233.727 376.659 234.108 376.913 234.392C377.167 234.677 377.531 234.838 377.913 234.835C378.365 234.838 378.804 234.688 379.161 234.411L379.679 235.566Z" fill="#263238"/>
<path d="M395.264 231.663C395.328 232.873 394.88 234.054 394.028 234.916C393.176 235.777 392.001 236.24 390.79 236.19C389.591 236.227 388.447 235.689 387.71 234.743V239.323H386.104V227.228H387.644V228.622C388.386 227.642 389.561 227.086 390.79 227.136C392.001 227.085 393.176 227.548 394.028 228.41C394.88 229.271 395.328 230.453 395.264 231.663ZM393.644 231.663C393.572 230.032 392.204 228.762 390.573 228.81C388.941 228.857 387.65 230.206 387.673 231.838C387.696 233.47 389.025 234.781 390.657 234.782C391.479 234.803 392.271 234.476 392.84 233.882C393.409 233.289 393.7 232.483 393.644 231.663Z" fill="#263238"/>
<path d="M404.411 230.747V236.057H402.871V234.889C402.195 235.801 401.097 236.303 399.964 236.216C397.959 236.216 396.698 235.141 396.698 233.561C396.698 231.981 397.614 230.972 400.243 230.972H402.871V230.667C402.871 229.339 402.075 228.529 400.495 228.529C399.481 228.515 398.493 228.848 397.694 229.472L397.03 228.277C398.083 227.496 399.37 227.093 400.681 227.135C403.044 227.149 404.411 228.317 404.411 230.747ZM402.818 233.402V232.167H400.349C398.756 232.167 398.305 232.791 398.305 233.495C398.305 234.198 399.035 234.928 400.256 234.928C401.373 235.036 402.431 234.407 402.871 233.375L402.818 233.402Z" fill="#263238"/>
<path d="M406.27 235.194L406.933 233.866C407.859 234.464 408.938 234.783 410.04 234.782C411.527 234.782 412.137 234.331 412.137 233.588C412.137 231.596 406.548 233.322 406.548 229.791C406.548 228.211 407.969 227.136 410.239 227.136C411.367 227.117 412.48 227.396 413.465 227.945L412.775 229.207C412.012 228.728 411.126 228.483 410.226 228.503C408.818 228.503 408.141 229.021 408.141 229.724C408.141 231.809 413.744 230.109 413.744 233.548C413.744 235.154 412.283 236.203 409.92 236.203C408.629 236.244 407.356 235.892 406.27 235.194Z" fill="#263238"/>
<path d="M414.634 235.194L415.298 233.866C416.223 234.464 417.302 234.783 418.404 234.782C419.891 234.782 420.502 234.331 420.502 233.588C420.502 231.596 414.913 233.322 414.913 229.791C414.913 228.211 416.333 227.136 418.603 227.136C419.731 227.117 420.844 227.396 421.829 227.945L421.139 229.207C420.376 228.728 419.49 228.483 418.59 228.503C417.183 228.503 416.506 229.021 416.506 229.724C416.506 231.809 422.108 230.109 422.108 233.548C422.108 235.154 420.648 236.203 418.285 236.203C416.994 236.244 415.721 235.892 414.634 235.194Z" fill="#263238"/>
<path d="M437.389 227.228L434.083 236.07H432.543L429.994 229.432L427.405 236.07H425.865L422.533 227.228H424.113L426.689 234.265L429.344 227.228H430.671L433.326 234.304L435.982 227.228H437.389Z" fill="#263238"/>
<path d="M437.892 231.663C437.865 229.8 438.966 228.106 440.678 227.373C442.391 226.64 444.376 227.014 445.705 228.32C447.033 229.626 447.442 231.604 446.739 233.329C446.037 235.054 444.362 236.184 442.499 236.19C441.275 236.246 440.083 235.789 439.209 234.93C438.335 234.071 437.858 232.887 437.892 231.663ZM445.46 231.663C445.38 230.04 444.012 228.782 442.389 228.837C440.765 228.892 439.486 230.239 439.516 231.864C439.546 233.488 440.874 234.788 442.499 234.782C443.319 234.804 444.109 234.476 444.674 233.881C445.238 233.287 445.524 232.48 445.46 231.663Z" fill="#263238"/>
<path d="M454.063 227.149V228.702H453.691C452.903 228.656 452.135 228.964 451.596 229.541C451.057 230.118 450.803 230.906 450.903 231.689L450.903 236.097H449.337V227.228H450.864V228.702C451.555 227.625 452.79 227.026 454.063 227.149Z" fill="#263238"/>
<path d="M464.298 223.697V236.083H462.758V234.676C462.022 235.675 460.838 236.242 459.598 236.19C457.197 236.059 455.316 234.074 455.316 231.669C455.316 229.264 457.197 227.279 459.598 227.149C460.796 227.106 461.944 227.633 462.692 228.569V223.697H464.298ZM462.705 231.663C462.632 230.03 461.262 228.759 459.629 228.81C457.996 228.86 456.706 230.213 456.734 231.846C456.762 233.48 458.097 234.788 459.731 234.782C460.552 234.803 461.343 234.476 461.91 233.882C462.476 233.288 462.765 232.481 462.705 231.663Z" fill="#263238"/>
<path d="M472.555 227.481C472.555 226.419 471.679 225.688 470.166 225.688C469.015 225.625 467.903 226.119 467.179 227.016L465.971 226.153C467.023 224.871 468.63 224.174 470.285 224.281C472.688 224.281 474.268 225.396 474.268 227.255C474.268 230.043 471.321 230.215 471.321 232.406H469.648C469.622 229.777 472.555 229.406 472.555 227.481ZM469.383 235.114C469.444 234.563 469.91 234.146 470.465 234.146C471.019 234.146 471.485 234.563 471.547 235.114C471.485 235.666 471.019 236.083 470.465 236.083C469.91 236.083 469.444 235.666 469.383 235.114Z" fill="#263238"/>
<path d="M505.905 260.06C505.905 260.259 458.935 260.405 401.026 260.405C343.117 260.405 296.147 260.259 296.147 260.06C296.147 259.86 343.104 259.714 401.026 259.714C458.949 259.714 505.905 259.874 505.905 260.06Z" fill="black"/>
<path d="M461.126 271.278C461.126 271.463 434.216 271.623 401.013 271.623C367.81 271.623 340.887 271.463 340.887 271.278C340.887 271.092 367.81 270.932 401.013 270.932C434.216 270.932 461.126 271.039 461.126 271.278Z" fill="black"/>
<path d="M442.167 129.107C454.372 117.723 455.765 98.865 445.365 85.8109C434.966 72.7568 416.274 69.9 402.449 79.2517C388.625 88.6035 384.322 107.016 392.569 121.527L386.064 127.594L387.63 138.387L377.527 135.625L369.389 143.219L371.009 153.946L360.919 151.118L353.923 157.637L354.879 164.275L348.719 162.549L344.657 166.346L344.046 176.342L358.955 180.099L407.345 134.962C419.075 140.176 432.787 137.87 442.167 129.107ZM437.388 89.7974C440.847 93.5014 440.647 99.3085 436.942 102.766C433.236 106.223 427.429 106.021 423.973 102.314C420.518 98.6073 420.722 92.8003 424.431 89.3461C428.135 85.896 433.933 86.098 437.388 89.7974Z" fill="#263238"/>
<path d="M437.389 89.7975C437.389 89.7975 436.791 89.2399 435.57 88.4699C433.833 87.4322 431.806 86.9894 429.795 87.2087C425.269 87.6971 421.856 91.547 421.914 96.0991C421.973 100.651 425.483 104.412 430.02 104.785C434.557 105.157 438.633 102.019 439.433 97.5373C439.802 95.5484 439.499 93.4931 438.57 91.6959C437.906 90.3683 437.322 89.8373 437.389 89.7842C437.455 89.7311 437.561 89.9037 437.827 90.1825C438.217 90.5845 438.56 91.03 438.849 91.51C439.928 93.3411 440.332 95.4924 439.991 97.5904C439.59 100.112 438.186 102.364 436.097 103.832C434.008 105.301 431.414 105.86 428.905 105.383C424.798 104.63 421.67 101.275 421.205 97.1257C420.905 94.5921 421.642 92.0446 423.251 90.0638C424.859 88.083 427.2 86.8375 429.742 86.6113C431.864 86.4154 433.987 86.9697 435.742 88.1778C436.228 88.4898 436.674 88.8598 437.07 89.2798C437.389 89.6249 437.468 89.7842 437.389 89.7975Z" fill="#263238"/>
<path d="M442.167 129.107C442.167 129.107 442.021 129.266 441.702 129.545L440.295 130.873C438.388 132.426 436.313 133.762 434.109 134.855C425.619 138.922 415.774 139.063 407.172 135.24L407.438 135.24L359.127 180.458L358.994 180.604H358.795L343.886 176.86L343.581 176.794V176.475C343.767 173.355 343.966 169.943 344.178 166.478V166.16L344.285 166.054L348.44 162.177L348.586 162.031H348.798L354.958 163.757L354.467 164.182C354.162 162.124 353.843 159.867 353.511 157.544V157.345L353.657 157.212L360.654 150.68L360.813 150.521H361.025L371.115 153.349L370.624 153.787C370.133 150.362 369.602 146.698 369.071 142.994V142.781L369.23 142.648L371.381 140.63L377.368 135.055L377.527 134.895H377.74L387.843 137.723L387.338 138.161C386.816 134.524 386.298 130.926 385.785 127.368V127.169L385.931 127.023L392.436 120.956L392.37 121.434C389.852 116.962 388.428 111.958 388.214 106.83C388.09 104.353 388.268 101.87 388.745 99.4357C389.18 97.0421 389.893 94.7075 390.869 92.4792C395.897 80.9726 407.145 73.429 419.699 73.1442C432.253 72.8593 443.831 79.8849 449.376 91.1516C451.923 96.3577 453.01 102.157 452.522 107.932C452.186 112.237 450.965 116.426 448.938 120.239C448.739 120.637 448.539 121.009 448.34 121.381L447.69 122.39C447.252 123.04 446.893 123.717 446.468 124.208C445.605 125.244 444.942 126.173 444.291 126.863L442.698 128.629L442.18 129.107C442.18 129.107 442.326 128.921 442.645 128.576L444.079 127.049C444.703 126.386 445.406 125.443 446.19 124.394C446.588 123.85 446.933 123.213 447.358 122.575C447.57 122.243 447.783 121.912 447.995 121.553L448.579 120.425C453.919 110.151 453.231 97.7821 446.783 88.1644C440.336 78.5467 429.156 73.2112 417.623 74.2481C406.091 75.2851 396.042 82.5293 391.414 93.1429C390.467 95.3225 389.772 97.603 389.343 99.9401C388.889 102.319 388.719 104.743 388.838 107.162C389.065 112.151 390.461 117.017 392.914 121.367L393.06 121.633L392.834 121.845L386.342 127.912L386.462 127.567C386.975 131.107 387.493 134.709 388.015 138.374L388.108 138.971L387.511 138.812L377.421 135.984L377.806 135.891L371.819 141.467L369.681 143.445L369.801 143.086C370.332 146.79 370.863 150.468 371.354 153.88L371.447 154.49L370.85 154.331L360.76 151.49L361.132 151.397C358.729 153.654 356.339 155.871 354.135 157.929L354.268 157.584C354.587 159.854 354.905 162.111 355.211 164.222L355.29 164.806L354.719 164.646L348.573 162.921L348.931 162.828L344.856 166.624L344.975 166.372C344.763 169.837 344.55 173.249 344.364 176.369L344.086 175.984L358.994 179.741L358.662 179.834L407.119 134.776L407.239 134.67H407.385C415.866 138.486 425.589 138.418 434.016 134.484C436.213 133.437 438.295 132.165 440.229 130.687L441.676 129.479L442.167 129.107Z" fill="#263238"/>
<path d="M441.092 125.483C453.291 114.105 454.685 95.2583 444.294 82.2089C433.903 69.1595 415.222 66.2987 401.402 75.6401C387.582 84.9816 383.272 103.382 391.507 117.889L385.015 123.943L386.568 134.749L376.479 131.908L368.354 139.515L369.907 150.309L359.817 147.481L352.821 154.012L353.764 160.65L347.617 158.938L343.541 162.735L342.931 172.731L357.839 176.475L406.23 131.337C417.97 136.58 431.709 134.273 441.092 125.483ZM436.366 86.1732C439.825 89.8772 439.625 95.6843 435.919 99.1417C432.214 102.599 426.407 102.397 422.951 98.6899C419.495 94.983 419.7 89.1761 423.409 85.7218C425.186 84.0616 427.55 83.1763 429.981 83.2609C432.411 83.3456 434.708 84.3933 436.366 86.1732Z" fill="#92E3A9"/>
<path d="M436.366 86.1731C436.366 86.1731 435.769 85.6156 434.548 84.8456C432.829 83.7736 430.801 83.3064 428.786 83.518C424.272 84.0143 420.874 87.8584 420.935 92.399C420.996 96.9396 424.497 100.691 429.022 101.065C433.548 101.44 437.617 98.3153 438.424 93.8465C438.79 91.8562 438.482 89.8006 437.548 88.0052C436.884 86.6776 436.313 86.1466 436.366 86.0935C436.42 86.0404 436.539 86.213 436.818 86.4917C437.203 86.8946 437.542 87.34 437.827 87.8193C438.91 89.6537 439.315 91.8107 438.969 93.9129C438.564 96.43 437.161 98.6772 435.076 100.145C432.991 101.612 430.402 102.175 427.896 101.706C423.791 100.993 420.636 97.677 420.13 93.5412C419.837 91.009 420.578 88.4656 422.184 86.4865C423.791 84.5075 426.128 83.2602 428.667 83.0268C430.79 82.8336 432.914 83.3928 434.667 84.6066C435.156 84.9146 435.602 85.285 435.995 85.7085C436.274 86.0005 436.393 86.1599 436.366 86.1731Z" fill="#263238"/>
<path d="M441.092 125.483C441.092 125.483 440.946 125.642 440.641 125.921L439.234 127.169C437.323 128.718 435.248 130.054 433.047 131.152C424.553 135.217 414.704 135.358 406.097 131.537H406.363L358.065 176.754L357.919 176.887H357.734L342.812 173.143L342.52 173.063V172.758C342.705 169.638 342.918 166.226 343.117 162.761V162.602L343.223 162.509L347.299 158.699L347.458 158.553H347.671L353.817 160.265L353.326 160.703C353.034 158.646 352.702 156.389 352.37 154.066V153.866L352.529 153.72L359.513 147.202L359.672 147.043L359.898 147.109L369.987 149.937L369.483 150.375L367.929 139.608V139.396L368.075 139.25L370.239 137.245L376.213 131.669L376.373 131.51L376.598 131.576L386.688 134.404L386.184 134.842C385.661 131.205 385.144 127.607 384.63 124.049V123.837L384.79 123.704L391.295 117.637L391.215 118.115C388.698 113.643 387.274 108.639 387.06 103.511C386.942 101.034 387.12 98.5517 387.591 96.1167C388.028 93.7237 388.741 91.3893 389.715 89.1602C395.954 74.6549 411.792 66.8157 427.11 70.6516C442.427 74.4875 452.701 88.8662 451.368 104.6C451.029 108.905 449.809 113.094 447.783 116.907L447.186 118.048L446.535 119.057C446.097 119.708 445.739 120.385 445.327 120.876C444.464 121.912 443.8 122.841 443.15 123.531L441.61 125.005C441.278 125.337 441.092 125.496 441.092 125.496C441.092 125.496 441.251 125.297 441.57 124.952L442.991 123.438C443.615 122.775 444.318 121.832 445.101 120.783C445.5 120.252 445.858 119.615 446.283 118.964L446.92 117.955L447.491 116.814C449.453 113.022 450.623 108.871 450.93 104.613C452.094 89.2194 441.992 75.228 427.014 71.4899C412.035 67.7519 396.544 75.3561 390.339 89.4921C389.397 91.6721 388.706 93.9526 388.281 96.2893C387.82 98.6672 387.651 101.092 387.777 103.511C387.999 108.499 389.391 113.365 391.839 117.716L391.998 117.982L391.773 118.194L385.268 124.261L385.387 123.916C385.909 127.456 386.427 131.054 386.94 134.709L387.033 135.32L386.449 135.148L376.32 132.307L376.691 132.214L370.717 137.803L368.553 139.807L368.673 139.462C369.217 143.166 369.735 146.83 370.226 150.255L370.319 150.866L369.735 150.694L359.632 147.866L360.017 147.773L353.021 154.291L353.14 153.959C353.459 156.23 353.791 158.473 354.083 160.531L354.162 161.128L353.592 160.969L347.445 159.243L347.803 159.15L343.741 162.947L343.86 162.682C343.648 166.147 343.436 169.572 343.236 172.678L342.958 172.293L357.866 176.064L357.534 176.156L405.991 131.098L406.111 130.992L406.257 131.059C414.742 134.856 424.456 134.788 432.888 130.873C435.088 129.824 437.174 128.551 439.114 127.076L440.548 125.868L441.092 125.483Z" fill="#263238"/>
<path d="M438.158 122.987C439.735 121.299 441.173 119.488 442.46 117.57C443.916 115.297 445.021 112.818 445.739 110.216C446.72 106.766 447.031 103.161 446.655 99.595C446.219 95.2855 444.777 91.1384 442.446 87.4875C439.762 83.3078 436.014 79.9172 431.587 77.6634C429.216 76.4288 426.667 75.569 424.033 75.1144C422.678 74.8613 421.307 74.7017 419.931 74.6365C418.525 74.6149 417.119 74.6858 415.722 74.8489C403.682 76.2299 393.951 85.3038 391.733 97.2186C391.473 98.5999 391.304 99.9969 391.228 101.4C391.201 102.78 391.268 104.159 391.427 105.529C391.695 108.19 392.376 110.792 393.445 113.243C395.384 117.818 398.51 121.791 402.499 124.753C405.972 127.338 410.007 129.067 414.275 129.797C417.794 130.421 421.399 130.362 424.896 129.625C427.542 129.082 430.093 128.147 432.463 126.85C434.465 125.706 436.369 124.401 438.158 122.947C438.158 122.947 438.065 123.067 437.84 123.266L436.844 124.168C436.311 124.658 435.738 125.102 435.131 125.496C434.334 126.1 433.49 126.642 432.609 127.116C430.233 128.476 427.664 129.466 424.989 130.05C411.669 133.025 398.122 126.075 392.768 113.521C391.661 110.991 390.953 108.304 390.671 105.556C390.29 102.751 390.376 99.9027 390.923 97.1257C393.187 84.8643 403.2 75.5242 415.589 74.1187C418.432 73.7529 421.315 73.8516 424.126 74.4108C426.83 74.8967 429.444 75.792 431.879 77.066C436.412 79.392 440.24 82.8896 442.964 87.1954C447.315 94.1116 448.485 102.563 446.177 110.401C445.411 113.035 444.243 115.534 442.712 117.809C442.186 118.654 441.591 119.453 440.933 120.199C440.491 120.778 440.003 121.319 439.473 121.819L438.504 122.748C438.291 122.894 438.172 123 438.158 122.987Z" fill="#263238"/>
<path d="M436.87 100.299C436.804 100.299 437.534 99.6083 438.423 98.1878C439.675 96.1603 440.208 93.7709 439.937 91.4039C439.563 87.8796 437.415 84.7903 434.241 83.2127C432.417 82.279 430.355 81.9136 428.321 82.1639C425.082 82.5543 422.215 84.4421 420.577 87.2624C418.938 90.0827 418.719 93.5085 419.983 96.515C420.714 98.2214 421.876 99.7083 423.355 100.83C424.658 101.8 426.166 102.458 427.763 102.755C430.108 103.187 432.53 102.818 434.64 101.706C436.127 100.923 436.804 100.232 436.87 100.299C436.936 100.365 436.724 100.498 436.392 100.803C435.908 101.263 435.369 101.66 434.786 101.985C431.072 104.136 426.437 103.891 422.97 101.361C419.505 98.8539 417.798 94.5716 418.589 90.3683C419.468 85.577 423.386 81.9294 428.228 81.3939C430.415 81.1296 432.632 81.5322 434.587 82.5489C436.35 83.4686 437.836 84.8438 438.888 86.5317C441.154 90.1707 441.076 94.7997 438.689 98.3604C438.309 98.9164 437.863 99.4246 437.361 99.8738C437.069 100.179 436.883 100.325 436.87 100.299Z" fill="#263238"/>
<path d="M353.91 174.643C353.764 174.484 364.65 164.022 378.244 151.397C391.839 138.772 402.977 128.576 403.123 128.735C403.269 128.895 392.383 139.356 378.788 151.981C365.194 164.607 354.056 174.802 353.91 174.643Z" fill="#263238"/>
<path d="M359.911 111.291L360.363 110.309L360.947 111.211C361.424 111.932 362.096 112.503 362.885 112.857L363.881 113.296L362.978 113.893C362.25 114.367 361.674 115.039 361.318 115.831L360.88 116.814L360.283 115.911C359.808 115.188 359.135 114.616 358.345 114.265L357.362 113.827L358.265 113.229C358.992 112.759 359.565 112.085 359.911 111.291Z" fill="#92E3A9"/>
<path d="M330.293 103.91L330.545 103.339L330.89 103.857C331.163 104.28 331.556 104.612 332.018 104.812L332.589 105.078L332.058 105.423C331.641 105.697 331.31 106.084 331.102 106.538L330.85 107.122L330.505 106.591C330.232 106.168 329.839 105.836 329.377 105.635L328.806 105.37L329.323 105.038C329.744 104.758 330.079 104.368 330.293 103.91Z" fill="#92E3A9"/>
<path d="M423.582 154.397L423.834 153.827L424.179 154.358C424.463 154.771 424.853 155.101 425.307 155.313L425.878 155.566L425.361 155.911C424.938 156.184 424.605 156.577 424.405 157.039L424.139 157.61L423.794 157.092C423.521 156.67 423.135 156.334 422.679 156.123L422.095 155.871L422.626 155.526C423.049 155.252 423.381 154.86 423.582 154.397Z" fill="#92E3A9"/>
<path d="M469.251 128.51L469.689 127.527L470.286 128.43C470.761 129.154 471.434 129.725 472.224 130.076L473.207 130.514L472.304 131.112C471.58 131.585 471.008 132.259 470.658 133.05L470.207 134.032L469.622 133.13C469.141 132.412 468.47 131.842 467.684 131.483L466.688 131.045L467.591 130.448C468.319 129.974 468.895 129.301 469.251 128.51Z" fill="#92E3A9"/>
<path d="M463.316 92.2402L464.059 90.5807L465.055 92.1074C465.855 93.3213 466.983 94.2834 468.308 94.882L469.967 95.6122L468.44 96.6079C467.229 97.4158 466.267 98.5472 465.666 99.8737L464.922 101.533L463.927 100.007C463.127 98.7926 461.999 97.8306 460.674 97.2319L459.015 96.4884L460.541 95.4927C461.755 94.6927 462.717 93.5649 463.316 92.2402Z" fill="#92E3A9"/>
<path d="M350.711 81.062L351.454 79.4025L352.45 80.916C353.246 82.1333 354.375 83.0963 355.703 83.6906L357.362 84.434L355.849 85.4297C354.628 86.2218 353.664 87.3519 353.074 88.6823L352.331 90.3418L351.335 88.8283C350.537 87.6076 349.403 86.6439 348.069 86.0537L346.423 85.3102L347.936 84.3146C349.154 83.5184 350.117 82.3895 350.711 81.062Z" fill="#92E3A9"/>
<path d="M491.66 333.846C491.66 333.846 492.085 333.846 492.908 333.74C493.425 333.732 493.941 333.674 494.448 333.568L495.417 333.408L496.519 333.116C498.447 332.619 500.278 331.802 501.935 330.7C505.579 328.315 508.296 324.754 509.635 320.61C510.172 318.917 510.467 317.156 510.512 315.38C510.512 314.45 510.512 313.481 510.512 312.525L510.432 311.065C510.432 310.574 510.286 310.083 510.206 309.591C509.822 307.539 509.109 305.562 508.095 303.737C505.799 299.674 502.075 296.608 497.647 295.134C495.243 294.367 492.721 294.034 490.2 294.152H482.154L310.379 294.258C306.249 294.261 302.235 295.629 298.962 298.148C297.363 299.396 295.966 300.882 294.82 302.555C293.705 304.234 292.867 306.081 292.337 308.025C292.076 308.992 291.885 309.977 291.766 310.972C291.766 311.968 291.634 312.964 291.66 313.986C291.603 315.975 291.845 317.962 292.377 319.88C292.924 321.764 293.752 323.554 294.833 325.191C295.947 326.796 297.289 328.232 298.816 329.452C300.336 330.658 302.039 331.613 303.861 332.28C304.756 332.614 305.675 332.885 306.609 333.089C307.551 333.266 308.505 333.376 309.463 333.421C313.3 333.514 317.176 333.421 320.973 333.421H343.29L420.515 333.488L472.583 333.607L486.735 333.674H490.425H491.673C491.673 333.674 491.248 333.674 490.425 333.674H486.735L472.583 333.74L420.515 333.846L343.29 333.926H320.96C317.15 333.926 313.326 333.926 309.41 333.926C308.421 333.881 307.436 333.77 306.463 333.594C305.493 333.378 304.539 333.094 303.608 332.744C301.723 332.059 299.961 331.072 298.391 329.824C295.171 327.305 292.845 323.819 291.753 319.88C291.208 317.901 290.958 315.852 291.01 313.8C291.01 312.791 291.01 311.742 291.116 310.72C291.242 309.689 291.441 308.669 291.713 307.666C292.266 305.648 293.135 303.73 294.289 301.984C295.474 300.246 296.926 298.705 298.59 297.417C301.986 294.823 306.145 293.423 310.419 293.435L482.194 293.528H490.239C492.811 293.426 495.38 293.772 497.833 294.55C502.34 296.083 506.122 299.227 508.454 303.378C509.486 305.245 510.208 307.267 510.591 309.366L510.817 310.866C510.817 311.37 510.817 311.862 510.817 312.353C510.817 313.335 510.817 314.278 510.817 315.234C510.759 317.037 510.45 318.825 509.901 320.544C509.381 322.094 508.672 323.574 507.79 324.951C506.312 327.269 504.346 329.236 502.028 330.713C500.34 331.806 498.483 332.614 496.532 333.103L495.417 333.368L494.435 333.514C493.926 333.607 493.411 333.655 492.895 333.66L491.66 333.846Z" fill="#263238"/>
<path d="M291.314 356.733C291.314 348.807 297.739 342.383 305.664 342.383H496.36C504.285 342.383 510.71 348.807 510.71 356.733V367.953C510.71 375.878 504.285 382.303 496.36 382.303H305.664C297.739 382.303 291.314 375.878 291.314 367.953V356.733Z" fill="#92E3A9"/>
<path d="M335.364 321.845C335.338 321.452 335.338 321.057 335.364 320.663C335.364 319.84 335.364 318.765 335.298 317.437C335.298 314.596 335.218 310.667 335.152 305.927L335.43 306.193L311.707 306.273L312.052 305.927V310.096C312.052 311.424 312.052 312.831 312.052 314.158C312.052 316.814 312.052 319.389 312.052 321.818L311.733 321.5L328.739 321.659L333.651 321.739H334.979H335.457C334.902 321.802 334.343 321.829 333.784 321.818L328.939 321.898L311.68 322.057H311.268V321.739C311.268 319.309 311.268 316.747 311.268 314.079C311.268 312.751 311.268 311.424 311.268 310.016V305.954C310.963 306.259 311.693 305.529 311.614 305.595L335.337 305.675H335.616V305.954C335.55 310.773 335.497 314.756 335.47 317.637C335.47 318.964 335.47 320 335.391 320.81C335.405 321.155 335.396 321.501 335.364 321.845Z" fill="#263238"/>
<path d="M335.364 305.927C334.337 307.069 333.228 308.134 332.045 309.114C329.947 311.025 327 313.614 323.734 316.455H323.217L323.137 316.389L322.978 316.256L322.672 315.99L322.075 315.473L320.907 314.45L318.69 312.499L314.972 309.18C313.79 308.2 312.68 307.136 311.653 305.994C312.922 306.815 314.125 307.734 315.251 308.742L319.061 311.955L321.305 313.866L322.486 314.875L323.097 315.406L323.389 315.672L323.548 315.791L323.628 315.858H323.217C326.496 313.03 329.483 310.547 331.673 308.675C332.829 307.663 334.063 306.744 335.364 305.927Z" fill="#263238"/>
<path d="M320.203 313.335C319.057 314.987 317.72 316.497 316.22 317.836C314.866 319.33 313.348 320.666 311.693 321.818C312.848 320.174 314.184 318.664 315.676 317.318C317.034 315.828 318.552 314.492 320.203 313.335Z" fill="#263238"/>
<path d="M335.364 321.845C333.782 320.59 332.352 319.156 331.102 317.57C329.683 316.139 328.427 314.553 327.358 312.844C328.936 314.104 330.365 315.538 331.62 317.119C333.044 318.546 334.3 320.132 335.364 321.845Z" fill="#263238"/>
<path d="M349.688 317.066V317.597H344.179V309.631H349.489V310.162H344.736V313.309H348.985V313.826H344.736V317.092L349.688 317.066Z" fill="#263238"/>
<path d="M361.411 314.119V317.597H360.84V314.158C360.84 312.831 360.137 312.101 358.982 312.101C358.37 312.074 357.778 312.315 357.359 312.762C356.941 313.208 356.738 313.815 356.805 314.424V317.597H356.234V314.158C356.234 312.831 355.53 312.101 354.375 312.101C353.764 312.074 353.171 312.315 352.752 312.762C352.334 313.209 352.131 313.816 352.198 314.424V317.597H351.627V311.636H352.171V312.964C352.591 312.097 353.494 311.572 354.455 311.636C355.424 311.555 356.323 312.147 356.632 313.07C357.067 312.148 358.017 311.582 359.035 311.636C359.698 311.588 360.347 311.838 360.807 312.318C361.267 312.798 361.488 313.458 361.411 314.119Z" fill="#263238"/>
<path d="M368.049 313.813V317.597H367.505V316.535C367.05 317.275 366.221 317.7 365.354 317.637C364.027 317.637 363.217 316.96 363.217 315.937C363.217 314.915 363.788 314.278 365.434 314.278H367.478V313.8C367.528 313.324 367.356 312.851 367.011 312.519C366.666 312.187 366.187 312.033 365.713 312.101C364.96 312.093 364.229 312.357 363.655 312.844L363.376 312.433C364.043 311.88 364.886 311.583 365.753 311.596C366.371 311.506 366.995 311.707 367.445 312.141C367.894 312.575 368.117 313.192 368.049 313.813ZM367.478 315.831V314.716H365.447C364.212 314.716 363.788 315.234 363.788 315.911C363.788 316.588 364.385 317.172 365.434 317.172C366.337 317.227 367.169 316.681 367.478 315.831Z" fill="#263238"/>
<path d="M370.213 309.737C370.213 309.481 370.421 309.273 370.678 309.273C370.934 309.273 371.142 309.481 371.142 309.737C371.142 309.994 370.934 310.202 370.678 310.202C370.421 310.202 370.213 309.994 370.213 309.737ZM370.385 311.636H371.009V317.597H370.439L370.385 311.636Z" fill="#263238"/>
<path d="M373.359 309.127H373.93V317.597H373.359V309.127Z" fill="#263238"/>
<path d="M357.296 367.7L355.145 364.686C354.853 364.706 354.56 364.706 354.269 364.686H351.693V367.633H351.096V358.659H354.322C356.579 358.659 357.946 359.787 357.946 361.699C358.008 363.022 357.123 364.203 355.835 364.513L358.092 367.66L357.296 367.7ZM354.269 364.182C356.194 364.182 357.229 363.279 357.229 361.739C357.229 360.199 356.194 359.283 354.269 359.283H351.693V364.182H354.269Z" fill="white"/>
<path d="M365.765 364.5H359.99C359.988 365.238 360.293 365.943 360.832 366.447C361.371 366.95 362.095 367.207 362.831 367.155C363.651 367.184 364.441 366.843 364.982 366.226L365.353 366.651C364.716 367.378 363.784 367.778 362.818 367.739C361.896 367.785 360.998 367.441 360.342 366.793C359.685 366.144 359.331 365.25 359.366 364.328C359.289 363.133 359.883 361.994 360.906 361.374C361.93 360.753 363.214 360.753 364.238 361.374C365.261 361.994 365.855 363.133 365.778 364.328C365.778 364.328 365.765 364.434 365.765 364.5ZM360.003 363.996H365.154C365.154 362.573 364.001 361.42 362.579 361.42C361.156 361.42 360.003 362.573 360.003 363.996Z" fill="white"/>
<path d="M366.788 366.89L367.08 366.372C367.775 366.899 368.624 367.184 369.496 367.182C370.917 367.182 371.488 366.691 371.488 365.921C371.488 363.969 367.027 365.416 367.027 362.774C367.027 361.765 367.877 360.942 369.576 360.942C370.393 360.927 371.197 361.153 371.886 361.593L371.581 362.111C370.988 361.701 370.283 361.488 369.563 361.5C368.235 361.5 367.678 362.044 367.678 362.761C367.678 364.779 372.125 363.358 372.125 365.921C372.125 367.009 371.182 367.753 369.47 367.753C368.503 367.783 367.556 367.478 366.788 366.89Z" fill="white"/>
<path d="M379.599 364.5H373.824C373.822 365.238 374.128 365.943 374.666 366.447C375.205 366.95 375.929 367.207 376.665 367.155C377.485 367.184 378.275 366.843 378.816 366.226L379.188 366.651C378.548 367.375 377.618 367.775 376.652 367.739C375.729 367.785 374.83 367.441 374.172 366.793C373.513 366.145 373.156 365.251 373.187 364.328C373.136 363.441 373.453 362.574 374.064 361.93C374.675 361.286 375.525 360.924 376.413 360.929C377.295 360.92 378.141 361.278 378.748 361.918C379.355 362.558 379.668 363.421 379.613 364.301C379.613 364.301 379.599 364.434 379.599 364.5ZM373.838 363.996H378.975C378.878 362.648 377.757 361.605 376.406 361.605C375.056 361.605 373.934 362.648 373.838 363.996Z" fill="white"/>
<path d="M384.936 367.275C384.563 367.586 384.093 367.755 383.608 367.753C383.109 367.804 382.614 367.627 382.261 367.271C381.908 366.915 381.734 366.419 381.789 365.921L381.789 361.54H380.555V360.982H381.789V359.522H382.427V360.982H384.564V361.54H382.427V365.868C382.427 366.73 382.851 367.195 383.674 367.195C384.058 367.206 384.432 367.074 384.723 366.823L384.936 367.275Z" fill="white"/>
<path d="M397.096 361.739C397.096 363.624 395.768 364.752 393.471 364.752H390.923V367.7H390.259V358.659H393.498C395.728 358.659 397.096 359.827 397.096 361.739ZM396.432 361.739C396.432 360.172 395.396 359.283 393.471 359.283H390.923V364.168H393.498C395.396 364.168 396.432 363.279 396.432 361.739Z" fill="white"/>
<path d="M403.894 363.438V367.7H403.27V366.505C402.768 367.347 401.831 367.83 400.854 367.753C399.354 367.753 398.438 366.983 398.438 365.841C398.438 364.699 399.075 363.956 400.947 363.956H403.243V363.425C403.302 362.886 403.109 362.351 402.719 361.974C402.33 361.598 401.788 361.423 401.252 361.5C400.4 361.49 399.574 361.792 398.929 362.349L398.61 361.885C399.358 361.271 400.297 360.938 401.265 360.942C401.967 360.831 402.68 361.052 403.195 361.542C403.711 362.031 403.969 362.732 403.894 363.438ZM403.243 365.722V364.46H400.96C399.566 364.46 399.075 365.044 399.075 365.788C399.075 366.531 399.752 367.195 400.947 367.195C401.954 367.266 402.888 366.666 403.243 365.722Z" fill="white"/>
<path d="M405.526 366.89L405.818 366.372C406.51 366.906 407.361 367.191 408.235 367.182C409.655 367.182 410.213 366.691 410.213 365.921C410.213 363.969 405.765 365.416 405.765 362.774C405.765 361.765 406.615 360.942 408.314 360.942C409.128 360.925 409.928 361.151 410.611 361.593L410.319 362.11C409.726 361.703 409.021 361.49 408.301 361.5C406.973 361.5 406.403 362.044 406.403 362.761C406.403 364.779 410.863 363.358 410.863 365.921C410.863 367.009 409.921 367.753 408.208 367.753C407.241 367.785 406.293 367.48 405.526 366.89Z" fill="white"/>
<path d="M411.699 366.89L411.991 366.372C412.686 366.899 413.535 367.184 414.408 367.182C415.828 367.182 416.399 366.691 416.399 365.921C416.399 363.969 411.938 365.416 411.938 362.774C411.938 361.765 412.788 360.942 414.487 360.942C415.304 360.927 416.108 361.153 416.797 361.593L416.492 362.111C415.899 361.701 415.194 361.488 414.474 361.5C413.146 361.5 412.589 362.044 412.589 362.761C412.589 364.779 417.036 363.358 417.036 365.921C417.036 367.009 416.094 367.753 414.381 367.753C413.414 367.783 412.467 367.478 411.699 366.89Z" fill="white"/>
<path d="M428.308 360.982L425.759 367.7H425.148L422.891 361.872L420.608 367.7H420.024L417.475 360.982H418.085L420.329 366.983L422.626 360.982H423.17L425.453 366.969L427.71 360.982H428.308Z" fill="white"/>
<path d="M428.879 364.341C428.908 362.491 430.428 361.014 432.277 361.035C434.127 361.057 435.611 362.571 435.596 364.42C435.582 366.27 434.074 367.76 432.224 367.753C431.317 367.78 430.44 367.427 429.805 366.779C429.17 366.131 428.834 365.247 428.879 364.341ZM434.933 364.341C434.839 362.901 433.612 361.799 432.17 361.861C430.728 361.922 429.599 363.124 429.629 364.567C429.658 366.01 430.834 367.166 432.278 367.169C433.013 367.17 433.716 366.867 434.219 366.331C434.722 365.795 434.981 365.074 434.933 364.341Z" fill="white"/>
<path d="M440.761 360.942V361.566H440.602C439.115 361.566 438.225 362.562 438.225 364.221V367.713H437.588V360.995H438.199V362.469C438.635 361.461 439.667 360.846 440.761 360.942Z" fill="white"/>
<path d="M448.434 358.154V367.7H447.81V366.12C447.286 367.15 446.216 367.786 445.061 367.753C443.263 367.64 441.862 366.149 441.862 364.347C441.862 362.546 443.263 361.055 445.061 360.942C446.205 360.913 447.265 361.536 447.796 362.549L447.796 358.154H448.434ZM447.796 364.341C447.702 362.901 446.475 361.799 445.034 361.861C443.592 361.922 442.463 363.124 442.492 364.567C442.521 366.01 443.698 367.165 445.141 367.169C445.876 367.17 446.579 366.867 447.082 366.331C447.586 365.795 447.844 365.074 447.796 364.341Z" fill="white"/>
<path d="M534.089 21.5599C534.089 21.7458 472.715 21.9051 397.017 21.9051C321.318 21.9051 259.944 21.7458 259.944 21.5599C259.944 21.374 321.305 21.2147 397.017 21.2147C472.729 21.2147 534.089 21.374 534.089 21.5599Z" fill="#263238"/>
<path d="M275.423 10.6737C275.416 12.5123 273.921 13.9976 272.082 13.9927C270.244 13.9878 268.756 12.4947 268.759 10.6561C268.761 8.81746 270.252 7.32826 272.091 7.32825C272.977 7.32825 273.827 7.68114 274.452 8.30894C275.077 8.93671 275.427 9.78769 275.423 10.6737Z" fill="#263238"/>
<path d="M285.062 10.6737C285.055 12.5123 283.559 13.9976 281.721 13.9927C279.882 13.9878 278.395 12.4947 278.397 10.6561C278.4 8.81746 279.891 7.32826 281.73 7.32825C282.616 7.32825 283.465 7.68114 284.091 8.30893C284.716 8.93671 285.065 9.7877 285.062 10.6737Z" fill="#263238"/>
<path d="M294.647 10.6737C294.641 12.0239 293.822 13.2373 292.571 13.7464C291.321 14.2556 289.887 13.9599 288.94 12.9976C287.993 12.0353 287.72 10.5966 288.249 9.35442C288.778 8.11225 290.004 7.31212 291.355 7.32824C293.184 7.35009 294.654 8.84368 294.647 10.6737Z" fill="#263238"/>
<path d="M534.58 416.409C534.58 413.567 534.448 245.23 534.262 0.371704L534.58 0.690327H260.05L260.395 0.345158C260.395 157.345 260.395 302.091 260.316 416.382L260.05 416.116L534.607 416.382L260.05 416.661H259.771V416.382C259.771 302.091 259.771 157.345 259.705 0.345169V0H260.077H534.607H534.925V0.318623C534.713 245.23 534.58 413.581 534.58 416.409Z" fill="#263238"/>
<path d="M529.562 528.589C529.501 528.402 529.425 528.22 529.336 528.045C529.15 527.66 528.911 527.155 528.606 526.491C527.716 524.481 527.001 522.398 526.469 520.265C524.754 512.341 524.813 504.135 526.641 496.236C527.783 490.761 529.273 485.364 531.102 480.079C532.987 474.357 535.191 468.277 536.97 461.706C538.998 454.843 539.978 447.713 539.877 440.557C539.599 433.083 537.395 425.622 534.952 418.187C532.509 410.753 530.013 403.478 529.257 396.163C528.409 389.133 529.803 382.015 533.239 375.824C536.465 369.89 540.515 364.805 543.555 359.548C546.385 354.671 548.474 349.401 549.755 343.909C551.577 335.945 551.708 327.686 550.14 319.668C549.581 316.738 548.736 313.87 547.617 311.105C547.649 311.299 547.698 311.49 547.763 311.676C547.896 312.087 548.055 312.632 548.281 313.322C548.913 315.426 549.436 317.562 549.848 319.721C551.295 327.697 551.082 335.886 549.223 343.777C547.929 349.209 545.831 354.417 542.997 359.23C539.97 364.42 535.908 369.479 532.615 375.479C529.068 381.786 527.613 389.056 528.46 396.243C529.217 403.677 531.739 411.005 534.169 418.426C536.598 425.848 538.789 433.242 539.067 440.584C539.177 447.66 538.224 454.713 536.24 461.506C534.474 468.051 532.257 474.132 530.438 479.88C528.623 485.195 527.159 490.623 526.057 496.13C524.013 506.246 524.597 514.795 526.124 520.345C526.695 522.48 527.46 524.56 528.407 526.558L529.217 528.084C529.313 528.265 529.429 528.434 529.562 528.589Z" fill="#263238"/>
<path d="M539.492 364.686C539.492 364.686 545.652 344.985 534.594 333.448C534.419 333.256 534.15 333.181 533.901 333.255C533.653 333.328 533.468 333.537 533.425 333.793C532.841 337.046 532.098 346.95 539.492 364.686Z" fill="#92E3A9"/>
<path d="M535.802 340.073C535.812 341.296 535.95 342.515 536.213 343.71C536.612 346.219 537.089 349.153 537.621 352.406C538.152 355.658 538.603 358.592 538.948 361.088C539.046 362.306 539.264 363.511 539.599 364.686C539.706 363.464 539.666 362.234 539.479 361.022C539.28 358.778 538.882 355.712 538.324 352.273C537.767 348.835 537.182 345.821 536.691 343.617C536.524 342.407 536.226 341.219 535.802 340.073Z" fill="#263238"/>
<path d="M532.257 411.138C532.257 411.138 528.487 390.853 513.326 385.821C513.082 385.742 512.815 385.804 512.632 385.982C512.448 386.16 512.378 386.425 512.449 386.671C513.445 389.817 517.428 398.924 532.257 411.138Z" fill="#92E3A9"/>
<path d="M517.455 391.065C518.039 392.136 518.728 393.145 519.513 394.079L524.823 401.102C526.801 403.757 528.58 406.12 530.133 408.138C530.803 409.16 531.558 410.124 532.39 411.018C531.913 409.891 531.307 408.821 530.585 407.832C529.35 405.934 527.545 403.385 525.46 400.637C523.376 397.889 521.478 395.473 519.978 393.747C519.237 392.763 518.392 391.864 517.455 391.065Z" fill="#263238"/>
<path d="M536.346 462.051C536.346 462.051 538.643 441.54 525.593 432.326C525.383 432.178 525.108 432.159 524.88 432.276C524.651 432.393 524.506 432.627 524.504 432.884C524.544 436.189 525.712 446.053 536.346 462.051Z" fill="#92E3A9"/>
<path d="M528.022 438.539C528.263 439.74 528.632 440.91 529.124 442.031C530.001 444.407 531.023 447.208 532.151 450.288C533.28 453.368 534.302 456.17 535.165 458.559C535.499 459.732 535.943 460.87 536.492 461.958C536.37 460.739 536.098 459.539 535.683 458.387C535.059 456.223 534.076 453.249 532.881 450.023C531.687 446.797 530.518 443.903 529.629 441.832C529.214 440.679 528.676 439.575 528.022 438.539Z" fill="#263238"/>
<path d="M524.929 513.269C524.929 513.269 526.482 492.678 513.113 483.942C512.9 483.794 512.621 483.781 512.395 483.908C512.169 484.036 512.035 484.281 512.051 484.54C512.21 487.832 513.724 497.656 524.929 513.269Z" fill="#92E3A9"/>
<path d="M515.716 490.089C516.018 491.276 516.431 492.432 516.951 493.541C517.906 495.891 519.035 498.639 520.283 501.679C521.531 504.719 522.633 507.494 523.588 509.83C523.953 510.997 524.438 512.122 525.035 513.189C524.86 511.975 524.543 510.785 524.093 509.644C523.389 507.507 522.301 504.573 520.986 501.387C519.672 498.201 518.411 495.36 517.442 493.315C516.995 492.176 516.416 491.093 515.716 490.089Z" fill="#263238"/>
<path d="M548.348 347.374C548.348 347.374 566.642 337.816 567 321.845C567.004 321.588 566.865 321.35 566.639 321.227C566.413 321.104 566.138 321.117 565.925 321.261C563.203 323.146 555.676 329.611 548.348 347.374Z" fill="#92E3A9"/>
<path d="M563.203 327.341C562.338 328.205 561.572 329.163 560.919 330.196L555.755 337.325C553.83 339.98 552.078 342.396 550.577 344.44C549.803 345.383 549.106 346.386 548.493 347.441C549.438 346.661 550.285 345.769 551.016 344.786C552.463 343.047 554.374 340.577 556.326 337.776C558.277 334.975 560.096 332.466 561.318 330.501C562.055 329.517 562.687 328.458 563.203 327.341Z" fill="#263238"/>
<path d="M528.699 389.684C528.699 389.684 547.577 381.228 548.905 365.297C548.935 365.037 548.814 364.783 548.593 364.644C548.371 364.505 548.09 364.506 547.869 364.646C545.002 366.399 537.089 372.399 528.699 389.684Z" fill="#92E3A9"/>
<path d="M544.737 370.607C543.834 371.407 543.016 372.297 542.294 373.262L536.705 380.059L531.116 386.857C530.274 387.742 529.514 388.701 528.846 389.724C529.826 388.995 530.718 388.153 531.501 387.215C533.054 385.569 535.112 383.232 537.289 380.577C539.466 377.922 541.378 375.439 542.706 373.621C543.5 372.7 544.181 371.688 544.737 370.607Z" fill="#263238"/>
<path d="M539.532 436.867C539.532 436.867 552.476 420.79 546.409 406.014C546.313 405.773 546.092 405.607 545.835 405.582C545.577 405.556 545.328 405.677 545.188 405.894C543.448 408.709 539.147 417.67 539.532 436.867Z" fill="#92E3A9"/>
<path d="M545.122 412.559C544.688 413.701 544.373 414.884 544.179 416.09C543.635 418.573 543.011 421.48 542.307 424.693L540.422 433.282C540.076 434.453 539.836 435.653 539.705 436.867C540.261 435.778 540.676 434.622 540.94 433.428C541.577 431.251 542.347 428.224 543.064 424.865C543.781 421.507 544.391 418.427 544.71 416.196C544.982 415.003 545.12 413.783 545.122 412.559Z" fill="#263238"/>
<path d="M526.722 492.399C526.722 492.399 545.414 483.664 546.476 467.719C546.495 467.465 546.369 467.221 546.15 467.089C545.931 466.957 545.657 466.96 545.441 467.096C542.639 468.848 534.833 474.981 526.722 492.399Z" fill="#92E3A9"/>
<path d="M542.44 473.043C541.551 473.878 540.746 474.799 540.037 475.791L534.581 482.695C532.523 485.27 530.678 487.593 529.085 489.571C528.264 490.472 527.526 491.445 526.881 492.479C527.866 491.74 528.757 490.884 529.536 489.93C531.063 488.257 533.081 485.881 535.205 483.173C537.329 480.464 539.188 477.968 540.515 476.123C541.268 475.17 541.913 474.137 542.44 473.043Z" fill="#263238"/>
<path d="M489.482 411.258C489.482 411.258 489.482 411.417 489.482 411.709C489.482 412.001 489.482 412.505 489.482 413.036C489.549 414.284 489.615 415.957 489.708 418.041C489.947 422.449 490.292 428.582 490.691 435.924C492.018 443.385 495.828 451.669 500.939 459.701C504.683 465.622 508.613 471.012 512.011 476.017C515.09 480.389 517.858 484.972 520.295 489.731C521.904 492.956 523.206 496.325 524.185 499.794C524.517 501.028 524.756 501.984 524.902 502.648C524.957 502.989 525.051 503.323 525.181 503.644C525.159 503.296 525.115 502.95 525.048 502.608C524.955 501.944 524.756 500.962 524.477 499.714C523.597 496.19 522.36 492.765 520.787 489.492C518.407 484.669 515.669 480.031 512.596 475.619C509.237 470.574 505.32 465.184 501.59 459.289C496.519 451.324 492.735 443.146 491.341 435.791C490.823 428.45 490.385 422.329 490.08 417.935C489.907 415.851 489.774 414.178 489.682 412.93C489.682 412.412 489.575 411.974 489.549 411.603C489.537 411.486 489.515 411.37 489.482 411.258Z" fill="#263238"/>
<path d="M500.608 458.227C500.608 458.227 492.642 439.163 502.652 426.671C502.809 426.464 503.07 426.365 503.324 426.416C503.579 426.467 503.782 426.659 503.847 426.91C504.736 430.069 506.422 439.867 500.608 458.227Z" fill="#92E3A9"/>
<path d="M502.054 433.295C501.713 434.472 501.504 435.683 501.431 436.906C501.152 439.137 500.833 442.217 500.581 445.682C500.329 449.147 500.222 452.227 500.222 454.497C500.142 455.718 500.218 456.945 500.448 458.148C500.661 456.947 500.768 455.73 500.767 454.51C500.939 451.974 501.138 449.014 501.351 445.735C501.563 442.456 501.789 439.482 501.975 436.946C502.122 435.735 502.148 434.512 502.054 433.295Z" fill="#263238"/>
<g opacity="0.3">
<path d="M500.608 458.227C500.608 458.227 492.642 439.163 502.652 426.671C502.809 426.464 503.07 426.365 503.324 426.416C503.579 426.467 503.782 426.659 503.847 426.91C504.736 430.069 506.422 439.867 500.608 458.227Z" fill="black"/>
</g>
<path d="M525.141 504.135C525.141 504.135 518.795 484.487 529.734 472.844C529.911 472.662 530.174 472.592 530.417 472.662C530.661 472.731 530.848 472.928 530.903 473.176C531.527 476.428 532.363 486.332 525.141 504.135Z" fill="#92E3A9"/>
<path d="M528.593 479.469C528.157 480.612 527.85 481.801 527.677 483.013C527.213 485.217 526.655 488.324 526.124 491.682C525.593 495.041 525.235 498.187 525.049 500.444C524.898 501.661 524.898 502.892 525.049 504.108C525.354 502.929 525.558 501.725 525.659 500.511C526.031 498.002 526.469 495.054 526.987 491.802C527.505 488.549 527.93 485.615 528.315 483.106C528.531 481.906 528.625 480.687 528.593 479.469Z" fill="#263238"/>
<g opacity="0.3">
<path d="M525.141 504.135C525.141 504.135 518.795 484.487 529.734 472.844C529.911 472.662 530.174 472.592 530.417 472.662C530.661 472.731 530.848 472.928 530.903 473.176C531.527 476.428 532.363 486.332 525.141 504.135Z" fill="black"/>
</g>
<path d="M490.492 434.902C490.492 434.902 473.578 423.06 475.291 407.182C475.31 406.924 475.475 406.701 475.714 406.605C475.954 406.509 476.227 406.558 476.419 406.73C478.915 408.948 485.553 416.342 490.492 434.902Z" fill="#92E3A9"/>
<g opacity="0.3">
<path d="M490.492 434.902C490.492 434.902 473.578 423.06 475.291 407.182C475.31 406.924 475.475 406.701 475.714 406.605C475.954 406.509 476.227 406.558 476.419 406.73C478.915 408.948 485.553 416.342 490.492 434.902Z" fill="black"/>
</g>
<path d="M478.384 413.09C478.727 414.262 479.198 415.393 479.791 416.462C480.747 418.506 482.154 421.294 483.774 424.321C485.393 427.348 486.987 430.056 488.195 431.955C488.792 433.027 489.514 434.025 490.345 434.928C489.891 433.794 489.331 432.705 488.672 431.676C487.451 429.459 486.017 426.843 484.451 423.962L480.256 416.223C479.739 415.118 479.112 414.068 478.384 413.09Z" fill="#263238"/>
<path d="M518.371 484.659C518.371 484.659 497.979 481.473 492.523 466.472C492.428 466.233 492.476 465.961 492.648 465.769C492.819 465.578 493.085 465.5 493.332 465.569C496.466 466.472 505.679 470.175 518.371 484.659Z" fill="#92E3A9"/>
<g opacity="0.3">
<path d="M518.371 484.659C518.371 484.659 497.979 481.473 492.523 466.472C492.428 466.233 492.476 465.961 492.648 465.769C492.819 465.578 493.085 465.5 493.332 465.569C496.466 466.472 505.679 470.175 518.371 484.659Z" fill="black"/>
</g>
<path d="M497.819 470.441C498.639 471.349 499.562 472.16 500.567 472.857C502.333 474.264 504.816 476.15 507.617 478.168C510.418 480.185 513.033 481.898 514.958 483.066C515.965 483.77 517.053 484.349 518.198 484.792C517.287 483.974 516.3 483.245 515.25 482.615L508.068 477.544L500.899 472.432C499.94 471.669 498.909 471.002 497.819 470.441Z" fill="#263238"/>
<path d="M542.453 522.19L536.599 560.557L513.247 560.517L505.374 522.19H542.453Z" fill="#455A64"/>
<path d="M521.132 534.51C521.767 533.553 522.138 532.444 522.207 531.297C522.348 529.989 521.736 528.713 520.627 528.005C519.365 527.369 517.853 527.492 516.711 528.323C515.551 529.173 514.754 530.43 514.48 531.841C514.17 533.266 514.072 534.729 514.188 536.183C514.262 537.698 514.58 539.191 515.131 540.604C515.689 542.088 516.6 543.414 517.786 544.467C519.036 545.576 520.619 546.239 522.287 546.352C523.942 546.387 525.57 545.925 526.96 545.024C528.291 544.172 529.471 543.105 530.451 541.865C531.452 540.673 532.068 539.205 532.217 537.656C532.335 536.112 531.72 534.603 530.557 533.581C529.346 532.689 527.726 532.591 526.415 533.328C525.178 533.948 524.297 535.104 524.026 536.461C523.67 538.9 524.845 541.308 526.986 542.528C528.708 543.467 530.71 543.759 532.628 543.352C534.036 543.054 535.382 542.519 536.611 541.772C537.394 541.314 538.147 540.808 538.868 540.258C539.132 540.081 539.373 539.871 539.585 539.634C539.31 539.793 539.045 539.966 538.788 540.152C538.271 540.484 537.461 541.002 536.492 541.559C535.251 542.251 533.906 542.736 532.509 542.993C530.694 543.334 528.817 543.034 527.199 542.143C525.266 540.995 524.217 538.793 524.543 536.568C524.797 535.38 525.58 534.373 526.668 533.833C527.78 533.207 529.156 533.29 530.186 534.045C531.191 534.949 531.716 536.27 531.606 537.616C531.456 539.042 530.878 540.389 529.947 541.48C529.011 542.654 527.89 543.667 526.628 544.48C525.347 545.321 523.845 545.76 522.313 545.741C520.79 545.628 519.346 545.022 518.198 544.015C517.075 543.033 516.205 541.794 515.662 540.404C515.131 539.051 514.822 537.621 514.746 536.169C514.627 534.779 514.712 533.379 514.998 532.014C515.229 530.736 515.936 529.593 516.976 528.815C517.94 528.097 519.222 527.969 520.308 528.483C521.246 529.102 521.758 530.194 521.636 531.31C521.582 532.37 521.248 533.396 520.667 534.284C519.606 535.815 518.079 536.96 516.312 537.55C514.985 538.017 513.57 538.185 512.17 538.041C510.97 537.898 509.803 537.552 508.719 537.019C508.719 537.019 508.719 537.019 508.905 537.165C509.106 537.291 509.315 537.406 509.529 537.51C510.363 537.92 511.261 538.184 512.184 538.293C513.63 538.488 515.102 538.348 516.485 537.882C518.348 537.298 519.969 536.124 521.105 534.536" fill="#263238"/>
</svg>
