<svg width="111" height="33" viewBox="0 0 111 33" fill="none" xmlns="http://www.w3.org/2000/svg">
<path d="M7.4708 24.125C6.13747 24.125 5.11247 23.975 4.3958 23.675C3.6958 23.375 3.21247 22.9083 2.9458 22.275C2.67913 21.6417 2.52913 20.825 2.4958 19.825L1.9958 6.15H4.0458L4.5458 19.025C4.57913 19.8417 4.65413 20.475 4.7708 20.925C4.90413 21.3583 5.18747 21.6583 5.6208 21.825C6.0708 21.9917 6.7708 22.075 7.7208 22.075C8.0708 22.075 8.3208 22.175 8.4708 22.375C8.63747 22.5583 8.7208 22.7833 8.7208 23.05C8.7208 23.3167 8.60413 23.5667 8.3708 23.8C8.13747 24.0167 7.83747 24.125 7.4708 24.125ZM17.0962 24.2C16.4129 24.2 15.7129 24.1083 14.9962 23.925C14.2795 23.725 13.5879 23.45 12.9212 23.1C12.2712 22.75 11.6795 22.325 11.1462 21.825C10.6295 21.3083 10.2129 20.7333 9.89619 20.1C9.59619 19.4667 9.44619 18.7833 9.44619 18.05C9.44619 17.3 9.59619 16.6083 9.89619 15.975C10.2129 15.3417 10.6545 14.8333 11.2212 14.45C11.8045 14.05 12.4795 13.85 13.2462 13.85C13.9962 13.85 14.6379 14.0583 15.1712 14.475C15.7045 14.875 16.1129 15.4 16.3962 16.05C16.6962 16.6833 16.8462 17.35 16.8462 18.05C16.8462 19.0167 16.5712 19.8833 16.0212 20.65C15.4879 21.4 14.7629 22.0333 13.8462 22.55C12.9295 23.0667 11.9212 23.4583 10.8212 23.725C9.72119 23.9917 8.60452 24.125 7.47119 24.125L7.72119 22.075C8.62119 22.075 9.42119 22.0167 10.1212 21.9C10.8379 21.7667 11.4545 21.5917 11.9712 21.375C12.7379 21.075 13.3379 20.7167 13.7712 20.3C14.2212 19.8667 14.5379 19.425 14.7212 18.975C14.9045 18.525 14.9962 18.1167 14.9962 17.75C14.9962 17.4 14.9212 17.0667 14.7712 16.75C14.6379 16.4167 14.4379 16.15 14.1712 15.95C13.9212 15.7333 13.6129 15.625 13.2462 15.625C12.8795 15.625 12.5462 15.7333 12.2462 15.95C11.9629 16.15 11.7379 16.4167 11.5712 16.75C11.4045 17.0833 11.3212 17.4333 11.3212 17.8C11.3212 18.5 11.4962 19.125 11.8462 19.675C12.2129 20.2083 12.6795 20.6667 13.2462 21.05C13.8295 21.4333 14.4462 21.725 15.0962 21.925C15.7629 22.125 16.3962 22.225 16.9962 22.225C17.5629 22.225 17.9795 22.1333 18.2462 21.95C18.5129 21.75 18.6462 21.425 18.6462 20.975C18.6462 20.8917 18.6212 20.7417 18.5712 20.525C18.5379 20.2917 18.4045 19.975 18.1712 19.575C17.9545 19.175 17.5795 18.6833 17.0462 18.1C16.5129 17.5 15.7629 16.7917 14.7962 15.975C13.8295 15.1417 12.5795 14.175 11.0462 13.075L12.2212 11.525C13.8212 12.6917 15.1379 13.725 16.1712 14.625C17.2212 15.5083 18.0462 16.2833 18.6462 16.95C19.2629 17.6 19.7129 18.175 19.9962 18.675C20.2962 19.1583 20.4879 19.5917 20.5712 19.975C20.6545 20.3417 20.6962 20.6917 20.6962 21.025C20.6962 21.575 20.5712 22.0917 20.3212 22.575C20.0879 23.0583 19.7045 23.45 19.1712 23.75C18.6545 24.05 17.9629 24.2 17.0962 24.2ZM20.9257 29.8L20.2007 27.9C21.4174 27.5 22.4257 27.0417 23.2257 26.525C24.0424 26.0083 24.684 25.4583 25.1507 24.875C25.634 24.2917 25.9757 23.7 26.1757 23.1C26.3757 22.4833 26.4757 21.8917 26.4757 21.325C26.4757 20.5083 26.2924 19.6833 25.9257 18.85C25.5757 18 25.184 17.2 24.7507 16.45L26.5757 15.525C26.8924 16.1083 27.1674 16.6833 27.4007 17.25C27.6507 17.8167 27.8674 18.35 28.0507 18.85C28.2507 19.35 28.409 19.8083 28.5257 20.225C28.759 20.9417 29.059 21.4333 29.4257 21.7C29.809 21.95 30.3257 22.075 30.9757 22.075C31.3257 22.075 31.5757 22.175 31.7257 22.375C31.8924 22.5583 31.9757 22.7833 31.9757 23.05C31.9757 23.3167 31.859 23.5667 31.6257 23.8C31.3924 24.0167 31.0924 24.125 30.7257 24.125C29.9924 24.125 29.3924 24 28.9257 23.75C28.4757 23.4833 28.134 23.1417 27.9007 22.725C27.6674 22.2917 27.509 21.8417 27.4257 21.375L28.2257 21.825C28.2257 22.925 27.9757 23.925 27.4757 24.825C26.9924 25.7417 26.3674 26.5333 25.6007 27.2C24.834 27.8833 24.034 28.4417 23.2007 28.875C22.3674 29.3083 21.609 29.6167 20.9257 29.8ZM30.7378 24.125L30.9878 22.075C31.8211 22.075 32.4711 22.0167 32.9378 21.9C33.4045 21.7667 33.7545 21.525 33.9878 21.175C34.2378 20.8083 34.4378 20.2833 34.5878 19.6C34.7378 18.9167 34.9211 18.025 35.1378 16.925L37.0878 17.3C37.0211 17.6 36.9461 17.9333 36.8628 18.3C36.7795 18.6667 36.7045 19.0333 36.6378 19.4C36.5878 19.75 36.5628 20.0583 36.5628 20.325C36.5628 20.575 36.5795 20.8083 36.6128 21.025C36.6461 21.2417 36.7711 21.425 36.9878 21.575C37.2045 21.725 37.5711 21.85 38.0878 21.95C38.6045 22.0333 39.3461 22.075 40.3128 22.075C40.6628 22.075 40.9128 22.175 41.0628 22.375C41.2295 22.5583 41.3128 22.7833 41.3128 23.05C41.3128 23.3167 41.1961 23.5667 40.9628 23.8C40.7295 24.0167 40.4295 24.125 40.0628 24.125C39.0461 24.125 38.2378 24.075 37.6378 23.975C37.0378 23.8583 36.5795 23.6917 36.2628 23.475C35.9628 23.2583 35.7461 22.9917 35.6128 22.675C35.4961 22.3417 35.4045 21.9583 35.3378 21.525L36.0878 21.575C35.8211 22.1083 35.5295 22.5417 35.2128 22.875C34.9128 23.2083 34.5628 23.4667 34.1628 23.65C33.7628 23.8333 33.2795 23.9583 32.7128 24.025C32.1628 24.0917 31.5045 24.125 30.7378 24.125ZM37.4128 14.35C37.0628 14.35 36.7628 14.2333 36.5128 14C36.2795 13.75 36.1628 13.4583 36.1628 13.125C36.1628 12.7917 36.2795 12.5 36.5128 12.25C36.7628 12 37.0628 11.875 37.4128 11.875C37.7461 11.875 38.0295 12 38.2628 12.25C38.5128 12.5 38.6378 12.7917 38.6378 13.125C38.6378 13.4583 38.5128 13.75 38.2628 14C38.0295 14.2333 37.7461 14.35 37.4128 14.35ZM33.9878 14.35C33.6378 14.35 33.3378 14.2333 33.0878 14C32.8545 13.75 32.7378 13.4583 32.7378 13.125C32.7378 12.7917 32.8545 12.5 33.0878 12.25C33.3378 12 33.6378 11.875 33.9878 11.875C34.3211 11.875 34.6045 12 34.8378 12.25C35.0878 12.5 35.2128 12.7917 35.2128 13.125C35.2128 13.4583 35.0878 13.75 34.8378 14C34.6045 14.2333 34.3211 14.35 33.9878 14.35ZM40.064 24.125L40.289 22.075C41.239 22.075 41.9056 21.9833 42.289 21.8C42.6723 21.6167 42.889 21.2917 42.939 20.825C43.0056 20.3583 43.0223 19.7083 42.989 18.875L42.564 6.15H44.639L45.039 18.825C45.0723 19.675 45.2056 20.3417 45.439 20.825C45.689 21.2917 46.0223 21.6167 46.439 21.8C46.8556 21.9833 47.314 22.075 47.814 22.075C48.164 22.075 48.414 22.175 48.564 22.375C48.7306 22.5583 48.814 22.7833 48.814 23.05C48.814 23.3167 48.6973 23.5667 48.464 23.8C48.2306 24.0167 47.9306 24.125 47.564 24.125C46.864 24.125 46.2806 24.0167 45.814 23.8C45.364 23.5667 45.0056 23.275 44.739 22.925C44.489 22.5583 44.3223 22.175 44.239 21.775L44.764 21.825C44.5973 22.325 44.3223 22.75 43.939 23.1C43.5723 23.4333 43.0723 23.6917 42.439 23.875C41.8056 24.0417 41.014 24.125 40.064 24.125ZM47.5591 24.125L47.8091 22.075C48.6424 22.075 49.2924 22.0167 49.7591 21.9C50.2257 21.7667 50.5757 21.525 50.8091 21.175C51.0591 20.8083 51.2591 20.2833 51.4091 19.6C51.5591 18.9167 51.7424 18.025 51.9591 16.925L53.9091 17.3C53.8424 17.6 53.7674 17.9333 53.6841 18.3C53.6007 18.6667 53.5257 19.0333 53.4591 19.4C53.4091 19.75 53.3841 20.0583 53.3841 20.325C53.3841 20.575 53.4007 20.8083 53.4341 21.025C53.4674 21.2417 53.5924 21.425 53.8091 21.575C54.0257 21.725 54.3924 21.85 54.9091 21.95C55.4257 22.0333 56.1674 22.075 57.1341 22.075C57.4841 22.075 57.7341 22.175 57.8841 22.375C58.0507 22.5583 58.1341 22.7833 58.1341 23.05C58.1341 23.3167 58.0174 23.5667 57.7841 23.8C57.5507 24.0167 57.2507 24.125 56.8841 24.125C55.8674 24.125 55.0591 24.075 54.4591 23.975C53.8591 23.8583 53.4007 23.6917 53.0841 23.475C52.7841 23.2583 52.5674 22.9917 52.4341 22.675C52.3174 22.3417 52.2257 21.9583 52.1591 21.525L52.9091 21.575C52.6424 22.1083 52.3507 22.5417 52.0341 22.875C51.7341 23.2083 51.3841 23.4667 50.9841 23.65C50.5841 23.8333 50.1007 23.9583 49.5341 24.025C48.9841 24.0917 48.3257 24.125 47.5591 24.125ZM53.8591 28.85C53.5091 28.85 53.2091 28.725 52.9591 28.475C52.7257 28.2417 52.6091 27.9583 52.6091 27.625C52.6091 27.2917 52.7257 27 52.9591 26.75C53.2091 26.5 53.5091 26.375 53.8591 26.375C54.1924 26.375 54.4757 26.5 54.7091 26.75C54.9591 27 55.0841 27.2917 55.0841 27.625C55.0841 27.9583 54.9591 28.2417 54.7091 28.475C54.4757 28.725 54.1924 28.85 53.8591 28.85ZM50.4341 28.85C50.0841 28.85 49.7841 28.725 49.5341 28.475C49.3007 28.2417 49.1841 27.9583 49.1841 27.625C49.1841 27.2917 49.3007 27 49.5341 26.75C49.7841 26.5 50.0841 26.375 50.4341 26.375C50.7674 26.375 51.0507 26.5 51.2841 26.75C51.5341 27 51.6591 27.2917 51.6591 27.625C51.6591 27.9583 51.5341 28.2417 51.2841 28.475C51.0507 28.725 50.7674 28.85 50.4341 28.85ZM56.8853 24.125L57.1353 22.075C57.5519 22.075 58.0103 22.075 58.5103 22.075C59.0269 22.0583 59.5436 22.0417 60.0603 22.025C60.5936 22.0083 61.0853 21.975 61.5353 21.925C61.9853 21.8583 62.3603 21.775 62.6603 21.675C63.2603 21.4583 63.7269 21.1917 64.0603 20.875C64.3936 20.5417 64.6269 20.1083 64.7603 19.575C64.9103 19.025 64.9853 18.325 64.9853 17.475C64.9853 16.775 64.8936 16.125 64.7103 15.525C64.5269 14.925 64.2686 14.4417 63.9353 14.075C63.6019 13.7083 63.2019 13.525 62.7353 13.525C62.3519 13.525 62.0019 13.675 61.6853 13.975C61.3853 14.2583 61.1436 14.625 60.9603 15.075C60.7936 15.525 60.7103 15.975 60.7103 16.425C60.7103 16.775 60.7769 17.075 60.9103 17.325C61.0603 17.575 61.3019 17.775 61.6353 17.925C61.9686 18.0583 62.4019 18.125 62.9353 18.125C63.4186 18.125 63.9019 18.075 64.3853 17.975C64.8853 17.875 65.3103 17.7417 65.6603 17.575L65.7603 19.325C65.4936 19.5083 65.1936 19.6583 64.8603 19.775C64.5269 19.8917 64.1769 19.975 63.8103 20.025C63.4436 20.075 63.0769 20.1 62.7103 20.1C61.8603 20.1 61.1353 19.9667 60.5353 19.7C59.9519 19.4167 59.5019 19.0417 59.1853 18.575C58.8853 18.0917 58.7353 17.5417 58.7353 16.925C58.7353 16.2917 58.8353 15.6583 59.0353 15.025C59.2353 14.375 59.5186 13.7833 59.8853 13.25C60.2519 12.7167 60.6936 12.2917 61.2103 11.975C61.7269 11.6417 62.3019 11.475 62.9353 11.475C63.8353 11.475 64.5769 11.7667 65.1603 12.35C65.7603 12.9333 66.2019 13.7 66.4853 14.65C66.7853 15.5833 66.9353 16.575 66.9353 17.625C66.9353 18.875 66.7186 19.95 66.2853 20.85C65.8686 21.7333 65.1686 22.4667 64.1853 23.05C63.8019 23.2667 63.3353 23.45 62.7853 23.6C62.2519 23.7333 61.6603 23.8417 61.0103 23.925C60.3769 24.0083 59.7103 24.0583 59.0103 24.075C58.3103 24.1083 57.6019 24.125 56.8853 24.125ZM62.4603 8.9C62.1103 8.9 61.8103 8.78333 61.5603 8.55C61.3269 8.3 61.2103 8.00833 61.2103 7.675C61.2103 7.34167 61.3269 7.05 61.5603 6.8C61.8103 6.55 62.1103 6.425 62.4603 6.425C62.7936 6.425 63.0769 6.55 63.3103 6.8C63.5603 7.05 63.6853 7.34167 63.6853 7.675C63.6853 8.00833 63.5603 8.3 63.3103 8.55C63.0769 8.78333 62.7936 8.9 62.4603 8.9Z" fill="#22445D"/>
<path d="M92.9758 8.11907H110M92.9758 8.11907C92.9758 9.56555 91.8032 10.7381 90.3567 10.7381C88.9102 10.7381 87.7376 9.56555 87.7376 8.11907M92.9758 8.11907C92.9758 6.6726 91.8032 5.5 90.3567 5.5C88.9102 5.5 87.7376 6.6726 87.7376 8.11907M87.7376 8.11907H81.1899M92.9758 29.0717H110M92.9758 29.0717C92.9758 30.5181 91.8032 31.6907 90.3567 31.6907C88.9102 31.6907 87.7376 30.5181 87.7376 29.0717M92.9758 29.0717C92.9758 27.6252 91.8032 26.4526 90.3567 26.4526C88.9102 26.4526 87.7376 27.6252 87.7376 29.0717M87.7376 29.0717H81.1899M103.452 18.5954H110M103.452 18.5954C103.452 20.0418 102.279 21.2144 100.833 21.2144C99.3865 21.2144 98.2139 20.0418 98.2139 18.5954M103.452 18.5954C103.452 17.1489 102.279 15.9763 100.833 15.9763C99.3865 15.9763 98.2139 17.1489 98.2139 18.5954M98.2139 18.5954H81.1899" stroke="#22445D" stroke-width="2" stroke-linecap="round" stroke-linejoin="round"/>
</svg>
