<svg width="280" height="174" viewBox="0 0 324 174" fill="none" xmlns="http://www.w3.org/2000/svg">
<path opacity="0.5" d="M313.827 172.452L313.753 172.585C313.575 172.903 313.391 173.227 313.203 173.552L25.2879 173.465C25.2879 173.465 25.0075 173.152 24.5059 172.553C24.4773 172.52 24.4487 172.485 24.419 172.443C21.9504 169.445 19.6454 166.316 17.5142 163.069C9.4743 150.908 -1.66714 129.373 0.208108 105.472C0.758752 98.3598 2.46769 91.385 5.26742 84.8237C14.2587 63.6945 41.0905 49.4548 65.2619 49.1678C74.6183 49.0578 83.5765 51.0375 90.9466 55.5183C92.2532 56.3123 93.8975 56.9261 95.809 57.344C97.5758 57.7163 99.3725 57.9291 101.177 57.9797C116.875 58.5296 142.407 49.6858 157.55 27.4293C165.591 15.6092 177.936 7.87289 192.125 3.84305C192.785 3.65608 193.45 3.47679 194.12 3.30522C197.385 2.47102 200.696 1.82654 204.035 1.37498C204.642 1.29286 205.252 1.21661 205.864 1.14622C220.836 -0.591538 236.872 1.20561 251.581 6.17363C253.518 6.82693 255.431 7.53596 257.319 8.30073C284.999 19.5104 306.533 42.396 304.64 74.3597C304.567 75.6224 304.455 76.9004 304.304 78.1938C304.01 80.7256 303.587 83.2406 303.034 85.7289C302.7 87.2393 302.316 88.7666 301.883 90.3108C290.474 130.826 336.082 132.655 313.827 172.452Z" fill="#DCEAFF"/>
<path d="M313.827 172.452L89.7227 172.475L91.655 105.494V87.3027H100.037V73.0905H116.755V85.1536H121.861V62.8432H122.972V61.2837H123.171V62.8432H127.204V61.2837H127.414V62.8432H133.123V61.2837H133.324V62.8432H136.918V61.2837H137.115V62.8432H138.592V83.6699H144.237V80.3022L150.893 80.3319V74.8723H152.231V73.7933H152.41V74.8723H157.55H158.579V73.7911H158.755V74.8723H159.995V85.7256H167.914V89.7202H172.32V87.4039H176.406V78.1949H178.447V73.8989H178.755V78.1949H183.638V70.1429H184.117V78.1949H187.347V78.0849V77.0631V76.0953V74.484V73.4567V71.8466V70.8204V69.2103V68.0994V66.4914V65.077V63.4745V62.4077H188.31V61.1979H188.464V62.4077H195.595V61.1979H195.748V62.4077H197.05V70.8259H197.965H197.959V69.2103H197.965V68.0994H197.959V66.4914H197.965V65.385H197.959V63.7748H197.965H206.613H208.099L208.331 63.9034V74.6379H209.922V73.0905H228.179V85.1536H233.753V62.8432H234.963V61.2837H235.183V62.8432H239.582V61.2837H239.802V62.8432H246.035V61.2837H246.255V62.8432H250.178V61.2837H250.398V62.8432H252.011V83.6699H258.17V80.3022L265.434 80.3319V74.8734H266.897V73.7933H267.092V74.8734H273.804V73.7922H273.997V74.8734H275.35V85.7278H283.999V89.7213H288.808V87.4039H293.271V78.1938H295.495V73.8989H295.831V78.1938H301.16V70.1429H301.684V78.1938H304.304C304.01 80.7256 303.587 83.2406 303.035 85.7289C302.7 87.2393 302.316 88.7666 301.883 90.3108C290.474 130.826 336.082 132.655 313.827 172.452Z" fill="#DFEBFA"/>
<path d="M257.319 8.3007V172.451H251.581V6.17249C253.519 6.82654 255.432 7.53593 257.319 8.3007Z" fill="#AFCDFB"/>
<path d="M95.809 57.3441V172.555H24.5059C24.4773 172.522 24.4487 172.487 24.419 172.445C21.9504 169.447 19.6454 166.318 17.5142 163.071C9.4743 150.91 -1.66714 129.375 0.208108 105.474C0.758737 98.362 2.46768 91.3873 5.2674 84.8259C14.2586 63.6945 41.0905 49.4548 65.2619 49.1677C74.5314 49.27 83.3653 51.2707 90.7013 55.5182C92.0739 56.3124 93.8007 56.9261 95.809 57.3441Z" fill="#CEE1FD"/>
<path d="M205.864 1.14621V21.3614C205.864 22.9375 205.479 24.221 205.01 24.221H204.888C204.418 24.221 204.035 22.9353 204.035 21.3614V1.37498C204.642 1.29286 205.252 1.21661 205.864 1.14621Z" fill="#9FC1F4"/>
<path d="M204.473 19.3597C197.811 19.3597 192.41 25.0713 192.41 32.118H216.536C216.536 25.0713 211.135 19.3597 204.473 19.3597Z" fill="#FF9843"/>
<path d="M205.434 19.5159C205.086 19.4393 204.731 19.4006 204.374 19.4004C200.034 19.4004 196.515 25.0932 196.515 32.1157H198.634C198.634 25.6739 201.595 20.3528 205.434 19.5159Z" fill="#FFC48A"/>
<path d="M283.923 153.638C283.923 153.638 280.712 149.892 283.725 147.513C283.725 147.513 285.925 146.181 287.72 146.29C287.72 146.29 285.177 150.553 285.999 150.976C286.822 151.4 288.49 146.027 288.49 146.027C288.49 146.027 293.497 145.542 295.107 146.316C295.107 146.316 290.828 149.819 291.728 150.028C292.629 150.237 297.254 146.798 297.254 146.798C297.254 146.798 301.914 147.591 301.666 150.434C301.417 153.277 299.811 154.155 299.105 154.079C298.399 154.003 294.271 152.429 294.181 153.007C294.091 153.584 296.577 155.475 298.316 155.563C298.316 155.563 295.031 159.192 292.847 158.141C290.663 157.089 290.478 155.437 289.116 154.815C287.755 154.192 286.593 154.196 287.155 154.829C287.717 155.463 290.181 156.08 290.959 157.457C291.736 158.834 292.436 159.766 290.177 159.422C287.918 159.078 284.245 157.429 284.084 155.536L283.923 153.638Z" fill="#77A4E5"/>
<path d="M299.371 150.506C299.371 150.506 286.713 150.017 283.918 153.638C283.918 153.638 283.3 155.489 281.397 157.175L281.101 157.983C281.101 157.983 283.294 155.674 284.079 155.531C284.079 155.531 282.851 151.046 299.371 150.506Z" fill="#77A4E5"/>
<path d="M281.393 157.175C281.393 157.175 278.677 159.184 278.487 162.774L278.981 162.818C278.981 162.818 279.849 159.106 281.416 157.649C282.983 156.192 281.393 157.175 281.393 157.175Z" fill="#77A4E5"/>
<path d="M272.693 148.933C272.693 148.933 277.8 146.073 275.417 142.192C275.417 142.192 273.51 139.808 271.468 139.196C271.468 139.196 272.558 144.983 271.468 145.12C270.378 145.256 270.719 138.583 270.719 138.583C270.719 138.583 265.339 135.995 263.229 136.2C263.229 136.2 266.565 141.852 265.476 141.716C264.386 141.579 260.636 135.86 260.636 135.86C260.636 135.86 255.122 134.838 254.236 138.107C253.351 141.376 254.781 143.009 255.598 143.214C256.415 143.418 261.658 143.35 261.522 144.031C261.385 144.712 257.845 145.8 255.871 145.188C255.871 145.188 258.049 150.567 260.909 150.294C263.769 150.022 264.648 148.252 266.425 148.116C268.201 147.979 269.489 148.457 268.604 148.933C267.718 149.409 264.722 149.089 263.293 150.304C261.863 151.52 260.705 152.27 263.361 152.814C266.017 153.359 270.782 153.019 271.736 150.975L272.693 148.933Z" fill="#77A4E5"/>
<path d="M256.757 139.122C256.757 139.122 271.055 143.752 272.689 148.927C272.689 148.927 272.622 151.237 274.052 153.899V154.919C274.052 154.919 272.554 151.447 271.737 150.97C271.741 150.97 274.941 146.476 256.757 139.122Z" fill="#77A4E5"/>
<path d="M274.056 153.898C274.056 153.898 276.256 157.246 275.004 161.322L274.437 161.171C274.437 161.171 274.987 156.681 273.833 154.423C272.679 152.165 274.056 153.898 274.056 153.898Z" fill="#77A4E5"/>
<path d="M280.818 144.983C280.818 144.983 274.087 141.214 277.228 136.097C277.228 136.097 279.741 132.956 282.433 132.148C282.433 132.148 280.998 139.778 282.433 139.957C283.869 140.136 283.423 131.341 283.423 131.341C283.423 131.341 290.514 127.931 293.297 128.199C293.297 128.199 288.897 135.649 290.335 135.469C291.772 135.29 296.707 127.751 296.707 127.751C296.707 127.751 303.977 126.403 305.144 130.713C306.311 135.022 304.426 137.174 303.349 137.444C302.272 137.713 295.361 137.623 295.54 138.52C295.719 139.418 300.387 140.854 302.989 140.047C302.989 140.047 300.118 147.138 296.349 146.778C292.58 146.418 291.412 144.086 289.077 143.906C286.744 143.727 285.039 144.355 286.206 144.983C287.373 145.611 291.321 145.189 293.207 146.791C295.092 148.394 296.616 149.381 293.117 150.1C289.619 150.818 283.329 150.369 282.077 147.68L280.818 144.983Z" fill="#9FC1F4"/>
<path d="M301.822 132.059C301.822 132.059 282.973 138.162 280.815 144.983C280.815 144.983 280.905 148.035 279.02 151.536V152.882C279.02 152.882 281 148.305 282.072 147.676C282.075 147.676 277.856 141.752 301.822 132.059Z" fill="#9FC1F4"/>
<path d="M279.023 151.536C279.023 151.536 276.116 155.95 277.773 161.325L278.521 161.125C278.521 161.125 277.796 155.206 279.317 152.229C280.838 149.252 279.023 151.536 279.023 151.536Z" fill="#9FC1F4"/>
<path d="M280.591 172.975C287.874 172.975 293.778 167.071 293.777 159.788H267.405C267.405 167.071 273.309 172.975 280.591 172.975Z" fill="#9FC1F4"/>
<path d="M283.835 172.874C280.082 173.34 276.31 172.173 273.475 169.67C270.639 167.167 269.014 163.568 269.012 159.786H272.288C272.288 166.438 277.239 172.048 283.838 172.874L283.835 172.874Z" fill="#AFCDFB"/>
<rect x="266.972" y="159.788" width="27.1057" height="1" fill="#9FC1F4"/>
<path d="M219.203 172.327L206.246 118.544L207.151 116.427L219.987 172.319C220.003 172.386 219.987 172.457 219.945 172.511C219.902 172.566 219.837 172.598 219.767 172.598H219.548C219.384 172.597 219.243 172.485 219.203 172.327Z" fill="#77A4E5"/>
<path d="M160.725 172.6C160.599 172.6 160.478 172.545 160.396 172.448C160.314 172.352 160.279 172.224 160.3 172.099L164.116 148.967H165.752L161.2 172.21C161.156 172.437 160.957 172.601 160.725 172.6Z" fill="#77A4E5"/>
<path d="M197.336 172.6C197.209 172.6 197.089 172.545 197.007 172.448C196.925 172.352 196.889 172.224 196.91 172.099L200.727 148.967H202.362L197.811 172.21C197.767 172.437 197.567 172.601 197.336 172.6Z" fill="#77A4E5"/>
<path d="M206.212 149.015H160.635L170.077 89.8159H215.656L206.212 149.015Z" fill="#F5FBFF"/>
<rect x="157.276" y="148.563" width="52.3461" height="1.74106" fill="#77A4E5"/>
<path d="M188.127 102.202C188.092 102.666 188.024 103.127 187.922 103.58C186.972 107.811 183.205 111.053 178.947 111.059C174.238 111.067 170.711 107.114 171.07 102.231C171.43 97.3476 175.54 93.3815 180.25 93.3728C181.199 93.3685 182.141 93.5347 183.031 93.8632C184.238 94.3099 185.313 95.0545 186.155 96.0277C186.476 96.3977 186.762 96.7963 187.009 97.2189C187.156 97.4679 187.288 97.7249 187.405 97.9888C187.743 98.7405 187.969 99.538 188.075 100.356C188.132 100.785 188.157 101.217 188.151 101.65C188.149 101.829 188.141 102.015 188.127 102.202Z" fill="#BDD1F9"/>
<path d="M187.406 97.9844L179.597 102.217C179.597 102.217 182.818 96.5447 184.14 94.3802C184.9 94.8117 185.581 95.3696 186.153 96.03C186.474 96.3998 186.76 96.7986 187.008 97.2211C187.154 97.468 187.287 97.7228 187.406 97.9844Z" fill="white"/>
<path d="M188.216 96.9099L181.087 100.78C181.087 100.78 184.029 95.5988 185.237 93.6213C185.931 94.0151 186.553 94.5247 187.076 95.1281C187.541 95.665 187.925 96.2667 188.217 96.9142L188.216 96.9099Z" fill="#F99746"/>
<path d="M202.583 144.516H165.068L168.866 122.871H206.382L202.583 144.516ZM165.372 144.296H202.356L206.078 123.086H169.099L165.372 144.296Z" fill="#BDD1F9"/>
<path d="M200.346 141.547H167.075C167.075 141.547 172.977 138.382 174.596 138.548C176.215 138.714 178.541 139.995 180.038 140.045C181.535 140.094 183.154 135.603 184.82 135.815C186.486 136.027 187.112 139.994 187.974 139.612C188.837 139.229 191.427 139.055 192.924 139.612C194.421 140.168 196.589 137.843 197.9 137.917C199.211 137.99 200.346 141.547 200.346 141.547Z" fill="#F99746"/>
<path d="M175.076 135.186L168.721 135.185L168.78 134.848H175.134L175.076 135.186Z" fill="#F99746"/>
<path d="M174.949 135.905H168.594L168.653 135.567L175.008 135.568L174.949 135.905Z" fill="#F99746"/>
<path d="M168.979 130.695H202.249C202.249 130.695 197.458 127.53 195.781 127.695C194.104 127.86 191.327 129.142 189.814 129.192C188.301 129.241 188.257 124.748 186.515 124.961C184.772 125.173 182.753 129.14 182.027 128.757C181.301 128.374 178.771 128.2 177.078 128.757C175.385 129.315 174.035 126.989 172.697 127.061C171.36 127.134 168.979 130.695 168.979 130.695Z" fill="#BDD1F9"/>
<path d="M176.87 124.954H170.516L170.575 124.616L176.93 124.617L176.87 124.954Z" fill="#BDD1F9"/>
<path d="M176.744 125.674L170.389 125.673L170.448 125.337H176.803L176.744 125.674Z" fill="#BDD1F9"/>
<path d="M171.135 119.848H169.676L170.944 113.011H172.404L171.135 119.848Z" fill="#BDD1F9"/>
<path d="M173.124 119.848H171.664L172.647 114.552H174.106L173.124 119.848Z" fill="#BDD1F9"/>
<path d="M175.112 119.848H173.652L174.676 114.324H176.136L175.112 119.848Z" fill="#BDD1F9"/>
<path d="M177.099 119.848H175.64L176.419 115.646H177.879L177.099 119.848Z" fill="#BDD1F9"/>
<path d="M179.087 119.848H177.628L178.464 115.34H179.923L179.087 119.848Z" fill="#BDD1F9"/>
<path d="M181.075 119.848H179.615L180.264 116.352H181.722L181.075 119.848Z" fill="#BDD1F9"/>
<path d="M190.657 119.848H189.197L190.465 113.011H191.925L190.657 119.848Z" fill="#F99746"/>
<path d="M192.644 119.848H191.186L192.168 114.552H193.627L192.644 119.848Z" fill="#F99746"/>
<path d="M194.633 119.848H193.174L194.198 114.324H195.657L194.633 119.848Z" fill="#F99746"/>
<path d="M196.621 119.848H195.161L195.941 115.646H197.4L196.621 119.848Z" fill="#F99746"/>
<path d="M198.609 119.848H197.149L197.985 115.34H199.445L198.609 119.848Z" fill="#F99746"/>
<path d="M200.596 119.848H199.137L199.786 116.352H201.245L200.596 119.848Z" fill="#F99746"/>
<path d="M197.683 97.5259H192.933L193.055 96.8748H197.805L197.683 97.5259Z" fill="#BDD1F9"/>
<path d="M203.511 97.5259H198.265L198.388 96.8748H203.633L203.511 97.5259Z" fill="#BDD1F9"/>
<path d="M207.249 97.5259H203.904L204.026 96.8748H207.371L207.249 97.5259Z" fill="#BDD1F9"/>
<path d="M210.37 97.5259H207.79L207.912 96.8748H210.492L210.37 97.5259Z" fill="#BDD1F9"/>
<path d="M197.161 100.302H192.411L192.533 99.6519H197.283L197.161 100.302Z" fill="#BDD1F9"/>
<path d="M202.989 100.302H197.743L197.866 99.6519H203.112L202.989 100.302Z" fill="#BDD1F9"/>
<path d="M206.728 100.302H203.383L203.505 99.6519H206.85L206.728 100.302Z" fill="#BDD1F9"/>
<path d="M209.85 100.302H207.27L207.392 99.6519H209.972L209.85 100.302Z" fill="#BDD1F9"/>
<path d="M200.507 96.007H193.218L193.34 95.3569H200.629L200.507 96.007Z" fill="#BDD1F9"/>
<path d="M205.402 96.007H201.2L201.322 95.3569H205.524L205.402 96.007Z" fill="#BDD1F9"/>
<path d="M210.66 96.007H205.994L206.116 95.3569H210.782L210.66 96.007Z" fill="#BDD1F9"/>
<path d="M199.952 98.9601H192.663L192.785 98.309H200.074L199.952 98.9601Z" fill="#BDD1F9"/>
<path d="M204.847 98.9601H200.646L200.767 98.309H204.969L204.847 98.9601Z" fill="#BDD1F9"/>
<path d="M210.105 98.9601H205.439L205.562 98.309H210.227L210.105 98.9601Z" fill="#BDD1F9"/>
<path d="M196.64 103.079H191.89L192.012 102.428H196.762L196.64 103.079Z" fill="#BDD1F9"/>
<path d="M202.467 103.079H197.222L197.344 102.428H202.59L202.467 103.079Z" fill="#BDD1F9"/>
<path d="M206.207 103.079H202.862L202.984 102.428H206.329L206.207 103.079Z" fill="#BDD1F9"/>
<path d="M209.328 103.079H206.748L206.87 102.428H209.45L209.328 103.079Z" fill="#BDD1F9"/>
<path d="M199.43 101.736H192.142L192.264 101.085H199.552L199.43 101.736Z" fill="#BDD1F9"/>
<path d="M204.325 101.736H200.124L200.246 101.085H204.448L204.325 101.736Z" fill="#BDD1F9"/>
<path d="M209.585 101.736H204.918L205.041 101.085H209.707L209.585 101.736Z" fill="#BDD1F9"/>
<path d="M196.152 105.682H191.4L191.522 105.031H196.274L196.152 105.682Z" fill="#BDD1F9"/>
<path d="M201.979 105.682H196.733L196.855 105.031H202.101L201.979 105.682Z" fill="#BDD1F9"/>
<path d="M205.718 105.682H202.374L202.496 105.031H205.84L205.718 105.682Z" fill="#BDD1F9"/>
<path d="M208.84 105.682H206.26L206.382 105.031H208.962L208.84 105.682Z" fill="#BDD1F9"/>
<path d="M198.941 104.339H191.653L191.775 103.688H199.063L198.941 104.339Z" fill="#BDD1F9"/>
<path d="M203.836 104.339H199.635L199.758 103.688H203.958L203.836 104.339Z" fill="#BDD1F9"/>
<path d="M209.095 104.339H204.43L204.552 103.688H209.217L209.095 104.339Z" fill="#BDD1F9"/>
<path d="M185.341 114.027H183.016L183.076 113.709H185.401L185.341 114.027Z" fill="#BDD1F9"/>
<path d="M188.193 114.027H185.626L185.685 113.709H188.252L188.193 114.027Z" fill="#BDD1F9"/>
<path d="M185.085 115.386H182.76L182.82 115.067H185.146L185.085 115.386Z" fill="#BDD1F9"/>
<path d="M187.938 115.386H185.37L185.431 115.067H187.998L187.938 115.386Z" fill="#BDD1F9"/>
<path d="M186.723 113.283H183.155L183.216 112.965H186.783L186.723 113.283Z" fill="#BDD1F9"/>
<path d="M189.118 113.283H187.062L187.122 112.965H189.178L189.118 113.283Z" fill="#BDD1F9"/>
<path d="M186.452 114.729H182.885L182.944 114.411H186.511L186.452 114.729Z" fill="#BDD1F9"/>
<path d="M188.848 114.729H186.791L186.851 114.411H188.907L188.848 114.729Z" fill="#BDD1F9"/>
<path d="M203.966 114.027H201.641L201.701 113.709H204.026L203.966 114.027Z" fill="#BDD1F9"/>
<path d="M206.819 114.027H204.251L204.311 113.709H206.878L206.819 114.027Z" fill="#BDD1F9"/>
<path d="M203.711 115.386H201.386L201.446 115.067H203.771L203.711 115.386Z" fill="#BDD1F9"/>
<path d="M206.564 115.386H203.996L204.057 115.067H206.624L206.564 115.386Z" fill="#BDD1F9"/>
<path d="M205.349 113.283H201.781L201.841 112.965H205.408L205.349 113.283Z" fill="#BDD1F9"/>
<path d="M207.744 113.283H205.688L205.748 112.965H207.804L207.744 113.283Z" fill="#BDD1F9"/>
<path d="M205.077 114.729H201.509L201.569 114.411H205.136L205.077 114.729Z" fill="#BDD1F9"/>
<path d="M207.473 114.729H205.417L205.476 114.411H207.533L207.473 114.729Z" fill="#BDD1F9"/>
<path d="M216.338 171.723C216.255 172.836 214.688 172.848 212.904 172.641C211.12 172.434 211.596 172.885 209.102 172.919C206.607 172.953 205.747 172.13 205.626 171.773C205.516 171.458 206.726 171.191 208.005 170.878C208.167 170.839 208.335 170.799 208.491 170.757C209.941 170.389 210.901 169.304 212.14 168.357C213.315 167.46 214.83 164.213 214.83 164.213L218.239 164.059C218.239 164.059 216.809 166.97 216.266 168.224C215.948 168.963 216.084 169.874 216.221 170.566C216.311 170.944 216.35 171.333 216.338 171.723Z" fill="#FFB27D"/>
<path d="M212.904 172.641C211.122 172.434 211.596 172.885 209.102 172.919C206.607 172.953 205.747 172.13 205.626 171.773C205.516 171.458 206.726 171.191 208.005 170.878L208.021 170.902C209.159 171.448 210.423 171.676 211.681 171.562C213.356 171.394 215.064 170.695 216.219 170.572C216.309 170.951 216.349 171.34 216.338 171.729C216.255 172.836 214.686 172.848 212.904 172.641Z" fill="#233862"/>
<path d="M239.872 171.954C239.791 173.067 238.222 173.08 236.439 172.875C234.656 172.671 235.131 173.121 232.637 173.158C230.142 173.195 229.282 172.372 229.161 172.015C229.051 171.698 230.255 171.431 231.539 171.118L232.025 170.997C233.474 170.626 234.433 169.541 235.671 168.593C236.845 167.694 235.671 162.375 235.671 162.375L239.42 162.011C239.42 162.011 239.24 166.489 239.242 168.524C239.242 169.328 239.613 170.1 239.752 170.797C239.843 171.175 239.883 171.564 239.872 171.954Z" fill="#FFB27D"/>
<path d="M236.439 172.875C234.657 172.671 235.131 173.12 232.637 173.158C230.142 173.195 229.282 172.371 229.161 172.015C229.051 171.698 230.255 171.431 231.539 171.118L231.555 171.141C232.694 171.684 233.959 171.91 235.216 171.793C236.89 171.624 238.597 170.923 239.753 170.797C239.843 171.175 239.883 171.564 239.872 171.953C239.791 173.067 238.221 173.08 236.439 172.875Z" fill="#233862"/>
<path d="M228.931 80.0328C228.285 77.3789 229.22 76.1438 230.065 75.485C230.465 74.5083 230.922 73.8043 231.384 73.5393C232.236 73.0543 233.254 73.0015 233.97 73.0444C233.787 72.8541 233.421 72.7848 233.421 72.7848C233.86 72.7199 234.85 73.1588 234.85 73.1588C241.009 70.7853 241.976 79.8535 241.848 81.9575C241.719 84.0615 241.737 86.545 244.94 88.2047C251.053 91.3722 242.908 103.308 242.908 103.308C243.064 101.605 235.209 92.6206 231.11 89.9292C230.112 88.461 229.758 85.8664 229.732 85.6618C229.903 87.7197 230.255 88.8734 230.569 89.5234C228.716 87.8076 228.439 83.6788 228.931 80.0328Z" fill="#A9453D"/>
<path d="M231.366 90.0667C231.346 90.0765 233.346 91.1148 234.849 90.7024C236.263 90.3174 237.188 88.4828 237.168 88.4785C236.569 88.3597 236.398 87.537 236.409 83.9988L236.139 84.0527L231.584 84.9546C231.584 84.9546 231.689 86.3844 231.694 87.7372C231.694 88.8712 231.626 89.9457 231.366 90.0667Z" fill="#FFB27D"/>
<path d="M231.584 84.9547C231.584 84.9547 231.688 86.3844 231.694 87.7373C234.242 87.6658 235.59 85.3407 236.142 84.0527L231.584 84.9547Z" fill="#ED975D"/>
<path d="M213.058 166.018C212.952 166.349 213.007 166.71 213.205 166.995C213.404 167.28 213.724 167.457 214.071 167.473L215.849 167.556L217.732 167.614C218.202 167.628 218.653 167.422 218.949 167.057C220.452 165.215 225.077 159.071 227.882 150.146C227.962 149.895 228.044 149.642 228.132 149.386C229.985 143.983 233.826 137.203 235.85 131.066C236.172 130.088 236.461 129.167 236.721 128.297C236.803 128.018 236.885 127.747 236.962 127.475C238.453 122.292 238.885 118.889 239.283 115.253L224.669 115.371C224.669 115.371 221.591 139.285 213.058 166.018Z" fill="#2A4E96"/>
<path d="M226.715 106.972C226.751 113.928 225.694 116.911 225.694 116.911C225.694 116.911 231.952 120.09 239.389 117.75C239.476 117.722 244.71 116.241 244.71 116.241C244.585 115.959 243.552 111.306 243.43 111.047C241.86 107.675 241.432 106.26 241.246 105.218C240.901 103.282 240.893 101.28 241.065 99.389C241.36 96.2866 241.964 93.2215 242.868 90.2393C240.843 89.7774 238.944 88.9679 236.836 88.1772C236.351 88.7809 234.867 89.4133 233.58 89.387C232.098 89.355 231.619 88.7205 231.695 88.0287C230.117 88.9086 228.857 89.7368 228.857 89.7368C227.515 92.0673 224.795 94.3308 224.597 97.9053C224.548 98.7885 226.714 106.778 226.715 106.972Z" fill="white"/>
<path d="M239.284 107.748C239.923 108.652 241.147 114.148 244.195 114.838C242.624 110.922 241.432 109.204 241.246 107.999C240.901 105.752 240.893 103.426 241.064 101.232C240.045 99.4438 239.284 98.2187 239.284 98.2187C239.204 97.9294 237.663 93.1593 237.169 97.4235C236.675 101.688 238.57 106.737 239.284 107.748Z" fill="#5F9AA8"/>
<path d="M230.734 86.2325C230.734 86.2325 236.763 86.3315 236.767 82.5766C236.771 78.8218 237.552 76.3076 233.703 76.0876C229.853 75.8677 229.104 77.2975 228.799 78.5513C228.493 79.805 229.166 86.1094 230.734 86.2325Z" fill="#FFB27D"/>
<path d="M230.957 75.9908C230.957 75.9908 232.607 80.3968 235.136 81.0501C237.666 81.7034 238.766 81.0226 238.766 81.0226C238.766 81.0226 236.823 79.4828 236.42 76.7849C236.427 76.7827 232.202 73.8935 230.957 75.9908Z" fill="#A9453D"/>
<path d="M231.367 76.3483C231.367 76.3483 230.134 77.3314 229.834 78.2883C229.534 79.2453 229.394 81.2129 228.824 81.148C228.824 81.148 227.58 78.1542 228.978 76.4594C230.46 74.661 231.367 76.3483 231.367 76.3483Z" fill="#A9453D"/>
<path d="M221.248 111.8L218.4 120.481L220.024 121.132L224.732 113.463L221.248 111.8Z" fill="#FFB27D"/>
<path d="M228.93 89.2296C228.93 89.2296 225.572 90.5615 224.601 92.639C223.63 94.7167 222.157 108.65 221.572 110.08C220.987 111.511 220.545 112.644 220.545 112.644C220.545 112.644 222.238 114.074 223.94 114.175C225.643 114.276 228.93 89.2296 228.93 89.2296Z" fill="#F99746"/>
<path d="M231.694 88.0331C231.694 88.0331 228.207 96.6493 228.104 98.3937C228.002 100.138 227.694 126.912 227.694 126.912C227.694 126.912 227.898 128.142 225.539 127.629C223.18 127.115 222.564 126.604 222.564 126.604C222.564 126.604 224.821 110.088 224.206 104.343C223.592 98.5972 228.93 89.2297 228.93 89.2297L231.694 88.0331Z" fill="#F99746"/>
<path d="M215.849 167.556L217.892 167.618C218.258 167.631 218.608 167.472 218.84 167.19C220.214 165.527 225 159.3 227.882 150.143C227.961 149.892 228.044 149.639 228.132 149.383C229.985 143.98 233.826 137.2 235.85 131.062C236.172 130.085 236.461 129.164 236.721 128.294C236.803 128.015 236.884 127.744 236.961 127.471L234.809 125.838C234.809 125.838 228.347 136.301 226.347 146.148C224.609 154.705 217.65 164.996 215.849 167.556Z" fill="#1E3D70"/>
<path d="M234.584 147.069C234.549 151.599 234.764 161.696 235.316 166.631C235.367 167.083 235.749 167.423 236.202 167.423H237.729C238.371 167.423 238.852 167.423 239.172 167.415C239.449 167.41 239.684 167.212 239.737 166.941C241.254 159.224 242.34 152.813 243.134 147.273C243.793 142.637 244.39 138.661 244.844 135.24C245.301 131.796 245.619 128.912 245.732 126.476C245.75 126.093 245.763 125.719 245.771 125.356C245.778 124.992 245.78 124.639 245.778 124.295L233.149 123.064C233.308 131.454 234.605 144.285 234.584 147.069Z" fill="#2A4E96"/>
<path d="M237.729 167.423C238.307 167.423 238.754 167.421 239.069 167.416C239.405 167.411 239.692 167.171 239.758 166.842C241.263 159.169 242.343 152.789 243.134 147.273C243.794 142.637 244.39 138.661 244.844 135.24C245.302 131.796 245.62 128.912 245.733 126.476L241.1 129.202C241.1 129.202 244.057 130.245 242.929 138.143C241.8 146.041 239.299 166.31 237.729 167.423Z" fill="#1E3D70"/>
<path d="M237.131 126.398C237.131 126.398 238.021 129.612 241.099 129.201C244.176 128.791 248.552 126.945 248.552 126.945C248.552 126.945 247.232 122.789 245.603 117.33C243.623 110.721 241.171 102.2 240.016 96.8262C239.692 95.3195 239.466 94.0623 239.388 93.1616L236.835 88.2123C236.835 88.2123 233.029 96.757 232.823 98.9105C232.618 101.064 237.131 126.398 237.131 126.398Z" fill="#F99746"/>
<path d="M240.203 98.585L236.835 88.2079C236.844 88.2079 241.09 89.4716 243.227 90.5505C243.227 90.5505 244.562 92.2729 245.388 96.2444C245.388 96.2444 246.26 105.779 244.312 109.267C244.312 109.267 238.152 110.499 228.309 107.113V104.856C228.309 104.856 239.081 105.42 241.287 105.677L240.203 98.585Z" fill="#FFB27D"/>
<path d="M237.267 103.42C237.405 106.907 238.227 113.678 245.543 117.302C245.562 117.312 245.582 117.322 245.602 117.33C243.622 110.721 241.171 102.2 240.016 96.8263C238.672 98.8346 237.193 101.5 237.267 103.42Z" fill="#ED7D2B"/>
<path d="M236.835 88.2079C236.835 88.2079 243.081 88.6478 244.586 91.9991C246.09 95.3503 246.566 106.497 244.654 109.78C244.654 109.78 242.014 110.53 237.355 109.659L237.183 109.626C237.183 109.626 235.695 105.985 237.029 105.267C237.029 105.267 240.961 105.471 240.548 104.167C240.136 102.862 236.835 88.2079 236.835 88.2079Z" fill="#F99746"/>
<path d="M221.173 106.251L221.356 106.842L231.606 103.652C231.688 103.551 231.714 103.415 231.675 103.29C231.65 103.167 231.547 103.074 231.422 103.061L221.173 106.251Z" fill="#A9453D"/>
<path d="M220.432 106.81L221.173 106.25L221.357 106.842L220.432 106.81Z" fill="#A9453D"/>
<path d="M218.806 120.244C218.806 120.244 216.205 121.681 215.862 122.774C215.52 123.867 215.753 126.16 216.168 126.126C216.584 126.092 217.198 123.663 217.54 123.487C217.882 123.311 218.36 122.802 218.36 123.179C218.36 123.555 218.018 124.239 218.19 124.342C218.361 124.446 218.908 123.384 219.284 123.179C219.66 122.973 219.819 121.281 220.184 120.827C220.549 120.373 218.806 120.244 218.806 120.244Z" fill="#FFB27D"/>
<path d="M228.309 104.856C228.309 104.856 225.984 103.426 225.01 103.646C224.036 103.866 221.549 105.667 222.744 106.057C223.94 106.448 224.909 106.039 225.368 106.321C225.828 106.604 226.168 107.122 228.31 107.115C230.453 107.109 228.309 104.856 228.309 104.856Z" fill="#FFB27D"/>
<g opacity="0.6">
<path d="M115.691 172.597H115.653C115.544 172.597 115.44 172.554 115.365 172.476C115.289 172.399 115.247 172.294 115.25 172.186L115.86 145.722L117.659 145.512L116.126 172.187C116.11 172.416 115.921 172.595 115.691 172.597Z" fill="#77A4E5"/>
<path d="M105.211 172.597H105.172C105.064 172.597 104.96 172.554 104.884 172.476C104.808 172.399 104.767 172.294 104.77 172.186L105.38 145.722L107.178 145.512L105.645 172.187C105.63 172.416 105.44 172.595 105.211 172.597Z" fill="#77A4E5"/>
<path d="M134.13 172.597H134.168C134.277 172.597 134.38 172.554 134.456 172.476C134.532 172.399 134.573 172.294 134.571 172.186L133.96 145.722L132.162 145.512L133.695 172.187C133.711 172.416 133.9 172.595 134.13 172.597Z" fill="#77A4E5"/>
<path d="M104.019 144.081V125.946C104.019 122.755 106.605 120.168 109.796 120.168H122.861C126.052 120.168 128.639 122.755 128.639 125.946V144.772L104.019 144.081Z" fill="#77A4E5"/>
<path d="M104.019 144.081H130.979V146.941H105.754C104.796 146.941 104.02 146.164 104.02 145.206V144.078L104.019 144.081Z" fill="#77A4E5"/>
<path d="M113.636 145.513C113.636 144.722 114.277 144.081 115.067 144.081H133.854C134.644 144.081 135.285 144.722 135.285 145.513C135.285 146.303 134.644 146.944 133.854 146.944H115.067C114.277 146.944 113.636 146.303 113.636 145.513Z" fill="#77A4E5"/>
</g>
<path d="M148.28 162.045C148.463 162.957 149.761 162.805 151.213 162.45C152.665 162.095 152.32 162.517 154.385 162.288C156.451 162.059 157.078 161.29 157.135 160.983C157.191 160.71 156.17 160.614 155.076 160.488C154.937 160.472 154.8 160.455 154.661 160.438C153.425 160.283 152.52 159.486 151.397 158.83C150.333 158.21 148.746 155.681 148.746 155.681L145.913 155.901C145.913 155.901 147.4 158.159 147.975 159.142C148.313 159.719 148.295 160.482 148.254 161.072C148.219 161.396 148.228 161.723 148.28 162.045Z" fill="#FFB27D"/>
<path d="M151.213 162.45C152.665 162.096 152.32 162.517 154.385 162.288C156.451 162.059 157.078 161.289 157.135 160.983C157.191 160.71 156.17 160.614 155.076 160.488L155.065 160.509C154.18 161.077 153.158 161.395 152.107 161.428C150.705 161.462 149.221 161.061 148.258 161.076C148.222 161.399 148.229 161.724 148.279 162.045C148.462 162.957 149.761 162.805 151.213 162.45Z" fill="#233862"/>
<path d="M123.933 166.122C123.37 166.862 124.344 167.736 125.57 168.589C126.796 169.443 126.252 169.469 127.789 170.861C129.327 172.254 130.319 172.22 130.592 172.064C130.834 171.925 130.23 171.097 129.602 170.194C129.522 170.084 129.444 169.965 129.364 169.851C128.663 168.821 128.663 167.615 128.411 166.339C128.173 165.129 130.145 160.691 130.145 160.691L126.976 160.292C126.976 160.292 126.562 162.973 126.207 164.054C125.997 164.69 125.117 165.109 124.647 165.467C124.381 165.652 124.141 165.873 123.933 166.122Z" fill="#FFB27D"/>
<path d="M125.57 168.589C126.797 169.444 126.252 169.469 127.79 170.861C129.327 172.254 130.32 172.22 130.592 172.063C130.834 171.925 130.23 171.097 129.602 170.194L129.579 170.2C128.568 169.912 127.654 169.356 126.933 168.59C125.981 167.562 125.299 166.183 124.648 165.467C124.382 165.654 124.142 165.876 123.935 166.127C123.371 166.86 124.344 167.74 125.57 168.589Z" fill="#233862"/>
<path d="M136.873 143.425L133.978 151.214L130.199 161.384C129.525 161.434 128.847 161.372 128.192 161.2C127.288 160.939 126.251 160.256 126.251 160.256C126.251 160.256 127.3 149.335 129.258 143.067C129.76 141.458 130.322 140.157 130.942 139.423C133.98 135.838 136.873 143.425 136.873 143.425Z" fill="#163560"/>
<path d="M133.933 131.055C132.037 130.443 126.322 130.808 120.89 131.872L120.058 130.416L108.322 129.5C108.322 129.5 104.45 138.087 106.57 143.559C106.881 144.363 107.501 144.879 108.557 144.896H108.728H117.98C123.817 144.896 130.331 140.884 131.178 140.717C132.557 140.441 133.11 143.2 134.489 146.097C135.868 148.994 147.456 158.927 147.456 158.927C147.456 158.927 149.238 158.945 149.974 158.669C150.764 158.372 151.054 157.987 151.054 157.987C151.054 157.987 138.211 132.435 133.933 131.055Z" fill="#2A4E96"/>
<path d="M115.947 94.8939C114.298 94.5002 112.053 94.9621 111.681 95.0039C107.224 95.5241 106.228 102.448 106.559 104.383C107.171 107.952 105.459 108.958 103.41 111.812C99.31 117.531 102.142 122.247 105.481 123.415C107.484 124.116 110.211 122.205 110.211 122.205C110.261 122.224 117.297 115.507 120.778 112.244C126.63 109.836 120.155 95.8958 115.947 94.8939Z" fill="#233862"/>
<path d="M116.903 111.216C116.924 111.222 115.088 112.425 113.592 112.169C112.185 111.933 110.696 110.097 110.715 110.09C111.284 109.918 111.786 109.254 111.431 105.83L111.698 105.855L116.195 106.286C116.195 106.286 116.234 107.684 116.362 108.992C116.468 110.089 116.637 111.123 116.903 111.216Z" fill="#FFB27D"/>
<path d="M116.196 106.286C116.196 106.286 116.235 107.684 116.363 108.992C113.889 109.169 112.359 107.049 111.699 105.855L116.196 106.286Z" fill="#ED975D"/>
<path d="M117.142 107.442C117.142 107.442 111.313 108.123 110.947 104.487C110.581 100.851 109.579 98.4903 113.284 97.9019C116.989 97.3136 117.854 98.6279 118.272 99.8112C118.69 100.995 118.649 107.17 117.142 107.442Z" fill="#FFB27D"/>
<path d="M117.576 97.9438C117.576 97.9438 114.766 101.969 112.373 102.849C109.98 103.729 108.854 103.179 108.854 103.179C109.609 102.053 110.125 100.784 110.369 99.4506C110.478 98.8139 110.923 98.2858 111.532 98.0702C113.245 97.4676 116.549 96.5514 117.576 97.9438Z" fill="#233862"/>
<path d="M115.25 98.2407C115.25 98.2407 116.755 99.0997 117.355 99.8684C117.935 100.61 118.555 102.58 118.465 103.447C118.465 103.447 119.413 99.312 117.895 97.8074C116.286 96.2115 115.25 98.2407 115.25 98.2407Z" fill="#233862"/>
<path d="M121.383 120.861C121.207 132.63 121.335 130.174 120.047 131.29C119.737 131.56 118.865 131.719 117.716 131.795C114.108 132.035 107.763 131.44 107.521 130.773C106.688 128.464 107.276 127.747 106.581 124.215C106.509 123.839 106.42 123.432 106.314 122.988C105.736 120.562 105.171 119.736 107.226 115.84C109.096 112.308 111.102 109.487 111.276 109.59C116.192 112.508 116.512 110.01 116.512 110.01C116.512 110.01 121.469 115.12 121.383 120.861Z" fill="white"/>
<path d="M133.981 151.214L130.117 161.807C130.117 161.807 128.729 162.26 127.717 162.113C127.126 162.039 126.572 161.791 126.122 161.401C126.122 161.401 127.303 149.335 129.261 143.067L133.981 151.214Z" fill="#2A4E96"/>
<path d="M116.512 110.007C116.512 110.007 121.571 110.865 122.164 113.043C122.757 115.22 127.102 127.222 127.102 127.222C127.102 127.222 123.683 128.485 122.494 127.298C121.305 126.11 118.36 116.276 118.36 116.276L116.512 110.007Z" fill="white"/>
<path d="M117.716 131.795C114.107 132.035 107.762 131.44 107.52 130.773C106.688 128.464 107.276 127.747 106.581 124.215L108.275 120.365C108.275 120.365 108.034 124.777 109.644 126.212C111.254 127.647 116.235 128.984 117.013 130.184C117.396 130.755 117.644 131.335 117.716 131.795Z" fill="#DFEBFD"/>
<path d="M118.011 129.283C118.011 129.283 119.085 130.21 119.391 130.286C119.548 130.332 119.714 130.332 119.871 130.286L119.088 129.369L118.011 129.283Z" fill="#FFB27D"/>
<path d="M117.584 128.191L120.306 128.894C120.306 128.894 120.236 129.087 119.928 129.134C119.62 129.182 118.793 129.056 118.793 129.056L117.584 128.191Z" fill="#FFB27D"/>
<path d="M112.969 129.691C112.969 129.691 116.854 127.962 117.588 128.191C118.322 128.42 120.188 129.409 120.482 129.826C120.775 130.243 118.95 129.775 118.38 129.739C118.01 129.716 117.154 130.222 116.73 130.468C114.94 131.496 113.697 131.403 113.697 131.403L112.969 129.691Z" fill="#FFB27D"/>
<path d="M111.275 109.588C111.275 109.588 105.776 110.62 104.76 112.143C102.538 115.468 97.8074 129.242 100.456 131.089C103.44 133.17 114.033 131.639 114.033 131.639C114.033 131.639 114.385 129.989 113.896 129.194C113.406 128.399 105.434 127.104 105.066 126.741C104.699 126.378 108.696 121.054 108.275 120.032C106.909 116.769 111.275 109.588 111.275 109.588Z" fill="white"/>
<path d="M133.008 129.104C133.008 129.104 136.857 130.143 137.25 130.74C137.643 131.337 138.42 133.16 138.387 133.639C138.354 134.119 137.304 132.697 136.911 132.334C136.656 132.098 135.733 131.961 135.279 131.887C134.136 131.701 133.584 131.178 133.156 130.917C132.962 130.81 132.741 130.761 132.52 130.775L133.008 129.104Z" fill="#FFB27D"/>
<path d="M136.914 131.786C136.914 131.786 137.147 133.096 137.325 133.326C137.411 133.453 137.531 133.553 137.672 133.614L137.644 132.483L136.914 131.786Z" fill="#FFB27D"/>
<path d="M137.249 130.74L138.814 132.86C138.814 132.86 138.648 132.958 138.395 132.811C138.142 132.664 137.616 132.084 137.616 132.084L137.249 130.74Z" fill="#FFB27D"/>
<path d="M133.156 130.917C133.156 130.917 133.513 131.783 134.224 132.093C134.936 132.403 135.459 132.871 135.574 132.702C135.688 132.534 135.035 131.652 135.035 131.652L133.156 130.917Z" fill="#FFB27D"/>
<path d="M126.081 124.384L134.172 129.5C134.172 129.5 133.322 130.636 133.038 130.74C131.54 131.29 124.803 130.763 122.494 127.298L126.081 124.384Z" fill="white"/>
<path d="M122.874 129.943C123.352 129.943 128.101 129.613 128.101 129.613C128.101 129.613 127.963 130.454 128.257 130.905L123.63 131.791L122.679 131.511L122.874 129.943Z" fill="#F9DDBF"/>
<path d="M114.953 130.706L122.872 129.943C122.872 129.943 122.594 131.409 123.628 131.792L114.895 132.431C114.895 132.431 114.193 131.445 114.953 130.706Z" fill="#F99746"/>
<path d="M128.087 129.718L122.734 130.131C122.734 130.131 122.774 129.946 122.874 129.943C122.974 129.94 128.192 129.562 128.192 129.562L128.173 129.708L128.087 129.718Z" fill="#F99746"/>
<path d="M123.63 131.792L128.344 130.895L128.301 130.773L123.275 131.735L123.63 131.792Z" fill="#F99746"/>
<path d="M68.7678 172.555H68.725C68.6044 172.555 68.4891 172.506 68.4052 172.419C68.3212 172.333 68.2755 172.216 68.2785 172.095L68.9559 142.547L70.9522 142.313L69.2496 172.098C69.2356 172.354 69.0243 172.555 68.7678 172.555Z" fill="#77A4E5"/>
<path d="M57.1342 172.555H57.0913C56.9707 172.555 56.8554 172.506 56.7714 172.419C56.6874 172.333 56.6417 172.216 56.6447 172.095L57.3222 142.547L59.3184 142.313L57.6159 172.098C57.6019 172.354 57.3906 172.555 57.1342 172.555Z" fill="#77A4E5"/>
<path d="M89.2363 172.555H89.2792C89.3999 172.555 89.5153 172.506 89.5994 172.419C89.6836 172.333 89.7295 172.216 89.7269 172.096L89.0482 142.547L87.0498 142.313L88.7524 172.098C88.7664 172.355 88.979 172.556 89.2363 172.555Z" fill="#77A4E5"/>
<path d="M55.8145 140.715V120.466C55.8041 116.914 58.6754 114.026 62.2277 114.016H76.727C80.2792 114.026 83.1505 116.914 83.1402 120.466V141.488L55.8145 140.715Z" fill="#77A4E5"/>
<path d="M55.8098 140.715H85.7389V143.911H57.739C56.6723 143.911 55.8076 143.046 55.8076 141.979V140.715H55.8098Z" fill="#77A4E5"/>
<path d="M66.4854 142.313C66.4854 141.43 67.2008 140.715 68.0834 140.715H88.92C89.8026 140.715 90.5181 141.43 90.5181 142.313C90.5181 143.195 89.8026 143.911 88.92 143.911H68.0834C67.2008 143.911 66.4854 143.195 66.4854 142.313Z" fill="#77A4E5"/>
<path d="M77.7013 106.537C77.7013 106.537 76.4915 107.57 76.2242 110.248C76.024 112.281 77.4341 128.065 78.4954 129.323C81.4825 132.853 85.2253 131.362 86.6925 131.897L88.0751 130.654C88.0751 130.654 83.2115 127.066 82.842 125.894C81.4177 121.386 82.3009 108.238 77.7013 106.537Z" fill="#F9DDBF"/>
<path d="M76.8307 93.6598C76.8307 93.6598 76.9132 90.7651 73.0912 90.1965C69.2692 89.6279 68.2167 90.5209 67.5678 91.4954C66.9189 92.4698 65.698 96.4447 65.8234 98.0285C65.9488 99.6122 70.2998 101.568 70.2294 102.492C70.159 103.415 76.8307 93.6598 76.8307 93.6598Z" fill="#163560"/>
<path d="M94.5408 170.057C94.4176 171.035 95.7507 171.323 97.3036 171.46C98.8566 171.596 98.3749 171.9 100.493 172.374C102.612 172.848 103.486 172.282 103.65 171.995C103.797 171.74 102.82 171.297 101.78 170.799C101.649 170.737 101.517 170.672 101.386 170.609C100.217 170.033 99.5891 168.924 98.6982 167.884C97.8536 166.894 97.1288 163.815 97.1288 163.815L94.2549 163.079C94.2549 163.079 94.9709 165.854 95.2117 167.038C95.3536 167.734 95.0809 168.496 94.8422 169.074C94.699 169.387 94.5977 169.718 94.5408 170.057Z" fill="#FFB27D"/>
<path d="M97.3038 171.46C98.8568 171.596 98.375 171.9 100.493 172.374C102.612 172.848 103.486 172.282 103.65 171.995C103.797 171.74 102.821 171.297 101.78 170.799L101.763 170.816C100.699 171.087 99.5821 171.06 98.5334 170.737C97.1366 170.297 95.8047 169.388 94.8423 169.075C94.6993 169.388 94.598 169.718 94.541 170.057C94.4189 171.04 95.7519 171.323 97.3038 171.46Z" fill="#233862"/>
<path d="M73.0254 130.166C73.0254 130.166 92.2375 132.159 95.4051 135.101C98.5726 138.043 98.0073 165.441 98.0073 165.441C97.5145 165.953 97.1505 165.941 96.3718 165.881C95.624 165.822 94.0996 165.18 94.0996 165.18C94.0996 165.18 89.9851 151.725 89.9344 148.61C89.8838 145.496 89.2316 140.209 87.925 139.896C86.6184 139.584 71.0643 141.326 69.3596 136.417C67.6549 131.507 70.4858 127.461 70.4858 127.461L73.0254 130.166Z" fill="#ED7D2B"/>
<path d="M64.0507 135.109C64.8799 135.659 66.3603 136.519 68.8493 136.608C73.3004 136.769 78.8579 136.239 79.9468 135.206C80.2305 134.94 80.3691 134.498 80.4087 133.938C80.5286 132.23 79.7136 129.42 79.1648 127.095C78.8095 125.585 78.5675 124.279 78.7655 123.613C79.3693 121.582 81.2456 117.444 81.4052 116.085C81.5646 114.725 79.9446 107.439 77.7009 106.537C75.4572 105.635 66.797 106.537 66.797 106.537C63.4139 107.223 63.2775 114.436 64.3949 120.575C64.4246 120.734 64.4543 120.891 64.484 121.046C65.7038 127.28 61.7377 133.559 64.0507 135.109Z" fill="#F9DDBF"/>
<path d="M75.2374 107.863C75.1758 108.259 74.0936 108.9 71.7784 108.291C69.5612 107.706 69.2949 106.983 69.2949 106.507C69.2949 105.942 70.2595 105.187 70.2463 101.707L70.5125 101.76L74.9845 102.646C74.9845 102.646 74.8822 104.052 74.88 105.379C74.8767 106.492 75.3386 107.206 75.2374 107.863Z" fill="#FFB27D"/>
<path d="M74.9846 102.646C74.9846 102.646 74.8823 104.052 74.8801 105.379C72.3769 105.308 71.0549 103.025 70.5127 101.76L74.9846 102.646Z" fill="#ED975D"/>
<path d="M75.8205 103.901C75.8205 103.901 69.8999 103.998 69.8956 100.311C69.8912 96.6229 69.1257 94.1515 72.9047 93.9316C76.6838 93.7116 77.4207 95.1194 77.721 96.3513C78.0212 97.5831 77.3603 103.781 75.8205 103.901Z" fill="#FFB27D"/>
<path d="M75.6005 93.8435C75.6005 93.8435 73.9805 98.1693 71.4926 98.8094C69.0048 99.4495 67.9258 98.783 67.9258 98.783C67.9258 98.783 69.834 97.2663 70.2355 94.62C70.23 94.62 74.3785 91.7836 75.6005 93.8435Z" fill="#163560"/>
<path d="M75.1992 94.1944C75.1992 94.1944 76.4091 95.1601 76.705 96.0993C77.0008 97.0386 77.1328 98.9721 77.6948 98.9061C77.6948 98.9061 78.9156 95.9651 77.543 94.3022C76.0901 92.538 75.1992 94.1944 75.1992 94.1944Z" fill="#163560"/>
<path d="M80.1124 170.862C80.0981 171.852 81.4553 171.98 83.0127 171.936C84.5702 171.892 84.1269 172.253 86.2826 172.477C88.4383 172.702 89.2456 172.037 89.3776 171.737C89.4941 171.468 88.4746 171.14 87.3868 170.765L86.9755 170.621C85.7491 170.181 84.9957 169.154 84.0004 168.223C83.0524 167.343 85.1454 163.078 85.1454 163.078L82.4023 161.721C82.4023 161.721 81.8821 164.764 81.2123 167.428C81.0397 168.115 80.4755 169.249 80.3027 169.848C80.1949 170.176 80.131 170.517 80.1124 170.862Z" fill="#FFB27D"/>
<path d="M64.1736 134.375C65.0029 134.925 66.3667 136.519 68.8535 136.608C72.9581 135.674 77.6325 134.588 80.4128 133.939C80.5327 132.23 79.7178 129.42 79.1689 127.095C75.9277 128.085 71.1038 124.713 69.4814 123.38C67.7778 121.98 67.8317 117.315 67.8317 117.315L64.3936 120.575C64.4232 120.734 64.4529 120.891 64.4827 121.046C65.7035 127.28 61.8562 132.826 64.1736 134.375Z" fill="#F2CCAA"/>
<path d="M83.0125 171.936C84.5709 171.893 84.1266 172.253 86.2824 172.477C88.438 172.702 89.2454 172.037 89.3773 171.737C89.4939 171.467 88.4744 171.14 87.3866 170.765L87.3712 170.783C86.3461 171.175 85.2332 171.276 84.1542 171.077C82.7177 170.799 81.2946 170.051 80.3047 169.851C80.1973 170.178 80.1333 170.518 80.1144 170.861C80.0979 171.848 81.4551 171.98 83.0125 171.936Z" fill="#233862"/>
<path d="M68.8799 131.335C73.7578 131.196 88.3264 132.359 91.1254 134.469C94.5701 137.067 84.7288 165.154 84.7288 165.154C84.7288 165.154 83.586 165.264 83.2242 165.224C81.6613 165.047 81.0245 164.57 81.0245 164.57C81.0245 164.57 81.0629 148.039 82.2123 144.875C83.2747 141.954 83.9258 140.916 82.595 140.745C81.2642 140.575 64.65 142.69 63.263 137.675C62.1797 133.757 63.78 130.131 63.78 130.131C63.78 130.131 64.3794 131.466 68.8799 131.335Z" fill="#F99746"/>
<path d="M66.7991 106.537C66.7991 106.537 63.4115 106.824 63.1475 109.506C62.9474 111.54 61.4737 125.965 62.5349 127.214C65.521 130.743 75.4801 131.492 76.943 132.028L77.3466 130.358C77.3466 130.358 66.7144 125.002 66.8772 123.785C67.0399 122.567 70.0491 106.055 66.7991 106.537Z" fill="#F9DDBF"/>
<path d="M69.415 91.6526C69.415 91.6526 69.6581 90.1073 67.5156 89.7092C65.373 89.311 65.3323 93.8611 65.1036 94.9588C64.8748 96.0563 65.4456 96.7185 66.2628 96.779C67.08 96.8395 69.415 91.6526 69.415 91.6526Z" fill="#163560"/>
<path d="M77.4647 130.286C77.4647 130.286 80.4926 129.429 81.2141 129.626C81.9355 129.823 84.4037 131.463 84.0582 131.907C83.7129 132.351 81.5342 131.641 80.5321 131.776C79.5303 131.911 78.756 132.404 78.0344 132.297C77.5319 132.212 77.0382 132.082 76.5596 131.907L77.4647 130.286Z" fill="#FFB27D"/>
<path d="M77.4648 130.286C77.4648 130.286 78.9463 129.525 79.3676 129.091C79.3932 129.066 79.429 129.054 79.4647 129.058C79.5006 129.062 79.5325 129.083 79.5513 129.113C79.6613 129.292 79.7712 129.635 79.2499 129.977C78.5021 130.468 77.4648 130.286 77.4648 130.286Z" fill="#FFB27D"/>
<path d="M88.0766 130.654C88.0766 130.654 91.2188 130.827 91.8359 131.251C92.4529 131.674 94.2555 134.023 93.787 134.33C93.3185 134.637 91.485 133.259 90.4941 133.061C89.5031 132.863 88.61 133.08 87.9644 132.744C87.5164 132.501 87.0919 132.217 86.6963 131.896L88.0766 130.654Z" fill="#FFB27D"/>
<path d="M66.4921 172.814H53.7085C53.0926 172.062 53.3192 169.294 53.4127 168.39C53.4325 168.207 53.4446 168.102 53.4446 168.102C53.4446 168.102 57.811 164.61 58.4104 167.284C58.428 167.368 58.4511 167.45 58.4753 167.53C59.2309 170.031 62.6195 171.168 64.5762 171.489C65.8476 171.691 66.3183 172.352 66.4921 172.814Z" fill="#1B3051"/>
<path d="M31.6093 131.274C32.0702 131.274 53.5073 135.298 57.0532 139.687C58.825 141.88 59.0879 167.203 59.0879 167.203C59.0879 167.203 56.897 169.921 52.1589 168.343C52.1589 168.343 48.6888 151.017 48.9451 145.762C49.0166 144.309 34.2984 145.552 31.6049 144.855C28.9114 144.157 22.3288 138.297 23.7795 135.443C25.2302 132.589 31.6093 131.274 31.6093 131.274Z" fill="#233862"/>
<path d="M47.1257 130.083C47.1257 130.083 48.4983 131.267 49.905 131.601C50.7079 131.793 51.4844 132.01 51.9474 132.223C53.2199 132.807 55.6351 135.412 55.4097 135.674C54.6904 136.505 51.7902 134.34 51.2303 134.493C50.6705 134.646 52.141 135.904 51.5602 136.246C51.2567 136.425 50.6804 135.337 50.1492 135.185C49.4254 134.978 48.9393 133.885 48.7281 133.81C48.3069 133.665 46.5449 132.085 46.5449 132.085L47.1257 130.083Z" fill="#FFB27D"/>
<path d="M72.1417 172.814H59.3582C58.7433 172.062 58.9699 169.294 59.0623 168.39C59.082 168.207 59.0953 168.102 59.0953 168.102C59.0953 168.102 63.4606 164.61 64.0599 167.284C64.0787 167.368 64.1007 167.45 64.1249 167.53C64.8805 170.031 68.2691 171.168 70.2257 171.489C71.4983 171.691 71.9679 172.352 72.1417 172.814Z" fill="#1E3C68"/>
<path d="M37.9257 131.274C38.3876 131.274 59.8247 135.298 63.3706 139.687C65.1414 141.88 65.4054 167.203 65.4054 167.203C65.4054 167.203 63.2133 169.921 58.4763 168.343C58.4763 168.343 55.0063 151.017 55.2625 145.762C55.3329 144.309 40.6159 145.552 37.9213 144.855C35.2266 144.157 28.6485 138.297 30.1002 135.443C31.552 132.589 37.9257 131.274 37.9257 131.274Z" fill="#2B478B"/>
<path d="M36.5836 105.223C35.0438 105.095 33.4248 104.684 32.028 104.233C30.2804 103.666 28.8726 102.837 29.7799 101.241C30.6158 99.7697 31.9697 96.4822 31.8784 93.7622L35.1285 96.3821L37.337 98.155C37.3065 99.1216 37.2227 100.086 37.0862 101.043C37.0422 101.373 36.9905 101.739 36.93 102.127C36.8812 102.439 37.0242 102.751 37.293 102.917L37.3425 102.948C38.4368 103.638 37.8759 105.329 36.5836 105.223Z" fill="#FFB27D"/>
<path d="M37.3375 97.7227C37.3375 97.7227 37.4474 98.1032 37.256 99.5099C35.2874 99.1888 33.4473 97.6182 33.4473 97.6182C34.4493 97.3432 34.8144 96.2599 35.5612 96.361L37.3375 97.7227Z" fill="#ED975D"/>
<path d="M39.157 98.0427C39.157 98.0427 31.5857 99.3009 30.8741 94.5738C30.1625 89.8467 28.7074 86.8243 33.5137 85.8212C38.32 84.8182 39.531 86.4811 40.1513 88.0012C40.7716 89.5211 41.1092 97.594 39.157 98.0427Z" fill="#FFB27D"/>
<path d="M41.2644 85.9114C41.5943 87.0498 40.7145 88.4356 39.2582 88.892C37.0905 89.5706 37.5689 92.2301 36.5933 92.1916C35.6177 92.1531 35.224 90.6628 34.3529 91.8551C33.6094 92.8724 34.9711 94.0789 34.8776 94.6365C34.717 95.5946 33.2168 97.5544 31.864 97.4555C30.5112 97.3564 27.9881 90.9323 28.4886 88.9449C28.989 86.9575 31.0182 84.8612 32.9342 84.5718C34.85 84.2827 37.5095 85.1097 38.1243 85.1097C38.7391 85.1097 41.0884 85.2934 41.2644 85.9114Z" fill="#2B478B"/>
<path d="M43.1437 129.856C43.0161 130.947 42.7863 131.689 42.4255 131.93C41.2971 132.687 39.8002 133.626 38.1295 134.558C32.2069 137.857 24.0977 141.047 22.4479 135.466C20.51 128.916 21.7836 116.597 23.683 108.953C24.7774 104.554 27.803 99.9258 29.8422 99.9345C33.3276 99.9411 38.3374 100.861 40.3611 105.851C41.1442 107.784 42.2946 114.483 42.882 120.619C43.2383 124.271 43.3868 127.727 43.1437 129.856Z" fill="white"/>
<path d="M29.4961 99.9729L30.2847 98.1945C30.2847 98.1945 37.2819 98.9072 38.4687 102.924C38.4687 102.927 33.0607 100.059 29.4961 99.9729Z" fill="#DFEBFD"/>
<path d="M43.1428 129.856C43.0152 130.947 42.7854 131.689 42.4246 131.93C41.2962 132.687 39.7993 133.626 38.1286 134.558C36.3854 133.498 32.8076 130.969 31.9695 127.99C30.8751 124.093 31.6395 119.301 31.6395 119.301L43.1428 129.856Z" fill="#DFEBFD"/>
<path d="M30.915 105.968C30.915 105.968 31.5222 122.713 32.4746 126.024C34.098 131.671 48.9085 133.681 48.9085 133.681C48.9085 133.681 49.7818 132.691 49.3914 131.049C49.3914 131.049 40.5376 124.071 40.278 122.742C40.0185 121.413 42.2072 112.41 39.7072 109.137C37.2072 105.864 32.5956 103.026 30.915 105.968Z" fill="white"/>
<path d="M12.3489 172.654H12.2994C12.1142 172.657 11.9362 172.582 11.809 172.447C11.6818 172.313 11.6171 172.131 11.6307 171.946L14.2912 145.375L16.613 145.581L12.7921 172.296C12.7553 172.509 12.5657 172.663 12.3489 172.654Z" fill="#77A4E5"/>
<path d="M26.0432 172.654H25.9948C25.8094 172.658 25.6311 172.583 25.5037 172.448C25.3762 172.313 25.3114 172.131 25.325 171.946L27.9888 145.374L30.3106 145.58L26.4898 172.295C26.4538 172.51 26.2618 172.665 26.0432 172.654Z" fill="#77A4E5"/>
<path d="M51.7515 172.654H51.8009C51.9862 172.657 52.1642 172.582 52.2914 172.448C52.4185 172.313 52.4832 172.131 52.4696 171.946L49.8091 145.374L47.4873 145.58L51.3049 172.295C51.3413 172.51 51.5331 172.665 51.7515 172.654Z" fill="#77A4E5"/>
<path d="M13.0996 141.61L10.5699 119.416C10.2399 116.219 11.309 113.087 15.924 112.845L24.0441 112.35C28.856 112.152 31.0282 116.156 31.6331 119.24L36.4537 143.635L13.0996 141.61Z" fill="#77A4E5"/>
<path d="M50.4888 145.762H14.4567C13.7278 145.762 13.1369 145.171 13.1369 144.442V141.504H50.4888C51.2177 141.504 51.8086 142.095 51.8086 142.824V144.445C51.8068 145.173 51.2164 145.762 50.4888 145.762Z" fill="#77A4E5"/>
<path d="M35.4402 145.762H14.1636C13.5993 145.762 13.1419 145.304 13.1419 144.74V141.509H35.4402C36.0045 141.509 36.4619 141.966 36.4619 142.53V144.739C36.4622 145.01 36.3547 145.27 36.163 145.462C35.9714 145.654 35.7113 145.762 35.4402 145.762Z" fill="#77A4E5"/>
<path d="M1.78711 173.136C1.78711 172.772 2.08207 172.477 2.44592 172.477H322.804C323.168 172.477 323.463 172.772 323.463 173.136C323.463 173.5 323.168 173.795 322.804 173.795H2.44593C2.08208 173.795 1.78711 173.5 1.78711 173.136Z" fill="#2E3552"/>
<path d="M56.6855 67.1343C56.6855 63.2343 59.8471 60.0728 63.7471 60.0728H64.1816C68.0816 60.0728 71.2431 63.2343 71.2431 67.1343C71.2431 71.0343 68.0815 74.1959 64.1816 74.1959H63.7471C59.8471 74.1959 56.6855 71.0343 56.6855 67.1343Z" fill="#77A4E5"/>
<path d="M57.3174 67.1337C57.3174 63.5717 60.2049 60.6842 63.7669 60.6842H64.1639C67.7259 60.6842 70.6134 63.5717 70.6134 67.1337C70.6134 70.6957 67.7259 73.5832 64.1639 73.5832H63.7669C60.2049 73.5832 57.3174 70.6957 57.3174 67.1337Z" fill="#DFEBFD"/>
<circle cx="64.1631" cy="62.1719" r="0.5" fill="#77A4E5"/>
<path d="M66.0958 62.3999C66.1766 62.2546 66.36 62.2022 66.5054 62.2829C66.6509 62.3636 66.7034 62.5469 66.6229 62.6924C66.5423 62.8378 66.3591 62.8907 66.2135 62.8102C66.0685 62.7288 66.0161 62.5458 66.0958 62.3999Z" fill="#77A4E5"/>
<path d="M68.1813 64.0564C68.3213 63.9664 68.5077 64.0067 68.5977 64.1467C68.6878 64.2865 68.6474 64.4729 68.5076 64.5631C68.3678 64.6533 68.1813 64.613 68.0911 64.4732C68.0478 64.406 68.0329 64.3243 68.0498 64.2461C68.0667 64.1679 68.114 64.0996 68.1813 64.0564Z" fill="#77A4E5"/>
<path d="M69.2136 66.619C69.3806 66.619 69.516 66.7544 69.516 66.9214C69.516 67.0885 69.3806 67.2239 69.2136 67.2239C69.0465 67.2239 68.9111 67.0885 68.9111 66.9214C68.9111 66.7544 69.0465 66.619 69.2136 66.619Z" fill="#77A4E5"/>
<circle cx="68.6709" cy="70.0061" r="0.5" fill="#77A4E5"/>
<path d="M66.7925 71.4925C66.9104 71.6101 66.9106 71.801 66.7929 71.9188C66.6751 72.0366 66.4842 72.0366 66.3665 71.9188C66.2487 71.801 66.249 71.6101 66.3668 71.4925C66.4232 71.4359 66.4998 71.4041 66.5797 71.4041C66.6596 71.4041 66.7361 71.4359 66.7925 71.4925Z" fill="#77A4E5"/>
<circle cx="64.1631" cy="72.6699" r="0.5" fill="#77A4E5"/>
<path d="M61.8233 62.4C61.7421 62.2547 61.5587 62.2027 61.4134 62.2837C61.2681 62.3647 61.216 62.5482 61.297 62.6936C61.3779 62.8389 61.5614 62.8911 61.7067 62.8101C61.7766 62.7713 61.8282 62.7062 61.8501 62.6292C61.8719 62.5523 61.8623 62.4698 61.8233 62.4Z" fill="#77A4E5"/>
<path d="M59.7388 64.0564C59.5989 63.9663 59.4125 64.0068 59.3224 64.1466C59.2323 64.2866 59.2727 64.473 59.4125 64.5631C59.5524 64.6532 59.7388 64.613 59.829 64.4732C59.8724 64.406 59.8872 64.3243 59.8704 64.2461C59.8534 64.1679 59.8061 64.0996 59.7388 64.0564Z" fill="#77A4E5"/>
<path d="M58.7059 66.619C58.5834 66.6185 58.4729 66.692 58.4257 66.8049C58.3786 66.9178 58.4041 67.0482 58.4906 67.1349C58.5769 67.2216 58.7072 67.2477 58.8203 67.2009C58.9334 67.1542 59.0072 67.0438 59.0072 66.9215C59.0072 66.7548 58.8726 66.6196 58.7059 66.619Z" fill="#77A4E5"/>
<circle cx="59.6445" cy="70.0061" r="0.5" fill="#77A4E5"/>
<path d="M61.127 71.4924C61.0096 71.6102 61.0097 71.8008 61.1274 71.9183C61.2451 72.0359 61.4358 72.0359 61.5534 71.9183C61.6711 71.8008 61.6712 71.6102 61.5538 71.4924C61.4358 71.3749 61.2451 71.3749 61.127 71.4924Z" fill="#77A4E5"/>
<path d="M63.8828 66.9215C63.8823 66.799 63.9559 66.6883 64.069 66.6412C64.1821 66.594 64.3125 66.6199 64.3992 66.7065C64.4858 66.7931 64.5116 66.9235 64.4645 67.0367C64.4174 67.1498 64.3066 67.2233 64.1842 67.2228C64.0179 67.2222 63.8834 67.0877 63.8828 66.9215Z" fill="#77A4E5"/>
<rect x="64.1436" y="63.1534" width="1" height="3.76698" fill="#77A4E5"/>
<rect x="64.6123" y="66.2507" width="2.53845" height="1" transform="rotate(-38.1302 64.6123 66.2507)" fill="#77A4E5"/>
</svg>
