<svg width="35" height="36" viewBox="0 0 35 36" fill="none" xmlns="http://www.w3.org/2000/svg">
<path d="M23.332 7.07983C26.0115 7.07983 28.1836 9.25195 28.1836 11.9314M33.0352 11.9314C33.0352 14.7976 31.7693 17.5159 29.5766 19.3595C27.3854 21.2026 24.4902 21.9835 21.6679 21.4922C20.7575 21.3353 19.7936 21.5343 19.1403 22.1876L14.8418 26.4861H11.2031V30.1248H7.56445V33.7634H1.5V29.2062C1.5 28.2407 1.88327 27.3141 2.56573 26.6332L13.0758 16.1231C13.7292 15.4698 13.9281 14.506 13.7712 13.5955C13.1459 9.98472 14.6081 6.32967 17.5514 4.14652C20.4946 1.96337 24.4166 1.62457 27.6906 3.27066C30.9646 4.91674 33.032 8.26688 33.0352 11.9314Z" stroke="white" stroke-width="2.5" stroke-linecap="round" stroke-linejoin="round"/>
</svg>
