<svg width="27" height="27" viewBox="0 0 27 27" fill="none" xmlns="http://www.w3.org/2000/svg">
<path d="M18.333 4.92738C20.4364 4.92738 22.1416 6.63255 22.1416 8.73598M25.9502 8.73598C25.9502 10.986 24.9564 13.1199 23.2352 14.5672C21.515 16.0141 19.2422 16.6271 17.0267 16.2414C16.3119 16.1183 15.5553 16.2745 15.0424 16.7873L11.668 20.1618H8.81152V23.0182H5.95508V25.8747H1.19434V22.2971C1.19434 21.5392 1.49521 20.8118 2.03096 20.2773L10.2816 12.0266C10.7945 11.5137 10.9507 10.7571 10.8275 10.0423C10.3367 7.20778 11.4845 4.33849 13.795 2.62466C16.1055 0.910836 19.1845 0.644868 21.7546 1.93709C24.3248 3.2293 25.9477 5.85925 25.9502 8.73598Z" stroke="#158B68" stroke-width="2" stroke-linecap="round" stroke-linejoin="round"/>
</svg>
