<svg width="37" height="34" viewBox="0 0 37 34" fill="none" xmlns="http://www.w3.org/2000/svg">
<path d="M10.5417 10.5417H26.0417M10.5417 15.7083H18.2917M1.5 18.3089C1.5 21.0644 3.43406 23.4652 6.16206 23.8665C8.10645 24.1524 10.0715 24.3711 12.0572 24.5192C12.66 24.564 13.2111 24.8809 13.5469 25.3821L18.2917 32.5L23.0364 25.3821C23.3737 24.8805 23.9232 24.5622 24.5261 24.5192C26.4983 24.372 28.4646 24.1543 30.4213 23.8665C33.1493 23.4652 35.0833 21.0662 35.0833 18.3072V7.94283C35.0833 5.18383 33.1493 2.78478 30.4213 2.3835C26.405 1.794 22.351 1.49872 18.2917 1.5C14.1721 1.5 10.1214 1.80139 6.16206 2.3835C3.43406 2.78478 1.5 5.18555 1.5 7.94283V18.3072V18.3089Z" stroke="white" stroke-width="3" stroke-linecap="round" stroke-linejoin="round"/>
</svg>
