<svg width="1166" height="736" viewBox="0 0 1166 736" fill="none" xmlns="http://www.w3.org/2000/svg">
<path d="M1137.34 254.905C1124.1 207.238 1035.87 259.087 1035.87 259.087L1058.97 217.198C1061.76 212.988 1064.2 208.556 1066.27 203.946C1077.88 178.013 1077.73 150.199 1066.27 126.114C1063.13 111.451 1053.48 90.4898 1027.06 67.4626C977.054 24.0452 809.414 -5.68357 760.807 0.917223C712.199 7.51801 804.93 27.9418 804.93 27.9418H797.59C656.252 12.9599 514.041 11.0284 372.939 13.9508C337.55 14.6731 302.06 15.8488 267.41 21.8113C257.45 23.4909 246.735 26.1615 240.789 34.2067C214.52 69.8644 322.266 73.3411 339.23 72.6525C265.21 82.2766 183.028 85.2326 114.165 113.836C104.574 117.817 95.0509 122.553 87.8118 129.927C80.5728 137.3 75.8699 147.797 77.4991 158.328C82.2524 188.88 124.242 197.95 148.159 204.735C148.159 204.735 10.9034 296.004 27.0779 342.327C34.4244 364.328 46.4 384.5 62.1981 401.483C51.7127 414.377 42.6676 428.378 35.2239 443.237C30.8401 452.206 25.1463 464.484 30.0003 474.814C54.9926 527.418 434.126 708.041 737.931 656.478C818.635 642.789 899.02 620.148 969.714 580.107C1040.12 540.25 1111.87 474.41 1129.61 391.405C1130.2 388.667 1130.62 386.014 1130.92 383.427C1142.07 345.183 1148.42 294.778 1137.34 254.905Z" fill="#92E3A9"/>
<path opacity="0.8" d="M1137.34 254.905C1124.1 207.238 1035.87 259.087 1035.87 259.087L1058.97 217.198C1061.76 212.988 1064.2 208.556 1066.27 203.946C1077.88 178.013 1077.73 150.199 1066.27 126.114C1063.13 111.451 1053.48 90.4898 1027.06 67.4626C977.054 24.0452 809.414 -5.68357 760.807 0.917223C712.199 7.51801 804.93 27.9418 804.93 27.9418H797.59C656.252 12.9599 514.041 11.0284 372.939 13.9508C337.55 14.6731 302.06 15.8488 267.41 21.8113C257.45 23.4909 246.735 26.1615 240.789 34.2067C214.52 69.8644 322.266 73.3411 339.23 72.6525C265.21 82.2766 183.028 85.2326 114.165 113.836C104.574 117.817 95.0508 122.553 87.8118 129.927C80.5728 137.3 77.7343 147.663 77.4991 158.328C76.8273 186.495 122.109 196.959 148.227 204.735C148.227 204.735 10.9706 296.004 27.145 342.327C34.4916 364.328 46.4672 384.5 62.2653 401.483C51.7565 414.373 42.6887 428.375 35.2239 443.237C30.8401 452.206 25.1463 464.484 30.0003 474.814C54.9926 527.418 434.126 708.041 737.931 656.478C818.635 642.789 899.02 620.148 969.714 580.107C1040.12 540.25 1111.87 474.41 1129.61 391.405C1130.2 388.667 1130.62 386.014 1130.92 383.427C1142.07 345.183 1148.42 294.778 1137.34 254.905Z" fill="white"/>
<path d="M891.815 202.821C891.815 202.821 893.494 197.681 902.094 195.968C910.693 194.255 920.956 203.694 920.956 203.694C920.956 203.694 927.808 189.972 934.661 189.115C941.514 188.259 949.223 194.255 949.223 194.255" stroke="#263238" stroke-width="1.72309"/>
<path d="M869.459 235.422C869.459 235.422 871.139 230.282 879.755 228.569C888.372 226.856 898.533 236.245 898.533 236.245C898.533 236.245 905.386 222.539 912.239 221.683C919.091 220.826 926.817 226.822 926.817 226.822" stroke="#263238" stroke-width="1.72309"/>
<path d="M950.869 235.59C950.869 235.59 952.179 231.676 958.696 230.383C965.213 229.09 973.057 236.245 973.057 236.245C973.057 236.245 978.28 225.814 983.487 225.159C988.694 224.504 994.572 229.073 994.572 229.073" stroke="#263238" stroke-width="1.72309"/>
<path d="M1046.1 270.105C1046.1 270.105 1046.96 267.535 1051.14 266.746C1055.32 265.957 1060.56 270.592 1060.56 270.592C1060.56 270.592 1063.92 263.756 1067.4 263.32C1070.88 262.883 1074.67 265.889 1074.67 265.889" stroke="#263238" stroke-width="1.72309"/>
<path d="M589.724 193.751C580.872 153.961 535.003 124.317 495.029 129.926C484.977 131.094 475.518 135.288 467.903 141.952C457.691 151.442 460.16 162.074 455.121 173.713C453.859 177.078 451.008 179.595 447.513 180.432C437.57 182.111 429.558 172.235 419.497 172.151C411.973 172.151 402.349 176.266 398.15 182.766C394.236 188.813 396.974 199.378 389.937 203.392C382.059 207.876 372.502 199.344 363.987 202.434C353.422 206.281 358.226 213.956 354.38 218.76C350.533 223.564 342.858 221.649 332.276 220.692C321.695 219.734 313.062 232.214 313.062 232.214H646.41C646.41 232.214 649.299 227.41 636.803 208.195C624.307 188.981 607.024 202.434 599.331 202.434C591.639 202.434 589.724 193.768 589.724 193.751Z" stroke="#263238" stroke-width="1.72309"/>
<path d="M682.572 129.843C679.028 113.886 660.619 101.995 644.596 104.279C640.556 104.738 636.753 106.42 633.695 109.1C629.614 112.862 630.571 117.145 628.556 121.814C628.035 123.154 626.895 124.156 625.499 124.501C621.502 125.173 618.294 121.142 614.263 121.142C610.905 121.164 607.745 122.732 605.697 125.392C604.118 127.827 605.226 132.11 602.338 133.672C599.197 135.469 595.35 131.992 591.941 133.286C587.691 134.831 589.623 137.905 588.078 139.836C586.533 141.768 583.459 140.995 579.21 140.609C574.96 140.222 571.5 145.244 571.5 145.244H705.38C705.38 145.244 706.539 143.313 701.534 135.604C696.529 127.894 689.575 133.286 686.502 133.286C683.428 133.286 682.572 129.859 682.572 129.843Z" stroke="#263238" stroke-width="1.72309"/>
<path d="M967.951 325.448C964.39 309.492 945.998 297.6 929.958 299.867C925.923 300.336 922.127 302.024 919.075 304.705C914.976 308.467 915.951 312.75 913.918 317.402C913.41 318.751 912.264 319.758 910.861 320.09C906.881 320.778 903.656 316.731 899.625 316.731C896.266 316.745 893.103 318.314 891.059 320.98C889.497 323.399 890.589 327.698 887.7 329.26C884.542 331.057 880.696 327.581 877.286 328.874C873.054 330.419 874.969 333.493 873.44 335.424C871.912 337.356 868.805 336.583 864.572 336.197C860.339 335.811 856.863 340.816 856.863 340.816H990.625C990.625 340.816 991.784 338.884 986.762 331.175C981.74 323.466 974.82 328.874 971.646 328.874C968.471 328.874 967.951 325.448 967.951 325.448Z" stroke="#263238" stroke-width="1.72309"/>
<path d="M753.383 307.98C747.941 283.542 719.791 265.318 695.202 268.812C689.023 269.532 683.208 272.108 678.524 276.202C672.242 281.963 673.737 288.513 670.63 295.668C669.841 297.722 668.097 299.259 665.961 299.783C659.847 300.825 654.926 294.745 648.745 294.745C644.109 294.745 638.197 297.264 635.627 301.261C633.225 304.973 634.888 311.473 630.588 313.942C625.751 316.697 619.873 311.44 614.649 313.354C608.149 315.706 611.105 320.442 608.737 323.432C606.369 326.422 601.649 325.212 595.166 324.625C588.683 324.037 583.409 331.696 583.409 331.696H788.319C788.319 331.696 790.082 328.756 782.407 316.949C774.731 305.141 764.116 313.405 759.379 313.405C754.643 313.405 753.383 307.997 753.383 307.98Z" stroke="#263238" stroke-width="1.72309"/>
<path d="M801.57 589.647C801.57 589.647 789.326 576.966 792.753 577.336C796.179 577.705 802.629 587.212 802.629 587.212C802.629 587.212 802.713 566.301 805.769 570.869C808.826 575.438 805.081 587.296 805.081 587.296C805.081 587.296 813.815 573.674 813.798 575.891C813.798 582.778 807.079 588.169 807.079 588.169C807.079 588.169 821.071 577.806 818.837 582.005C816.603 586.204 807.6 590.184 807.6 590.184C807.6 590.184 823.724 586.926 817.997 589.227C812.269 591.528 806.828 593.09 806.828 593.09H802.36C802.36 593.09 787.143 585.448 792.87 586.59C795.918 587.127 798.857 588.159 801.57 589.647Z" fill="#263238"/>
<path d="M963.298 549.942C963.298 549.942 953.758 540.066 956.445 540.368C959.133 540.67 964.121 548.044 964.121 548.044C964.121 548.044 964.121 531.768 966.574 535.329C969.026 538.89 966.019 548.111 966.019 548.111C966.019 548.111 972.821 537.513 972.738 539.243C972.738 544.6 967.497 548.799 967.497 548.799C967.497 548.799 978.381 540.721 976.601 543.996C974.82 547.271 967.867 550.362 967.867 550.362C967.867 550.362 980.413 547.825 975.946 549.606C971.478 551.386 967.245 552.612 967.245 552.612H963.785C963.785 552.612 951.927 546.666 956.395 547.573C958.81 547.979 961.143 548.779 963.298 549.942Z" fill="#263238"/>
<path d="M1113.52 514.519C1113.52 514.519 1104 504.643 1106.67 504.945C1109.34 505.248 1114.34 512.621 1114.34 512.621C1114.34 512.621 1114.34 496.346 1116.8 499.907C1119.25 503.467 1116.26 512.688 1116.26 512.688C1116.26 512.688 1122.98 502.09 1122.98 503.82C1122.98 509.178 1117.74 513.377 1117.74 513.377C1117.74 513.377 1128.62 505.315 1126.84 508.573C1125.06 511.832 1118.09 514.939 1118.09 514.939C1118.09 514.939 1130.64 512.403 1126.18 514.183C1121.73 515.963 1117.48 517.19 1117.48 517.19H1114.01C1114.01 517.19 1102.25 511.244 1106.62 512.151C1109.03 512.553 1111.37 513.353 1113.52 514.519Z" fill="#263238"/>
<path d="M922.048 595.425C922.048 595.425 910.66 583.668 913.868 583.987C917.076 584.306 923.038 593.157 923.038 593.157C923.038 593.157 923.038 573.725 925.961 578.041C928.883 582.358 925.407 593.174 925.407 593.174C925.407 593.174 933.536 580.51 933.519 582.576C933.519 588.975 927.254 593.98 927.254 593.98C927.254 593.98 940.254 584.356 938.121 588.253C935.988 592.15 927.691 595.862 927.691 595.862C927.691 595.862 942.673 592.838 937.348 594.971C932.024 597.104 926.952 598.549 926.952 598.549H922.82C922.82 598.549 908.661 591.461 913.985 592.519C916.811 593.048 919.534 594.029 922.048 595.425Z" fill="#92E3A9"/>
<path d="M696.798 544.265L596.089 431.346L574.02 448.998L463.603 282.752L367.48 304.167L338.743 250.471L310.794 248.993L257.854 144.589L178.661 216.828L140.484 203.207L1.41382 345.015" stroke="#263238" stroke-width="1.72309"/>
<line x1="715.05" y1="566.018" x2="704.486" y2="554.177" stroke="#263238" stroke-width="1.72309"/>
<line x1="316.091" y1="318.805" x2="307.761" y2="321.056" stroke="#263238" stroke-width="1.72309"/>
<line x1="367.504" y1="304.881" x2="325.464" y2="316.269" stroke="#263238" stroke-width="1.72309"/>
<path d="M208.658 255.711L232.206 220.96L230.611 209.035L257.635 154.197" stroke="#263238" stroke-width="1.72309"/>
<line x1="198.119" y1="269.757" x2="204.014" y2="261.04" stroke="#263238" stroke-width="1.72309"/>
<line x1="162.978" y1="291.309" x2="124.801" y2="343.074" stroke="#263238" stroke-width="1.72309"/>
<path d="M142.399 209.035L151.939 230.484L173.387 247.985L171.002 278.973L165.812 286.028" stroke="#263238" stroke-width="1.72309"/>
<path d="M338.742 250.471L318.839 269.433L311.684 257.508" stroke="#263238" stroke-width="1.72309"/>
<path d="M1142.09 462.905L987.535 353.9L940.624 420.126L882.661 400.811L792.971 526.377L735.008 513.965L706.035 538.806" stroke="#263238" stroke-width="1.72309"/>
<path d="M987.535 353.9L969.16 434.671L947.493 425.182" stroke="#263238" stroke-width="1.72309"/>
<path d="M883.165 405.547L837.782 537.597L806.643 532.188" stroke="#263238" stroke-width="1.72309"/>
<path d="M881.065 396.108C840.983 395.969 808.377 428.349 808.238 468.431C808.206 486.234 814.791 503.414 826.714 516.635C835.284 515.417 844.02 516.217 852.227 518.97C861.391 522.025 869.821 526.95 876.984 533.431H883.518C890.688 526.951 899.123 522.027 908.291 518.97C916.937 516.056 926.17 515.328 935.165 516.854C947.253 503.624 953.957 486.352 953.959 468.431C953.811 428.326 921.17 395.941 881.065 396.108Z" fill="#92E3A9"/>
<path d="M914.96 497.438C912.72 498.557 910.481 499.677 908.241 500.797C906.047 501.985 903.922 503.298 901.876 504.727C901.12 505.248 900.381 505.802 899.625 506.407L911.567 484.186L895.191 509.816C893.511 511.16 891.832 512.52 890.303 513.914C887.672 516.154 885.097 518.505 882.577 520.969L881.737 496.867L898.869 470.782L881.737 493.155L880.981 471.589L879.705 495.758L878.479 519.944C876.279 517.878 874.062 515.863 871.76 513.881C869.963 512.319 868.133 510.773 866.268 509.295L850.782 482.842L862.153 506.171C861.498 505.701 860.86 505.214 860.188 504.761C858.142 503.331 856.017 502.019 853.823 500.83C851.639 499.671 849.405 498.546 847.104 497.471C842.622 495.281 838.024 493.336 833.332 491.643C837.874 493.638 842.304 495.881 846.6 498.361C848.75 499.571 850.867 500.814 852.949 502.09C854.995 503.372 856.964 504.775 858.845 506.289C862.59 509.286 866.163 512.493 869.544 515.896C872.5 518.836 875.389 521.892 878.143 524.966L876.698 555.568H883.87L882.846 526.108C885.92 522.581 889.195 519.121 892.554 515.779C895.935 512.376 899.507 509.168 903.253 506.171C905.134 504.657 907.102 503.255 909.148 501.972C911.231 500.696 913.347 499.453 915.497 498.244C919.8 495.763 924.235 493.521 928.783 491.525C924.07 493.241 919.455 495.215 914.96 497.438Z" fill="#263238"/>
<path d="M321.947 495.355C321.947 516.131 310.29 517.693 295.913 517.693C281.536 517.693 269.879 516.131 269.879 495.355C269.879 474.578 281.536 431.127 295.913 431.127C310.29 431.127 321.947 474.562 321.947 495.355Z" fill="#92E3A9"/>
<path d="M304.714 504.794L300.414 505.08L311.634 497.522L303.622 501.569L304.714 498.412L301.053 502.863L296.77 505.046L296.417 490.115L298.701 484.589L296.367 487.696L296.165 479.046L303.303 469.54L296.115 476.896L295.678 457.85L295.292 470.027L290.723 464.938L295.224 472.378L294.62 491.677L290.639 489.073L287.011 482.64L288.456 487.662L281.334 482.993L294.536 494.381L292.537 557.752H297.962L296.82 507.515L298.08 506.659L304.714 504.794Z" fill="#263238"/>
<path d="M1022.02 423.788C1022.02 464.383 999.241 467.457 971.159 467.457C943.076 467.457 920.301 464.383 920.301 423.788C920.301 383.192 943.059 298.289 971.159 298.289C999.258 298.289 1022.02 383.225 1022.02 423.788Z" fill="#92E3A9"/>
<path opacity="0.31" d="M1022.02 423.788C1022.02 464.383 999.241 467.457 971.159 467.457C943.076 467.457 920.301 464.383 920.301 423.788C920.301 383.192 943.059 298.289 971.159 298.289C999.258 298.289 1022.02 383.225 1022.02 423.788Z" fill="white"/>
<path d="M988.358 442.213L979.943 442.8L1001.84 428.02L986.208 435.931L988.358 429.75L981.203 438.467L972.805 442.7L972.133 413.542L976.584 402.759L972.032 408.822L971.646 391.926L985.586 373.333L971.545 387.693L970.705 350.49L969.949 374.307L960.997 364.33L969.798 378.875L968.606 416.616L960.829 411.527L953.741 398.946L956.58 408.738L942.656 399.635L968.454 421.89L964.541 545.709H975.156L972.922 447.537L975.375 445.874L988.358 442.213Z" fill="#263238"/>
<path d="M1130.89 439.76C1130.89 460.554 1119.23 462.116 1104.85 462.116C1090.48 462.116 1078.82 460.554 1078.82 439.76C1078.82 418.967 1090.48 375.55 1104.85 375.55C1119.23 375.55 1130.89 418.984 1130.89 439.76Z" fill="#92E3A9"/>
<path opacity="0.5" d="M1130.89 439.76C1130.89 460.554 1119.23 462.116 1104.85 462.116C1090.48 462.116 1078.82 460.554 1078.82 439.76C1078.82 418.967 1090.48 375.55 1104.85 375.55C1119.23 375.55 1130.89 418.984 1130.89 439.76Z" fill="white"/>
<path d="M1113.66 449.2L1109.36 449.502L1120.56 441.944L1112.55 445.992L1113.66 442.817L1109.99 447.285L1105.69 449.452L1105.36 434.537L1107.63 429.011L1105.31 432.118L1105.11 423.468L1112.24 413.945L1105.06 421.302L1104.62 402.255L1104.23 414.449L1099.66 409.343L1104.17 416.784L1103.56 436.099L1099.56 433.496L1095.94 427.063L1097.4 432.068L1090.28 427.416L1103.46 438.803L1101.48 502.174H1106.9L1105.76 451.921L1107 451.081L1113.66 449.2Z" fill="#263238"/>
<path d="M69.9411 422.192C69.9411 442.969 58.2847 444.547 43.9074 444.547C29.5301 444.547 17.8738 442.969 17.8738 422.192C17.8738 401.415 29.5301 358.032 43.9074 358.032C58.2847 358.032 69.9411 401.415 69.9411 422.192Z" fill="#92E3A9"/>
<path opacity="0.5" d="M69.9411 422.192C69.9411 442.969 58.2847 444.547 43.9074 444.547C29.5301 444.547 17.8738 442.969 17.8738 422.192C17.8738 401.415 29.5301 358.032 43.9074 358.032C58.2847 358.032 69.9411 401.415 69.9411 422.192Z" fill="white"/>
<path d="M52.7085 431.631L48.4088 431.934L59.6116 424.375L51.6168 428.423L52.7085 425.249L49.047 429.717L44.7472 431.883L44.4113 416.952L46.6788 411.443L44.3609 414.55L44.1594 405.883L51.2976 396.377L44.109 403.733L43.6723 384.687L43.286 396.881L38.7175 391.775L43.2188 399.215L42.6142 418.53L38.6167 415.927L34.9888 409.494L36.4501 414.499L29.3286 409.847L42.5302 421.218L40.5147 484.589H45.9565L44.8144 434.352L46.0573 433.512L52.7085 431.631Z" fill="#263238"/>
<path d="M198.917 375.063C158.835 374.923 126.229 407.304 126.09 447.386C126.058 465.194 132.643 482.379 144.565 495.607C153.134 494.381 161.871 495.175 170.078 497.925C179.242 500.98 187.672 505.904 194.835 512.386H201.503C208.674 505.906 217.109 500.982 226.277 497.925C234.926 495.027 244.155 494.301 253.151 495.808C265.216 482.569 271.895 465.298 271.878 447.386C271.807 428.116 264.077 409.665 250.391 396.098C236.705 382.532 218.187 374.964 198.917 375.063Z" fill="#92E3A9"/>
<path opacity="0.33" d="M198.917 375.063C158.835 374.923 126.229 407.304 126.09 447.386C126.058 465.194 132.643 482.379 144.565 495.607C153.134 494.381 161.871 495.175 170.078 497.925C179.242 500.98 187.672 505.904 194.835 512.386H201.503C208.674 505.906 217.109 500.982 226.277 497.925C234.926 495.027 244.155 494.301 253.151 495.808C265.216 482.569 271.895 465.298 271.878 447.386C271.807 428.116 264.077 409.665 250.391 396.098C236.705 382.532 218.187 374.964 198.917 375.063Z" fill="white"/>
<path d="M232.811 476.409C230.571 477.529 228.332 478.649 226.093 479.768C223.895 480.945 221.769 482.252 219.727 483.682L217.476 485.361L229.418 463.124L213.042 488.771C211.374 490.103 209.745 491.464 208.155 492.852C205.518 495.153 202.948 497.488 200.428 499.907L199.589 475.805L216.721 449.72L199.471 472.16L198.715 450.577L197.489 474.713L196.263 498.916C194.063 496.833 191.846 494.817 189.545 492.836C187.753 491.279 185.922 489.751 184.052 488.25L168.567 461.797L179.937 485.143C179.282 484.656 178.644 484.186 177.972 483.715C175.93 482.285 173.805 480.979 171.607 479.802C169.423 478.626 167.189 477.501 164.888 476.443C160.406 474.253 155.808 472.307 151.116 470.615C155.717 472.581 160.204 474.807 164.552 477.283C166.702 478.492 168.819 479.74 170.901 481.028C172.947 482.305 174.916 483.701 176.797 485.21C180.538 488.212 184.11 491.419 187.496 494.818C190.452 497.757 193.341 500.814 196.095 503.904L194.533 534.607H201.705L200.68 505.147C203.754 501.62 207.029 498.16 210.388 494.818C213.774 491.419 217.346 488.212 221.087 485.21C222.968 483.701 224.937 482.305 226.983 481.028C229.032 479.651 231.143 478.402 233.315 477.283C237.616 474.83 242.052 472.62 246.6 470.665C241.903 472.327 237.299 474.245 232.811 476.409Z" fill="#263238"/>
<path d="M401.106 590.907V524.311H314.355V481.649L388.761 305.292H452.233V482.657H479.727V524.311H452.233V590.957L401.106 590.907ZM357.436 482.657H401.106V361.391L357.436 482.657Z" fill="#263238"/>
<path d="M581.981 591.058C564.815 591.058 550.595 587.531 539.319 580.477C528.126 573.543 519.274 563.409 513.907 551.386C508.308 539.069 505.509 524.792 505.509 508.556V380.555C505.509 363.871 508.208 349.242 513.605 336.667C518.679 324.482 527.434 314.188 538.647 307.224C549.934 300.17 564.39 296.643 582.014 296.643C599.415 296.643 613.697 300.17 624.861 307.224C635.982 314.243 644.664 324.526 649.719 336.667C655.116 349.231 657.814 363.86 657.814 380.555V508.556C657.814 524.759 655.015 539.035 649.416 551.386C644.054 563.406 635.207 573.541 624.021 580.477C612.678 587.531 598.665 591.058 581.981 591.058ZM581.981 543.106C588.33 543.106 592.915 541.107 595.737 537.109C598.663 532.833 600.592 527.954 601.38 522.833C602.271 517.769 602.743 512.64 602.791 507.498L602.791 381.546C602.769 376.115 602.353 370.692 601.548 365.321C600.879 360.089 599.01 355.083 596.089 350.692C593.268 346.594 588.565 344.539 581.981 344.528C575.397 344.516 570.638 346.571 567.704 350.692C564.675 355.044 562.739 360.062 562.061 365.321C561.256 370.692 560.84 376.115 560.818 381.546V507.515C560.858 512.657 561.33 517.787 562.229 522.85C563.025 528.029 565.084 532.932 568.225 537.126C571.282 541.112 575.867 543.106 581.981 543.106Z" fill="#263238"/>
<path d="M774.143 590.907V524.311H687.409V481.649L761.798 305.292H825.269V482.657H852.764V524.311H825.269V590.957L774.143 590.907ZM730.473 482.657H774.143V361.391L730.473 482.657Z" fill="#263238"/>
<path d="M1164.09 453.164C1054.28 525.151 837.413 574.094 587.826 574.094C330.58 574.094 108.085 522.027 1.74976 446.445V735.939H1164.03L1164.09 453.164Z" fill="white"/>
<path d="M1140.24 467.524C1024.65 531.584 820.449 574.144 587.826 574.144C330.58 574.144 108.085 522.077 1.74976 446.496" stroke="#263238" stroke-width="1.72309"/>
<path d="M1164.6 452.828C1159.66 456.086 1154.49 459.3 1149.09 462.469" stroke="#263238" stroke-width="1.72309"/>
<path d="M1093.99 436.385C1093.99 478.844 1070.17 482.053 1040.81 482.053C1011.45 482.053 987.551 478.844 987.551 436.385C987.551 393.924 1011.37 305.175 1040.74 305.175C1070.12 305.175 1093.99 393.924 1093.99 436.385Z" fill="#92E3A9"/>
<path d="M1058.78 455.666L1050 456.271L1072.91 440.819L1056.55 449.099L1058.78 442.633L1051.31 451.736L1042.54 456.17L1041.84 425.686L1046.49 414.399L1041.72 420.748L1041.32 403.061L1055.89 383.629L1041.21 398.661L1040.32 359.745L1039.55 384.653L1030.2 374.223L1039.4 389.44L1038.16 428.877L1030.01 423.569L1022.59 410.418L1025.56 420.664L1011.02 411.14L1037.97 434.403L1033.89 563.882H1044.99L1042.64 461.226L1045.21 459.496L1058.78 455.666Z" fill="#263238"/>
<path d="M1037.22 565.024C1037.22 565.024 1017.6 544.684 1023.11 545.289C1028.62 545.894 1038.91 561.111 1038.91 561.111C1038.91 561.111 1039.06 527.519 1043.95 534.926C1048.84 542.333 1042.83 561.262 1042.83 561.262C1042.83 561.262 1056.82 539.427 1056.8 542.988C1056.7 554.023 1046 562.656 1046 562.656C1046 562.656 1068.44 546.045 1064.81 552.864C1061.18 559.683 1046.81 565.965 1046.81 565.965C1046.81 565.965 1072.66 560.741 1063.47 564.42C1054.28 568.098 1045.55 570.617 1045.55 570.617H1038.41C1038.41 570.617 1014 558.373 1023.19 560.204C1028.1 561.026 1032.84 562.655 1037.22 565.024Z" fill="#263238"/>
<path d="M96.9153 539.763C96.9153 539.763 79.9347 522.178 84.6879 522.715C89.4411 523.253 98.3766 536.387 98.3766 536.387C98.3766 536.387 98.4941 507.398 102.743 513.747C106.993 520.095 101.769 536.505 101.769 536.505C101.769 536.505 113.879 517.626 113.846 520.7C113.846 530.257 104.524 537.714 104.524 537.714C104.524 537.714 123.906 523.354 120.732 529.182C117.557 535.01 105.162 540.502 105.162 540.502C105.162 540.502 127.517 536.001 119.573 539.175C111.629 542.35 104.087 544.466 104.087 544.466H97.8895C97.8895 544.466 76.7938 533.885 84.7215 535.464C88.9928 536.224 93.1114 537.677 96.9153 539.763Z" fill="#263238"/>
<path d="M158.271 413.24C158.271 455.75 134.437 458.958 105.028 458.958C75.618 458.958 51.7847 455.75 51.7847 413.24C51.7847 370.729 75.6348 281.879 105.028 281.879C134.42 281.879 158.271 370.729 158.271 413.24Z" fill="#92E3A9"/>
<path d="M123.033 432.538L114.232 433.143L137.175 417.674L120.782 425.954L123.033 419.488L115.542 428.608L106.758 433.042L106.069 402.524L110.721 391.237L105.951 397.586L105.548 379.883L120.144 360.433L105.447 375.466L104.557 336.516L103.768 361.441L94.4126 351.011L103.617 366.245L102.374 405.732L94.2278 400.408L86.804 387.24L89.7769 397.502L75.2148 387.962L102.206 411.241L98.1077 540.872H109.227L106.875 438.098L109.445 436.368L123.033 432.538Z" fill="#263238"/>
<path d="M282.779 583.953C282.779 583.953 265.798 566.368 270.568 566.905C275.338 567.443 284.257 580.577 284.257 580.577C284.257 580.577 284.374 551.588 288.607 557.936C292.839 564.285 287.633 580.695 287.633 580.695C287.633 580.695 299.743 561.816 299.726 564.89C299.726 574.447 290.387 581.904 290.387 581.904C290.387 581.904 309.787 567.544 306.612 573.372C303.438 579.2 291.026 584.776 291.026 584.776C291.026 584.776 313.381 580.275 305.436 583.449C297.492 586.624 289.934 588.807 289.934 588.807H283.803C283.803 588.807 262.691 578.226 270.635 579.805C274.882 580.519 278.983 581.92 282.779 583.953Z" fill="#263238"/>
<path d="M372.822 622.5C372.822 622.5 355.841 604.915 360.611 605.452C365.381 605.989 374.3 619.124 374.3 619.124C374.3 619.124 374.417 590.134 378.65 596.483C382.882 602.832 377.676 619.241 377.676 619.241C377.676 619.241 389.785 600.363 389.769 603.453C389.685 612.993 380.43 620.451 380.43 620.451C380.43 620.451 399.829 606.09 396.655 611.918C393.481 617.747 381.22 623.239 381.22 623.239C381.22 623.239 403.575 618.738 395.63 621.912C387.686 625.086 380.128 627.27 380.128 627.27H373.964C373.964 627.27 352.851 616.689 360.796 618.267C365.006 619.02 369.067 620.45 372.822 622.5Z" fill="#263238"/>
<path d="M614.582 596.617C614.582 596.617 602.338 583.937 605.781 584.323C609.224 584.709 615.64 594.182 615.64 594.182C615.64 594.182 615.741 573.271 618.797 577.856C621.854 582.442 618.092 594.283 618.092 594.283C618.092 594.283 626.826 580.644 626.809 582.878C626.809 589.765 620.091 595.139 620.091 595.139C620.091 595.139 634.082 584.776 631.848 588.992C629.614 593.208 620.612 597.155 620.612 597.155C620.612 597.155 636.736 593.896 630.991 596.197C625.247 598.498 619.822 600.061 619.822 600.061H615.371C615.371 600.061 600.137 592.418 605.865 593.561C608.916 594.105 611.859 595.137 614.582 596.617Z" fill="#263238"/>
<path d="M1090.01 566.301C1090.01 566.301 1080.48 556.425 1083.15 556.727C1085.82 557.03 1090.83 564.403 1090.83 564.403C1090.83 564.403 1090.83 548.128 1093.28 551.688C1095.73 555.249 1092.73 564.47 1092.73 564.47C1092.73 564.47 1099.45 553.872 1099.45 555.602C1099.45 560.96 1094.21 565.142 1094.21 565.142C1094.21 565.142 1105.09 557.08 1103.31 560.355C1101.53 563.63 1094.57 566.704 1094.57 566.704C1094.57 566.704 1107.12 564.185 1102.65 565.965C1098.19 567.745 1093.95 568.971 1093.95 568.971H1090.51C1090.51 568.971 1078.65 563.026 1083.12 563.933C1085.53 564.335 1087.86 565.135 1090.01 566.301Z" fill="#263238"/>
<path d="M448.235 596.685C448.235 596.685 431.255 579.099 436.025 579.637C440.795 580.174 449.713 593.309 449.713 593.309C449.713 593.309 449.831 564.319 454.063 570.668C458.296 577.017 453.106 593.443 453.106 593.443C453.106 593.443 465.216 574.548 465.182 577.638C465.098 587.178 455.86 594.635 455.86 594.635C455.86 594.635 475.243 580.275 472.069 586.103C468.894 591.931 456.499 597.424 456.499 597.424C456.499 597.424 478.837 592.922 470.893 596.097C462.948 599.271 455.407 601.455 455.407 601.455H449.226C449.226 601.455 428.114 590.873 436.058 592.452C440.321 593.189 444.434 594.619 448.235 596.685Z" fill="#92E3A9"/>
<path d="M325.793 585.011C325.793 585.011 314.405 573.254 317.613 573.557C320.821 573.859 326.784 582.744 326.784 582.744C326.784 582.744 326.784 563.294 329.706 567.628C332.629 571.961 329.051 582.895 329.051 582.895C329.051 582.895 337.181 570.214 337.164 572.297C337.164 578.696 330.899 583.701 330.899 583.701C330.899 583.701 343.899 574.061 341.766 577.974C339.633 581.887 331.336 585.566 331.336 585.566C331.336 585.566 346.318 582.542 340.993 584.675C335.669 586.809 330.597 588.27 330.597 588.27H326.465C326.465 588.27 312.306 581.165 317.63 582.24C320.485 582.707 323.244 583.644 325.793 585.011Z" fill="#92E3A9"/>
<path d="M183.465 631.603C183.465 631.603 172.077 619.846 175.285 620.165C178.493 620.484 184.456 629.336 184.456 629.336C184.456 629.336 184.54 609.886 187.378 614.22C190.217 618.553 186.723 629.487 186.723 629.487C186.723 629.487 194.785 616.688 194.785 618.822C194.785 625.221 188.52 630.226 188.52 630.226C188.52 630.226 201.52 620.585 199.404 624.499C197.288 628.412 188.957 632.09 188.957 632.09C188.957 632.09 203.939 629.067 198.615 631.2C193.29 633.333 188.218 634.794 188.218 634.794H184.086C184.086 634.794 169.927 627.69 175.251 628.765C178.128 629.247 180.904 630.207 183.465 631.603Z" fill="#92E3A9"/>
<path d="M564.295 633.888C564.295 633.888 552.907 622.13 556.098 622.45C559.29 622.769 565.286 631.62 565.286 631.62C565.286 631.62 565.37 612.17 568.208 616.504C571.047 620.837 567.553 631.771 567.553 631.771C567.553 631.771 575.682 619.107 575.649 621.173C575.649 627.572 569.401 632.577 569.401 632.577C569.401 632.577 582.401 622.937 580.268 626.85C578.135 630.764 569.821 634.442 569.821 634.442C569.821 634.442 584.819 631.419 579.495 633.552C574.171 635.685 569.098 637.146 569.098 637.146H564.95C564.95 637.146 550.808 630.041 556.132 631.116C558.987 631.583 561.745 632.52 564.295 633.888Z" fill="#92E3A9"/>
<path d="M749.05 634.492C749.05 634.492 737.679 622.735 740.87 623.054C744.061 623.373 750.041 632.241 750.041 632.241C750.041 632.241 750.125 612.792 752.963 617.125C755.802 621.459 752.308 632.376 752.308 632.376C752.308 632.376 760.437 619.712 760.421 621.778C760.421 628.194 754.156 633.199 754.156 633.199C754.156 633.199 767.156 623.558 765.039 627.471C762.923 631.385 754.592 635.063 754.592 635.063C754.592 635.063 769.574 632.04 764.25 634.173C758.926 636.306 753.853 637.767 753.853 637.767H749.722C749.722 637.767 735.563 630.663 740.887 631.721C743.74 632.197 746.497 633.133 749.05 634.492Z" fill="#92E3A9"/>
<path d="M1092.48 597.592C1092.48 597.592 1075.14 579.637 1080.01 580.174C1084.88 580.712 1093.97 594.148 1093.97 594.148C1093.97 594.148 1094.1 564.537 1098.42 571.037C1102.74 577.537 1097.43 594.283 1097.43 594.283C1097.43 594.283 1109.81 574.984 1109.78 578.142C1109.78 587.884 1100.25 595.509 1100.25 595.509C1100.25 595.509 1120.04 580.846 1116.8 586.792C1113.55 592.738 1100.91 598.347 1100.91 598.347C1100.91 598.347 1123.72 593.745 1115.6 596.987C1107.49 600.229 1099.78 602.462 1099.78 602.462H1093.48C1093.48 602.462 1071.93 591.646 1080.05 593.275C1084.4 594.031 1088.59 595.489 1092.48 597.592Z" fill="#92E3A9"/>
<path d="M59.6452 597.592C59.6452 597.592 42.3119 579.637 47.1659 580.174C52.0199 580.712 61.1401 594.148 61.1401 594.148C61.1401 594.148 61.2744 564.537 65.591 571.037C69.9075 577.537 64.6 594.283 64.6 594.283C64.6 594.283 76.9618 574.984 76.945 578.142C76.945 587.884 67.4217 595.509 67.4217 595.509C67.4217 595.509 87.2913 580.846 83.9321 586.792C80.5729 592.738 68.0264 598.347 68.0264 598.347C68.0264 598.347 90.852 593.745 82.7396 596.987C74.6272 600.229 66.9179 602.462 66.9179 602.462H60.653C60.653 602.462 39.1038 591.646 47.2163 593.275C51.5657 594.031 55.7635 595.489 59.6452 597.592Z" fill="#92E3A9"/>
<path d="M145.153 572.247C145.153 572.247 127.417 541.644 132.472 539.293C137.528 536.942 147.992 560.204 147.992 560.204C147.992 560.204 145.959 516.35 150.679 520.398C155.399 524.445 159.782 555.484 159.782 555.484C159.782 555.484 169.238 521.741 172.278 528.829C175.319 535.917 169.843 557.382 169.843 557.382C169.843 557.382 183.397 531.567 184.758 539.998C186.118 548.43 178.342 562.253 178.342 562.253C178.342 562.253 196.213 544.382 197.573 551.47C198.934 558.558 192.853 565.629 192.853 565.629C192.853 565.629 216.452 552.814 210.724 559.902C204.997 566.989 196.565 576.093 196.565 576.093C196.565 576.093 219.156 567.997 216.452 572.734C213.747 577.47 203.636 582.509 203.636 582.509C203.636 582.509 222.112 579.15 220.164 582.173C218.275 584.542 216.004 586.58 213.445 588.203H129.466C129.466 588.203 107.211 580.157 116.029 579.486C121.783 579.229 127.522 580.262 132.825 582.509C132.825 582.509 105.498 564.033 118.313 562.622C131.128 561.212 141.592 577.453 141.592 577.453C141.592 577.453 123.386 551.823 129.835 555.87L145.153 572.247Z" fill="#92E3A9"/>
<path d="M146.295 580.947C146.295 580.947 123.386 557.214 129.818 557.936C136.251 558.659 148.294 576.412 148.294 576.412C148.294 576.412 148.462 537.294 154.173 545.86C159.883 554.426 152.795 576.546 152.795 576.546C152.795 576.546 169.138 551.067 169.104 555.232C168.986 568.115 156.507 578.175 156.507 578.175C156.507 578.175 182.675 558.81 178.342 566.654C174.008 574.497 157.33 581.938 157.33 581.938C157.33 581.938 187.563 575.858 176.78 580.141C165.997 584.424 155.869 587.38 155.869 587.38H147.471C147.471 587.38 118.918 573.086 129.718 575.236C135.522 576.208 141.124 578.138 146.295 580.947Z" fill="#263238" stroke="#263238" stroke-width="1.72309"/>
<path d="M900.549 626.061C900.549 626.061 866.957 568.249 876.581 563.781C886.205 559.314 905.924 603.252 905.924 603.252C905.924 603.252 902.094 520.381 910.962 528.023C919.83 535.665 928.178 594.333 928.178 594.333C928.178 594.333 946.032 530.509 951.776 543.945C957.521 557.382 947.241 597.911 947.241 597.911C947.241 597.911 972.872 549.119 975.425 565.058C977.978 580.997 963.315 607.132 963.315 607.132C963.315 607.132 997.108 573.338 999.661 586.725C1002.21 600.111 990.726 613.514 990.726 613.514C990.726 613.514 1035.35 589.278 1024.52 602.664C1013.69 616.05 997.747 633.283 997.747 633.283C997.747 633.283 1040.46 617.965 1035.35 626.9C1030.25 635.836 1011.13 645.376 1011.13 645.376C1011.13 645.376 1046.2 638.993 1042.37 644.738C1038.54 650.482 1029.64 656.109 1029.64 656.109H870.854C870.854 656.109 828.763 640.908 845.341 639.632C861.918 638.355 877.253 645.376 877.253 645.376C877.253 645.376 825.622 610.306 849.842 607.753C874.062 605.2 893.83 635.802 893.83 635.802C893.83 635.802 859.399 587.346 871.525 595.005L900.549 626.061Z" fill="#92E3A9"/>
<path d="M902.715 642.521C902.715 642.521 859.416 597.659 871.66 599.002C883.904 600.346 906.545 633.904 906.545 633.904C906.545 633.904 906.864 560.002 917.664 576.16C928.464 592.318 915.195 634.207 915.195 634.207C915.195 634.207 946.066 586.036 945.999 593.896C945.78 618.234 922.216 637.263 922.216 637.263C922.216 637.263 971.646 600.648 963.55 615.429C955.455 630.209 923.727 644.402 923.727 644.402C923.727 644.402 980.716 632.897 960.46 641.043C940.204 649.189 920.939 654.714 920.939 654.714H905.252C905.252 654.714 851.505 627.707 871.66 631.754C891.815 635.802 902.715 642.521 902.715 642.521Z" fill="#263238" stroke="#263238" stroke-width="1.72309"/>
<path d="M202.931 573.977C202.931 573.977 206.29 570.869 209.297 570.869C212.303 570.869 221.222 575.186 221.222 575.186C221.222 575.186 224.816 580.728 225.135 581.064C225.454 581.4 229.872 583.281 230.174 584.054C230.476 584.827 231.148 587.413 231.148 587.413H203.737L198.698 574.111L202.931 573.977Z" fill="white" stroke="#263238" stroke-width="1.72309"/>
<path d="M209.297 570.869L209.129 573.489C209.129 573.489 216.149 577.571 215.998 579.049C215.592 580.727 215.03 582.363 214.319 583.936L217.913 587.699H198.85L200.311 576.429C200.311 576.429 204.392 570.55 209.297 570.869Z" fill="#263238"/>
<path d="M167.156 572.347C167.156 572.347 180.878 551.755 183.952 551.436C188.787 551.569 193.271 553.995 196.028 557.97C198.063 562.165 199.705 566.539 200.932 571.037C201.1 571.524 201.755 571.86 205.501 577.89C209.246 583.92 209.095 587.38 209.095 587.38H156.037C156.666 584.414 157.712 581.553 159.144 578.881C160.798 576.788 163.094 575.295 165.678 574.632L167.156 572.347Z" fill="white" stroke="#263238" stroke-width="1.72309"/>
<path d="M188.218 587.044C188.218 587.044 186.757 583.449 186.538 582.962C186.32 582.475 186.37 577.739 185.883 575.774C184.608 572.969 183.079 570.287 181.315 567.762L184.254 559.28L182.776 558.138L185.228 552.091L183.868 551.453C180.643 552.024 167.072 572.347 167.072 572.347L165.594 574.632C163.01 575.295 160.714 576.788 159.06 578.881C157.665 581.442 156.647 584.192 156.037 587.044H188.218Z" fill="#263238"/>
<path d="M731.985 579.099C733.096 578.07 734.487 577.392 735.982 577.151C737.83 577.151 743.457 579.855 743.457 579.855C743.457 579.855 745.707 583.332 745.909 583.533C746.11 583.735 748.882 584.927 749.083 585.414C749.285 585.902 749.705 587.497 749.705 587.497H732.489L729.314 579.099L731.985 579.099Z" fill="white" stroke="#263238" stroke-width="1.72309"/>
<path d="M735.982 577.151L735.882 578.831C735.882 578.831 740.282 581.4 740.181 582.324C739.938 583.379 739.595 584.408 739.157 585.398L741.408 587.749H729.415L730.339 580.678C730.339 580.678 732.909 576.949 735.982 577.151Z" fill="#263238"/>
<path d="M709.546 578.058C709.546 578.058 718.162 565.142 720.11 564.94C723.14 565.035 725.948 566.554 727.685 569.039C728.958 571.671 729.986 574.415 730.759 577.235C730.86 577.537 731.263 577.755 733.631 581.535C734.913 583.272 735.692 585.329 735.882 587.48L702.592 587.48C702.982 585.621 703.638 583.828 704.54 582.156C705.578 580.842 707.017 579.904 708.638 579.486L709.546 578.058Z" fill="white" stroke="#263238" stroke-width="1.72309"/>
<path d="M722.764 587.296C722.764 587.296 721.84 585.028 721.74 584.726C721.639 584.424 721.639 581.367 721.336 580.225C720.529 578.464 719.568 576.777 718.464 575.186L720.312 569.861L719.388 569.139L720.917 565.36L720.06 564.957C718.044 565.31 709.546 578.058 709.546 578.058L708.639 579.486C707.017 579.904 705.578 580.842 704.541 582.156C703.661 583.762 703.022 585.488 702.643 587.279L722.764 587.296Z" fill="#263238"/>
<path d="M1009.76 629.336C1009.76 629.336 1016.24 623.474 1021.8 623.474C1027.36 623.474 1044.34 631.637 1044.34 631.637C1044.34 631.637 1051.14 642.101 1051.75 642.739C1052.35 643.377 1060.7 646.921 1061.32 648.382C1061.94 649.844 1063.17 654.664 1063.17 654.664H1011.3L1001.73 629.554L1009.76 629.336Z" fill="white" stroke="#263238" stroke-width="1.72309"/>
<path d="M1021.8 623.407L1021.5 628.345C1021.5 628.345 1034.76 636.071 1034.46 638.842C1033.72 642.022 1032.69 645.126 1031.37 648.114L1038.09 655.218H1001.98L1004.75 633.904C1004.75 633.904 1012.54 622.869 1021.8 623.407Z" fill="#263238"/>
<path d="M942.202 626.262C942.202 626.262 968.152 587.363 974.014 586.741C979.875 586.12 992.221 591.058 996.856 599.086C1001.49 607.115 1005.81 622.869 1006.13 623.793C1006.45 624.717 1007.67 625.338 1014.76 636.76C1021.85 648.181 1021.56 654.664 1021.56 654.664H921.14C921.14 654.664 923.307 644.469 927.019 638.607C930.731 632.745 939.364 630.579 939.364 630.579L942.202 626.262Z" fill="white" stroke="#263238" stroke-width="1.72309"/>
<path d="M981.975 654.043C981.975 654.043 979.187 647.324 978.885 646.333C978.582 645.342 978.582 636.44 977.642 632.745C976.701 629.05 969.009 617.629 969.009 617.629L974.568 601.572L971.78 599.406L976.416 587.984L973.829 586.792C967.749 587.884 942.135 626.279 942.135 626.279L939.364 630.596C939.364 630.596 930.714 632.762 927.019 638.624C923.845 643.663 921.812 651.792 921.292 654.059L981.975 654.043Z" fill="#263238"/>
</svg>
