<svg width="74" height="74" viewBox="0 0 74 74" fill="none" xmlns="http://www.w3.org/2000/svg">
<path d="M2.5 18.3054C2.5 47.4015 26.0887 70.9902 55.1848 70.9902H63.0875C67.4521 70.9902 70.9902 67.4521 70.9902 63.0875V58.2686C70.9902 56.4562 69.7574 54.8757 67.9977 54.4367L52.4627 50.552C50.9173 50.1657 49.2946 50.7452 48.3428 52.0167L44.9358 56.5581C43.9454 57.8787 42.2349 58.4618 40.6859 57.8928C29.0483 53.6143 19.8759 44.442 15.5974 32.8043C15.0284 31.2554 15.6115 29.5449 16.9321 28.5544L21.4735 25.1474C22.7485 24.1956 23.3245 22.5694 22.9382 21.0275L19.0536 5.4925C18.6137 3.73421 17.0341 2.5006 15.2216 2.5H10.4027C6.03817 2.5 2.5 6.03817 2.5 10.4027V18.3054Z" stroke="#158B68" stroke-width="5" stroke-linecap="round" stroke-linejoin="round"/>
</svg>
