<svg width="43" height="43" viewBox="0 0 43 43" fill="none" xmlns="http://www.w3.org/2000/svg">
<path d="M27.6606 20.0556L30.7394 23.1343L32.2788 21.5949V14.9408L36.9503 13.6887C39.8358 12.9144 41.7492 10.1805 41.4885 7.20424C41.2277 4.22801 38.8681 1.86839 35.8919 1.60764C32.9156 1.3469 30.1816 3.26026 29.4073 6.14581L28.1553 10.8193H21.5031L19.9638 12.3587L23.0425 15.4375M27.6606 20.0556L10.2759 37.4402C9.57808 38.1381 8.63393 38.528 7.64873 38.528C6.66352 38.528 5.71937 38.918 5.02152 39.6159L3.03059 41.6068L1.49121 40.0674L3.48214 38.0765C4.17999 37.3786 4.56997 36.4345 4.56997 35.4493C4.56997 34.4641 4.95994 33.5199 5.6578 32.8221L23.0425 15.4375M27.6606 20.0556L23.0425 15.4375" stroke="#158B68" stroke-width="2.5" stroke-linecap="round" stroke-linejoin="round"/>
</svg>
