<svg width="33" height="38" viewBox="0 0 33 38" fill="none" xmlns="http://www.w3.org/2000/svg">
<path d="M21.1682 13.5433L20.5472 29.6965M11.9537 29.6965L11.3327 13.5433M31.0576 8.07996C30.4473 7.97406 29.8371 7.87535 29.2233 7.78202C27.1519 7.46886 25.0697 7.23119 22.981 7.06949M29.2233 7.78381L27.3064 32.6992C27.1442 34.8033 25.3892 36.4277 23.2789 36.427H9.22202C7.11171 36.4277 5.35675 34.8033 5.19449 32.6992L3.27764 7.78202M3.27764 7.78202C2.66382 7.87355 2.05359 7.97227 1.44336 8.07816M3.27764 7.78202C5.3491 7.46886 7.43125 7.2312 9.51997 7.06949M22.981 7.06949L22.981 5.42545C22.981 3.30758 21.3477 1.5415 19.2298 1.47509C17.2441 1.41162 15.2568 1.41162 13.2711 1.47509C11.1532 1.5415 9.51996 3.30938 9.51996 5.42545L9.51997 7.06949M22.981 7.06949C18.5007 6.72323 14.0003 6.72323 9.51997 7.06949" stroke="#22445D" stroke-width="2.5" stroke-linecap="round" stroke-linejoin="round"/>
</svg>
