<svg width="35" height="38" viewBox="0 0 35 38" fill="none" xmlns="http://www.w3.org/2000/svg">
<path d="M24.0467 16.2327V8.19667C24.0467 4.4982 21.0485 1.5 17.35 1.5C13.6515 1.5 10.6533 4.4982 10.6533 8.19667L10.6533 16.2327M30.9327 12.6736L33.1882 34.1029C33.3132 35.2905 32.3846 36.3227 31.1899 36.3227H3.51019C2.94032 36.3233 2.397 36.0818 2.01553 35.6585C1.63406 35.2351 1.45034 34.6697 1.51011 34.1029L3.76735 12.6736C3.87518 11.6512 4.73753 10.8751 5.76564 10.8753H28.9344C29.963 10.8753 30.8256 11.6521 30.9327 12.6736ZM11.323 16.2327C11.323 16.6025 11.0232 16.9023 10.6533 16.9023C10.2835 16.9023 9.98367 16.6025 9.98367 16.2327C9.98367 15.8628 10.2835 15.563 10.6533 15.563C11.0232 15.563 11.323 15.8628 11.323 16.2327ZM24.7164 16.2327C24.7164 16.6025 24.4166 16.9023 24.0467 16.9023C23.6769 16.9023 23.3771 16.6025 23.3771 16.2327C23.3771 15.8628 23.6769 15.563 24.0467 15.563C24.4166 15.563 24.7164 15.8628 24.7164 16.2327Z" stroke="white" stroke-width="2.5" stroke-linecap="round" stroke-linejoin="round"/>
</svg>
